                                                                        S      1
,,57H2 Hole Joining Strip Plate 2 Hole Joining Strip Plate.ipt,27HNo IgeG      1
s File Name specified,22HAutodesk Inventor 2013,37HAutoDesk Inventor IgeG      2
s Exporter R2013,32,38,6,99,15,57H2 Hole Joining Strip Plate 2 Hole JoinG      3
ing Strip Plate.ipt,1.0D0,2,2HMM,1,.08D0,15H20140422.180335,.01D0,      G      4
10000.0D0,4HWork,,11,0,,;                                               G      5
     406       1       0       0       1       0       0       000000000D      1
     406       0       0       1       3                               0D      2
     120       2       0       0       0       0       0       000010000D      3
     120       0       0       1       0                               0D      4
     110       3       0       0       0       0       0       000010000D      5
     110       0       0       1       0                               0D      6
     110       4       0       0       0       0       0       001010000D      7
     110       0       0       2       0                               0D      8
     504       6       0       0       0       0       0       000010001D      9
     504       0       0       4       1                               0D     10
     502      10       0       0       0       0       0       000010000D     11
     502       0       0       5       1                               0D     12
     100      15       0       0       0       0      15       000010000D     13
     100       0       0       2       0                               0D     14
     124      17       0       0       0       0       0       000000000D     15
     124       0       0       2       0                               0D     16
     508      19       0       0       0       0       0       000010000D     17
     508       0       0       1       1                               0D     18
     100      20       0       0       0       0      21       000010000D     19
     100       0       0       2       0                               0D     20
     124      22       0       0       0       0       0       000000000D     21
     124       0       0       2       0                               0D     22
     508      24       0       0       0       0       0       000010000D     23
     508       0       0       1       1                               0D     24
     510      25       0       0       0       0       0       000010000D     25
     510       0    -155       1       1                               0D     26
     120      26       0       0       0       0       0       000010000D     27
     120       0       0       1       0                               0D     28
     110      27       0       0       0       0       0       000010000D     29
     110       0       0       1       0                               0D     30
     110      28       0       0       0       0       0       001010000D     31
     110       0       0       2       0                               0D     32
     100      30       0       0       0       0      35       000010000D     33
     100       0       0       2       0                               0D     34
     124      32       0       0       0       0       0       000000000D     35
     124       0       0       2       0                               0D     36
     508      34       0       0       0       0       0       000010000D     37
     508       0       0       1       1                               0D     38
     100      35       0       0       0       0      41       000010000D     39
     100       0       0       2       0                               0D     40
     124      37       0       0       0       0       0       000000000D     41
     124       0       0       2       0                               0D     42
     508      39       0       0       0       0       0       000010000D     43
     508       0       0       1       1                               0D     44
     510      40       0       0       0       0       0       000010000D     45
     510       0    -155       1       1                               0D     46
     116      41       0       0       0       0       0       000010000D     47
     116       0       0       1       0                               0D     48
     123      42       0       0       0       0       0       000010200D     49
     123       0       0       1       0                               0D     50
     190      43       0       0       0       0       0       000010000D     51
     190       0       0       1       1                               0D     52
     123      44       0       0       0       0       0       000010200D     53
     123       0       0       1       0                               0D     54
     110      45       0       0       0       0       0       000010000D     55
     110       0       0       1       0                               0D     56
     110      46       0       0       0       0       0       000010000D     57
     110       0       0       1       0                               0D     58
     110      47       0       0       0       0       0       000010000D     59
     110       0       0       1       0                               0D     60
     110      48       0       0       0       0       0       000010000D     61
     110       0       0       1       0                               0D     62
     508      49       0       0       0       0       0       000010000D     63
     508       0       0       1       1                               0D     64
     510      50       0       0       0       0       0       000010000D     65
     510       0    -155       1       1                               0D     66
     116      51       0       0       0       0       0       000010000D     67
     116       0       0       1       0                               0D     68
     123      52       0       0       0       0       0       000010200D     69
     123       0       0       1       0                               0D     70
     190      53       0       0       0       0       0       000010000D     71
     190       0       0       1       1                               0D     72
     123      54       0       0       0       0       0       000010200D     73
     123       0       0       1       0                               0D     74
     110      55       0       0       0       0       0       000010000D     75
     110       0       0       1       0                               0D     76
     110      56       0       0       0       0       0       000010000D     77
     110       0       0       1       0                               0D     78
     110      57       0       0       0       0       0       000010000D     79
     110       0       0       1       0                               0D     80
     508      58       0       0       0       0       0       000010000D     81
     508       0       0       1       1                               0D     82
     510      59       0       0       0       0       0       000010000D     83
     510       0    -155       1       1                               0D     84
     116      60       0       0       0       0       0       000010000D     85
     116       0       0       1       0                               0D     86
     123      61       0       0       0       0       0       000010200D     87
     123       0       0       1       0                               0D     88
     190      62       0       0       0       0       0       000010000D     89
     190       0       0       1       1                               0D     90
     123      63       0       0       0       0       0       000010200D     91
     123       0       0       1       0                               0D     92
     110      64       0       0       0       0       0       000010000D     93
     110       0       0       1       0                               0D     94
     110      65       0       0       0       0       0       000010000D     95
     110       0       0       1       0                               0D     96
     110      66       0       0       0       0       0       000010000D     97
     110       0       0       2       0                               0D     98
     508      68       0       0       0       0       0       000010000D     99
     508       0       0       1       1                               0D    100
     510      69       0       0       0       0       0       000010000D    101
     510       0    -155       1       1                               0D    102
     116      70       0       0       0       0       0       000010000D    103
     116       0       0       1       0                               0D    104
     123      71       0       0       0       0       0       000010200D    105
     123       0       0       1       0                               0D    106
     190      72       0       0       0       0       0       000010000D    107
     190       0       0       1       1                               0D    108
     123      73       0       0       0       0       0       000010200D    109
     123       0       0       1       0                               0D    110
     110      74       0       0       0       0       0       000010000D    111
     110       0       0       1       0                               0D    112
     110      75       0       0       0       0       0       000010000D    113
     110       0       0       1       0                               0D    114
     508      76       0       0       0       0       0       000010000D    115
     508       0       0       1       1                               0D    116
     510      77       0       0       0       0       0       000010000D    117
     510       0    -155       1       1                               0D    118
     116      78       0       0       0       0       0       000010000D    119
     116       0       0       1       0                               0D    120
     123      79       0       0       0       0       0       000010200D    121
     123       0       0       1       0                               0D    122
     190      80       0       0       0       0       0       000010000D    123
     190       0       0       1       1                               0D    124
     123      81       0       0       0       0       0       000010200D    125
     123       0       0       1       0                               0D    126
     508      82       0       0       0       0       0       000010000D    127
     508       0       0       1       1                               0D    128
     508      83       0       0       0       0       0       000010000D    129
     508       0       0       1       1                               0D    130
     508      84       0       0       0       0       0       000010000D    131
     508       0       0       1       1                               0D    132
     510      85       0       0       0       0       0       000010000D    133
     510       0    -155       1       1                               0D    134
     116      86       0       0       0       0       0       000010000D    135
     116       0       0       1       0                               0D    136
     123      87       0       0       0       0       0       000010200D    137
     123       0       0       1       0                               0D    138
     190      88       0       0       0       0       0       000010000D    139
     190       0       0       1       1                               0D    140
     123      89       0       0       0       0       0       000010200D    141
     123       0       0       1       0                               0D    142
     508      90       0       0       0       0       0       000010000D    143
     508       0       0       1       1                               0D    144
     508      91       0       0       0       0       0       000010000D    145
     508       0       0       1       1                               0D    146
     508      92       0       0       0       0       0       000010000D    147
     508       0       0       1       1                               0D    148
     510      93       0       0       0       0       0       000010000D    149
     510       0    -155       1       1                               0D    150
     514      94       0       0       0       0       0       000010000D    151
     514       0       0       1       1                               0D    152
     186      95       0       0       1       0       0       000000000D    153
     186       0       0       1       0                  Solid1       0D    154
     314      96       0       0       0       0       0       000000000D    155
     314       0       8       1       0                               0D    156
406,2,0,26H2 Hole Joining Strip Plate;                                 1P      1
120,7,5,0.0D0,6.28318530717959D0;                                      3P      2
110,-2.65D0,-10.0D0,-.2D0,-2.65D0,-10.0D0,4.2D0;                       5P      3
110,1.11022302462516D-15,-10.0D0,-.2D0,1.11022302462516D-15,           7P      4
-10.0D0,.8D0;                                                          7P      5
504,16,13,11,1,11,1,19,11,2,11,2,33,11,3,11,3,39,11,4,11,4,55,         9P      6
11,5,11,6,57,11,5,11,7,59,11,8,11,7,61,11,6,11,8,75,11,6,11,9,         9P      7
77,11,10,11,8,79,11,9,11,10,93,11,9,11,11,95,11,12,11,10,97,11,        9P      8
11,11,12,111,11,11,11,5,113,11,7,11,12;                                9P      9
502,12,2.65D0,-10.0D0,4.0D0,2.65D0,-10.0D0,0.0D0,2.65D0,10.0D0,       11P     10
4.0D0,2.65D0,10.0D0,0.0D0,9.0D0,20.0D0,0.0D0,9.0D0,-20.0D0,           11P     11
0.0D0,9.0D0,20.0D0,4.0D0,9.0D0,-20.0D0,4.0D0,-9.0D0,-20.0D0,          11P     12
0.0D0,-9.0D0,-20.0D0,4.0D0,-9.00000000000001D0,20.0D0,0.0D0,          11P     13
-9.00000000000001D0,20.0D0,4.0D0;                                     11P     14
100,0.0D0,0.0D0,0.0D0,-2.65D0,3.24531401774049D-16,-2.65D0,           13P     15
3.24531401774049D-16;                                                 13P     16
124,-1.0D0,0.0D0,0.0D0,1.11022302462516D-15,0.0D0,1.0D0,0.0D0,        15P     17
-10.0D0,0.0D0,0.0D0,-1.0D0,4.0D0;                                     15P     18
508,1,0,9,1,0,0;                                                      17P     19
100,0.0D0,0.0D0,0.0D0,-2.65D0,3.24531401774049D-16,-2.65D0,           19P     20
3.24531401774049D-16;                                                 19P     21
124,-1.0D0,0.0D0,0.0D0,1.11022302462516D-15,0.0D0,-1.0D0,0.0D0,       21P     22
-10.0D0,0.0D0,0.0D0,1.0D0,0.0D0;                                      21P     23
508,1,0,9,2,0,0;                                                      23P     24
510,3,2,1,17,23;                                                      25P     25
120,31,29,0.0D0,6.28318530717959D0;                                   27P     26
110,-2.65D0,10.0D0,-.2D0,-2.65D0,10.0D0,4.2D0;                        29P     27
110,1.11022302462516D-15,10.0D0,-.2D0,1.11022302462516D-15,           31P     28
10.0D0,.8D0;                                                          31P     29
100,0.0D0,0.0D0,0.0D0,-2.65D0,3.24531401774049D-16,-2.65D0,           33P     30
3.24531401774049D-16;                                                 33P     31
124,-1.0D0,0.0D0,0.0D0,1.11022302462516D-15,0.0D0,1.0D0,0.0D0,        35P     32
10.0D0,0.0D0,0.0D0,-1.0D0,4.0D0;                                      35P     33
508,1,0,9,3,0,0;                                                      37P     34
100,0.0D0,0.0D0,0.0D0,-2.65D0,3.24531401774049D-16,-2.65D0,           39P     35
3.24531401774049D-16;                                                 39P     36
124,-1.0D0,0.0D0,0.0D0,1.11022302462516D-15,0.0D0,-1.0D0,0.0D0,       41P     37
10.0D0,0.0D0,0.0D0,1.0D0,0.0D0;                                       41P     38
508,1,0,9,4,0,0;                                                      43P     39
510,27,2,1,37,43;                                                     45P     40
116,9.0D0,-20.0D0,0.0D0,0;                                            47P     41
123,1.0D0,0.0D0,0.0D0;                                                49P     42
190,47,49,53;                                                         51P     43
123,0.0D0,1.0D0,0.0D0;                                                53P     44
110,9.0D0,20.0D0,0.0D0,9.0D0,-20.0D0,0.0D0;                           55P     45
110,9.0D0,20.0D0,0.0D0,9.0D0,20.0D0,4.0D0;                            57P     46
110,9.0D0,-20.0D0,4.0D0,9.0D0,20.0D0,4.0D0;                           59P     47
110,9.0D0,-20.0D0,0.0D0,9.0D0,-20.0D0,4.0D0;                          61P     48
508,4,0,9,5,0,0,0,9,6,1,0,0,9,7,0,0,0,9,8,0,0;                        63P     49
510,51,1,1,63;                                                        65P     50
116,-9.0D0,-20.0D0,0.0D0,0;                                           67P     51
123,0.0D0,-1.0D0,0.0D0;                                               69P     52
190,67,69,73;                                                         71P     53
123,1.0D0,0.0D0,0.0D0;                                                73P     54
110,9.0D0,-20.0D0,0.0D0,-9.0D0,-20.0D0,0.0D0;                         75P     55
110,-9.0D0,-20.0D0,4.0D0,9.0D0,-20.0D0,4.0D0;                         77P     56
110,-9.0D0,-20.0D0,0.0D0,-9.0D0,-20.0D0,4.0D0;                        79P     57
508,4,0,9,9,0,0,0,9,8,1,0,0,9,10,0,0,0,9,11,0,0;                      81P     58
510,71,1,1,81;                                                        83P     59
116,-9.00000000000001D0,20.0D0,0.0D0,0;                               85P     60
123,-1.0D0,0.0D0,0.0D0;                                               87P     61
190,85,87,91;                                                         89P     62
123,0.0D0,-1.0D0,0.0D0;                                               91P     63
110,-9.0D0,-20.0D0,0.0D0,-9.0D0,20.0D0,0.0D0;                         93P     64
110,-9.0D0,20.0D0,4.0D0,-9.0D0,-20.0D0,4.0D0;                         95P     65
110,-9.00000000000001D0,20.0D0,0.0D0,-9.00000000000001D0,20.0D0,      97P     66
4.0D0;                                                                97P     67
508,4,0,9,12,0,0,0,9,11,1,0,0,9,13,0,0,0,9,14,0,0;                    99P     68
510,89,1,1,99;                                                       101P     69
116,9.0D0,20.0D0,0.0D0,0;                                            103P     70
123,0.0D0,1.0D0,0.0D0;                                               105P     71
190,103,105,109;                                                     107P     72
123,-1.0D0,0.0D0,0.0D0;                                              109P     73
110,-9.00000000000001D0,20.0D0,0.0D0,9.0D0,20.0D0,0.0D0;             111P     74
110,9.0D0,20.0D0,4.0D0,-9.00000000000001D0,20.0D0,4.0D0;             113P     75
508,4,0,9,15,0,0,0,9,14,1,0,0,9,16,0,0,0,9,6,0,0;                    115P     76
510,107,1,1,115;                                                     117P     77
116,0.0D0,5.74253288599219D-16,4.0D0,0;                              119P     78
123,0.0D0,0.0D0,1.0D0;                                               121P     79
190,119,121,125;                                                     123P     80
123,1.0D0,0.0D0,0.0D0;                                               125P     81
508,4,0,9,16,1,0,0,9,13,1,0,0,9,10,1,0,0,9,7,1,0;                    127P     82
508,1,0,9,1,1,0;                                                     129P     83
508,1,0,9,3,1,0;                                                     131P     84
510,123,3,1,127,129,131;                                             133P     85
116,0.0D0,5.74253288599219D-16,0.0D0,0;                              135P     86
123,0.0D0,0.0D0,-1.0D0;                                              137P     87
190,135,137,141;                                                     139P     88
123,-1.0D0,0.0D0,0.0D0;                                              141P     89
508,4,0,9,15,1,0,0,9,5,1,0,0,9,9,1,0,0,9,12,1,0;                     143P     90
508,1,0,9,2,1,0;                                                     145P     91
508,1,0,9,4,1,0;                                                     147P     92
510,139,3,1,143,145,147;                                             149P     93
514,8,25,1,45,1,65,1,83,1,101,1,117,1,133,1,149,1;                   151P     94
186,151,1,0;                                                         153P     95
314,75.0D0,75.0D0,75.0D0,;                                           155P     96
S      1G      5D    156P     96                                        T      1
