                                                                        S      1
,,57H3 Hole Joining Strip Plate 3 Hole Joining Strip Plate.ipt,27HNo IgeG      1
s File Name specified,22HAutodesk Inventor 2013,37HAutoDesk Inventor IgeG      2
s Exporter R2013,32,38,6,99,15,57H3 Hole Joining Strip Plate 3 Hole JoinG      3
ing Strip Plate.ipt,1.0D0,2,2HMM,1,.08D0,15H20140422.180336,.01D0,      G      4
10000.0D0,4HWork,,11,0,,;                                               G      5
     406       1       0       0       1       0       0       000000000D      1
     406       0       0       1       3                               0D      2
     120       2       0       0       0       0       0       000010000D      3
     120       0       0       1       0                               0D      4
     110       3       0       0       0       0       0       000010000D      5
     110       0       0       1       0                               0D      6
     110       4       0       0       0       0       0       001010000D      7
     110       0       0       1       0                               0D      8
     504       5       0       0       0       0       0       000010001D      9
     504       0       0       5       1                               0D     10
     502      10       0       0       0       0       0       000010000D     11
     502       0       0       7       1                               0D     12
     100      17       0       0       0       0      15       000010000D     13
     100       0       0       2       0                               0D     14
     124      19       0       0       0       0       0       000000000D     15
     124       0       0       2       0                               0D     16
     508      21       0       0       0       0       0       000010000D     17
     508       0       0       1       1                               0D     18
     100      22       0       0       0       0      21       000010000D     19
     100       0       0       2       0                               0D     20
     124      24       0       0       0       0       0       000000000D     21
     124       0       0       2       0                               0D     22
     508      26       0       0       0       0       0       000010000D     23
     508       0       0       1       1                               0D     24
     510      27       0       0       0       0       0       000010000D     25
     510       0    -179       1       1                               0D     26
     120      28       0       0       0       0       0       000010000D     27
     120       0       0       1       0                               0D     28
     110      29       0       0       0       0       0       000010000D     29
     110       0       0       1       0                               0D     30
     110      30       0       0       0       0       0       001010000D     31
     110       0       0       1       0                               0D     32
     100      31       0       0       0       0      35       000010000D     33
     100       0       0       2       0                               0D     34
     124      33       0       0       0       0       0       000000000D     35
     124       0       0       2       0                               0D     36
     508      35       0       0       0       0       0       000010000D     37
     508       0       0       1       1                               0D     38
     100      36       0       0       0       0      41       000010000D     39
     100       0       0       2       0                               0D     40
     124      38       0       0       0       0       0       000000000D     41
     124       0       0       2       0                               0D     42
     508      40       0       0       0       0       0       000010000D     43
     508       0       0       1       1                               0D     44
     510      41       0       0       0       0       0       000010000D     45
     510       0    -179       1       1                               0D     46
     120      42       0       0       0       0       0       000010000D     47
     120       0       0       1       0                               0D     48
     110      43       0       0       0       0       0       000010000D     49
     110       0       0       1       0                               0D     50
     110      44       0       0       0       0       0       001010000D     51
     110       0       0       1       0                               0D     52
     100      45       0       0       0       0      55       000010000D     53
     100       0       0       2       0                               0D     54
     124      47       0       0       0       0       0       000000000D     55
     124       0       0       2       0                               0D     56
     508      49       0       0       0       0       0       000010000D     57
     508       0       0       1       1                               0D     58
     100      50       0       0       0       0      61       000010000D     59
     100       0       0       2       0                               0D     60
     124      52       0       0       0       0       0       000000000D     61
     124       0       0       2       0                               0D     62
     508      54       0       0       0       0       0       000010000D     63
     508       0       0       1       1                               0D     64
     510      55       0       0       0       0       0       000010000D     65
     510       0    -179       1       1                               0D     66
     116      56       0       0       0       0       0       000010000D     67
     116       0       0       1       0                               0D     68
     123      57       0       0       0       0       0       000010200D     69
     123       0       0       1       0                               0D     70
     190      58       0       0       0       0       0       000010000D     71
     190       0       0       1       1                               0D     72
     123      59       0       0       0       0       0       000010200D     73
     123       0       0       1       0                               0D     74
     110      60       0       0       0       0       0       000010000D     75
     110       0       0       1       0                               0D     76
     110      61       0       0       0       0       0       000010000D     77
     110       0       0       1       0                               0D     78
     110      62       0       0       0       0       0       000010000D     79
     110       0       0       1       0                               0D     80
     110      63       0       0       0       0       0       000010000D     81
     110       0       0       2       0                               0D     82
     508      65       0       0       0       0       0       000010000D     83
     508       0       0       1       1                               0D     84
     510      66       0       0       0       0       0       000010000D     85
     510       0    -179       1       1                               0D     86
     116      67       0       0       0       0       0       000010000D     87
     116       0       0       1       0                               0D     88
     123      68       0       0       0       0       0       000010200D     89
     123       0       0       1       0                               0D     90
     190      69       0       0       0       0       0       000010000D     91
     190       0       0       1       1                               0D     92
     123      70       0       0       0       0       0       000010200D     93
     123       0       0       1       0                               0D     94
     110      71       0       0       0       0       0       000010000D     95
     110       0       0       2       0                               0D     96
     110      73       0       0       0       0       0       000010000D     97
     110       0       0       2       0                               0D     98
     110      75       0       0       0       0       0       000010000D     99
     110       0       0       1       0                               0D    100
     508      76       0       0       0       0       0       000010000D    101
     508       0       0       1       1                               0D    102
     510      77       0       0       0       0       0       000010000D    103
     510       0    -179       1       1                               0D    104
     116      78       0       0       0       0       0       000010000D    105
     116       0       0       1       0                               0D    106
     123      79       0       0       0       0       0       000010200D    107
     123       0       0       1       0                               0D    108
     190      80       0       0       0       0       0       000010000D    109
     190       0       0       1       1                               0D    110
     123      81       0       0       0       0       0       000010200D    111
     123       0       0       1       0                               0D    112
     110      82       0       0       0       0       0       000010000D    113
     110       0       0       1       0                               0D    114
     110      83       0       0       0       0       0       000010000D    115
     110       0       0       1       0                               0D    116
     110      84       0       0       0       0       0       000010000D    117
     110       0       0       2       0                               0D    118
     508      86       0       0       0       0       0       000010000D    119
     508       0       0       1       1                               0D    120
     510      87       0       0       0       0       0       000010000D    121
     510       0    -179       1       1                               0D    122
     116      88       0       0       0       0       0       000010000D    123
     116       0       0       1       0                               0D    124
     123      89       0       0       0       0       0       000010200D    125
     123       0       0       1       0                               0D    126
     190      90       0       0       0       0       0       000010000D    127
     190       0       0       1       1                               0D    128
     123      91       0       0       0       0       0       000010200D    129
     123       0       0       1       0                               0D    130
     110      92       0       0       0       0       0       000010000D    131
     110       0       0       1       0                               0D    132
     110      93       0       0       0       0       0       000010000D    133
     110       0       0       1       0                               0D    134
     508      94       0       0       0       0       0       000010000D    135
     508       0       0       1       1                               0D    136
     510      95       0       0       0       0       0       000010000D    137
     510       0    -179       1       1                               0D    138
     116      96       0       0       0       0       0       000010000D    139
     116       0       0       1       0                               0D    140
     123      97       0       0       0       0       0       000010200D    141
     123       0       0       1       0                               0D    142
     190      98       0       0       0       0       0       000010000D    143
     190       0       0       1       1                               0D    144
     123      99       0       0       0       0       0       000010200D    145
     123       0       0       1       0                               0D    146
     508     100       0       0       0       0       0       000010000D    147
     508       0       0       1       1                               0D    148
     508     101       0       0       0       0       0       000010000D    149
     508       0       0       1       1                               0D    150
     508     102       0       0       0       0       0       000010000D    151
     508       0       0       1       1                               0D    152
     508     103       0       0       0       0       0       000010000D    153
     508       0       0       1       1                               0D    154
     510     104       0       0       0       0       0       000010000D    155
     510       0    -179       1       1                               0D    156
     116     105       0       0       0       0       0       000010000D    157
     116       0       0       1       0                               0D    158
     123     106       0       0       0       0       0       000010200D    159
     123       0       0       1       0                               0D    160
     190     107       0       0       0       0       0       000010000D    161
     190       0       0       1       1                               0D    162
     123     108       0       0       0       0       0       000010200D    163
     123       0       0       1       0                               0D    164
     508     109       0       0       0       0       0       000010000D    165
     508       0       0       1       1                               0D    166
     508     110       0       0       0       0       0       000010000D    167
     508       0       0       1       1                               0D    168
     508     111       0       0       0       0       0       000010000D    169
     508       0       0       1       1                               0D    170
     508     112       0       0       0       0       0       000010000D    171
     508       0       0       1       1                               0D    172
     510     113       0       0       0       0       0       000010000D    173
     510       0    -179       1       1                               0D    174
     514     114       0       0       0       0       0       000010000D    175
     514       0       0       1       1                               0D    176
     186     115       0       0       1       0       0       000000000D    177
     186       0       0       1       0                  Solid1       0D    178
     314     116       0       0       0       0       0       000000000D    179
     314       0       8       1       0                               0D    180
406,2,0,26H3 Hole Joining Strip Plate;                                 1P      1
120,7,5,0.0D0,6.28318530717959D0;                                      3P      2
110,-2.65D0,-20.0D0,-.2D0,-2.65D0,-20.0D0,4.2D0;                       5P      3
110,0.0D0,-20.0D0,-.2D0,0.0D0,-20.0D0,.8D0;                            7P      4
504,18,13,11,1,11,1,19,11,2,11,2,33,11,3,11,3,39,11,4,11,4,53,         9P      5
11,5,11,5,59,11,6,11,6,75,11,7,11,8,77,11,7,11,9,79,11,10,11,9,        9P      6
81,11,8,11,10,95,11,8,11,11,97,11,12,11,10,99,11,11,11,12,113,         9P      7
11,11,11,13,115,11,14,11,12,117,11,13,11,14,131,11,13,11,7,133,        9P      8
11,9,11,14;                                                            9P      9
502,14,2.65D0,-20.0D0,4.0D0,2.65D0,-20.0D0,0.0D0,2.65D0,20.0D0,       11P     10
4.0D0,2.65D0,20.0D0,0.0D0,2.65D0,3.24531401774049D-16,4.0D0,          11P     11
2.65D0,3.24531401774049D-16,0.0D0,9.0D0,30.0D0,0.0D0,                 11P     12
9.00000000000001D0,-30.0D0,0.0D0,9.0D0,30.0D0,4.0D0,9.0D0,            11P     13
-30.0D0,4.0D0,-9.0D0,-30.0D0,0.0D0,-9.0D0,-30.0D0,4.0D0,              11P     14
-9.00000000000001D0,30.0D0,0.0D0,-9.00000000000001D0,30.0D0,          11P     15
4.0D0;                                                                11P     16
100,0.0D0,0.0D0,0.0D0,-2.65D0,3.24531401774049D-16,-2.65D0,           13P     17
3.24531401774049D-16;                                                 13P     18
124,-1.0D0,0.0D0,0.0D0,0.0D0,0.0D0,1.0D0,0.0D0,-20.0D0,0.0D0,         15P     19
0.0D0,-1.0D0,4.0D0;                                                   15P     20
508,1,0,9,1,0,0;                                                      17P     21
100,0.0D0,0.0D0,0.0D0,-2.65D0,3.24531401774049D-16,-2.65D0,           19P     22
3.24531401774049D-16;                                                 19P     23
124,-1.0D0,0.0D0,0.0D0,0.0D0,0.0D0,-1.0D0,0.0D0,-20.0D0,0.0D0,        21P     24
0.0D0,1.0D0,0.0D0;                                                    21P     25
508,1,0,9,2,0,0;                                                      23P     26
510,3,2,1,17,23;                                                      25P     27
120,31,29,0.0D0,6.28318530717959D0;                                   27P     28
110,-2.65D0,20.0D0,-.2D0,-2.65D0,20.0D0,4.2D0;                        29P     29
110,0.0D0,20.0D0,-.2D0,0.0D0,20.0D0,.8D0;                             31P     30
100,0.0D0,0.0D0,0.0D0,-2.65D0,3.24531401774049D-16,-2.65D0,           33P     31
3.24531401774049D-16;                                                 33P     32
124,-1.0D0,0.0D0,0.0D0,0.0D0,0.0D0,1.0D0,0.0D0,20.0D0,0.0D0,          35P     33
0.0D0,-1.0D0,4.0D0;                                                   35P     34
508,1,0,9,3,0,0;                                                      37P     35
100,0.0D0,0.0D0,0.0D0,-2.65D0,3.24531401774049D-16,-2.65D0,           39P     36
3.24531401774049D-16;                                                 39P     37
124,-1.0D0,0.0D0,0.0D0,0.0D0,0.0D0,-1.0D0,0.0D0,20.0D0,0.0D0,         41P     38
0.0D0,1.0D0,0.0D0;                                                    41P     39
508,1,0,9,4,0,0;                                                      43P     40
510,27,2,1,37,43;                                                     45P     41
120,51,49,0.0D0,6.28318530717959D0;                                   47P     42
110,-2.65D0,0.0D0,-.2D0,-2.65D0,0.0D0,4.2D0;                          49P     43
110,0.0D0,0.0D0,-.2D0,0.0D0,0.0D0,.8D0;                               51P     44
100,0.0D0,0.0D0,0.0D0,-2.65D0,3.24531401774049D-16,-2.65D0,           53P     45
3.24531401774049D-16;                                                 53P     46
124,-1.0D0,0.0D0,0.0D0,0.0D0,0.0D0,1.0D0,0.0D0,0.0D0,0.0D0,           55P     47
0.0D0,-1.0D0,4.0D0;                                                   55P     48
508,1,0,9,5,0,0;                                                      57P     49
100,0.0D0,0.0D0,0.0D0,-2.65D0,3.24531401774049D-16,-2.65D0,           59P     50
3.24531401774049D-16;                                                 59P     51
124,-1.0D0,0.0D0,0.0D0,0.0D0,0.0D0,-1.0D0,0.0D0,0.0D0,0.0D0,          61P     52
0.0D0,1.0D0,0.0D0;                                                    61P     53
508,1,0,9,6,0,0;                                                      63P     54
510,47,2,1,57,63;                                                     65P     55
116,9.00000000000001D0,-30.0D0,0.0D0,0;                               67P     56
123,1.0D0,0.0D0,0.0D0;                                                69P     57
190,67,69,73;                                                         71P     58
123,0.0D0,1.0D0,0.0D0;                                                73P     59
110,9.0D0,30.0D0,0.0D0,9.0D0,-30.0D0,0.0D0;                           75P     60
110,9.0D0,30.0D0,0.0D0,9.0D0,30.0D0,4.0D0;                            77P     61
110,9.0D0,-30.0D0,4.0D0,9.0D0,30.0D0,4.0D0;                           79P     62
110,9.00000000000001D0,-30.0D0,0.0D0,9.00000000000001D0,-30.0D0,      81P     63
4.0D0;                                                                81P     64
508,4,0,9,7,0,0,0,9,8,1,0,0,9,9,0,0,0,9,10,0,0;                       83P     65
510,71,1,1,83;                                                        85P     66
116,-9.0D0,-30.0D0,0.0D0,0;                                           87P     67
123,0.0D0,-1.0D0,0.0D0;                                               89P     68
190,87,89,93;                                                         91P     69
123,1.0D0,0.0D0,0.0D0;                                                93P     70
110,9.00000000000001D0,-30.0D0,0.0D0,-8.99999999999999D0,             95P     71
-30.0D0,0.0D0;                                                        95P     72
110,-8.99999999999999D0,-30.0D0,4.0D0,9.00000000000001D0,             97P     73
-30.0D0,4.0D0;                                                        97P     74
110,-9.0D0,-30.0D0,0.0D0,-9.0D0,-30.0D0,4.0D0;                        99P     75
508,4,0,9,11,0,0,0,9,10,1,0,0,9,12,0,0,0,9,13,0,0;                   101P     76
510,91,1,1,101;                                                      103P     77
116,-9.00000000000001D0,30.0D0,0.0D0,0;                              105P     78
123,-1.0D0,0.0D0,0.0D0;                                              107P     79
190,105,107,111;                                                     109P     80
123,0.0D0,-1.0D0,0.0D0;                                              111P     81
110,-9.0D0,-30.0D0,0.0D0,-9.00000000000001D0,30.0D0,0.0D0;           113P     82
110,-9.00000000000001D0,30.0D0,4.0D0,-9.0D0,-30.0D0,4.0D0;           115P     83
110,-9.00000000000001D0,30.0D0,0.0D0,-9.00000000000001D0,30.0D0,     117P     84
4.0D0;                                                               117P     85
508,4,0,9,14,0,0,0,9,13,1,0,0,9,15,0,0,0,9,16,0,0;                   119P     86
510,109,1,1,119;                                                     121P     87
116,9.0D0,30.0D0,0.0D0,0;                                            123P     88
123,0.0D0,1.0D0,0.0D0;                                               125P     89
190,123,125,129;                                                     127P     90
123,-1.0D0,0.0D0,0.0D0;                                              129P     91
110,-9.00000000000001D0,30.0D0,0.0D0,9.0D0,30.0D0,0.0D0;             131P     92
110,9.0D0,30.0D0,4.0D0,-9.00000000000001D0,30.0D0,4.0D0;             133P     93
508,4,0,9,17,0,0,0,9,16,1,0,0,9,18,0,0,0,9,8,0,0;                    135P     94
510,127,1,1,135;                                                     137P     95
116,8.5401771125012D-16,5.55111512312578D-15,4.0D0,0;                139P     96
123,0.0D0,0.0D0,1.0D0;                                               141P     97
190,139,141,145;                                                     143P     98
123,1.0D0,0.0D0,0.0D0;                                               145P     99
508,4,0,9,18,1,0,0,9,15,1,0,0,9,12,1,0,0,9,9,1,0;                    147P    100
508,1,0,9,1,1,0;                                                     149P    101
508,1,0,9,3,1,0;                                                     151P    102
508,1,0,9,5,1,0;                                                     153P    103
510,143,4,1,147,149,151,153;                                         155P    104
116,8.5401771125012D-16,5.55111512312578D-15,0.0D0,0;                157P    105
123,0.0D0,0.0D0,-1.0D0;                                              159P    106
190,157,159,163;                                                     161P    107
123,-1.0D0,0.0D0,0.0D0;                                              163P    108
508,4,0,9,17,1,0,0,9,7,1,0,0,9,11,1,0,0,9,14,1,0;                    165P    109
508,1,0,9,2,1,0;                                                     167P    110
508,1,0,9,4,1,0;                                                     169P    111
508,1,0,9,6,1,0;                                                     171P    112
510,161,4,1,165,167,169,171;                                         173P    113
514,9,25,1,45,1,65,1,85,1,103,1,121,1,137,1,155,1,173,1;             175P    114
186,175,1,0;                                                         177P    115
314,89.8039221763611D0,89.9999976158142D0,89.9999976158142D0,;       179P    116
S      1G      5D    180P    116                                        T      1
