                                                                        S      1
,,26H5 Hole T Joining Plate.ipt,27HNo Iges File Name specified,22HAutodeG      1
sk Inventor 2013,37HAutoDesk Inventor Iges Exporter R2013,32,38,6,99,15,G      2
26H5 Hole T Joining Plate.ipt,1.0D0,2,2HMM,1,.08D0,15H20140422.180338,  G      3
.01D0,10000.0D0,4HWork,,11,0,,;                                         G      4
     406       1       0       0       1       0       0       000000000D      1
     406       0       0       1       3                               0D      2
     120       2       0       0       0       0       0       000010000D      3
     120       0       0       1       0                               0D      4
     110       3       0       0       0       0       0       000010000D      5
     110       0       0       2       0                               0D      6
     110       5       0       0       0       0       0       001010000D      7
     110       0       0       2       0                               0D      8
     504       7       0       0       0       0       0       000010001D      9
     504       0       0       7       1                               0D     10
     502      14       0       0       0       0       0       000010000D     11
     502       0       0      13       1                               0D     12
     100      27       0       0       0       0      15       000010000D     13
     100       0       0       2       0                               0D     14
     124      29       0       0       0       0       0       000000000D     15
     124       0       0       2       0                               0D     16
     508      31       0       0       0       0       0       000010000D     17
     508       0       0       1       1                               0D     18
     100      32       0       0       0       0      21       000010000D     19
     100       0       0       1       0                               0D     20
     124      33       0       0       0       0       0       000000000D     21
     124       0       0       2       0                               0D     22
     508      35       0       0       0       0       0       000010000D     23
     508       0       0       1       1                               0D     24
     510      36       0       0       0       0       0       000010000D     25
     510       0    -263       1       1                               0D     26
     120      37       0       0       0       0       0       000010000D     27
     120       0       0       1       0                               0D     28
     110      38       0       0       0       0       0       000010000D     29
     110       0       0       2       0                               0D     30
     110      40       0       0       0       0       0       001010000D     31
     110       0       0       2       0                               0D     32
     100      42       0       0       0       0      35       000010000D     33
     100       0       0       2       0                               0D     34
     124      44       0       0       0       0       0       000000000D     35
     124       0       0       2       0                               0D     36
     508      46       0       0       0       0       0       000010000D     37
     508       0       0       1       1                               0D     38
     100      47       0       0       0       0      41       000010000D     39
     100       0       0       1       0                               0D     40
     124      48       0       0       0       0       0       000000000D     41
     124       0       0       2       0                               0D     42
     508      50       0       0       0       0       0       000010000D     43
     508       0       0       1       1                               0D     44
     510      51       0       0       0       0       0       000010000D     45
     510       0    -263       1       1                               0D     46
     120      52       0       0       0       0       0       000010000D     47
     120       0       0       1       0                               0D     48
     110      53       0       0       0       0       0       000010000D     49
     110       0       0       1       0                               0D     50
     110      54       0       0       0       0       0       001010000D     51
     110       0       0       2       0                               0D     52
     100      56       0       0       0       0      55       000010000D     53
     100       0       0       2       0                               0D     54
     124      58       0       0       0       0       0       000000000D     55
     124       0       0       2       0                               0D     56
     508      60       0       0       0       0       0       000010000D     57
     508       0       0       1       1                               0D     58
     100      61       0       0       0       0      61       000010000D     59
     100       0       0       1       0                               0D     60
     124      62       0       0       0       0       0       000000000D     61
     124       0       0       2       0                               0D     62
     508      64       0       0       0       0       0       000010000D     63
     508       0       0       1       1                               0D     64
     510      65       0       0       0       0       0       000010000D     65
     510       0    -263       1       1                               0D     66
     120      66       0       0       0       0       0       000010000D     67
     120       0       0       1       0                               0D     68
     110      67       0       0       0       0       0       000010000D     69
     110       0       0       2       0                               0D     70
     110      69       0       0       0       0       0       001010000D     71
     110       0       0       2       0                               0D     72
     100      71       0       0       0       0      75       000010000D     73
     100       0       0       2       0                               0D     74
     124      73       0       0       0       0       0       000000000D     75
     124       0       0       2       0                               0D     76
     508      75       0       0       0       0       0       000010000D     77
     508       0       0       1       1                               0D     78
     100      76       0       0       0       0      81       000010000D     79
     100       0       0       1       0                               0D     80
     124      77       0       0       0       0       0       000000000D     81
     124       0       0       2       0                               0D     82
     508      79       0       0       0       0       0       000010000D     83
     508       0       0       1       1                               0D     84
     510      80       0       0       0       0       0       000010000D     85
     510       0    -263       1       1                               0D     86
     120      81       0       0       0       0       0       000010000D     87
     120       0       0       1       0                               0D     88
     110      82       0       0       0       0       0       000010000D     89
     110       0       0       2       0                               0D     90
     110      84       0       0       0       0       0       001010000D     91
     110       0       0       2       0                               0D     92
     100      86       0       0       0       0      95       000010000D     93
     100       0       0       2       0                               0D     94
     124      88       0       0       0       0       0       000000000D     95
     124       0       0       2       0                               0D     96
     508      90       0       0       0       0       0       000010000D     97
     508       0       0       1       1                               0D     98
     100      91       0       0       0       0     101       000010000D     99
     100       0       0       1       0                               0D    100
     124      92       0       0       0       0       0       000000000D    101
     124       0       0       2       0                               0D    102
     508      94       0       0       0       0       0       000010000D    103
     508       0       0       1       1                               0D    104
     510      95       0       0       0       0       0       000010000D    105
     510       0    -263       1       1                               0D    106
     116      96       0       0       0       0       0       000010000D    107
     116       0       0       1       0                               0D    108
     123      97       0       0       0       0       0       000010200D    109
     123       0       0       1       0                               0D    110
     190      98       0       0       0       0       0       000010000D    111
     190       0       0       1       1                               0D    112
     123      99       0       0       0       0       0       000010200D    113
     123       0       0       1       0                               0D    114
     110     100       0       0       0       0       0       000010000D    115
     110       0       0       1       0                               0D    116
     110     101       0       0       0       0       0       000010000D    117
     110       0       0       1       0                               0D    118
     110     102       0       0       0       0       0       000010000D    119
     110       0       0       1       0                               0D    120
     110     103       0       0       0       0       0       000010000D    121
     110       0       0       1       0                               0D    122
     110     104       0       0       0       0       0       000010000D    123
     110       0       0       1       0                               0D    124
     110     105       0       0       0       0       0       000010000D    125
     110       0       0       1       0                               0D    126
     508     106       0       0       0       0       0       000010000D    127
     508       0       0       2       1                               0D    128
     508     108       0       0       0       0       0       000010000D    129
     508       0       0       1       1                               0D    130
     508     109       0       0       0       0       0       000010000D    131
     508       0       0       1       1                               0D    132
     508     110       0       0       0       0       0       000010000D    133
     508       0       0       1       1                               0D    134
     508     111       0       0       0       0       0       000010000D    135
     508       0       0       1       1                               0D    136
     508     112       0       0       0       0       0       000010000D    137
     508       0       0       1       1                               0D    138
     510     113       0       0       0       0       0       000010000D    139
     510       0    -263       1       1                               0D    140
     116     114       0       0       0       0       0       000010000D    141
     116       0       0       1       0                               0D    142
     123     115       0       0       0       0       0       000010200D    143
     123       0       0       1       0                               0D    144
     190     116       0       0       0       0       0       000010000D    145
     190       0       0       1       1                               0D    146
     123     117       0       0       0       0       0       000010200D    147
     123       0       0       1       0                               0D    148
     110     118       0       0       0       0       0       000010000D    149
     110       0       0       1       0                               0D    150
     110     119       0       0       0       0       0       000010000D    151
     110       0       0       1       0                               0D    152
     110     120       0       0       0       0       0       000010000D    153
     110       0       0       2       0                               0D    154
     508     122       0       0       0       0       0       000010000D    155
     508       0       0       1       1                               0D    156
     510     123       0       0       0       0       0       000010000D    157
     510       0    -263       1       1                               0D    158
     116     124       0       0       0       0       0       000010000D    159
     116       0       0       1       0                               0D    160
     123     125       0       0       0       0       0       000010200D    161
     123       0       0       1       0                               0D    162
     190     126       0       0       0       0       0       000010000D    163
     190       0       0       1       1                               0D    164
     123     127       0       0       0       0       0       000010200D    165
     123       0       0       1       0                               0D    166
     110     128       0       0       0       0       0       000010000D    167
     110       0       0       1       0                               0D    168
     110     129       0       0       0       0       0       000010000D    169
     110       0       0       1       0                               0D    170
     508     130       0       0       0       0       0       000010000D    171
     508       0       0       1       1                               0D    172
     510     131       0       0       0       0       0       000010000D    173
     510       0    -263       1       1                               0D    174
     116     132       0       0       0       0       0       000010000D    175
     116       0       0       1       0                               0D    176
     123     133       0       0       0       0       0       000010200D    177
     123       0       0       1       0                               0D    178
     190     134       0       0       0       0       0       000010000D    179
     190       0       0       1       1                               0D    180
     123     135       0       0       0       0       0       000010200D    181
     123       0       0       1       0                               0D    182
     110     136       0       0       0       0       0       000010000D    183
     110       0       0       1       0                               0D    184
     110     137       0       0       0       0       0       000010000D    185
     110       0       0       2       0                               0D    186
     508     139       0       0       0       0       0       000010000D    187
     508       0       0       1       1                               0D    188
     510     140       0       0       0       0       0       000010000D    189
     510       0    -263       1       1                               0D    190
     116     141       0       0       0       0       0       000010000D    191
     116       0       0       1       0                               0D    192
     123     142       0       0       0       0       0       000010200D    193
     123       0       0       1       0                               0D    194
     190     143       0       0       0       0       0       000010000D    195
     190       0       0       1       1                               0D    196
     123     144       0       0       0       0       0       000010200D    197
     123       0       0       1       0                               0D    198
     110     145       0       0       0       0       0       000010000D    199
     110       0       0       1       0                               0D    200
     110     146       0       0       0       0       0       000010000D    201
     110       0       0       1       0                               0D    202
     508     147       0       0       0       0       0       000010000D    203
     508       0       0       1       1                               0D    204
     510     148       0       0       0       0       0       000010000D    205
     510       0    -263       1       1                               0D    206
     116     149       0       0       0       0       0       000010000D    207
     116       0       0       1       0                               0D    208
     123     150       0       0       0       0       0       000010200D    209
     123       0       0       1       0                               0D    210
     190     151       0       0       0       0       0       000010000D    211
     190       0       0       1       1                               0D    212
     123     152       0       0       0       0       0       000010200D    213
     123       0       0       1       0                               0D    214
     110     153       0       0       0       0       0       000010000D    215
     110       0       0       1       0                               0D    216
     110     154       0       0       0       0       0       000010000D    217
     110       0       0       2       0                               0D    218
     508     156       0       0       0       0       0       000010000D    219
     508       0       0       1       1                               0D    220
     510     157       0       0       0       0       0       000010000D    221
     510       0    -263       1       1                               0D    222
     116     158       0       0       0       0       0       000010000D    223
     116       0       0       1       0                               0D    224
     123     159       0       0       0       0       0       000010200D    225
     123       0       0       1       0                               0D    226
     190     160       0       0       0       0       0       000010000D    227
     190       0       0       1       1                               0D    228
     123     161       0       0       0       0       0       000010200D    229
     123       0       0       1       0                               0D    230
     110     162       0       0       0       0       0       000010000D    231
     110       0       0       1       0                               0D    232
     508     163       0       0       0       0       0       000010000D    233
     508       0       0       1       1                               0D    234
     510     164       0       0       0       0       0       000010000D    235
     510       0    -263       1       1                               0D    236
     116     165       0       0       0       0       0       000010000D    237
     116       0       0       1       0                               0D    238
     123     166       0       0       0       0       0       000010200D    239
     123       0       0       1       0                               0D    240
     190     167       0       0       0       0       0       000010000D    241
     190       0       0       1       1                               0D    242
     123     168       0       0       0       0       0       000010200D    243
     123       0       0       1       0                               0D    244
     508     169       0       0       0       0       0       000010000D    245
     508       0       0       2       1                               0D    246
     508     171       0       0       0       0       0       000010000D    247
     508       0       0       1       1                               0D    248
     508     172       0       0       0       0       0       000010000D    249
     508       0       0       1       1                               0D    250
     508     173       0       0       0       0       0       000010000D    251
     508       0       0       1       1                               0D    252
     508     174       0       0       0       0       0       000010000D    253
     508       0       0       1       1                               0D    254
     508     175       0       0       0       0       0       000010000D    255
     508       0       0       1       1                               0D    256
     510     176       0       0       0       0       0       000010000D    257
     510       0    -263       1       1                               0D    258
     514     177       0       0       0       0       0       000010000D    259
     514       0       0       2       1                               0D    260
     186     179       0       0       1       0       0       000000000D    261
     186       0       0       1       0                  Solid1       0D    262
     314     180       0       0       0       0       0       000000000D    263
     314       0       8       1       0                               0D    264
406,2,0,22H5 Hole T Joining Plate;                                     1P      1
120,7,5,0.0D0,6.28318530717959D0;                                      3P      2
110,2.49999999999999D0,20.0D0,-82.9470423263812D0,                     5P      3
2.49999999999999D0,20.0D0,2.2D0;                                       5P      4
110,-7.7715611723761D-15,20.0D0,-82.9470423263812D0,                   7P      5
-7.7715611723761D-15,20.0D0,-81.9470423263812D0;                       7P      6
504,28,13,11,1,11,1,19,11,2,11,2,33,11,3,11,3,39,11,4,11,4,53,         9P      7
11,5,11,5,59,11,6,11,6,73,11,7,11,7,79,11,8,11,8,93,11,9,11,9,         9P      8
99,11,10,11,10,115,11,11,11,12,117,11,12,11,13,119,11,13,11,14,        9P      9
121,11,14,11,15,123,11,15,11,16,125,11,16,11,11,149,11,17,11,12,       9P     10
151,11,18,11,17,153,11,13,11,18,167,11,19,11,18,169,11,14,11,19,       9P     11
183,11,20,11,19,185,11,15,11,20,199,11,21,11,20,201,11,16,11,21,       9P     12
215,11,22,11,21,217,11,11,11,22,231,11,17,11,22;                       9P     13
502,22,-2.50000000000001D0,20.0D0,-1.99999999999999D0,                11P     14
2.49999999999999D0,20.0D0,2.0D0,-22.5D0,-5.11712813982918D-15,        11P     15
-1.99999999999999D0,-17.5D0,-4.81096644004234D-15,2.0D0,-2.5D0,       11P     16
-3.06161699786838D-16,-1.99999999999999D0,2.5D0,0.0D0,2.0D0,          11P     17
17.5D0,2.28435869100519D-15,-1.99999999999999D0,22.5D0,               11P     18
2.59052039079203D-15,2.0D0,-2.50000000000001D0,40.0D0,                11P     19
-1.99999999999999D0,2.49999999999999D0,40.0D0,2.0D0,                  11P     20
9.99999999999999D0,50.0D0,-2.0D0,30.0D0,10.0D0,-2.0D0,30.0D0,         11P     21
-9.99999999999999D0,-2.0D0,-30.0D0,-10.0D0,-2.0D0,-30.0D0,            11P     22
9.99999999999999D0,-2.0D0,-10.0D0,50.0D0,-2.0D0,30.0D0,10.0D0,        11P     23
2.0D0,30.0D0,-9.99999999999999D0,2.0D0,-30.0D0,-10.0D0,2.0D0,         11P     24
-30.0D0,9.99999999999999D0,2.0D0,-10.0D0,50.0D0,2.0D0,                11P     25
9.99999999999999D0,50.0D0,2.0D0;                                      11P     26
100,0.0D0,0.0D0,0.0D0,-2.5D0,3.06161699786838D-16,-2.5D0,             13P     27
3.06161699786838D-16;                                                 13P     28
124,1.0D0,0.0D0,0.0D0,-7.7715611723761D-15,0.0D0,1.0D0,0.0D0,         15P     29
20.0D0,0.0D0,0.0D0,1.0D0,-1.99999999999999D0;                         15P     30
508,1,0,9,1,0,0;                                                      17P     31
100,0.0D0,0.0D0,0.0D0,2.5D0,0.0D0,2.5D0,0.0D0;                        19P     32
124,1.0D0,0.0D0,0.0D0,-7.7715611723761D-15,0.0D0,-1.0D0,0.0D0,        21P     33
20.0D0,0.0D0,0.0D0,-1.0D0,1.99999999999999D0;                         21P     34
508,1,0,9,2,0,0;                                                      23P     35
510,3,2,1,17,23;                                                      25P     36
120,31,29,0.0D0,6.28318530717959D0;                                   27P     37
110,-17.5D0,-4.81096644004234D-15,-82.9470423263812D0,-17.5D0,        29P     38
-4.81096644004234D-15,2.2D0;                                          29P     39
110,-20.0D0,-4.81096644004234D-15,-82.9470423263812D0,-20.0D0,        31P     40
-4.81096644004234D-15,-81.9470423263812D0;                            31P     41
100,0.0D0,0.0D0,0.0D0,-2.5D0,3.06161699786838D-16,-2.5D0,             33P     42
3.06161699786838D-16;                                                 33P     43
124,1.0D0,0.0D0,0.0D0,-20.0D0,0.0D0,1.0D0,0.0D0,                      35P     44
-4.81096644004234D-15,0.0D0,0.0D0,1.0D0,-1.99999999999999D0;          35P     45
508,1,0,9,3,0,0;                                                      37P     46
100,0.0D0,0.0D0,0.0D0,2.5D0,0.0D0,2.5D0,0.0D0;                        39P     47
124,1.0D0,0.0D0,0.0D0,-20.0D0,0.0D0,-1.0D0,0.0D0,                     41P     48
-4.81096644004234D-15,0.0D0,0.0D0,-1.0D0,1.99999999999999D0;          41P     49
508,1,0,9,4,0,0;                                                      43P     50
510,27,2,1,37,43;                                                     45P     51
120,51,49,0.0D0,6.28318530717959D0;                                   47P     52
110,2.5D0,0.0D0,-82.9470423263812D0,2.5D0,0.0D0,2.2D0;                49P     53
110,0.0D0,0.0D0,-82.9470423263812D0,0.0D0,0.0D0,                      51P     54
-81.9470423263812D0;                                                  51P     55
100,0.0D0,0.0D0,0.0D0,-2.5D0,3.06161699786838D-16,-2.5D0,             53P     56
3.06161699786838D-16;                                                 53P     57
124,1.0D0,0.0D0,0.0D0,0.0D0,0.0D0,1.0D0,0.0D0,0.0D0,0.0D0,0.0D0,      55P     58
1.0D0,-1.99999999999999D0;                                            55P     59
508,1,0,9,5,0,0;                                                      57P     60
100,0.0D0,0.0D0,0.0D0,2.5D0,0.0D0,2.5D0,0.0D0;                        59P     61
124,1.0D0,0.0D0,0.0D0,0.0D0,0.0D0,-1.0D0,0.0D0,0.0D0,0.0D0,           61P     62
0.0D0,-1.0D0,1.99999999999999D0;                                      61P     63
508,1,0,9,6,0,0;                                                      63P     64
510,47,2,1,57,63;                                                     65P     65
120,71,69,0.0D0,6.28318530717959D0;                                   67P     66
110,22.5D0,2.59052039079203D-15,-82.9470423263812D0,22.5D0,           69P     67
2.59052039079203D-15,2.2D0;                                           69P     68
110,20.0D0,2.59052039079203D-15,-82.9470423263812D0,20.0D0,           71P     69
2.59052039079203D-15,-81.9470423263812D0;                             71P     70
100,0.0D0,0.0D0,0.0D0,-2.5D0,3.06161699786838D-16,-2.5D0,             73P     71
3.06161699786838D-16;                                                 73P     72
124,1.0D0,0.0D0,0.0D0,20.0D0,0.0D0,1.0D0,0.0D0,                       75P     73
2.59052039079203D-15,0.0D0,0.0D0,1.0D0,-1.99999999999999D0;           75P     74
508,1,0,9,7,0,0;                                                      77P     75
100,0.0D0,0.0D0,0.0D0,2.5D0,0.0D0,2.5D0,0.0D0;                        79P     76
124,1.0D0,0.0D0,0.0D0,20.0D0,0.0D0,-1.0D0,0.0D0,                      81P     77
2.59052039079203D-15,0.0D0,0.0D0,-1.0D0,1.99999999999999D0;           81P     78
508,1,0,9,8,0,0;                                                      83P     79
510,67,2,1,77,83;                                                     85P     80
120,91,89,0.0D0,6.28318530717959D0;                                   87P     81
110,2.49999999999999D0,40.0D0,-82.9470423263812D0,                    89P     82
2.49999999999999D0,40.0D0,2.2D0;                                      89P     83
110,-1.41638472441199D-14,40.0D0,-82.9470423263812D0,                 91P     84
-1.41638472441199D-14,40.0D0,-81.9470423263812D0;                     91P     85
100,0.0D0,0.0D0,0.0D0,-2.5D0,3.06161699786838D-16,-2.5D0,             93P     86
3.06161699786838D-16;                                                 93P     87
124,1.0D0,0.0D0,0.0D0,-1.41638472441199D-14,0.0D0,1.0D0,0.0D0,        95P     88
40.0D0,0.0D0,0.0D0,1.0D0,-1.99999999999999D0;                         95P     89
508,1,0,9,9,0,0;                                                      97P     90
100,0.0D0,0.0D0,0.0D0,2.5D0,0.0D0,2.5D0,0.0D0;                        99P     91
124,1.0D0,0.0D0,0.0D0,-1.41638472441199D-14,0.0D0,-1.0D0,0.0D0,      101P     92
40.0D0,0.0D0,0.0D0,-1.0D0,1.99999999999999D0;                        101P     93
508,1,0,9,10,0,0;                                                    103P     94
510,87,2,1,97,103;                                                   105P     95
116,-9.54151785706721D-15,14.7213595499958D0,-2.0D0,0;               107P     96
123,0.0D0,0.0D0,-1.0D0;                                              109P     97
190,107,109,113;                                                     111P     98
123,-1.0D0,0.0D0,0.0D0;                                              113P     99
110,9.99999999999999D0,50.0D0,-2.0D0,30.0D0,10.0D0,-2.0D0;           115P    100
110,30.0D0,10.0D0,-2.0D0,30.0D0,-9.99999999999999D0,-2.0D0;          117P    101
110,30.0D0,-9.99999999999999D0,-2.0D0,-30.0D0,-10.0D0,-2.0D0;        119P    102
110,-30.0D0,-10.0D0,-2.0D0,-30.0D0,9.99999999999999D0,-2.0D0;        121P    103
110,-30.0D0,9.99999999999998D0,-2.0D0,-10.0D0,50.0D0,-2.0D0;         123P    104
110,-10.0D0,50.0D0,-2.0D0,9.99999999999999D0,50.0D0,-2.0D0;          125P    105
508,6,0,9,11,1,0,0,9,12,1,0,0,9,13,1,0,0,9,14,1,0,0,9,15,1,0,0,      127P    106
9,16,1,0;                                                            127P    107
508,1,0,9,1,1,0;                                                     129P    108
508,1,0,9,3,1,0;                                                     131P    109
508,1,0,9,5,1,0;                                                     133P    110
508,1,0,9,7,1,0;                                                     135P    111
508,1,0,9,9,1,0;                                                     137P    112
510,111,6,1,127,129,131,133,135,137;                                 139P    113
116,30.0D0,-9.99999999999999D0,0.0D0,0;                              141P    114
123,1.0D0,0.0D0,0.0D0;                                               143P    115
190,141,143,147;                                                     145P    116
123,0.0D0,1.0D0,0.0D0;                                               147P    117
110,30.0D0,10.0D0,2.0D0,30.0D0,10.0D0,-2.0D0;                        149P    118
110,30.0D0,-9.99999999999999D0,2.0D0,30.0D0,10.0D0,2.0D0;            151P    119
110,30.0D0,-9.99999999999999D0,-2.0D0,30.0D0,                        153P    120
-9.99999999999999D0,2.0D0;                                           153P    121
508,4,0,9,17,0,0,0,9,18,0,0,0,9,19,0,0,0,9,12,0,0;                   155P    122
510,145,1,1,155;                                                     157P    123
116,-30.0D0,-10.0D0,0.0D0,0;                                         159P    124
123,0.0D0,-1.0D0,0.0D0;                                              161P    125
190,159,161,165;                                                     163P    126
123,1.0D0,0.0D0,0.0D0;                                               165P    127
110,-30.0D0,-10.0D0,2.0D0,30.0D0,-9.99999999999999D0,2.0D0;          167P    128
110,-30.0D0,-10.0D0,-2.0D0,-30.0D0,-10.0D0,2.0D0;                    169P    129
508,4,0,9,19,1,0,0,9,20,0,0,0,9,21,0,0,0,9,13,0,0;                   171P    130
510,163,1,1,171;                                                     173P    131
116,-30.0D0,9.99999999999999D0,0.0D0,0;                              175P    132
123,-1.0D0,0.0D0,0.0D0;                                              177P    133
190,175,177,181;                                                     179P    134
123,0.0D0,-1.0D0,0.0D0;                                              181P    135
110,-30.0D0,9.99999999999999D0,2.0D0,-30.0D0,-10.0D0,2.0D0;          183P    136
110,-30.0D0,9.99999999999999D0,-2.0D0,-30.0D0,                       185P    137
9.99999999999999D0,2.0D0;                                            185P    138
508,4,0,9,21,1,0,0,9,22,0,0,0,9,23,0,0,0,9,14,0,0;                   187P    139
510,179,1,1,187;                                                     189P    140
116,-10.0D0,50.0D0,0.0D0,0;                                          191P    141
123,-.894427190999916D0,.447213595499958D0,0.0D0;                    193P    142
190,191,193,197;                                                     195P    143
123,-.447213595499958D0,-.894427190999916D0,0.0D0;                   197P    144
110,-10.0D0,50.0D0,2.0D0,-30.0D0,9.99999999999998D0,2.0D0;           199P    145
110,-10.0D0,50.0D0,-2.0D0,-10.0D0,50.0D0,2.0D0;                      201P    146
508,4,0,9,23,1,0,0,9,24,0,0,0,9,25,0,0,0,9,15,0,0;                   203P    147
510,195,1,1,203;                                                     205P    148
116,9.99999999999999D0,50.0D0,0.0D0,0;                               207P    149
123,0.0D0,1.0D0,0.0D0;                                               209P    150
190,207,209,213;                                                     211P    151
123,-1.0D0,0.0D0,0.0D0;                                              213P    152
110,9.99999999999999D0,50.0D0,2.0D0,-10.0D0,50.0D0,2.0D0;            215P    153
110,9.99999999999999D0,50.0D0,-2.0D0,9.99999999999999D0,50.0D0,      217P    154
2.0D0;                                                               217P    155
508,4,0,9,25,1,0,0,9,26,0,0,0,9,27,0,0,0,9,16,0,0;                   219P    156
510,211,1,1,219;                                                     221P    157
116,30.0D0,10.0D0,0.0D0,0;                                           223P    158
123,.894427190999916D0,.447213595499958D0,0.0D0;                     225P    159
190,223,225,229;                                                     227P    160
123,-.447213595499958D0,.894427190999916D0,0.0D0;                    229P    161
110,30.0D0,10.0D0,2.0D0,9.99999999999999D0,50.0D0,2.0D0;             231P    162
508,4,0,9,27,1,0,0,9,28,0,0,0,9,17,1,0,0,9,11,0,0;                   233P    163
510,227,1,1,233;                                                     235P    164
116,-9.54151785706721D-15,14.7213595499958D0,2.0D0,0;                237P    165
123,0.0D0,0.0D0,1.0D0;                                               239P    166
190,237,239,243;                                                     241P    167
123,1.0D0,0.0D0,0.0D0;                                               243P    168
508,6,0,9,28,1,0,0,9,26,1,0,0,9,24,1,0,0,9,22,1,0,0,9,20,1,0,0,      245P    169
9,18,1,0;                                                            245P    170
508,1,0,9,2,1,0;                                                     247P    171
508,1,0,9,4,1,0;                                                     249P    172
508,1,0,9,6,1,0;                                                     251P    173
508,1,0,9,8,1,0;                                                     253P    174
508,1,0,9,10,1,0;                                                    255P    175
510,241,6,1,245,247,249,251,253,255;                                 257P    176
514,13,25,1,45,1,65,1,85,1,105,1,139,1,157,1,173,1,189,1,205,1,      259P    177
221,1,235,1,257,1;                                                   259P    178
186,259,1,0;                                                         261P    179
314,89.8039221763611D0,89.9999976158142D0,89.9999976158142D0,;       263P    180
S      1G      4D    264P    180                                        T      1
