                                                                        S      1
,,28H5 Hole 90 Degree Bracket.ipt,27HNo Iges File Name specified,22HAutoG      1
desk Inventor 2013,37HAutoDesk Inventor Iges Exporter R2013,32,38,6,99, G      2
15,28H5 Hole 90 Degree Bracket.ipt,1.0D0,2,2HMM,1,.08D0,15H20140422.1803G      3
37,.01D0,10000.0D0,4HWork,,11,0,,;                                      G      4
     406       1       0       0       1       0       0       000000000D      1
     406       0       0       1       3                               0D      2
     120       2       0       0       0       0       0       000010000D      3
     120       0       0       1       0                               0D      4
     110       3       0       0       0       0       0       000010000D      5
     110       0       0       2       0                               0D      6
     110       5       0       0       0       0       0       001010000D      7
     110       0       0       2       0                               0D      8
     504       7       0       0       0       0       0       000010001D      9
     504       0       0       6       1                               0D     10
     502      13       0       0       0       0       0       000010000D     11
     502       0       0       9       1                               0D     12
     100      22       0       0       0       0      15       000010000D     13
     100       0       0       2       0                               0D     14
     124      24       0       0       0       0       0       000000000D     15
     124       0       0       2       0                               0D     16
     508      26       0       0       0       0       0       000010000D     17
     508       0       0       1       1                               0D     18
     100      27       0       0       0       0      21       000010000D     19
     100       0       0       1       0                               0D     20
     124      28       0       0       0       0       0       000000000D     21
     124       0       0       2       0                               0D     22
     508      30       0       0       0       0       0       000010000D     23
     508       0       0       1       1                               0D     24
     510      31       0       0       0       0       0       000010000D     25
     510       0    -245       1       1                               0D     26
     120      32       0       0       0       0       0       000010000D     27
     120       0       0       1       0                               0D     28
     110      33       0       0       0       0       0       000010000D     29
     110       0       0       2       0                               0D     30
     110      35       0       0       0       0       0       001010000D     31
     110       0       0       2       0                               0D     32
     100      37       0       0       0       0      35       000010000D     33
     100       0       0       2       0                               0D     34
     124      39       0       0       0       0       0       000000000D     35
     124       0       0       2       0                               0D     36
     508      41       0       0       0       0       0       000010000D     37
     508       0       0       1       1                               0D     38
     100      42       0       0       0       0      41       000010000D     39
     100       0       0       1       0                               0D     40
     124      43       0       0       0       0       0       000000000D     41
     124       0       0       2       0                               0D     42
     508      45       0       0       0       0       0       000010000D     43
     508       0       0       1       1                               0D     44
     510      46       0       0       0       0       0       000010000D     45
     510       0    -245       1       1                               0D     46
     120      47       0       0       0       0       0       000010000D     47
     120       0       0       1       0                               0D     48
     110      48       0       0       0       0       0       000010000D     49
     110       0       0       2       0                               0D     50
     110      50       0       0       0       0       0       001010000D     51
     110       0       0       2       0                               0D     52
     100      52       0       0       0       0      55       000010000D     53
     100       0       0       2       0                               0D     54
     124      54       0       0       0       0       0       000000000D     55
     124       0       0       2       0                               0D     56
     508      56       0       0       0       0       0       000010000D     57
     508       0       0       1       1                               0D     58
     100      57       0       0       0       0      61       000010000D     59
     100       0       0       1       0                               0D     60
     124      58       0       0       0       0       0       000000000D     61
     124       0       0       2       0                               0D     62
     508      60       0       0       0       0       0       000010000D     63
     508       0       0       1       1                               0D     64
     510      61       0       0       0       0       0       000010000D     65
     510       0    -245       1       1                               0D     66
     120      62       0       0       0       0       0       000010000D     67
     120       0       0       1       0                               0D     68
     110      63       0       0       0       0       0       000010000D     69
     110       0       0       2       0                               0D     70
     110      65       0       0       0       0       0       001010000D     71
     110       0       0       2       0                               0D     72
     100      67       0       0       0       0      75       000010000D     73
     100       0       0       2       0                               0D     74
     124      69       0       0       0       0       0       000000000D     75
     124       0       0       2       0                               0D     76
     508      71       0       0       0       0       0       000010000D     77
     508       0       0       1       1                               0D     78
     100      72       0       0       0       0      81       000010000D     79
     100       0       0       1       0                               0D     80
     124      73       0       0       0       0       0       000000000D     81
     124       0       0       2       0                               0D     82
     508      75       0       0       0       0       0       000010000D     83
     508       0       0       1       1                               0D     84
     510      76       0       0       0       0       0       000010000D     85
     510       0    -245       1       1                               0D     86
     120      77       0       0       0       0       0       000010000D     87
     120       0       0       1       0                               0D     88
     110      78       0       0       0       0       0       000010000D     89
     110       0       0       2       0                               0D     90
     110      80       0       0       0       0       0       001010000D     91
     110       0       0       2       0                               0D     92
     100      82       0       0       0       0      95       000010000D     93
     100       0       0       2       0                               0D     94
     124      84       0       0       0       0       0       000000000D     95
     124       0       0       2       0                               0D     96
     508      86       0       0       0       0       0       000010000D     97
     508       0       0       1       1                               0D     98
     100      87       0       0       0       0     101       000010000D     99
     100       0       0       1       0                               0D    100
     124      88       0       0       0       0       0       000000000D    101
     124       0       0       2       0                               0D    102
     508      90       0       0       0       0       0       000010000D    103
     508       0       0       1       1                               0D    104
     510      91       0       0       0       0       0       000010000D    105
     510       0    -245       1       1                               0D    106
     116      92       0       0       0       0       0       000010000D    107
     116       0       0       1       0                               0D    108
     123      93       0       0       0       0       0       000010200D    109
     123       0       0       1       0                               0D    110
     190      94       0       0       0       0       0       000010000D    111
     190       0       0       1       1                               0D    112
     123      95       0       0       0       0       0       000010200D    113
     123       0       0       1       0                               0D    114
     110      96       0       0       0       0       0       000010000D    115
     110       0       0       1       0                               0D    116
     110      97       0       0       0       0       0       000010000D    117
     110       0       0       1       0                               0D    118
     110      98       0       0       0       0       0       000010000D    119
     110       0       0       1       0                               0D    120
     110      99       0       0       0       0       0       000010000D    121
     110       0       0       1       0                               0D    122
     508     100       0       0       0       0       0       000010000D    123
     508       0       0       1       1                               0D    124
     510     101       0       0       0       0       0       000010000D    125
     510       0    -245       1       1                               0D    126
     116     102       0       0       0       0       0       000010000D    127
     116       0       0       1       0                               0D    128
     123     103       0       0       0       0       0       000010200D    129
     123       0       0       1       0                               0D    130
     190     104       0       0       0       0       0       000010000D    131
     190       0       0       1       1                               0D    132
     123     105       0       0       0       0       0       000010200D    133
     123       0       0       1       0                               0D    134
     110     106       0       0       0       0       0       000010000D    135
     110       0       0       1       0                               0D    136
     110     107       0       0       0       0       0       000010000D    137
     110       0       0       1       0                               0D    138
     110     108       0       0       0       0       0       000010000D    139
     110       0       0       1       0                               0D    140
     508     109       0       0       0       0       0       000010000D    141
     508       0       0       1       1                               0D    142
     510     110       0       0       0       0       0       000010000D    143
     510       0    -245       1       1                               0D    144
     116     111       0       0       0       0       0       000010000D    145
     116       0       0       1       0                               0D    146
     123     112       0       0       0       0       0       000010200D    147
     123       0       0       1       0                               0D    148
     190     113       0       0       0       0       0       000010000D    149
     190       0       0       1       1                               0D    150
     123     114       0       0       0       0       0       000010200D    151
     123       0       0       1       0                               0D    152
     110     115       0       0       0       0       0       000010000D    153
     110       0       0       1       0                               0D    154
     110     116       0       0       0       0       0       000010000D    155
     110       0       0       1       0                               0D    156
     110     117       0       0       0       0       0       000010000D    157
     110       0       0       1       0                               0D    158
     508     118       0       0       0       0       0       000010000D    159
     508       0       0       1       1                               0D    160
     510     119       0       0       0       0       0       000010000D    161
     510       0    -245       1       1                               0D    162
     116     120       0       0       0       0       0       000010000D    163
     116       0       0       1       0                               0D    164
     123     121       0       0       0       0       0       000010200D    165
     123       0       0       1       0                               0D    166
     190     122       0       0       0       0       0       000010000D    167
     190       0       0       1       1                               0D    168
     123     123       0       0       0       0       0       000010200D    169
     123       0       0       1       0                               0D    170
     110     124       0       0       0       0       0       000010000D    171
     110       0       0       1       0                               0D    172
     110     125       0       0       0       0       0       000010000D    173
     110       0       0       1       0                               0D    174
     110     126       0       0       0       0       0       000010000D    175
     110       0       0       1       0                               0D    176
     508     127       0       0       0       0       0       000010000D    177
     508       0       0       1       1                               0D    178
     510     128       0       0       0       0       0       000010000D    179
     510       0    -245       1       1                               0D    180
     116     129       0       0       0       0       0       000010000D    181
     116       0       0       1       0                               0D    182
     123     130       0       0       0       0       0       000010200D    183
     123       0       0       1       0                               0D    184
     190     131       0       0       0       0       0       000010000D    185
     190       0       0       1       1                               0D    186
     123     132       0       0       0       0       0       000010200D    187
     123       0       0       1       0                               0D    188
     110     133       0       0       0       0       0       000010000D    189
     110       0       0       1       0                               0D    190
     110     134       0       0       0       0       0       000010000D    191
     110       0       0       1       0                               0D    192
     508     135       0       0       0       0       0       000010000D    193
     508       0       0       1       1                               0D    194
     510     136       0       0       0       0       0       000010000D    195
     510       0    -245       1       1                               0D    196
     116     137       0       0       0       0       0       000010000D    197
     116       0       0       1       0                               0D    198
     123     138       0       0       0       0       0       000010200D    199
     123       0       0       1       0                               0D    200
     190     139       0       0       0       0       0       000010000D    201
     190       0       0       1       1                               0D    202
     123     140       0       0       0       0       0       000010200D    203
     123       0       0       1       0                               0D    204
     508     141       0       0       0       0       0       000010000D    205
     508       0       0       1       1                               0D    206
     508     142       0       0       0       0       0       000010000D    207
     508       0       0       1       1                               0D    208
     508     143       0       0       0       0       0       000010000D    209
     508       0       0       1       1                               0D    210
     508     144       0       0       0       0       0       000010000D    211
     508       0       0       1       1                               0D    212
     508     145       0       0       0       0       0       000010000D    213
     508       0       0       1       1                               0D    214
     508     146       0       0       0       0       0       000010000D    215
     508       0       0       1       1                               0D    216
     510     147       0       0       0       0       0       000010000D    217
     510       0    -245       1       1                               0D    218
     116     148       0       0       0       0       0       000010000D    219
     116       0       0       1       0                               0D    220
     123     149       0       0       0       0       0       000010200D    221
     123       0       0       1       0                               0D    222
     190     150       0       0       0       0       0       000010000D    223
     190       0       0       1       1                               0D    224
     123     151       0       0       0       0       0       000010200D    225
     123       0       0       1       0                               0D    226
     508     152       0       0       0       0       0       000010000D    227
     508       0       0       1       1                               0D    228
     508     153       0       0       0       0       0       000010000D    229
     508       0       0       1       1                               0D    230
     508     154       0       0       0       0       0       000010000D    231
     508       0       0       1       1                               0D    232
     508     155       0       0       0       0       0       000010000D    233
     508       0       0       1       1                               0D    234
     508     156       0       0       0       0       0       000010000D    235
     508       0       0       1       1                               0D    236
     508     157       0       0       0       0       0       000010000D    237
     508       0       0       1       1                               0D    238
     510     158       0       0       0       0       0       000010000D    239
     510       0    -245       1       1                               0D    240
     514     159       0       0       0       0       0       000010000D    241
     514       0       0       2       1                               0D    242
     186     161       0       0       1       0       0       000000000D    243
     186       0       0       1       0                  Solid1       0D    244
     314     162       0       0       0       0       0       000000000D    245
     314       0       8       1       0                               0D    246
406,2,0,24H5 Hole 90 Degree Bracket;                                   1P      1
120,7,5,0.0D0,6.28318530717959D0;                                      3P      2
110,12.5D0,28.6725347387578D0,-.200000000000003D0,12.5D0,              5P      3
28.6725347387578D0,4.2D0;                                              5P      4
110,10.0D0,28.6725347387578D0,-.200000000000003D0,10.0D0,              7P      5
28.6725347387578D0,.799999999999997D0;                                 7P      6
504,25,13,11,1,11,1,19,11,2,11,2,33,11,3,11,3,39,11,4,11,4,53,         9P      7
11,5,11,5,59,11,6,11,6,73,11,7,11,7,79,11,8,11,8,93,11,9,11,9,         9P      8
99,11,10,11,10,115,11,11,11,12,117,11,11,11,13,119,11,14,11,13,        9P      9
121,11,12,11,14,135,11,12,11,15,137,11,16,11,14,139,11,15,11,16,       9P     10
153,11,15,11,17,155,11,18,11,16,157,11,17,11,18,171,11,17,11,19,       9P     11
173,11,20,11,18,175,11,19,11,20,189,11,19,11,11,191,11,13,11,20;       9P     12
502,20,7.5D0,28.6725347387578D0,4.0D0,12.5D0,28.6725347387578D0,      11P     13
0.0D0,27.5D0,8.67253473875785D0,4.0D0,32.5D0,8.67253473875785D0,      11P     14
0.0D0,7.5D0,8.67253473875785D0,4.0D0,12.5D0,8.67253473875785D0,       11P     15
0.0D0,47.5D0,8.67253473875785D0,4.0D0,52.5D0,8.67253473875785D0,      11P     16
0.0D0,7.5D0,48.6725347387578D0,4.0D0,12.5D0,48.6725347387578D0,       11P     17
0.0D0,0.0D0,60.0D0,0.0D0,20.0D0,60.0D0,0.0D0,0.0D0,60.0D0,4.0D0,      11P     18
20.0D0,60.0D0,4.0D0,60.0D0,20.0D0,0.0D0,60.0D0,20.0D0,4.0D0,          11P     19
60.0D0,0.0D0,0.0D0,60.0D0,0.0D0,4.0D0,0.0D0,0.0D0,0.0D0,0.0D0,        11P     20
0.0D0,4.0D0;                                                          11P     21
100,0.0D0,0.0D0,0.0D0,-2.5D0,3.06161699786838D-16,-2.5D0,             13P     22
3.06161699786838D-16;                                                 13P     23
124,1.0D0,0.0D0,0.0D0,10.0D0,0.0D0,-1.0D0,0.0D0,                      15P     24
28.6725347387578D0,0.0D0,0.0D0,-1.0D0,4.0D0;                          15P     25
508,1,0,9,1,0,0;                                                      17P     26
100,0.0D0,0.0D0,0.0D0,2.5D0,0.0D0,2.5D0,0.0D0;                        19P     27
124,1.0D0,0.0D0,0.0D0,10.0D0,0.0D0,1.0D0,0.0D0,                       21P     28
28.6725347387578D0,0.0D0,0.0D0,1.0D0,0.0D0;                           21P     29
508,1,0,9,2,0,0;                                                      23P     30
510,3,2,1,17,23;                                                      25P     31
120,31,29,0.0D0,6.28318530717959D0;                                   27P     32
110,32.5D0,8.67253473875785D0,-.200000000000003D0,32.5D0,             29P     33
8.67253473875785D0,4.2D0;                                             29P     34
110,30.0D0,8.67253473875785D0,-.200000000000003D0,30.0D0,             31P     35
8.67253473875785D0,.799999999999997D0;                                31P     36
100,0.0D0,0.0D0,0.0D0,-2.5D0,3.06161699786838D-16,-2.5D0,             33P     37
3.06161699786838D-16;                                                 33P     38
124,1.0D0,0.0D0,0.0D0,30.0D0,0.0D0,-1.0D0,0.0D0,                      35P     39
8.67253473875785D0,0.0D0,0.0D0,-1.0D0,4.0D0;                          35P     40
508,1,0,9,3,0,0;                                                      37P     41
100,0.0D0,0.0D0,0.0D0,2.5D0,0.0D0,2.5D0,0.0D0;                        39P     42
124,1.0D0,0.0D0,0.0D0,30.0D0,0.0D0,1.0D0,0.0D0,                       41P     43
8.67253473875785D0,0.0D0,0.0D0,1.0D0,0.0D0;                           41P     44
508,1,0,9,4,0,0;                                                      43P     45
510,27,2,1,37,43;                                                     45P     46
120,51,49,0.0D0,6.28318530717959D0;                                   47P     47
110,12.5D0,8.67253473875785D0,-.200000000000003D0,12.5D0,             49P     48
8.67253473875785D0,4.2D0;                                             49P     49
110,10.0D0,8.67253473875785D0,-.200000000000003D0,10.0D0,             51P     50
8.67253473875785D0,.799999999999997D0;                                51P     51
100,0.0D0,0.0D0,0.0D0,-2.5D0,3.06161699786838D-16,-2.5D0,             53P     52
3.06161699786838D-16;                                                 53P     53
124,1.0D0,0.0D0,0.0D0,10.0D0,0.0D0,-1.0D0,0.0D0,                      55P     54
8.67253473875785D0,0.0D0,0.0D0,-1.0D0,4.0D0;                          55P     55
508,1,0,9,5,0,0;                                                      57P     56
100,0.0D0,0.0D0,0.0D0,2.5D0,0.0D0,2.5D0,0.0D0;                        59P     57
124,1.0D0,0.0D0,0.0D0,10.0D0,0.0D0,1.0D0,0.0D0,                       61P     58
8.67253473875785D0,0.0D0,0.0D0,1.0D0,0.0D0;                           61P     59
508,1,0,9,6,0,0;                                                      63P     60
510,47,2,1,57,63;                                                     65P     61
120,71,69,0.0D0,6.28318530717959D0;                                   67P     62
110,52.5D0,8.67253473875785D0,-.200000000000003D0,52.5D0,             69P     63
8.67253473875785D0,4.2D0;                                             69P     64
110,50.0D0,8.67253473875785D0,-.200000000000003D0,50.0D0,             71P     65
8.67253473875785D0,.799999999999997D0;                                71P     66
100,0.0D0,0.0D0,0.0D0,-2.5D0,3.06161699786838D-16,-2.5D0,             73P     67
3.06161699786838D-16;                                                 73P     68
124,1.0D0,0.0D0,0.0D0,50.0D0,0.0D0,-1.0D0,0.0D0,                      75P     69
8.67253473875785D0,0.0D0,0.0D0,-1.0D0,4.0D0;                          75P     70
508,1,0,9,7,0,0;                                                      77P     71
100,0.0D0,0.0D0,0.0D0,2.5D0,0.0D0,2.5D0,0.0D0;                        79P     72
124,1.0D0,0.0D0,0.0D0,50.0D0,0.0D0,1.0D0,0.0D0,                       81P     73
8.67253473875785D0,0.0D0,0.0D0,1.0D0,0.0D0;                           81P     74
508,1,0,9,8,0,0;                                                      83P     75
510,67,2,1,77,83;                                                     85P     76
120,91,89,0.0D0,6.28318530717959D0;                                   87P     77
110,12.5D0,48.6725347387578D0,-.200000000000003D0,12.5D0,             89P     78
48.6725347387578D0,4.2D0;                                             89P     79
110,10.0D0,48.6725347387578D0,-.200000000000003D0,10.0D0,             91P     80
48.6725347387578D0,.799999999999997D0;                                91P     81
100,0.0D0,0.0D0,0.0D0,-2.5D0,3.06161699786838D-16,-2.5D0,             93P     82
3.06161699786838D-16;                                                 93P     83
124,1.0D0,0.0D0,0.0D0,10.0D0,0.0D0,-1.0D0,0.0D0,                      95P     84
48.6725347387578D0,0.0D0,0.0D0,-1.0D0,4.0D0;                          95P     85
508,1,0,9,9,0,0;                                                      97P     86
100,0.0D0,0.0D0,0.0D0,2.5D0,0.0D0,2.5D0,0.0D0;                        99P     87
124,1.0D0,0.0D0,0.0D0,10.0D0,0.0D0,1.0D0,0.0D0,                      101P     88
48.6725347387578D0,0.0D0,0.0D0,1.0D0,0.0D0;                          101P     89
508,1,0,9,10,0,0;                                                    103P     90
510,87,2,1,97,103;                                                   105P     91
116,20.0D0,60.0D0,0.0D0,0;                                           107P     92
123,0.0D0,1.0D0,0.0D0;                                               109P     93
190,107,109,113;                                                     111P     94
123,-1.0D0,0.0D0,0.0D0;                                              113P     95
110,0.0D0,60.0D0,0.0D0,20.0D0,60.0D0,0.0D0;                          115P     96
110,0.0D0,60.0D0,0.0D0,0.0D0,60.0D0,4.0D0;                           117P     97
110,20.0D0,60.0D0,4.0D0,0.0D0,60.0D0,4.0D0;                          119P     98
110,20.0D0,60.0D0,0.0D0,20.0D0,60.0D0,4.0D0;                         121P     99
508,4,0,9,11,0,0,0,9,12,1,0,0,9,13,0,0,0,9,14,0,0;                   123P    100
510,111,1,1,123;                                                     125P    101
116,60.0D0,20.0D0,0.0D0,0;                                           127P    102
123,.707106781186547D0,.707106781186548D0,0.0D0;                     129P    103
190,127,129,133;                                                     131P    104
123,-.707106781186548D0,.707106781186547D0,0.0D0;                    133P    105
110,20.0D0,60.0D0,0.0D0,60.0D0,20.0D0,0.0D0;                         135P    106
110,60.0D0,20.0D0,4.0D0,20.0D0,60.0D0,4.0D0;                         137P    107
110,60.0D0,20.0D0,0.0D0,60.0D0,20.0D0,4.0D0;                         139P    108
508,4,0,9,15,0,0,0,9,14,1,0,0,9,16,0,0,0,9,17,0,0;                   141P    109
510,131,1,1,141;                                                     143P    110
116,60.0D0,0.0D0,0.0D0,0;                                            145P    111
123,1.0D0,0.0D0,0.0D0;                                               147P    112
190,145,147,151;                                                     149P    113
123,0.0D0,1.0D0,0.0D0;                                               151P    114
110,60.0D0,20.0D0,0.0D0,60.0D0,0.0D0,0.0D0;                          153P    115
110,60.0D0,0.0D0,4.0D0,60.0D0,20.0D0,4.0D0;                          155P    116
110,60.0D0,0.0D0,0.0D0,60.0D0,0.0D0,4.0D0;                           157P    117
508,4,0,9,18,0,0,0,9,17,1,0,0,9,19,0,0,0,9,20,0,0;                   159P    118
510,149,1,1,159;                                                     161P    119
116,0.0D0,0.0D0,0.0D0,0;                                             163P    120
123,0.0D0,-1.0D0,0.0D0;                                              165P    121
190,163,165,169;                                                     167P    122
123,1.0D0,0.0D0,0.0D0;                                               169P    123
110,60.0D0,0.0D0,0.0D0,0.0D0,0.0D0,0.0D0;                            171P    124
110,0.0D0,0.0D0,4.0D0,60.0D0,0.0D0,4.0D0;                            173P    125
110,0.0D0,0.0D0,0.0D0,0.0D0,0.0D0,4.0D0;                             175P    126
508,4,0,9,21,0,0,0,9,20,1,0,0,9,22,0,0,0,9,23,0,0;                   177P    127
510,167,1,1,177;                                                     179P    128
116,0.0D0,60.0D0,0.0D0,0;                                            181P    129
123,-1.0D0,0.0D0,0.0D0;                                              183P    130
190,181,183,187;                                                     185P    131
123,0.0D0,-1.0D0,0.0D0;                                              187P    132
110,0.0D0,0.0D0,0.0D0,0.0D0,60.0D0,0.0D0;                            189P    133
110,0.0D0,60.0D0,4.0D0,0.0D0,0.0D0,4.0D0;                            191P    134
508,4,0,9,24,0,0,0,9,23,1,0,0,9,25,0,0,0,9,12,0,0;                   193P    135
510,185,1,1,193;                                                     195P    136
116,25.2240774992748D0,25.2240774992748D0,4.0D0,0;                   197P    137
123,0.0D0,0.0D0,1.0D0;                                               199P    138
190,197,199,203;                                                     201P    139
123,1.0D0,0.0D0,0.0D0;                                               203P    140
508,5,0,9,25,1,0,0,9,22,1,0,0,9,19,1,0,0,9,16,1,0,0,9,13,1,0;        205P    141
508,1,0,9,1,1,0;                                                     207P    142
508,1,0,9,3,1,0;                                                     209P    143
508,1,0,9,5,1,0;                                                     211P    144
508,1,0,9,7,1,0;                                                     213P    145
508,1,0,9,9,1,0;                                                     215P    146
510,201,6,1,205,207,209,211,213,215;                                 217P    147
116,25.2240774992748D0,25.2240774992748D0,0.0D0,0;                   219P    148
123,0.0D0,0.0D0,-1.0D0;                                              221P    149
190,219,221,225;                                                     223P    150
123,-1.0D0,0.0D0,0.0D0;                                              225P    151
508,5,0,9,24,1,0,0,9,11,1,0,0,9,15,1,0,0,9,18,1,0,0,9,21,1,0;        227P    152
508,1,0,9,2,1,0;                                                     229P    153
508,1,0,9,4,1,0;                                                     231P    154
508,1,0,9,6,1,0;                                                     233P    155
508,1,0,9,8,1,0;                                                     235P    156
508,1,0,9,10,1,0;                                                    237P    157
510,223,6,1,227,229,231,233,235,237;                                 239P    158
514,12,25,1,45,1,65,1,85,1,105,1,125,1,143,1,161,1,179,1,195,1,      241P    159
217,1,239,1;                                                         241P    160
186,241,1,0;                                                         243P    161
314,89.8039221763611D0,89.9999976158142D0,89.9999976158142D0,;       245P    162
S      1G      4D    246P    162                                        T      1
