                                                                        S      1
,,30H7 Hole Cross Joining Plate.ipt,27HNo Iges File Name specified,22HAuG      1
todesk Inventor 2013,37HAutoDesk Inventor Iges Exporter R2013,32,38,6,  G      2
99,15,30H7 Hole Cross Joining Plate.ipt,1.0D0,2,2HMM,1,.08D0,15H20140422G      3
.180339,.01D0,10000.0D0,4HWork,,11,0,,;                                 G      4
     406       1       0       0       1       0       0       000000000D      1
     406       0       0       1       3                               0D      2
     120       2       0       0       0       0       0       000010000D      3
     120       0       0       1       0                               0D      4
     110       3       0       0       0       0       0       000010000D      5
     110       0       0       2       0                               0D      6
     110       5       0       0       0       0       0       001010000D      7
     110       0       0       2       0                               0D      8
     504       7       0       0       0       0       0       000010001D      9
     504       0       0      10       1                               0D     10
     502      17       0       0       0       0       0       000010000D     11
     502       0       0      16       1                               0D     12
     100      33       0       0       0       0      15       000010000D     13
     100       0       0       2       0                               0D     14
     124      35       0       0       0       0       0       000000000D     15
     124       0       0       2       0                               0D     16
     508      37       0       0       0       0       0       000010000D     17
     508       0       0       1       1                               0D     18
     100      38       0       0       0       0      21       000010000D     19
     100       0       0       1       0                               0D     20
     124      39       0       0       0       0       0       000000000D     21
     124       0       0       2       0                               0D     22
     508      41       0       0       0       0       0       000010000D     23
     508       0       0       1       1                               0D     24
     510      42       0       0       0       0       0       000010000D     25
     510       0    -347       1       1                               0D     26
     120      43       0       0       0       0       0       000010000D     27
     120       0       0       1       0                               0D     28
     110      44       0       0       0       0       0       000010000D     29
     110       0       0       1       0                               0D     30
     110      45       0       0       0       0       0       001010000D     31
     110       0       0       2       0                               0D     32
     100      47       0       0       0       0      35       000010000D     33
     100       0       0       2       0                               0D     34
     124      49       0       0       0       0       0       000000000D     35
     124       0       0       2       0                               0D     36
     508      51       0       0       0       0       0       000010000D     37
     508       0       0       1       1                               0D     38
     100      52       0       0       0       0      41       000010000D     39
     100       0       0       1       0                               0D     40
     124      53       0       0       0       0       0       000000000D     41
     124       0       0       2       0                               0D     42
     508      55       0       0       0       0       0       000010000D     43
     508       0       0       1       1                               0D     44
     510      56       0       0       0       0       0       000010000D     45
     510       0    -347       1       1                               0D     46
     120      57       0       0       0       0       0       000010000D     47
     120       0       0       1       0                               0D     48
     110      58       0       0       0       0       0       000010000D     49
     110       0       0       2       0                               0D     50
     110      60       0       0       0       0       0       001010000D     51
     110       0       0       2       0                               0D     52
     100      62       0       0       0       0      55       000010000D     53
     100       0       0       2       0                               0D     54
     124      64       0       0       0       0       0       000000000D     55
     124       0       0       2       0                               0D     56
     508      66       0       0       0       0       0       000010000D     57
     508       0       0       1       1                               0D     58
     100      67       0       0       0       0      61       000010000D     59
     100       0       0       1       0                               0D     60
     124      68       0       0       0       0       0       000000000D     61
     124       0       0       2       0                               0D     62
     508      70       0       0       0       0       0       000010000D     63
     508       0       0       1       1                               0D     64
     510      71       0       0       0       0       0       000010000D     65
     510       0    -347       1       1                               0D     66
     120      72       0       0       0       0       0       000010000D     67
     120       0       0       1       0                               0D     68
     110      73       0       0       0       0       0       000010000D     69
     110       0       0       1       0                               0D     70
     110      74       0       0       0       0       0       001010000D     71
     110       0       0       2       0                               0D     72
     100      76       0       0       0       0      75       000010000D     73
     100       0       0       2       0                               0D     74
     124      78       0       0       0       0       0       000000000D     75
     124       0       0       2       0                               0D     76
     508      80       0       0       0       0       0       000010000D     77
     508       0       0       1       1                               0D     78
     100      81       0       0       0       0      81       000010000D     79
     100       0       0       1       0                               0D     80
     124      82       0       0       0       0       0       000000000D     81
     124       0       0       2       0                               0D     82
     508      84       0       0       0       0       0       000010000D     83
     508       0       0       1       1                               0D     84
     510      85       0       0       0       0       0       000010000D     85
     510       0    -347       1       1                               0D     86
     120      86       0       0       0       0       0       000010000D     87
     120       0       0       1       0                               0D     88
     110      87       0       0       0       0       0       000010000D     89
     110       0       0       2       0                               0D     90
     110      89       0       0       0       0       0       001010000D     91
     110       0       0       2       0                               0D     92
     100      91       0       0       0       0      95       000010000D     93
     100       0       0       2       0                               0D     94
     124      93       0       0       0       0       0       000000000D     95
     124       0       0       2       0                               0D     96
     508      95       0       0       0       0       0       000010000D     97
     508       0       0       1       1                               0D     98
     100      96       0       0       0       0     101       000010000D     99
     100       0       0       1       0                               0D    100
     124      97       0       0       0       0       0       000000000D    101
     124       0       0       2       0                               0D    102
     508      99       0       0       0       0       0       000010000D    103
     508       0       0       1       1                               0D    104
     510     100       0       0       0       0       0       000010000D    105
     510       0    -347       1       1                               0D    106
     120     101       0       0       0       0       0       000010000D    107
     120       0       0       1       0                               0D    108
     110     102       0       0       0       0       0       000010000D    109
     110       0       0       1       0                               0D    110
     110     103       0       0       0       0       0       001010000D    111
     110       0       0       2       0                               0D    112
     100     105       0       0       0       0     115       000010000D    113
     100       0       0       2       0                               0D    114
     124     107       0       0       0       0       0       000000000D    115
     124       0       0       2       0                               0D    116
     508     109       0       0       0       0       0       000010000D    117
     508       0       0       1       1                               0D    118
     100     110       0       0       0       0     121       000010000D    119
     100       0       0       1       0                               0D    120
     124     111       0       0       0       0       0       000000000D    121
     124       0       0       2       0                               0D    122
     508     113       0       0       0       0       0       000010000D    123
     508       0       0       1       1                               0D    124
     510     114       0       0       0       0       0       000010000D    125
     510       0    -347       1       1                               0D    126
     120     115       0       0       0       0       0       000010000D    127
     120       0       0       1       0                               0D    128
     110     116       0       0       0       0       0       000010000D    129
     110       0       0       2       0                               0D    130
     110     118       0       0       0       0       0       001010000D    131
     110       0       0       2       0                               0D    132
     100     120       0       0       0       0     135       000010000D    133
     100       0       0       2       0                               0D    134
     124     122       0       0       0       0       0       000000000D    135
     124       0       0       2       0                               0D    136
     508     124       0       0       0       0       0       000010000D    137
     508       0       0       1       1                               0D    138
     100     125       0       0       0       0     141       000010000D    139
     100       0       0       1       0                               0D    140
     124     126       0       0       0       0       0       000000000D    141
     124       0       0       2       0                               0D    142
     508     128       0       0       0       0       0       000010000D    143
     508       0       0       1       1                               0D    144
     510     129       0       0       0       0       0       000010000D    145
     510       0    -347       1       1                               0D    146
     116     130       0       0       0       0       0       000010000D    147
     116       0       0       1       0                               0D    148
     123     131       0       0       0       0       0       000010200D    149
     123       0       0       1       0                               0D    150
     190     132       0       0       0       0       0       000010000D    151
     190       0       0       1       1                               0D    152
     123     133       0       0       0       0       0       000010200D    153
     123       0       0       1       0                               0D    154
     110     134       0       0       0       0       0       000010000D    155
     110       0       0       1       0                               0D    156
     110     135       0       0       0       0       0       000010000D    157
     110       0       0       1       0                               0D    158
     110     136       0       0       0       0       0       000010000D    159
     110       0       0       1       0                               0D    160
     110     137       0       0       0       0       0       000010000D    161
     110       0       0       1       0                               0D    162
     110     138       0       0       0       0       0       000010000D    163
     110       0       0       1       0                               0D    164
     110     139       0       0       0       0       0       000010000D    165
     110       0       0       1       0                               0D    166
     110     140       0       0       0       0       0       000010000D    167
     110       0       0       1       0                               0D    168
     110     141       0       0       0       0       0       000010000D    169
     110       0       0       1       0                               0D    170
     508     142       0       0       0       0       0       000010000D    171
     508       0       0       2       1                               0D    172
     508     144       0       0       0       0       0       000010000D    173
     508       0       0       1       1                               0D    174
     508     145       0       0       0       0       0       000010000D    175
     508       0       0       1       1                               0D    176
     508     146       0       0       0       0       0       000010000D    177
     508       0       0       1       1                               0D    178
     508     147       0       0       0       0       0       000010000D    179
     508       0       0       1       1                               0D    180
     508     148       0       0       0       0       0       000010000D    181
     508       0       0       1       1                               0D    182
     508     149       0       0       0       0       0       000010000D    183
     508       0       0       1       1                               0D    184
     508     150       0       0       0       0       0       000010000D    185
     508       0       0       1       1                               0D    186
     510     151       0       0       0       0       0       000010000D    187
     510       0    -347       1       1                               0D    188
     116     152       0       0       0       0       0       000010000D    189
     116       0       0       1       0                               0D    190
     123     153       0       0       0       0       0       000010200D    191
     123       0       0       1       0                               0D    192
     190     154       0       0       0       0       0       000010000D    193
     190       0       0       1       1                               0D    194
     123     155       0       0       0       0       0       000010200D    195
     123       0       0       1       0                               0D    196
     110     156       0       0       0       0       0       000010000D    197
     110       0       0       1       0                               0D    198
     110     157       0       0       0       0       0       000010000D    199
     110       0       0       1       0                               0D    200
     110     158       0       0       0       0       0       000010000D    201
     110       0       0       2       0                               0D    202
     508     160       0       0       0       0       0       000010000D    203
     508       0       0       1       1                               0D    204
     510     161       0       0       0       0       0       000010000D    205
     510       0    -347       1       1                               0D    206
     116     162       0       0       0       0       0       000010000D    207
     116       0       0       1       0                               0D    208
     123     163       0       0       0       0       0       000010200D    209
     123       0       0       1       0                               0D    210
     190     164       0       0       0       0       0       000010000D    211
     190       0       0       1       1                               0D    212
     123     165       0       0       0       0       0       000010200D    213
     123       0       0       1       0                               0D    214
     110     166       0       0       0       0       0       000010000D    215
     110       0       0       1       0                               0D    216
     110     167       0       0       0       0       0       000010000D    217
     110       0       0       1       0                               0D    218
     508     168       0       0       0       0       0       000010000D    219
     508       0       0       1       1                               0D    220
     510     169       0       0       0       0       0       000010000D    221
     510       0    -347       1       1                               0D    222
     116     170       0       0       0       0       0       000010000D    223
     116       0       0       1       0                               0D    224
     123     171       0       0       0       0       0       000010200D    225
     123       0       0       1       0                               0D    226
     190     172       0       0       0       0       0       000010000D    227
     190       0       0       1       1                               0D    228
     123     173       0       0       0       0       0       000010200D    229
     123       0       0       1       0                               0D    230
     110     174       0       0       0       0       0       000010000D    231
     110       0       0       1       0                               0D    232
     110     175       0       0       0       0       0       000010000D    233
     110       0       0       1       0                               0D    234
     508     176       0       0       0       0       0       000010000D    235
     508       0       0       1       1                               0D    236
     510     177       0       0       0       0       0       000010000D    237
     510       0    -347       1       1                               0D    238
     116     178       0       0       0       0       0       000010000D    239
     116       0       0       1       0                               0D    240
     123     179       0       0       0       0       0       000010200D    241
     123       0       0       1       0                               0D    242
     190     180       0       0       0       0       0       000010000D    243
     190       0       0       1       1                               0D    244
     123     181       0       0       0       0       0       000010200D    245
     123       0       0       1       0                               0D    246
     110     182       0       0       0       0       0       000010000D    247
     110       0       0       1       0                               0D    248
     110     183       0       0       0       0       0       000010000D    249
     110       0       0       1       0                               0D    250
     508     184       0       0       0       0       0       000010000D    251
     508       0       0       1       1                               0D    252
     510     185       0       0       0       0       0       000010000D    253
     510       0    -347       1       1                               0D    254
     116     186       0       0       0       0       0       000010000D    255
     116       0       0       1       0                               0D    256
     123     187       0       0       0       0       0       000010200D    257
     123       0       0       1       0                               0D    258
     190     188       0       0       0       0       0       000010000D    259
     190       0       0       1       1                               0D    260
     123     189       0       0       0       0       0       000010200D    261
     123       0       0       1       0                               0D    262
     110     190       0       0       0       0       0       000010000D    263
     110       0       0       1       0                               0D    264
     110     191       0       0       0       0       0       000010000D    265
     110       0       0       1       0                               0D    266
     508     192       0       0       0       0       0       000010000D    267
     508       0       0       1       1                               0D    268
     510     193       0       0       0       0       0       000010000D    269
     510       0    -347       1       1                               0D    270
     116     194       0       0       0       0       0       000010000D    271
     116       0       0       1       0                               0D    272
     123     195       0       0       0       0       0       000010200D    273
     123       0       0       1       0                               0D    274
     190     196       0       0       0       0       0       000010000D    275
     190       0       0       1       1                               0D    276
     123     197       0       0       0       0       0       000010200D    277
     123       0       0       1       0                               0D    278
     110     198       0       0       0       0       0       000010000D    279
     110       0       0       1       0                               0D    280
     110     199       0       0       0       0       0       000010000D    281
     110       0       0       2       0                               0D    282
     508     201       0       0       0       0       0       000010000D    283
     508       0       0       1       1                               0D    284
     510     202       0       0       0       0       0       000010000D    285
     510       0    -347       1       1                               0D    286
     116     203       0       0       0       0       0       000010000D    287
     116       0       0       1       0                               0D    288
     123     204       0       0       0       0       0       000010200D    289
     123       0       0       1       0                               0D    290
     190     205       0       0       0       0       0       000010000D    291
     190       0       0       1       1                               0D    292
     123     206       0       0       0       0       0       000010200D    293
     123       0       0       1       0                               0D    294
     110     207       0       0       0       0       0       000010000D    295
     110       0       0       1       0                               0D    296
     110     208       0       0       0       0       0       000010000D    297
     110       0       0       1       0                               0D    298
     508     209       0       0       0       0       0       000010000D    299
     508       0       0       1       1                               0D    300
     510     210       0       0       0       0       0       000010000D    301
     510       0    -347       1       1                               0D    302
     116     211       0       0       0       0       0       000010000D    303
     116       0       0       1       0                               0D    304
     123     212       0       0       0       0       0       000010200D    305
     123       0       0       1       0                               0D    306
     190     213       0       0       0       0       0       000010000D    307
     190       0       0       1       1                               0D    308
     123     214       0       0       0       0       0       000010200D    309
     123       0       0       1       0                               0D    310
     110     215       0       0       0       0       0       000010000D    311
     110       0       0       1       0                               0D    312
     508     216       0       0       0       0       0       000010000D    313
     508       0       0       1       1                               0D    314
     510     217       0       0       0       0       0       000010000D    315
     510       0    -347       1       1                               0D    316
     116     218       0       0       0       0       0       000010000D    317
     116       0       0       1       0                               0D    318
     123     219       0       0       0       0       0       000010200D    319
     123       0       0       1       0                               0D    320
     190     220       0       0       0       0       0       000010000D    321
     190       0       0       1       1                               0D    322
     123     221       0       0       0       0       0       000010200D    323
     123       0       0       1       0                               0D    324
     508     222       0       0       0       0       0       000010000D    325
     508       0       0       2       1                               0D    326
     508     224       0       0       0       0       0       000010000D    327
     508       0       0       1       1                               0D    328
     508     225       0       0       0       0       0       000010000D    329
     508       0       0       1       1                               0D    330
     508     226       0       0       0       0       0       000010000D    331
     508       0       0       1       1                               0D    332
     508     227       0       0       0       0       0       000010000D    333
     508       0       0       1       1                               0D    334
     508     228       0       0       0       0       0       000010000D    335
     508       0       0       1       1                               0D    336
     508     229       0       0       0       0       0       000010000D    337
     508       0       0       1       1                               0D    338
     508     230       0       0       0       0       0       000010000D    339
     508       0       0       1       1                               0D    340
     510     231       0       0       0       0       0       000010000D    341
     510       0    -347       1       1                               0D    342
     514     232       0       0       0       0       0       000010000D    343
     514       0       0       2       1                               0D    344
     186     234       0       0       1       0       0       000000000D    345
     186       0       0       1       0                  Solid1       0D    346
     314     235       0       0       0       0       0       000000000D    347
     314       0       8       1       0                               0D    348
406,2,0,26H7 Hole Cross Joining Plate;                                 1P      1
120,7,5,0.0D0,6.28318530717959D0;                                      3P      2
110,-17.5D0,3.88578058618805D-15,-114.687617166519D0,-17.5D0,          5P      3
3.88578058618805D-15,2.2D0;                                            5P      4
110,-20.0D0,3.88578058618805D-15,-114.687617166519D0,-20.0D0,          7P      5
3.88578058618805D-15,-113.687617166519D0;                              7P      6
504,38,13,11,1,11,1,19,11,2,11,2,33,11,3,11,3,39,11,4,11,4,53,         9P      7
11,5,11,5,59,11,6,11,6,73,11,7,11,7,79,11,8,11,8,93,11,9,11,9,         9P      8
99,11,10,11,10,113,11,11,11,11,119,11,12,11,12,133,11,13,11,13,        9P      9
139,11,14,11,14,155,11,15,11,16,157,11,16,11,17,159,11,17,11,18,       9P     10
161,11,18,11,19,163,11,19,11,20,165,11,20,11,21,167,11,21,11,22,       9P     11
169,11,22,11,15,197,11,23,11,16,199,11,24,11,23,201,11,24,11,17,       9P     12
215,11,25,11,24,217,11,25,11,18,231,11,26,11,25,233,11,26,11,19,       9P     13
247,11,27,11,26,249,11,27,11,20,263,11,28,11,27,265,11,28,11,21,       9P     14
279,11,29,11,28,281,11,29,11,22,295,11,30,11,29,297,11,15,11,30,       9P     15
311,11,23,11,30;                                                       9P     16
502,30,-22.5D0,3.57961888640121D-15,-1.99999999999999D0,-17.5D0,      11P     17
3.88578058618805D-15,2.0D0,-2.5D0,20.0D0,-1.99999999999999D0,         11P     18
2.5D0,20.0D0,2.0D0,17.5D0,6.30795356671466D-15,                       11P     19
-1.99999999999999D0,22.5D0,6.6141152665015D-15,2.0D0,-2.5D0,          11P     20
-3.06161699786838D-16,-1.99999999999999D0,2.5D0,0.0D0,2.0D0,          11P     21
37.5D0,2.48949812525742D-16,-1.99999999999999D0,42.5D0,               11P     22
5.5511151231258D-16,2.0D0,-2.5D0,-20.0D0,-1.99999999999999D0,         11P     23
2.5D0,-20.0D0,2.0D0,-42.5D0,4.68984191102637D-15,                     11P     24
-1.99999999999999D0,-37.5D0,4.9960036108132D-15,2.0D0,-50.0D0,        11P     25
10.0D0,-2.0D0,-10.0D0,30.0D0,-2.0D0,9.99999999999999D0,30.0D0,        11P     26
-2.0D0,50.0D0,10.0D0,-2.0D0,50.0D0,-10.0D0,-2.0D0,10.0D0,             11P     27
-30.0D0,-2.0D0,-10.0D0,-30.0D0,-2.0D0,-50.0D0,                        11P     28
-9.99999999999999D0,-2.0D0,-10.0D0,30.0D0,2.0D0,                      11P     29
9.99999999999999D0,30.0D0,2.0D0,50.0D0,10.0D0,2.0D0,50.0D0,           11P     30
-10.0D0,2.0D0,10.0D0,-30.0D0,2.0D0,-10.0D0,-30.0D0,2.0D0,             11P     31
-50.0D0,-9.99999999999999D0,2.0D0,-50.0D0,10.0D0,2.0D0;               11P     32
100,0.0D0,0.0D0,0.0D0,-2.5D0,3.06161699786838D-16,-2.5D0,             13P     33
3.06161699786838D-16;                                                 13P     34
124,1.0D0,0.0D0,0.0D0,-20.0D0,0.0D0,1.0D0,0.0D0,                      15P     35
3.88578058618805D-15,0.0D0,0.0D0,1.0D0,-1.99999999999999D0;           15P     36
508,1,0,9,1,0,0;                                                      17P     37
100,0.0D0,0.0D0,0.0D0,2.5D0,0.0D0,2.5D0,0.0D0;                        19P     38
124,1.0D0,0.0D0,0.0D0,-20.0D0,0.0D0,-1.0D0,0.0D0,                     21P     39
3.88578058618805D-15,0.0D0,0.0D0,-1.0D0,1.99999999999999D0;           21P     40
508,1,0,9,2,0,0;                                                      23P     41
510,3,2,1,17,23;                                                      25P     42
120,31,29,0.0D0,6.28318530717959D0;                                   27P     43
110,2.5D0,20.0D0,-114.687617166519D0,2.5D0,20.0D0,2.2D0;              29P     44
110,-3.70074341541719D-15,20.0D0,-114.687617166519D0,                 31P     45
-3.70074341541719D-15,20.0D0,-113.687617166519D0;                     31P     46
100,0.0D0,0.0D0,0.0D0,-2.5D0,3.06161699786838D-16,-2.5D0,             33P     47
3.06161699786838D-16;                                                 33P     48
124,1.0D0,0.0D0,0.0D0,-3.70074341541719D-15,0.0D0,1.0D0,0.0D0,        35P     49
20.0D0,0.0D0,0.0D0,1.0D0,-1.99999999999999D0;                         35P     50
508,1,0,9,3,0,0;                                                      37P     51
100,0.0D0,0.0D0,0.0D0,2.5D0,0.0D0,2.5D0,0.0D0;                        39P     52
124,1.0D0,0.0D0,0.0D0,-3.70074341541719D-15,0.0D0,-1.0D0,0.0D0,       41P     53
20.0D0,0.0D0,0.0D0,-1.0D0,1.99999999999999D0;                         41P     54
508,1,0,9,4,0,0;                                                      43P     55
510,27,2,1,37,43;                                                     45P     56
120,51,49,0.0D0,6.28318530717959D0;                                   47P     57
110,22.5D0,6.6141152665015D-15,-114.687617166519D0,22.5D0,            49P     58
6.6141152665015D-15,2.2D0;                                            49P     59
110,20.0D0,6.6141152665015D-15,-114.687617166519D0,20.0D0,            51P     60
6.6141152665015D-15,-113.687617166519D0;                              51P     61
100,0.0D0,0.0D0,0.0D0,-2.5D0,3.06161699786838D-16,-2.5D0,             53P     62
3.06161699786838D-16;                                                 53P     63
124,1.0D0,0.0D0,0.0D0,20.0D0,0.0D0,1.0D0,0.0D0,                       55P     64
6.6141152665015D-15,0.0D0,0.0D0,1.0D0,-1.99999999999999D0;            55P     65
508,1,0,9,5,0,0;                                                      57P     66
100,0.0D0,0.0D0,0.0D0,2.5D0,0.0D0,2.5D0,0.0D0;                        59P     67
124,1.0D0,0.0D0,0.0D0,20.0D0,0.0D0,-1.0D0,0.0D0,                      61P     68
6.6141152665015D-15,0.0D0,0.0D0,-1.0D0,1.99999999999999D0;            61P     69
508,1,0,9,6,0,0;                                                      63P     70
510,47,2,1,57,63;                                                     65P     71
120,71,69,0.0D0,6.28318530717959D0;                                   67P     72
110,2.5D0,0.0D0,-114.687617166519D0,2.5D0,0.0D0,2.2D0;                69P     73
110,0.0D0,0.0D0,-114.687617166519D0,0.0D0,0.0D0,                      71P     74
-113.687617166519D0;                                                  71P     75
100,0.0D0,0.0D0,0.0D0,-2.5D0,3.06161699786838D-16,-2.5D0,             73P     76
3.06161699786838D-16;                                                 73P     77
124,1.0D0,0.0D0,0.0D0,0.0D0,0.0D0,1.0D0,0.0D0,0.0D0,0.0D0,0.0D0,      75P     78
1.0D0,-1.99999999999999D0;                                            75P     79
508,1,0,9,7,0,0;                                                      77P     80
100,0.0D0,0.0D0,0.0D0,2.5D0,0.0D0,2.5D0,0.0D0;                        79P     81
124,1.0D0,0.0D0,0.0D0,0.0D0,0.0D0,-1.0D0,0.0D0,0.0D0,0.0D0,           81P     82
0.0D0,-1.0D0,1.99999999999999D0;                                      81P     83
508,1,0,9,8,0,0;                                                      83P     84
510,67,2,1,77,83;                                                     85P     85
120,91,89,0.0D0,6.28318530717959D0;                                   87P     86
110,42.5D0,5.5511151231258D-16,-114.687617166519D0,42.5D0,            89P     87
5.5511151231258D-16,2.2D0;                                            89P     88
110,40.0D0,5.5511151231258D-16,-114.687617166519D0,40.0D0,            91P     89
5.5511151231258D-16,-113.687617166519D0;                              91P     90
100,0.0D0,0.0D0,0.0D0,-2.5D0,3.06161699786838D-16,-2.5D0,             93P     91
3.06161699786838D-16;                                                 93P     92
124,1.0D0,0.0D0,0.0D0,40.0D0,0.0D0,1.0D0,0.0D0,                       95P     93
5.5511151231258D-16,0.0D0,0.0D0,1.0D0,-1.99999999999999D0;            95P     94
508,1,0,9,9,0,0;                                                      97P     95
100,0.0D0,0.0D0,0.0D0,2.5D0,0.0D0,2.5D0,0.0D0;                        99P     96
124,1.0D0,0.0D0,0.0D0,40.0D0,0.0D0,-1.0D0,0.0D0,                     101P     97
5.5511151231258D-16,0.0D0,0.0D0,-1.0D0,1.99999999999999D0;           101P     98
508,1,0,9,10,0,0;                                                    103P     99
510,87,2,1,97,103;                                                   105P    100
120,111,109,0.0D0,6.28318530717959D0;                                107P    101
110,2.5D0,-20.0D0,-114.687617166519D0,2.5D0,-20.0D0,2.2D0;           109P    102
110,-7.40148683083438D-16,-20.0D0,-114.687617166519D0,               111P    103
-7.40148683083438D-16,-20.0D0,-113.687617166519D0;                   111P    104
100,0.0D0,0.0D0,0.0D0,-2.5D0,3.06161699786838D-16,-2.5D0,            113P    105
3.06161699786838D-16;                                                113P    106
124,1.0D0,0.0D0,0.0D0,-7.40148683083438D-16,0.0D0,1.0D0,0.0D0,       115P    107
-20.0D0,0.0D0,0.0D0,1.0D0,-1.99999999999999D0;                       115P    108
508,1,0,9,11,0,0;                                                    117P    109
100,0.0D0,0.0D0,0.0D0,2.5D0,0.0D0,2.5D0,0.0D0;                       119P    110
124,1.0D0,0.0D0,0.0D0,-7.40148683083438D-16,0.0D0,-1.0D0,0.0D0,      121P    111
-20.0D0,0.0D0,0.0D0,-1.0D0,1.99999999999999D0;                       121P    112
508,1,0,9,12,0,0;                                                    123P    113
510,107,2,1,117,123;                                                 125P    114
120,131,129,0.0D0,6.28318530717959D0;                                127P    115
110,-37.5D0,4.9960036108132D-15,-114.687617166519D0,-37.5D0,         129P    116
4.9960036108132D-15,2.2D0;                                           129P    117
110,-40.0D0,4.9960036108132D-15,-114.687617166519D0,-40.0D0,         131P    118
4.9960036108132D-15,-113.687617166519D0;                             131P    119
100,0.0D0,0.0D0,0.0D0,-2.5D0,3.06161699786838D-16,-2.5D0,            133P    120
3.06161699786838D-16;                                                133P    121
124,1.0D0,0.0D0,0.0D0,-40.0D0,0.0D0,1.0D0,0.0D0,                     135P    122
4.9960036108132D-15,0.0D0,0.0D0,1.0D0,-1.99999999999999D0;           135P    123
508,1,0,9,13,0,0;                                                    137P    124
100,0.0D0,0.0D0,0.0D0,2.5D0,0.0D0,2.5D0,0.0D0;                       139P    125
124,1.0D0,0.0D0,0.0D0,-40.0D0,0.0D0,-1.0D0,0.0D0,                    141P    126
4.9960036108132D-15,0.0D0,0.0D0,-1.0D0,1.99999999999999D0;           141P    127
508,1,0,9,14,0,0;                                                    143P    128
510,127,2,1,137,143;                                                 145P    129
116,1.59531168702321D-14,-2.23000558401094D-15,-2.0D0,0;             147P    130
123,0.0D0,0.0D0,-1.0D0;                                              149P    131
190,147,149,153;                                                     151P    132
123,-1.0D0,0.0D0,0.0D0;                                              153P    133
110,-50.0D0,10.0D0,-2.0D0,-9.99999999999999D0,30.0D0,-2.0D0;         155P    134
110,-10.0D0,30.0D0,-2.0D0,9.99999999999999D0,30.0D0,-2.0D0;          157P    135
110,9.99999999999999D0,30.0D0,-2.0D0,50.0D0,10.0D0,-2.0D0;           159P    136
110,50.0D0,10.0D0,-2.0D0,50.0D0,-10.0D0,-2.0D0;                      161P    137
110,50.0D0,-10.0D0,-2.0D0,9.99999999999999D0,-30.0D0,-2.0D0;         163P    138
110,10.0D0,-30.0D0,-2.0D0,-10.0D0,-30.0D0,-2.0D0;                    165P    139
110,-10.0D0,-30.0D0,-2.0D0,-50.0D0,-9.99999999999999D0,-2.0D0;       167P    140
110,-50.0D0,-9.99999999999999D0,-2.0D0,-50.0D0,10.0D0,-2.0D0;        169P    141
508,8,0,9,15,1,0,0,9,16,1,0,0,9,17,1,0,0,9,18,1,0,0,9,19,1,0,0,      171P    142
9,20,1,0,0,9,21,1,0,0,9,22,1,0;                                      171P    143
508,1,0,9,1,1,0;                                                     173P    144
508,1,0,9,3,1,0;                                                     175P    145
508,1,0,9,5,1,0;                                                     177P    146
508,1,0,9,7,1,0;                                                     179P    147
508,1,0,9,9,1,0;                                                     181P    148
508,1,0,9,11,1,0;                                                    183P    149
508,1,0,9,13,1,0;                                                    185P    150
510,151,8,1,171,173,175,177,179,181,183,185;                         187P    151
116,9.99999999999999D0,30.0D0,0.0D0,0;                               189P    152
123,0.0D0,1.0D0,0.0D0;                                               191P    153
190,189,191,195;                                                     193P    154
123,-1.0D0,0.0D0,0.0D0;                                              195P    155
110,-10.0D0,30.0D0,2.0D0,-10.0D0,30.0D0,-2.0D0;                      197P    156
110,9.99999999999999D0,30.0D0,2.0D0,-10.0D0,30.0D0,2.0D0;            199P    157
110,9.99999999999999D0,30.0D0,2.0D0,9.99999999999999D0,30.0D0,       201P    158
-2.0D0;                                                              201P    159
508,4,0,9,23,0,0,0,9,24,0,0,0,9,25,1,0,0,9,16,0,0;                   203P    160
510,193,1,1,203;                                                     205P    161
116,50.0D0,10.0D0,0.0D0,0;                                           207P    162
123,.447213595499958D0,.894427190999916D0,0.0D0;                     209P    163
190,207,209,213;                                                     211P    164
123,-.894427190999916D0,.447213595499958D0,0.0D0;                    213P    165
110,50.0D0,10.0D0,2.0D0,9.99999999999999D0,30.0D0,2.0D0;             215P    166
110,50.0D0,10.0D0,2.0D0,50.0D0,10.0D0,-2.0D0;                        217P    167
508,4,0,9,25,0,0,0,9,26,0,0,0,9,27,1,0,0,9,17,0,0;                   219P    168
510,211,1,1,219;                                                     221P    169
116,50.0D0,-10.0D0,0.0D0,0;                                          223P    170
123,1.0D0,0.0D0,0.0D0;                                               225P    171
190,223,225,229;                                                     227P    172
123,0.0D0,1.0D0,0.0D0;                                               229P    173
110,50.0D0,-10.0D0,2.0D0,50.0D0,10.0D0,2.0D0;                        231P    174
110,50.0D0,-10.0D0,2.0D0,50.0D0,-10.0D0,-2.0D0;                      233P    175
508,4,0,9,27,0,0,0,9,28,0,0,0,9,29,1,0,0,9,18,0,0;                   235P    176
510,227,1,1,235;                                                     237P    177
116,10.0D0,-30.0D0,0.0D0,0;                                          239P    178
123,.447213595499958D0,-.894427190999916D0,0.0D0;                    241P    179
190,239,241,245;                                                     243P    180
123,.894427190999916D0,.447213595499958D0,0.0D0;                     245P    181
110,9.99999999999999D0,-30.0D0,2.0D0,50.0D0,-10.0D0,2.0D0;           247P    182
110,10.0D0,-30.0D0,2.0D0,10.0D0,-30.0D0,-2.0D0;                      249P    183
508,4,0,9,29,0,0,0,9,30,0,0,0,9,31,1,0,0,9,19,0,0;                   251P    184
510,243,1,1,251;                                                     253P    185
116,-10.0D0,-30.0D0,0.0D0,0;                                         255P    186
123,0.0D0,-1.0D0,0.0D0;                                              257P    187
190,255,257,261;                                                     259P    188
123,1.0D0,0.0D0,0.0D0;                                               261P    189
110,-10.0D0,-30.0D0,2.0D0,10.0D0,-30.0D0,2.0D0;                      263P    190
110,-10.0D0,-30.0D0,2.0D0,-10.0D0,-30.0D0,-2.0D0;                    265P    191
508,4,0,9,31,0,0,0,9,32,0,0,0,9,33,1,0,0,9,20,0,0;                   267P    192
510,259,1,1,267;                                                     269P    193
116,-50.0D0,-9.99999999999999D0,0.0D0,0;                             271P    194
123,-.447213595499958D0,-.894427190999916D0,0.0D0;                   273P    195
190,271,273,277;                                                     275P    196
123,.894427190999916D0,-.447213595499958D0,0.0D0;                    277P    197
110,-50.0D0,-9.99999999999999D0,2.0D0,-10.0D0,-30.0D0,2.0D0;         279P    198
110,-50.0D0,-9.99999999999999D0,2.0D0,-50.0D0,                       281P    199
-9.99999999999999D0,-2.0D0;                                          281P    200
508,4,0,9,33,0,0,0,9,34,0,0,0,9,35,1,0,0,9,21,0,0;                   283P    201
510,275,1,1,283;                                                     285P    202
116,-50.0D0,10.0D0,0.0D0,0;                                          287P    203
123,-1.0D0,0.0D0,0.0D0;                                              289P    204
190,287,289,293;                                                     291P    205
123,0.0D0,-1.0D0,0.0D0;                                              293P    206
110,-50.0D0,10.0D0,2.0D0,-50.0D0,-9.99999999999999D0,2.0D0;          295P    207
110,-50.0D0,10.0D0,-2.0D0,-50.0D0,10.0D0,2.0D0;                      297P    208
508,4,0,9,35,0,0,0,9,36,0,0,0,9,37,0,0,0,9,22,0,0;                   299P    209
510,291,1,1,299;                                                     301P    210
116,-10.0D0,30.0D0,0.0D0,0;                                          303P    211
123,-.447213595499958D0,.894427190999916D0,0.0D0;                    305P    212
190,303,305,309;                                                     307P    213
123,-.894427190999916D0,-.447213595499958D0,0.0D0;                   309P    214
110,-9.99999999999999D0,30.0D0,2.0D0,-50.0D0,10.0D0,2.0D0;           311P    215
508,4,0,9,37,1,0,0,9,38,0,0,0,9,23,1,0,0,9,15,0,0;                   313P    216
510,307,1,1,313;                                                     315P    217
116,1.59531168702321D-14,-2.23000558401094D-15,2.0D0,0;              317P    218
123,0.0D0,0.0D0,1.0D0;                                               319P    219
190,317,319,323;                                                     321P    220
123,1.0D0,0.0D0,0.0D0;                                               323P    221
508,8,0,9,38,1,0,0,9,36,1,0,0,9,34,1,0,0,9,32,1,0,0,9,30,1,0,0,      325P    222
9,28,1,0,0,9,26,1,0,0,9,24,1,0;                                      325P    223
508,1,0,9,2,1,0;                                                     327P    224
508,1,0,9,4,1,0;                                                     329P    225
508,1,0,9,6,1,0;                                                     331P    226
508,1,0,9,8,1,0;                                                     333P    227
508,1,0,9,10,1,0;                                                    335P    228
508,1,0,9,12,1,0;                                                    337P    229
508,1,0,9,14,1,0;                                                    339P    230
510,321,8,1,325,327,329,331,333,335,337,339;                         341P    231
514,17,25,1,45,1,65,1,85,1,105,1,125,1,145,1,187,1,205,1,221,1,      343P    232
237,1,253,1,269,1,285,1,301,1,315,1,341,1;                           343P    233
186,343,1,0;                                                         345P    234
314,89.8039221763611D0,89.9999976158142D0,89.9999976158142D0,;       347P    235
S      1G      4D    348P    235                                        T      1
