                                                                        S      1
,,30H90 Degree Corner Connector.ipt,27HNo Iges File Name specified,22HAuG      1
todesk Inventor 2013,37HAutoDesk Inventor Iges Exporter R2013,32,38,6,  G      2
99,15,30H90 Degree Corner Connector.ipt,1.0D0,2,2HMM,1,.08D0,15H20140422G      3
.180340,.01D0,10000.0D0,4HWork,,11,0,,;                                 G      4
     406       1       0       0       1       0       0       000000000D      1
     406       0       0       1       3                               0D      2
     120       2       0       0       0       0       0       000010000D      3
     120       0       0       1       0                               0D      4
     110       3       0       0       0       0       0       000010000D      5
     110       0       0       1       0                               0D      6
     110       4       0       0       0       0       0       001010000D      7
     110       0       0       1       0                               0D      8
     504       5       0       0       0       0       0       000010001D      9
     504       0       0       7       1                               0D     10
     502      12       0       0       0       0       0       000010000D     11
     502       0       0      10       1                               0D     12
     100      22       0       0       0       0      15       000010000D     13
     100       0       0       2       0                               0D     14
     124      24       0       0       0       0       0       000000000D     15
     124       0       0       2       0                               0D     16
     508      26       0       0       0       0       0       000010000D     17
     508       0       0       1       1                               0D     18
     104      27       0       0       0       0      21       000010000D     19
     104       0       0       2       1                               0D     20
     124      29       0       0       0       0       0       000000000D     21
     124       0       0       3       0                               0D     22
     104      32       0       0       0       0      25       000010000D     23
     104       0       0       2       1                               0D     24
     124      34       0       0       0       0       0       000000000D     25
     124       0       0       3       0                               0D     26
     508      37       0       0       0       0       0       000010000D     27
     508       0       0       1       1                               0D     28
     510      38       0       0       0       0       0       000010000D     29
     510       0    -277       1       1                               0D     30
     120      39       0       0       0       0       0       000010000D     31
     120       0       0       1       0                               0D     32
     110      40       0       0       0       0       0       000010000D     33
     110       0       0       1       0                               0D     34
     110      41       0       0       0       0       0       001010000D     35
     110       0       0       1       0                               0D     36
     104      42       0       0       0       0      39       000010000D     37
     104       0       0       2       1                               0D     38
     124      44       0       0       0       0       0       000000000D     39
     124       0       0       3       0                               0D     40
     104      47       0       0       0       0      43       000010000D     41
     104       0       0       3       1                               0D     42
     124      50       0       0       0       0       0       000000000D     43
     124       0       0       3       0                               0D     44
     104      53       0       0       0       0      39       000010000D     45
     104       0       0       2       1                               0D     46
     104      55       0       0       0       0      49       000010000D     47
     104       0       0       2       1                               0D     48
     124      57       0       0       0       0       0       000000000D     49
     124       0       0       3       0                               0D     50
     508      60       0       0       0       0       0       000010000D     51
     508       0       0       1       1                               0D     52
     510      61       0       0       0       0       0       000010000D     53
     510       0    -277       1       1                               0D     54
     116      62       0       0       0       0       0       000010000D     55
     116       0       0       1       0                               0D     56
     123      63       0       0       0       0       0       000010200D     57
     123       0       0       1       0                               0D     58
     190      64       0       0       0       0       0       000010000D     59
     190       0       0       1       1                               0D     60
     123      65       0       0       0       0       0       000010200D     61
     123       0       0       1       0                               0D     62
     508      66       0       0       0       0       0       000010000D     63
     508       0       0       1       1                               0D     64
     100      67       0       0       0       0      67       000010000D     65
     100       0       0       2       0                               0D     66
     124      69       0       0       0       0       0       000000000D     67
     124       0       0       2       0                               0D     68
     508      71       0       0       0       0       0       000010000D     69
     508       0       0       1       1                               0D     70
     510      72       0       0       0       0       0       000010000D     71
     510       0    -277       1       1                               0D     72
     116      73       0       0       0       0       0       000010000D     73
     116       0       0       1       0                               0D     74
     123      74       0       0       0       0       0       000010200D     75
     123       0       0       1       0                               0D     76
     190      75       0       0       0       0       0       000010000D     77
     190       0       0       1       1                               0D     78
     123      76       0       0       0       0       0       000010200D     79
     123       0       0       1       0                               0D     80
     110      77       0       0       0       0       0       000010000D     81
     110       0       0       1       0                               0D     82
     110      78       0       0       0       0       0       000010000D     83
     110       0       0       1       0                               0D     84
     110      79       0       0       0       0       0       000010000D     85
     110       0       0       1       0                               0D     86
     110      80       0       0       0       0       0       000010000D     87
     110       0       0       2       0                               0D     88
     508      82       0       0       0       0       0       000010000D     89
     508       0       0       1       1                               0D     90
     104      83       0       0       0       0      93       000010000D     91
     104       0       0       3       1                               0D     92
     124      86       0       0       0       0       0       000000000D     93
     124       0       0       3       0                               0D     94
     508      89       0       0       0       0       0       000010000D     95
     508       0       0       1       1                               0D     96
     510      90       0       0       0       0       0       000010000D     97
     510       0    -277       1       1                               0D     98
     120      91       0       0       0       0       0       000010000D     99
     120       0       0       1       0                               0D    100
     110      92       0       0       0       0       0       000010000D    101
     110       0       0       1       0                               0D    102
     110      93       0       0       0       0       0       001010000D    103
     110       0       0       1       0                               0D    104
     508      94       0       0       0       0       0       000010000D    105
     508       0       0       1       1                               0D    106
     510      95       0       0       0       0       0       000010000D    107
     510       0    -277       1       1                               0D    108
     120      96       0       0       0       0       0       000010000D    109
     120       0       0       1       0                               0D    110
     110      97       0       0       0       0       0       000010000D    111
     110       0       0       1       0                               0D    112
     110      98       0       0       0       0       0       001010000D    113
     110       0       0       1       0                               0D    114
     508      99       0       0       0       0       0       000010000D    115
     508       0       0       1       1                               0D    116
     100     100       0       0       0       0     119       000010000D    117
     100       0       0       2       0                               0D    118
     124     102       0       0       0       0       0       000000000D    119
     124       0       0       2       0                               0D    120
     508     104       0       0       0       0       0       000010000D    121
     508       0       0       1       1                               0D    122
     510     105       0       0       0       0       0       000010000D    123
     510       0    -277       1       1                               0D    124
     116     106       0       0       0       0       0       000010000D    125
     116       0       0       1       0                               0D    126
     123     107       0       0       0       0       0       000010200D    127
     123       0       0       1       0                               0D    128
     190     108       0       0       0       0       0       000010000D    129
     190       0       0       1       1                               0D    130
     123     109       0       0       0       0       0       000010200D    131
     123       0       0       1       0                               0D    132
     508     110       0       0       0       0       0       000010000D    133
     508       0       0       1       1                               0D    134
     100     111       0       0       0       0     137       000010000D    135
     100       0       0       2       0                               0D    136
     124     113       0       0       0       0       0       000000000D    137
     124       0       0       2       0                               0D    138
     508     115       0       0       0       0       0       000010000D    139
     508       0       0       1       1                               0D    140
     510     116       0       0       0       0       0       000010000D    141
     510       0    -277       1       1                               0D    142
     120     117       0       0       0       0       0       000010000D    143
     120       0       0       1       0                               0D    144
     110     118       0       0       0       0       0       000010000D    145
     110       0       0       1       0                               0D    146
     110     119       0       0       0       0       0       001010000D    147
     110       0       0       2       0                               0D    148
     508     121       0       0       0       0       0       000010000D    149
     508       0       0       1       1                               0D    150
     100     122       0       0       0       0     153       000010000D    151
     100       0       0       2       0                               0D    152
     124     124       0       0       0       0       0       000000000D    153
     124       0       0       2       0                               0D    154
     508     126       0       0       0       0       0       000010000D    155
     508       0       0       1       1                               0D    156
     510     127       0       0       0       0       0       000010000D    157
     510       0    -277       1       1                               0D    158
     120     128       0       0       0       0       0       000010000D    159
     120       0       0       1       0                               0D    160
     110     129       0       0       0       0       0       000010000D    161
     110       0       0       1       0                               0D    162
     110     130       0       0       0       0       0       001010000D    163
     110       0       0       1       0                               0D    164
     508     131       0       0       0       0       0       000010000D    165
     508       0       0       1       1                               0D    166
     100     132       0       0       0       0     169       000010000D    167
     100       0       0       2       0                               0D    168
     124     134       0       0       0       0       0       000000000D    169
     124       0       0       2       0                               0D    170
     508     136       0       0       0       0       0       000010000D    171
     508       0       0       1       1                               0D    172
     510     137       0       0       0       0       0       000010000D    173
     510       0    -277       1       1                               0D    174
     116     138       0       0       0       0       0       000010000D    175
     116       0       0       1       0                               0D    176
     123     139       0       0       0       0       0       000010200D    177
     123       0       0       1       0                               0D    178
     190     140       0       0       0       0       0       000010000D    179
     190       0       0       1       1                               0D    180
     123     141       0       0       0       0       0       000010200D    181
     123       0       0       1       0                               0D    182
     110     142       0       0       0       0       0       000010000D    183
     110       0       0       1       0                               0D    184
     110     143       0       0       0       0       0       000010000D    185
     110       0       0       1       0                               0D    186
     110     144       0       0       0       0       0       000010000D    187
     110       0       0       1       0                               0D    188
     508     145       0       0       0       0       0       000010000D    189
     508       0       0       1       1                               0D    190
     510     146       0       0       0       0       0       000010000D    191
     510       0    -277       1       1                               0D    192
     116     147       0       0       0       0       0       000010000D    193
     116       0       0       1       0                               0D    194
     123     148       0       0       0       0       0       000010200D    195
     123       0       0       1       0                               0D    196
     190     149       0       0       0       0       0       000010000D    197
     190       0       0       1       1                               0D    198
     123     150       0       0       0       0       0       000010200D    199
     123       0       0       1       0                               0D    200
     110     151       0       0       0       0       0       000010000D    201
     110       0       0       2       0                               0D    202
     110     153       0       0       0       0       0       000010000D    203
     110       0       0       2       0                               0D    204
     110     155       0       0       0       0       0       000010000D    205
     110       0       0       2       0                               0D    206
     508     157       0       0       0       0       0       000010000D    207
     508       0       0       1       1                               0D    208
     510     158       0       0       0       0       0       000010000D    209
     510       0    -277       1       1                               0D    210
     116     159       0       0       0       0       0       000010000D    211
     116       0       0       1       0                               0D    212
     123     160       0       0       0       0       0       000010200D    213
     123       0       0       1       0                               0D    214
     190     161       0       0       0       0       0       000010000D    215
     190       0       0       1       1                               0D    216
     123     162       0       0       0       0       0       000010200D    217
     123       0       0       1       0                               0D    218
     110     163       0       0       0       0       0       000010000D    219
     110       0       0       1       0                               0D    220
     110     164       0       0       0       0       0       000010000D    221
     110       0       0       1       0                               0D    222
     110     165       0       0       0       0       0       000010000D    223
     110       0       0       1       0                               0D    224
     508     166       0       0       0       0       0       000010000D    225
     508       0       0       1       1                               0D    226
     508     167       0       0       0       0       0       000010000D    227
     508       0       0       1       1                               0D    228
     510     168       0       0       0       0       0       000010000D    229
     510       0    -277       1       1                               0D    230
     116     169       0       0       0       0       0       000010000D    231
     116       0       0       1       0                               0D    232
     123     170       0       0       0       0       0       000010200D    233
     123       0       0       1       0                               0D    234
     190     171       0       0       0       0       0       000010000D    235
     190       0       0       1       1                               0D    236
     123     172       0       0       0       0       0       000010200D    237
     123       0       0       1       0                               0D    238
     110     173       0       0       0       0       0       000010000D    239
     110       0       0       1       0                               0D    240
     110     174       0       0       0       0       0       000010000D    241
     110       0       0       1       0                               0D    242
     508     175       0       0       0       0       0       000010000D    243
     508       0       0       1       1                               0D    244
     508     176       0       0       0       0       0       000010000D    245
     508       0       0       1       1                               0D    246
     510     177       0       0       0       0       0       000010000D    247
     510       0    -277       1       1                               0D    248
     116     178       0       0       0       0       0       000010000D    249
     116       0       0       1       0                               0D    250
     123     179       0       0       0       0       0       000010200D    251
     123       0       0       1       0                               0D    252
     190     180       0       0       0       0       0       000010000D    253
     190       0       0       1       1                               0D    254
     123     181       0       0       0       0       0       000010200D    255
     123       0       0       1       0                               0D    256
     508     182       0       0       0       0       0       000010000D    257
     508       0       0       1       1                               0D    258
     510     183       0       0       0       0       0       000010000D    259
     510       0    -277       1       1                               0D    260
     116     184       0       0       0       0       0       000010000D    261
     116       0       0       1       0                               0D    262
     123     185       0       0       0       0       0       000010200D    263
     123       0       0       1       0                               0D    264
     190     186       0       0       0       0       0       000010000D    265
     190       0       0       1       1                               0D    266
     123     187       0       0       0       0       0       000010200D    267
     123       0       0       1       0                               0D    268
     508     188       0       0       0       0       0       000010000D    269
     508       0       0       1       1                               0D    270
     510     189       0       0       0       0       0       000010000D    271
     510       0    -277       1       1                               0D    272
     514     190       0       0       0       0       0       000010000D    273
     514       0       0       2       1                               0D    274
     186     192       0       0       1       0       0       000000000D    275
     186       0       0       1       0                  Solid1       0D    276
     314     193       0       0       0       0       0       000000000D    277
     314       0       8       1       0                               0D    278
406,2,0,26H90 Degree Corner Connector;                                 1P      1
120,7,5,0.0D0,6.28318530717959D0;                                      3P      2
110,4.5D0,20.0D0,10.0D0,4.5D0,3.175D0,10.0D0;                          5P      3
110,10.0D0,20.0D0,10.0D0,10.0D0,19.0D0,10.0D0;                         7P      4
504,28,13,11,1,11,1,19,11,2,11,3,23,11,3,11,2,37,11,4,11,2,41,         9P      5
11,5,11,4,45,11,3,11,5,47,11,2,11,3,65,11,6,11,6,81,11,7,11,8,         9P      6
83,11,7,11,9,85,11,10,11,9,87,11,8,11,10,91,11,4,11,5,117,11,11,       9P      7
11,11,135,11,12,11,12,151,11,13,11,13,167,11,14,11,14,183,11,15,       9P      8
11,7,185,11,15,11,16,187,11,9,11,16,201,11,8,11,17,203,11,18,11,       9P      9
10,205,11,17,11,18,219,11,17,11,19,221,11,20,11,18,223,11,19,11,       9P     10
20,239,11,19,11,15,241,11,16,11,20;                                    9P     11
502,20,15.5D0,3.5D0,10.0D0,10.0D0,10.0D0,4.5D0,10.0D0,10.0D0,         11P     12
15.5D0,10.5000203948244D0,10.5000203948244D0,4.52277628677086D0,      11P     13
10.5000203948244D0,10.5000203948244D0,15.4772237132291D0,             11P     14
13.57D0,3.5D0,10.0D0,1.0D0,20.0D0,0.0D0,20.0D0,                       11P     15
1.0000815791225D0,0.0D0,1.0D0,20.0D0,20.0D0,20.0D0,                   11P     16
1.0000815791225D0,20.0D0,3.5D0,10.0D0,15.5D0,3.5D0,10.0D0,            11P     17
13.57D0,13.57D0,2.49276855966444D-15,10.0D0,0.0D0,10.0D0,             11P     18
13.57D0,0.0D0,20.0D0,0.0D0,0.0D0,20.0D0,20.0D0,20.0D0,                11P     19
3.67394039744206D-15,0.0D0,20.0D0,3.67394039744206D-15,20.0D0,        11P     20
0.0D0,0.0D0,0.0D0,0.0D0,0.0D0,20.0D0;                                 11P     21
100,0.0D0,0.0D0,0.0D0,-5.5D0,6.73555739531044D-16,-5.5D0,             13P     22
6.73555739531044D-16;                                                 13P     23
124,-1.0D0,0.0D0,0.0D0,10.0D0,0.0D0,0.0D0,-1.0D0,3.5D0,0.0D0,         15P     24
-1.0D0,0.0D0,10.0D0;                                                  15P     25
508,1,0,9,1,1,0;                                                      17P     26
104,30.25D0,0.0D0,60.5D0,0.0D0,0.0D0,-1830.125D0,0.0D0,0.0D0,         19P     27
5.5D0,0.0D0,-5.5D0;                                                   19P     28
124,-.707106781186548D0,0.0D0,-.707106781186548D0,10.0D0,             21P     29
.707106781186548D0,0.0D0,-.707106781186548D0,10.0D0,0.0D0,            21P     30
-1.0D0,0.0D0,10.0D0;                                                  21P     31
104,30.25D0,0.0D0,60.5D0,0.0D0,0.0D0,-1830.125D0,0.0D0,0.0D0,         23P     32
-5.5D0,0.0D0,5.5D0;                                                   23P     33
124,-.707106781186548D0,0.0D0,.707106781186547D0,10.0D0,              25P     34
-.707106781186547D0,0.0D0,-.707106781186548D0,10.0D0,0.0D0,           25P     35
-1.0D0,0.0D0,10.0D0;                                                  25P     36
508,2,0,9,2,0,0,0,9,3,0,0;                                            27P     37
510,3,2,1,17,27;                                                      29P     38
120,35,33,0.0D0,6.28318530717959D0;                                   31P     39
110,4.5D0,20.0D0,10.0D0,4.5D0,9.6755199777871D0,10.0D0;               33P     40
110,10.0D0,20.0D0,10.0D0,10.0D0,19.0D0,10.0D0;                        35P     41
104,30.25D0,0.0D0,60.5D0,0.0D0,0.0D0,-1830.125D0,0.0D0,               37P     42
-.707135623823828D0,-5.47722371322914D0,0.0D0,-5.5D0;                 37P     43
124,-.707106781186548D0,0.0D0,-.707106781186547D0,10.0D0,             39P     44
-.707106781186547D0,0.0D0,.707106781186548D0,10.0D0,0.0D0,1.0D0,      39P     45
0.0D0,10.0D0;                                                         39P     46
104,30.25D0,0.0D0,60.4997402354571D0,0.0D0,0.0D0,                     41P     47
-1830.11714212258D0,0.0D0,-.707134105733249D0,                        41P     48
-5.47722371322914D0,-.707134105733259D0,5.47722371322914D0;           41P     49
124,-.707108299218459D0,0.0D0,-.707105263151377D0,10.0D0,             43P     50
.707105263151377D0,0.0D0,-.707108299218459D0,11.0000386427422D0,      43P     51
0.0D0,-1.0D0,0.0D0,10.0D0;                                            43P     52
104,30.25D0,0.0D0,60.5D0,0.0D0,0.0D0,-1830.125D0,0.0D0,0.0D0,         45P     53
5.5D0,-.707135623823826D0,5.47722371322914D0;                         45P     54
104,30.25D0,0.0D0,60.5D0,0.0D0,0.0D0,-1830.125D0,0.0D0,0.0D0,         47P     55
-5.5D0,0.0D0,5.5D0;                                                   47P     56
124,-.707106781186548D0,0.0D0,.707106781186548D0,10.0D0,              49P     57
.707106781186548D0,0.0D0,.707106781186548D0,10.0D0,0.0D0,1.0D0,       49P     58
0.0D0,10.0D0;                                                         49P     59
508,4,0,9,4,0,0,0,9,5,0,0,0,9,6,0,0,0,9,7,0,0;                        51P     60
510,31,1,1,51;                                                        53P     61
116,10.0D0,3.5D0,10.0D0,0;                                            55P     62
123,0.0D0,1.0D0,0.0D0;                                                57P     63
190,55,57,61;                                                         59P     64
123,0.0D0,0.0D0,1.0D0;                                                61P     65
508,1,0,9,1,0,0;                                                      63P     66
100,0.0D0,0.0D0,0.0D0,-3.57D0,4.37198907295605D-16,-3.57D0,           65P     67
4.37198907295605D-16;                                                 65P     68
124,-1.0D0,0.0D0,0.0D0,10.0D0,0.0D0,0.0D0,1.0D0,3.5D0,0.0D0,          67P     69
1.0D0,0.0D0,10.0D0;                                                   67P     70
508,1,0,9,8,0,0;                                                      69P     71
510,59,2,1,63,69;                                                     71P     72
116,20.0D0,1.0000815791225D0,0.0D0,0;                                 73P     73
123,.707105263151377D0,.707108299218459D0,0.0D0;                      75P     74
190,73,75,79;                                                         77P     75
123,-.707108299218459D0,.707105263151377D0,0.0D0;                     79P     76
110,1.0D0,20.0D0,0.0D0,20.0D0,1.0000815791225D0,0.0D0;                81P     77
110,1.0D0,20.0D0,0.0D0,1.0D0,20.0D0,20.0D0;                           83P     78
110,20.0D0,1.0000815791225D0,20.0D0,1.0D0,20.0D0,20.0D0;              85P     79
110,20.0D0,1.0000815791225D0,0.0D0,20.0D0,1.0000815791225D0,          87P     80
20.0D0;                                                               87P     81
508,4,0,9,9,0,0,0,9,10,1,0,0,9,11,0,0,0,9,12,0,0;                     89P     82
104,30.25D0,0.0D0,60.5002597667737D0,0.0D0,0.0D0,                     91P     83
-1830.1328579449D0,0.0D0,-.707137141924178D0,                         91P     84
-5.47722371322914D0,-.707137141924181D0,5.47722371322914D0;           91P     85
124,.707108299218459D0,0.0D0,-.707105263151377D0,                     93P     86
11.0000429365646D0,-.707105263151377D0,0.0D0,                         93P     87
-.707108299218459D0,10.0D0,0.0D0,1.0D0,0.0D0,10.0D0;                  93P     88
508,2,0,9,5,1,0,0,9,13,1,0;                                           95P     89
510,77,2,1,89,95;                                                     97P     90
120,103,101,0.0D0,6.28318530717959D0;                                 99P     91
110,20.0D0,10.0D0,4.5D0,9.67551740606167D0,10.0D0,4.5D0;             101P     92
110,20.0D0,10.0D0,10.0D0,19.0D0,10.0D0,10.0D0;                       103P     93
508,4,0,9,6,1,0,0,9,13,0,0,0,9,4,1,0,0,9,2,1,0;                      105P     94
510,99,1,1,105;                                                      107P     95
120,113,111,0.0D0,6.28318530717959D0;                                109P     96
110,20.0D0,10.0D0,4.5D0,3.175D0,10.0D0,4.5D0;                        111P     97
110,20.0D0,10.0D0,10.0D0,19.0D0,10.0D0,10.0D0;                       113P     98
508,2,0,9,7,1,0,0,9,3,1,0;                                           115P     99
100,0.0D0,0.0D0,0.0D0,-5.5D0,6.73555739531044D-16,-5.5D0,            117P    100
6.73555739531044D-16;                                                117P    101
124,0.0D0,0.0D0,-1.0D0,3.5D0,0.0D0,-1.0D0,0.0D0,10.0D0,-1.0D0,       119P    102
0.0D0,0.0D0,10.0D0;                                                  119P    103
508,1,0,9,14,1,0;                                                    121P    104
510,109,2,1,115,121;                                                 123P    105
116,3.5D0,10.0D0,10.0D0,0;                                           125P    106
123,1.0D0,0.0D0,0.0D0;                                               127P    107
190,125,127,131;                                                     129P    108
123,0.0D0,0.0D0,-1.0D0;                                              131P    109
508,1,0,9,14,0,0;                                                    133P    110
100,0.0D0,0.0D0,0.0D0,-3.57D0,4.37198907295605D-16,-3.57D0,          135P    111
4.37198907295605D-16;                                                135P    112
124,0.0D0,0.0D0,1.0D0,3.5D0,0.0D0,1.0D0,0.0D0,10.0D0,-1.0D0,         137P    113
0.0D0,0.0D0,10.0D0;                                                  137P    114
508,1,0,9,15,0,0;                                                    139P    115
510,129,2,1,133,139;                                                 141P    116
120,147,145,0.0D0,6.28318530717959D0;                                143P    117
110,6.43D0,-.174999999999998D0,10.0D0,6.43D0,3.675D0,10.0D0;         145P    118
110,10.0D0,-.174999999999998D0,10.0D0,10.0D0,.825000000000001D0,     147P    119
10.0D0;                                                              147P    120
508,1,0,9,8,1,0;                                                     149P    121
100,0.0D0,0.0D0,0.0D0,-3.57D0,4.37198907295605D-16,-3.57D0,          151P    122
4.37198907295605D-16;                                                151P    123
124,-1.0D0,0.0D0,0.0D0,10.0D0,0.0D0,0.0D0,1.0D0,                     153P    124
1.48029736616687D-15,0.0D0,1.0D0,0.0D0,10.0D0;                       153P    125
508,1,0,9,16,0,0;                                                    155P    126
510,143,2,1,149,155;                                                 157P    127
120,163,161,0.0D0,6.28318530717959D0;                                159P    128
110,-.175D0,10.0D0,6.43D0,3.675D0,10.0D0,6.43D0;                     161P    129
110,-.175D0,10.0D0,10.0D0,.825D0,10.0D0,10.0D0;                      163P    130
508,1,0,9,15,1,0;                                                    165P    131
100,0.0D0,0.0D0,0.0D0,-3.57D0,4.37198907295605D-16,-3.57D0,          167P    132
4.37198907295605D-16;                                                167P    133
124,0.0D0,0.0D0,1.0D0,0.0D0,0.0D0,1.0D0,0.0D0,10.0D0,-1.0D0,         169P    134
0.0D0,0.0D0,10.0D0;                                                  169P    135
508,1,0,9,17,0,0;                                                    171P    136
510,159,2,1,165,171;                                                 173P    137
116,1.0D0,20.0D0,0.0D0,0;                                            175P    138
123,0.0D0,1.0D0,0.0D0;                                               177P    139
190,175,177,181;                                                     179P    140
123,-1.0D0,0.0D0,0.0D0;                                              181P    141
110,0.0D0,20.0D0,0.0D0,1.0D0,20.0D0,0.0D0;                           183P    142
110,0.0D0,20.0D0,0.0D0,0.0D0,20.0D0,20.0D0;                          185P    143
110,1.0D0,20.0D0,20.0D0,0.0D0,20.0D0,20.0D0;                         187P    144
508,4,0,9,18,0,0,0,9,19,1,0,0,9,20,0,0,0,9,10,0,0;                   189P    145
510,179,1,1,189;                                                     191P    146
116,20.0D0,3.60822483003176D-15,0.0D0,0;                             193P    147
123,1.0D0,0.0D0,0.0D0;                                               195P    148
190,193,195,199;                                                     197P    149
123,0.0D0,1.0D0,0.0D0;                                               199P    150
110,20.0D0,1.0000815791225D0,0.0D0,20.0D0,3.5527136788005D-15,       201P    151
0.0D0;                                                               201P    152
110,20.0D0,3.5527136788005D-15,20.0D0,20.0D0,1.0000815791225D0,      203P    153
20.0D0;                                                              203P    154
110,20.0D0,3.67394039744206D-15,0.0D0,20.0D0,                        205P    155
3.67394039744206D-15,20.0D0;                                         205P    156
508,4,0,9,21,0,0,0,9,12,1,0,0,9,22,0,0,0,9,23,0,0;                   207P    157
510,197,1,1,207;                                                     209P    158
116,0.0D0,0.0D0,0.0D0,0;                                             211P    159
123,0.0D0,-1.0D0,0.0D0;                                              213P    160
190,211,213,217;                                                     215P    161
123,1.0D0,0.0D0,0.0D0;                                               217P    162
110,20.0D0,3.67394039744206D-15,0.0D0,0.0D0,0.0D0,0.0D0;             219P    163
110,0.0D0,0.0D0,20.0D0,20.0D0,3.67394039744206D-15,20.0D0;           221P    164
110,0.0D0,0.0D0,0.0D0,0.0D0,0.0D0,20.0D0;                            223P    165
508,4,0,9,24,0,0,0,9,23,1,0,0,9,25,0,0,0,9,26,0,0;                   225P    166
508,1,0,9,16,1,0;                                                    227P    167
510,215,2,1,225,227;                                                 229P    168
116,0.0D0,20.0D0,0.0D0,0;                                            231P    169
123,-1.0D0,0.0D0,0.0D0;                                              233P    170
190,231,233,237;                                                     235P    171
123,0.0D0,-1.0D0,0.0D0;                                              237P    172
110,0.0D0,0.0D0,0.0D0,0.0D0,20.0D0,0.0D0;                            239P    173
110,0.0D0,20.0D0,20.0D0,0.0D0,0.0D0,20.0D0;                          241P    174
508,4,0,9,27,0,0,0,9,26,1,0,0,9,28,0,0,0,9,19,0,0;                   243P    175
508,1,0,9,17,1,0;                                                    245P    176
510,235,2,1,243,245;                                                 247P    177
116,7.29833071280724D0,7.29832412091017D0,20.0D0,0;                  249P    178
123,0.0D0,0.0D0,1.0D0;                                               251P    179
190,249,251,255;                                                     253P    180
123,1.0D0,0.0D0,0.0D0;                                               255P    181
508,5,0,9,28,1,0,0,9,25,1,0,0,9,22,1,0,0,9,11,1,0,0,9,20,1,0;        257P    182
510,253,1,1,257;                                                     259P    183
116,7.29833071280724D0,7.29832412091017D0,0.0D0,0;                   261P    184
123,0.0D0,0.0D0,-1.0D0;                                              263P    185
190,261,263,267;                                                     265P    186
123,-1.0D0,0.0D0,0.0D0;                                              267P    187
508,5,0,9,27,1,0,0,9,18,1,0,0,9,9,1,0,0,9,21,1,0,0,9,24,1,0;         269P    188
510,265,1,1,269;                                                     271P    189
514,15,29,1,53,1,71,1,97,1,107,1,123,1,141,1,157,1,173,1,191,1,      273P    190
209,1,229,1,247,1,259,1,271,1;                                       273P    191
186,273,1,0;                                                         275P    192
314,92.0000016689301D0,92.0000016689301D0,92.0000016689301D0,;       277P    193
S      1G      4D    278P    193                                        T      1
