                                                                        S      1
,,37HCorner Connector - Three Way Cube.ipt,27HNo Iges File Name specifieG      1
d,22HAutodesk Inventor 2013,37HAutoDesk Inventor Iges Exporter R2013,32,G      2
38,6,99,15,37HCorner Connector - Three Way Cube.ipt,1.0D0,2,2HMM,1,     G      3
.08D0,15H20140422.180341,.01D0,10000.0D0,4HWork,,11,0,,;                G      4
     406       1       0       0       1       0       0       000000000D      1
     406       0       0       1       3                               0D      2
     120       2       0       0       0       0       0       000010000D      3
     120       0       0       1       0                               0D      4
     110       3       0       0       0       0       0       000010000D      5
     110       0       0       1       0                               0D      6
     110       4       0       0       0       0       0       001010000D      7
     110       0       0       1       0                               0D      8
     504       5       0       0       0       0       0       000010001D      9
     504       0       0       9       1                               0D     10
     502      14       0       0       0       0       0       000010000D     11
     502       0       0      15       1                               0D     12
     100      29       0       0       0       0      15       000010000D     13
     100       0       0       2       0                               0D     14
     124      31       0       0       0       0       0       000000000D     15
     124       0       0       2       0                               0D     16
     508      33       0       0       0       0       0       000010000D     17
     508       0       0       1       1                               0D     18
     104      34       0       0       0       0      21       000010000D     19
     104       0       0       2       1                               0D     20
     124      36       0       0       0       0       0       000000000D     21
     124       0       0       4       0                               0D     22
     104      40       0       0       0       0      25       000010000D     23
     104       0       0       2       1                               0D     24
     124      42       0       0       0       0       0       000000000D     25
     124       0       0       3       0                               0D     26
     104      45       0       0       0       0      29       000010000D     27
     104       0       0       2       1                               0D     28
     124      47       0       0       0       0       0       000000000D     29
     124       0       0       4       0                               0D     30
     104      51       0       0       0       0      33       000010000D     31
     104       0       0       2       1                               0D     32
     124      53       0       0       0       0       0       000000000D     33
     124       0       0       3       0                               0D     34
     508      56       0       0       0       0       0       000010000D     35
     508       0       0       1       1                               0D     36
     510      57       0       0       0       0       0       000010000D     37
     510       0    -361       1       1                               0D     38
     120      58       0       0       0       0       0       000010000D     39
     120       0       0       1       0                               0D     40
     110      59       0       0       0       0       0       000010000D     41
     110       0       0       2       0                               0D     42
     110      61       0       0       0       0       0       001010000D     43
     110       0       0       2       0                               0D     44
     104      63       0       0       0       0      47       000010000D     45
     104       0       0       2       1                               0D     46
     124      65       0       0       0       0       0       000000000D     47
     124       0       0       4       0                               0D     48
     104      69       0       0       0       0      51       000010000D     49
     104       0       0       2       1                               0D     50
     124      71       0       0       0       0       0       000000000D     51
     124       0       0       3       0                               0D     52
     104      74       0       0       0       0      55       000010000D     53
     104       0       0       2       1                               0D     54
     124      76       0       0       0       0       0       000000000D     55
     124       0       0       4       0                               0D     56
     104      80       0       0       0       0      59       000010000D     57
     104       0       0       2       1                               0D     58
     124      82       0       0       0       0       0       000000000D     59
     124       0       0       3       0                               0D     60
     508      85       0       0       0       0       0       000010000D     61
     508       0       0       1       1                               0D     62
     100      86       0       0       0       0      65       000010000D     63
     100       0       0       2       0                               0D     64
     124      88       0       0       0       0       0       000000000D     65
     124       0       0       2       0                               0D     66
     508      90       0       0       0       0       0       000010000D     67
     508       0       0       1       1                               0D     68
     510      91       0       0       0       0       0       000010000D     69
     510       0    -361       1       1                               0D     70
     116      92       0       0       0       0       0       000010000D     71
     116       0       0       1       0                               0D     72
     123      93       0       0       0       0       0       000010200D     73
     123       0       0       1       0                               0D     74
     190      94       0       0       0       0       0       000010000D     75
     190       0       0       1       1                               0D     76
     123      95       0       0       0       0       0       000010200D     77
     123       0       0       1       0                               0D     78
     508      96       0       0       0       0       0       000010000D     79
     508       0       0       1       1                               0D     80
     100      97       0       0       0       0      15       000010000D     81
     100       0       0       2       0                               0D     82
     508      99       0       0       0       0       0       000010000D     83
     508       0       0       1       1                               0D     84
     510     100       0       0       0       0       0       000010000D     85
     510       0    -361       1       1                               0D     86
     120     101       0       0       0       0       0       000010000D     87
     120       0       0       1       0                               0D     88
     110     102       0       0       0       0       0       000010000D     89
     110       0       0       1       0                               0D     90
     110     103       0       0       0       0       0       001010000D     91
     110       0       0       1       0                               0D     92
     508     104       0       0       0       0       0       000010000D     93
     508       0       0       1       1                               0D     94
     100     105       0       0       0       0      97       000010000D     95
     100       0       0       2       0                               0D     96
     124     107       0       0       0       0       0       000000000D     97
     124       0       0       2       0                               0D     98
     508     109       0       0       0       0       0       000010000D     99
     508       0       0       1       1                               0D    100
     510     110       0       0       0       0       0       000010000D    101
     510       0    -361       1       1                               0D    102
     120     111       0       0       0       0       0       000010000D    103
     120       0       0       1       0                               0D    104
     110     112       0       0       0       0       0       000010000D    105
     110       0       0       1       0                               0D    106
     110     113       0       0       0       0       0       001010000D    107
     110       0       0       1       0                               0D    108
     100     114       0       0       0       0     111       000010000D    109
     100       0       0       2       0                               0D    110
     124     116       0       0       0       0       0       000000000D    111
     124       0       0       2       0                               0D    112
     508     118       0       0       0       0       0       000010000D    113
     508       0       0       1       1                               0D    114
     104     119       0       0       0       0     117       000010000D    115
     104       0       0       3       1                               0D    116
     124     122       0       0       0       0       0       000000000D    117
     124       0       0       3       0                               0D    118
     104     125       0       0       0       0     121       000010000D    119
     104       0       0       3       1                               0D    120
     124     128       0       0       0       0       0       000000000D    121
     124       0       0       3       0                               0D    122
     508     131       0       0       0       0       0       000010000D    123
     508       0       0       1       1                               0D    124
     510     132       0       0       0       0       0       000010000D    125
     510       0    -361       1       1                               0D    126
     120     133       0       0       0       0       0       000010000D    127
     120       0       0       1       0                               0D    128
     110     134       0       0       0       0       0       000010000D    129
     110       0       0       1       0                               0D    130
     110     135       0       0       0       0       0       001010000D    131
     110       0       0       1       0                               0D    132
     104     136       0       0       0       0     135       000010000D    133
     104       0       0       2       1                               0D    134
     124     138       0       0       0       0       0       000000000D    135
     124       0       0       3       0                               0D    136
     508     141       0       0       0       0       0       000010000D    137
     508       0       0       1       1                               0D    138
     100     142       0       0       0       0     141       000010000D    139
     100       0       0       2       0                               0D    140
     124     144       0       0       0       0       0       000000000D    141
     124       0       0       2       0                               0D    142
     508     146       0       0       0       0       0       000010000D    143
     508       0       0       1       1                               0D    144
     510     147       0       0       0       0       0       000010000D    145
     510       0    -361       1       1                               0D    146
     120     148       0       0       0       0       0       000010000D    147
     120       0       0       1       0                               0D    148
     110     149       0       0       0       0       0       000010000D    149
     110       0       0       2       0                               0D    150
     110     151       0       0       0       0       0       001010000D    151
     110       0       0       2       0                               0D    152
     104     153       0       0       0       0     155       000010000D    153
     104       0       0       2       1                               0D    154
     124     155       0       0       0       0       0       000000000D    155
     124       0       0       3       0                               0D    156
     508     158       0       0       0       0       0       000010000D    157
     508       0       0       1       1                               0D    158
     100     159       0       0       0       0     161       000010000D    159
     100       0       0       2       0                               0D    160
     124     161       0       0       0       0       0       000000000D    161
     124       0       0       2       0                               0D    162
     508     163       0       0       0       0       0       000010000D    163
     508       0       0       1       1                               0D    164
     510     164       0       0       0       0       0       000010000D    165
     510       0    -361       1       1                               0D    166
     116     165       0       0       0       0       0       000010000D    167
     116       0       0       1       0                               0D    168
     123     166       0       0       0       0       0       000010200D    169
     123       0       0       1       0                               0D    170
     190     167       0       0       0       0       0       000010000D    171
     190       0       0       1       1                               0D    172
     123     168       0       0       0       0       0       000010200D    173
     123       0       0       1       0                               0D    174
     508     169       0       0       0       0       0       000010000D    175
     508       0       0       1       1                               0D    176
     100     170       0       0       0       0     141       000010000D    177
     100       0       0       2       0                               0D    178
     508     172       0       0       0       0       0       000010000D    179
     508       0       0       1       1                               0D    180
     510     173       0       0       0       0       0       000010000D    181
     510       0    -361       1       1                               0D    182
     120     174       0       0       0       0       0       000010000D    183
     120       0       0       1       0                               0D    184
     110     175       0       0       0       0       0       000010000D    185
     110       0       0       1       0                               0D    186
     110     176       0       0       0       0       0       001010000D    187
     110       0       0       1       0                               0D    188
     508     177       0       0       0       0       0       000010000D    189
     508       0       0       1       1                               0D    190
     100     178       0       0       0       0     193       000010000D    191
     100       0       0       2       0                               0D    192
     124     180       0       0       0       0       0       000000000D    193
     124       0       0       2       0                               0D    194
     508     182       0       0       0       0       0       000010000D    195
     508       0       0       1       1                               0D    196
     510     183       0       0       0       0       0       000010000D    197
     510       0    -361       1       1                               0D    198
     120     184       0       0       0       0       0       000010000D    199
     120       0       0       1       0                               0D    200
     110     185       0       0       0       0       0       000010000D    201
     110       0       0       2       0                               0D    202
     110     187       0       0       0       0       0       001010000D    203
     110       0       0       2       0                               0D    204
     508     189       0       0       0       0       0       000010000D    205
     508       0       0       1       1                               0D    206
     100     190       0       0       0       0     209       000010000D    207
     100       0       0       2       0                               0D    208
     124     192       0       0       0       0       0       000000000D    209
     124       0       0       2       0                               0D    210
     508     194       0       0       0       0       0       000010000D    211
     508       0       0       1       1                               0D    212
     510     195       0       0       0       0       0       000010000D    213
     510       0    -361       1       1                               0D    214
     116     196       0       0       0       0       0       000010000D    215
     116       0       0       1       0                               0D    216
     123     197       0       0       0       0       0       000010200D    217
     123       0       0       1       0                               0D    218
     190     198       0       0       0       0       0       000010000D    219
     190       0       0       1       1                               0D    220
     123     199       0       0       0       0       0       000010200D    221
     123       0       0       1       0                               0D    222
     508     200       0       0       0       0       0       000010000D    223
     508       0       0       1       1                               0D    224
     100     201       0       0       0       0     227       000010000D    225
     100       0       0       2       0                               0D    226
     124     203       0       0       0       0       0       000000000D    227
     124       0       0       2       0                               0D    228
     508     205       0       0       0       0       0       000010000D    229
     508       0       0       1       1                               0D    230
     510     206       0       0       0       0       0       000010000D    231
     510       0    -361       1       1                               0D    232
     120     207       0       0       0       0       0       000010000D    233
     120       0       0       1       0                               0D    234
     110     208       0       0       0       0       0       000010000D    235
     110       0       0       1       0                               0D    236
     110     209       0       0       0       0       0       001010000D    237
     110       0       0       1       0                               0D    238
     508     210       0       0       0       0       0       000010000D    239
     508       0       0       1       1                               0D    240
     100     211       0       0       0       0     243       000010000D    241
     100       0       0       2       0                               0D    242
     124     213       0       0       0       0       0       000000000D    243
     124       0       0       2       0                               0D    244
     508     215       0       0       0       0       0       000010000D    245
     508       0       0       1       1                               0D    246
     510     216       0       0       0       0       0       000010000D    247
     510       0    -361       1       1                               0D    248
     116     217       0       0       0       0       0       000010000D    249
     116       0       0       1       0                               0D    250
     123     218       0       0       0       0       0       000010200D    251
     123       0       0       1       0                               0D    252
     190     219       0       0       0       0       0       000010000D    253
     190       0       0       1       1                               0D    254
     123     220       0       0       0       0       0       000010200D    255
     123       0       0       1       0                               0D    256
     110     221       0       0       0       0       0       000010000D    257
     110       0       0       1       0                               0D    258
     110     222       0       0       0       0       0       000010000D    259
     110       0       0       1       0                               0D    260
     110     223       0       0       0       0       0       000010000D    261
     110       0       0       1       0                               0D    262
     110     224       0       0       0       0       0       000010000D    263
     110       0       0       1       0                               0D    264
     508     225       0       0       0       0       0       000010000D    265
     508       0       0       1       1                               0D    266
     508     226       0       0       0       0       0       000010000D    267
     508       0       0       1       1                               0D    268
     510     227       0       0       0       0       0       000010000D    269
     510       0    -361       1       1                               0D    270
     116     228       0       0       0       0       0       000010000D    271
     116       0       0       1       0                               0D    272
     123     229       0       0       0       0       0       000010200D    273
     123       0       0       1       0                               0D    274
     190     230       0       0       0       0       0       000010000D    275
     190       0       0       1       1                               0D    276
     123     231       0       0       0       0       0       000010200D    277
     123       0       0       1       0                               0D    278
     110     232       0       0       0       0       0       000010000D    279
     110       0       0       1       0                               0D    280
     110     233       0       0       0       0       0       000010000D    281
     110       0       0       1       0                               0D    282
     110     234       0       0       0       0       0       000010000D    283
     110       0       0       1       0                               0D    284
     508     235       0       0       0       0       0       000010000D    285
     508       0       0       1       1                               0D    286
     508     236       0       0       0       0       0       000010000D    287
     508       0       0       1       1                               0D    288
     510     237       0       0       0       0       0       000010000D    289
     510       0    -361       1       1                               0D    290
     116     238       0       0       0       0       0       000010000D    291
     116       0       0       1       0                               0D    292
     123     239       0       0       0       0       0       000010200D    293
     123       0       0       1       0                               0D    294
     190     240       0       0       0       0       0       000010000D    295
     190       0       0       1       1                               0D    296
     123     241       0       0       0       0       0       000010200D    297
     123       0       0       1       0                               0D    298
     110     242       0       0       0       0       0       000010000D    299
     110       0       0       1       0                               0D    300
     110     243       0       0       0       0       0       000010000D    301
     110       0       0       1       0                               0D    302
     110     244       0       0       0       0       0       000010000D    303
     110       0       0       1       0                               0D    304
     508     245       0       0       0       0       0       000010000D    305
     508       0       0       1       1                               0D    306
     508     246       0       0       0       0       0       000010000D    307
     508       0       0       1       1                               0D    308
     510     247       0       0       0       0       0       000010000D    309
     510       0    -361       1       1                               0D    310
     116     248       0       0       0       0       0       000010000D    311
     116       0       0       1       0                               0D    312
     123     249       0       0       0       0       0       000010200D    313
     123       0       0       1       0                               0D    314
     190     250       0       0       0       0       0       000010000D    315
     190       0       0       1       1                               0D    316
     123     251       0       0       0       0       0       000010200D    317
     123       0       0       1       0                               0D    318
     110     252       0       0       0       0       0       000010000D    319
     110       0       0       1       0                               0D    320
     110     253       0       0       0       0       0       000010000D    321
     110       0       0       1       0                               0D    322
     508     254       0       0       0       0       0       000010000D    323
     508       0       0       1       1                               0D    324
     508     255       0       0       0       0       0       000010000D    325
     508       0       0       1       1                               0D    326
     510     256       0       0       0       0       0       000010000D    327
     510       0    -361       1       1                               0D    328
     116     257       0       0       0       0       0       000010000D    329
     116       0       0       1       0                               0D    330
     123     258       0       0       0       0       0       000010200D    331
     123       0       0       1       0                               0D    332
     190     259       0       0       0       0       0       000010000D    333
     190       0       0       1       1                               0D    334
     123     260       0       0       0       0       0       000010200D    335
     123       0       0       1       0                               0D    336
     508     261       0       0       0       0       0       000010000D    337
     508       0       0       1       1                               0D    338
     508     262       0       0       0       0       0       000010000D    339
     508       0       0       1       1                               0D    340
     510     263       0       0       0       0       0       000010000D    341
     510       0    -361       1       1                               0D    342
     116     264       0       0       0       0       0       000010000D    343
     116       0       0       1       0                               0D    344
     123     265       0       0       0       0       0       000010200D    345
     123       0       0       1       0                               0D    346
     190     266       0       0       0       0       0       000010000D    347
     190       0       0       1       1                               0D    348
     123     267       0       0       0       0       0       000010200D    349
     123       0       0       1       0                               0D    350
     508     268       0       0       0       0       0       000010000D    351
     508       0       0       1       1                               0D    352
     508     269       0       0       0       0       0       000010000D    353
     508       0       0       1       1                               0D    354
     510     270       0       0       0       0       0       000010000D    355
     510       0    -361       1       1                               0D    356
     514     271       0       0       0       0       0       000010000D    357
     514       0       0       2       1                               0D    358
     186     273       0       0       1       0       0       000000000D    359
     186       0       0       1       0                  Solid1       0D    360
     314     274       0       0       0       0       0       000000000D    361
     314       0       8       1       0                               0D    362
406,2,0,33HCorner Connector - Three Way Cube;                          1P      1
120,7,5,0.0D0,6.28318530717959D0;                                      3P      2
110,0.0D0,10.0D0,4.5D0,16.6305456351737D0,10.0D0,4.5D0;                5P      3
110,0.0D0,10.0D0,10.0D0,1.0D0,10.0D0,10.0D0;                           7P      4
504,36,13,11,1,11,1,19,11,2,11,3,23,11,4,11,2,27,11,5,11,4,31,         9P      5
11,3,11,5,45,11,6,11,7,49,11,8,11,6,53,11,9,11,8,57,11,7,11,9,         9P      6
63,11,10,11,10,81,11,11,11,11,95,11,12,11,12,109,11,13,11,13,          9P      7
115,11,6,11,3,119,11,5,11,8,133,11,9,11,4,139,11,14,11,14,153,         9P      8
11,2,11,7,159,11,15,11,15,177,11,16,11,16,191,11,17,11,17,207,         9P      9
11,18,11,18,225,11,19,11,19,241,11,20,11,20,257,11,21,11,22,259,       9P     10
11,22,11,23,261,11,24,11,23,263,11,21,11,24,279,11,25,11,21,281,       9P     11
11,26,11,24,283,11,25,11,26,299,11,27,11,25,301,11,28,11,26,303,       9P     12
11,27,11,28,319,11,22,11,27,321,11,23,11,28;                           9P     13
502,28,16.5D0,10.0D0,15.5D0,13.889087296526D0,                        11P     14
6.11091270347399D0,13.889087296526D0,13.889087296526D0,               11P     15
6.11091270347399D0,6.11091270347399D0,13.889087296526D0,              11P     16
13.889087296526D0,13.889087296526D0,13.889087296526D0,                11P     17
13.889087296526D0,6.11091270347399D0,6.11091270347399D0,              11P     18
6.11091270347399D0,6.11091270347399D0,6.11091270347399D0,             11P     19
6.11091270347399D0,13.889087296526D0,6.11091270347399D0,              11P     20
13.889087296526D0,6.11091270347399D0,6.11091270347399D0,              11P     21
13.889087296526D0,13.889087296526D0,0.0D0,10.0D0,15.5D0,16.5D0,       11P     22
10.0D0,13.57D0,20.0D0,10.0D0,13.57D0,15.5D0,10.0D0,3.5D0,15.5D0,      11P     23
16.5D0,10.0D0,15.5D0,0.0D0,10.0D0,13.57D0,16.5D0,10.0D0,13.57D0,      11P     24
20.0D0,10.0D0,15.5D0,10.0D0,20.0D0,13.57D0,10.0D0,3.5D0,13.57D0,      11P     25
10.0D0,0.0D0,0.0D0,20.0D0,0.0D0,0.0D0,0.0D0,0.0D0,0.0D0,0.0D0,        11P     26
20.0D0,0.0D0,20.0D0,20.0D0,20.0D0,20.0D0,0.0D0,20.0D0,20.0D0,         11P     27
20.0D0,20.0D0,0.0D0,0.0D0,20.0D0,0.0D0,20.0D0;                        11P     28
100,0.0D0,0.0D0,0.0D0,-5.5D0,6.73555739531044D-16,-5.5D0,             13P     29
6.73555739531044D-16;                                                 13P     30
124,0.0D0,0.0D0,1.0D0,16.5D0,0.0D0,1.0D0,0.0D0,10.0D0,-1.0D0,         15P     31
0.0D0,0.0D0,10.0D0;                                                   15P     32
508,1,0,9,1,1,0;                                                      17P     33
104,30.25D0,0.0D0,60.5D0,0.0D0,0.0D0,-1830.125D0,0.0D0,-5.5D0,        19P     34
3.88908729652601D0,-5.5D0,-3.88908729652601D0;                        19P     35
124,-.707106781186548D0,3.06161699786838D-17,.707106781186548D0,      21P     36
10.0D0,.707106781186548D0,-3.06161699786838D-17,                      21P     37
.707106781186548D0,10.0D0,4.32978028117747D-17,1.0D0,0.0D0,           21P     38
10.0D0;                                                               21P     39
104,30.25D0,0.0D0,60.5D0,0.0D0,0.0D0,-1830.125D0,0.0D0,-5.5D0,        23P     40
3.88908729652601D0,-5.5D0,-3.88908729652601D0;                        23P     41
124,-.707106781186548D0,0.0D0,.707106781186548D0,10.0D0,0.0D0,        25P     42
1.0D0,0.0D0,10.0D0,-.707106781186548D0,0.0D0,                         25P     43
-.707106781186548D0,10.0D0;                                           25P     44
104,30.25D0,0.0D0,60.5D0,0.0D0,0.0D0,-1830.125D0,0.0D0,5.5D0,         27P     45
-3.88908729652601D0,5.5D0,3.88908729652601D0;                         27P     46
124,.707106781186548D0,3.06161699786838D-17,.707106781186548D0,       29P     47
10.0D0,.707106781186548D0,3.06161699786838D-17,                       29P     48
-.707106781186548D0,10.0D0,-4.32978028117747D-17,1.0D0,0.0D0,         29P     49
10.0D0;                                                               29P     50
104,30.25D0,0.0D0,60.5D0,0.0D0,0.0D0,-1830.125D0,0.0D0,5.5D0,         31P     51
-3.88908729652601D0,5.5D0,3.88908729652601D0;                         31P     52
124,.707106781186548D0,0.0D0,.707106781186548D0,10.0D0,0.0D0,         33P     53
1.0D0,0.0D0,10.0D0,-.707106781186548D0,0.0D0,.707106781186548D0,      33P     54
10.0D0;                                                               33P     55
508,4,0,9,2,0,0,0,9,3,0,0,0,9,4,0,0,0,9,5,0,0;                        35P     56
510,3,2,1,17,35;                                                      37P     57
120,43,41,0.0D0,6.28318530717959D0;                                   39P     58
110,-.305545635173699D0,10.0D0,4.5D0,6.41645833864769D0,10.0D0,       41P     59
4.5D0;                                                                41P     60
110,-.305545635173699D0,10.0D0,10.0D0,.694454364826301D0,10.0D0,      43P     61
10.0D0;                                                               43P     62
104,30.25D0,0.0D0,60.5D0,0.0D0,0.0D0,-1830.125D0,0.0D0,-5.5D0,        45P     63
3.88908729652601D0,-5.5D0,-3.88908729652601D0;                        45P     64
124,.707106781186548D0,-3.06161699786838D-17,                         47P     65
-.707106781186548D0,10.0D0,.707106781186548D0,                        47P     66
-3.06161699786838D-17,.707106781186548D0,10.0D0,                      47P     67
-4.32978028117747D-17,-1.0D0,0.0D0,10.0D0;                            47P     68
104,30.25D0,0.0D0,60.5D0,0.0D0,0.0D0,-1830.125D0,0.0D0,5.5D0,         49P     69
-3.88908729652601D0,5.5D0,3.88908729652601D0;                         49P     70
124,-.707106781186548D0,0.0D0,-.707106781186548D0,10.0D0,0.0D0,       51P     71
-1.0D0,0.0D0,10.0D0,-.707106781186548D0,0.0D0,                        51P     72
.707106781186548D0,10.0D0;                                            51P     73
104,30.25D0,0.0D0,60.5D0,0.0D0,0.0D0,-1830.125D0,0.0D0,5.5D0,         53P     74
-3.88908729652601D0,5.5D0,3.88908729652601D0;                         53P     75
124,-.707106781186548D0,-3.06161699786838D-17,                        55P     76
-.707106781186548D0,10.0D0,.707106781186548D0,                        55P     77
3.06161699786838D-17,-.707106781186548D0,10.0D0,                      55P     78
4.32978028117747D-17,-1.0D0,0.0D0,10.0D0;                             55P     79
104,30.25D0,0.0D0,60.5D0,0.0D0,0.0D0,-1830.125D0,0.0D0,-5.5D0,        57P     80
3.88908729652601D0,-5.5D0,-3.88908729652601D0;                        57P     81
124,.707106781186548D0,0.0D0,-.707106781186548D0,10.0D0,0.0D0,        59P     82
-1.0D0,0.0D0,10.0D0,-.707106781186548D0,0.0D0,                        59P     83
-.707106781186548D0,10.0D0;                                           59P     84
508,4,0,9,6,0,0,0,9,7,0,0,0,9,8,0,0,0,9,9,0,0;                        61P     85
100,0.0D0,0.0D0,0.0D0,-5.5D0,6.73555739531044D-16,-5.5D0,             63P     86
6.73555739531044D-16;                                                 63P     87
124,0.0D0,0.0D0,1.0D0,6.12323399573677D-16,0.0D0,1.0D0,0.0D0,         65P     88
10.0D0,-1.0D0,0.0D0,0.0D0,10.0D0;                                     65P     89
508,1,0,9,10,0,0;                                                     67P     90
510,39,2,1,61,67;                                                     69P     91
116,16.5D0,10.0D0,10.0D0,0;                                           71P     92
123,-1.0D0,0.0D0,0.0D0;                                               73P     93
190,71,73,77;                                                         75P     94
123,0.0D0,0.0D0,1.0D0;                                                77P     95
508,1,0,9,1,0,0;                                                      79P     96
100,0.0D0,0.0D0,0.0D0,-3.57D0,4.37198907295605D-16,-3.57D0,           81P     97
4.37198907295605D-16;                                                 81P     98
508,1,0,9,11,1,0;                                                     83P     99
510,75,2,1,79,83;                                                     85P    100
120,91,89,0.0D0,6.28318530717959D0;                                   87P    101
110,0.0D0,10.0D0,6.43D0,20.175D0,10.0D0,6.43D0;                       89P    102
110,0.0D0,10.0D0,10.0D0,1.0D0,10.0D0,10.0D0;                          91P    103
508,1,0,9,11,0,0;                                                     93P    104
100,0.0D0,0.0D0,0.0D0,-3.57D0,4.37198907295605D-16,-3.57D0,           95P    105
4.37198907295605D-16;                                                 95P    106
124,0.0D0,0.0D0,-1.0D0,20.0D0,0.0D0,-1.0D0,0.0D0,10.0D0,-1.0D0,       97P    107
0.0D0,0.0D0,10.0D0;                                                   97P    108
508,1,0,9,12,0,0;                                                     99P    109
510,87,2,1,93,99;                                                    101P    110
120,107,105,0.0D0,6.28318530717959D0;                                103P    111
110,4.5D0,10.0D0,20.0D0,4.5D0,10.0D0,3.3694543648263D0;              105P    112
110,10.0D0,10.0D0,20.0D0,10.0D0,10.0D0,19.0D0;                       107P    113
100,0.0D0,0.0D0,0.0D0,-5.5D0,6.73555739531044D-16,-5.5D0,            109P    114
6.73555739531044D-16;                                                109P    115
124,-1.0D0,0.0D0,0.0D0,10.0D0,0.0D0,1.0D0,0.0D0,10.0D0,0.0D0,        111P    116
0.0D0,-1.0D0,3.5D0;                                                  111P    117
508,1,0,9,13,1,0;                                                    113P    118
104,30.25D0,0.0D0,60.5D0,0.0D0,0.0D0,-1830.125D0,0.0D0,              115P    119
-5.49999999999999D0,3.88908729652602D0,-5.5D0,                       115P    120
-3.88908729652601D0;                                                 115P    121
124,0.0D0,-1.0D0,0.0D0,10.0D0,.707106781186548D0,0.0D0,              117P    122
-.707106781186548D0,10.0D0,.707106781186548D0,0.0D0,                 117P    123
.707106781186548D0,10.0D0;                                           117P    124
104,30.25D0,0.0D0,60.5D0,0.0D0,0.0D0,-1830.125D0,0.0D0,              119P    125
-5.49999999999999D0,3.88908729652602D0,-5.5D0,                       119P    126
-3.88908729652601D0;                                                 119P    127
124,0.0D0,1.0D0,0.0D0,10.0D0,-.707106781186548D0,0.0D0,              121P    128
.707106781186548D0,10.0D0,.707106781186548D0,0.0D0,                  121P    129
.707106781186548D0,10.0D0;                                           121P    130
508,4,0,9,7,1,0,0,9,14,1,0,0,9,5,1,0,0,9,15,1,0;                     123P    131
510,103,2,1,113,123;                                                 125P    132
120,131,129,0.0D0,6.28318530717959D0;                                127P    133
110,4.5D0,0.0D0,10.0D0,4.5D0,16.6305456351737D0,10.0D0;              129P    134
110,10.0D0,0.0D0,10.0D0,10.0D0,1.0D0,10.0D0;                         131P    135
104,30.25D0,0.0D0,60.5D0,0.0D0,0.0D0,-1830.125D0,0.0D0,5.5D0,        133P    136
-3.88908729652601D0,5.5D0,3.88908729652601D0;                        133P    137
124,0.0D0,1.0D0,0.0D0,10.0D0,.707106781186548D0,0.0D0,               135P    138
.707106781186548D0,10.0D0,.707106781186548D0,0.0D0,                  135P    139
-.707106781186548D0,10.0D0;                                          135P    140
508,4,0,9,8,1,0,0,9,15,0,0,0,9,4,1,0,0,9,16,0,0;                     137P    141
100,0.0D0,0.0D0,0.0D0,-5.5D0,6.73555739531044D-16,-5.5D0,            139P    142
6.73555739531044D-16;                                                139P    143
124,-1.0D0,0.0D0,0.0D0,10.0D0,0.0D0,0.0D0,1.0D0,16.5D0,0.0D0,        141P    144
1.0D0,0.0D0,10.0D0;                                                  141P    145
508,1,0,9,17,1,0;                                                    143P    146
510,127,2,1,137,143;                                                 145P    147
120,151,149,0.0D0,6.28318530717959D0;                                147P    148
110,4.5D0,-.3055456351737D0,10.0D0,4.5D0,6.41645833864769D0,         149P    149
10.0D0;                                                              149P    150
110,10.0D0,-.3055456351737D0,10.0D0,10.0D0,.6944543648263D0,         151P    151
10.0D0;                                                              151P    152
104,30.25D0,0.0D0,60.5D0,0.0D0,0.0D0,-1830.125D0,0.0D0,5.5D0,        153P    153
-3.88908729652601D0,5.5D0,3.88908729652601D0;                        153P    154
124,0.0D0,-1.0D0,0.0D0,10.0D0,-.707106781186548D0,0.0D0,             155P    155
-.707106781186548D0,10.0D0,.707106781186548D0,0.0D0,                 155P    156
-.707106781186548D0,10.0D0;                                          155P    157
508,4,0,9,6,1,0,0,9,18,0,0,0,9,2,1,0,0,9,14,0,0;                     157P    158
100,0.0D0,0.0D0,0.0D0,-5.5D0,6.73555739531044D-16,-5.5D0,            159P    159
6.73555739531044D-16;                                                159P    160
124,-1.0D0,0.0D0,0.0D0,10.0D0,0.0D0,0.0D0,1.0D0,                     161P    161
6.12323399573677D-16,0.0D0,1.0D0,0.0D0,10.0D0;                       161P    162
508,1,0,9,19,0,0;                                                    163P    163
510,147,2,1,157,163;                                                 165P    164
116,10.0D0,16.5D0,10.0D0,0;                                          167P    165
123,0.0D0,-1.0D0,0.0D0;                                              169P    166
190,167,169,173;                                                     171P    167
123,1.0D0,0.0D0,0.0D0;                                               173P    168
508,1,0,9,17,0,0;                                                    175P    169
100,0.0D0,0.0D0,0.0D0,-3.57D0,4.37198907295605D-16,-3.57D0,          177P    170
4.37198907295605D-16;                                                177P    171
508,1,0,9,20,1,0;                                                    179P    172
510,171,2,1,175,179;                                                 181P    173
120,187,185,0.0D0,6.28318530717959D0;                                183P    174
110,6.43D0,0.0D0,10.0D0,6.43D0,20.175D0,10.0D0;                      185P    175
110,10.0D0,0.0D0,10.0D0,10.0D0,1.0D0,10.0D0;                         187P    176
508,1,0,9,20,0,0;                                                    189P    177
100,0.0D0,0.0D0,0.0D0,-3.57D0,4.37198907295605D-16,-3.57D0,          191P    178
4.37198907295605D-16;                                                191P    179
124,-1.0D0,0.0D0,0.0D0,10.0D0,0.0D0,0.0D0,-1.0D0,20.0D0,0.0D0,       193P    180
-1.0D0,0.0D0,10.0D0;                                                 193P    181
508,1,0,9,21,0,0;                                                    195P    182
510,183,2,1,189,195;                                                 197P    183
120,203,201,0.0D0,6.28318530717959D0;                                199P    184
110,4.5D0,10.0D0,20.3055456351737D0,4.5D0,10.0D0,                    201P    185
13.5835416613523D0;                                                  201P    186
110,10.0D0,10.0D0,20.3055456351737D0,10.0D0,10.0D0,                  203P    187
19.3055456351737D0;                                                  203P    188
508,4,0,9,9,1,0,0,9,16,1,0,0,9,3,1,0,0,9,18,1,0;                     205P    189
100,0.0D0,0.0D0,0.0D0,-5.5D0,6.73555739531044D-16,-5.5D0,            207P    190
6.73555739531044D-16;                                                207P    191
124,-1.0D0,0.0D0,0.0D0,10.0D0,0.0D0,1.0D0,0.0D0,10.0D0,0.0D0,        209P    192
0.0D0,-1.0D0,20.0D0;                                                 209P    193
508,1,0,9,22,0,0;                                                    211P    194
510,199,2,1,205,211;                                                 213P    195
116,10.0D0,10.0D0,3.5D0,0;                                           215P    196
123,0.0D0,0.0D0,1.0D0;                                               217P    197
190,215,217,221;                                                     219P    198
123,1.0D0,0.0D0,0.0D0;                                               221P    199
508,1,0,9,13,0,0;                                                    223P    200
100,0.0D0,0.0D0,0.0D0,-3.57D0,4.37198907295605D-16,-3.57D0,          225P    201
4.37198907295605D-16;                                                225P    202
124,-1.0D0,0.0D0,0.0D0,10.0D0,0.0D0,-1.0D0,0.0D0,10.0D0,0.0D0,       227P    203
0.0D0,1.0D0,3.5D0;                                                   227P    204
508,1,0,9,23,0,0;                                                    229P    205
510,219,2,1,223,229;                                                 231P    206
120,237,235,0.0D0,6.28318530717959D0;                                233P    207
110,6.43D0,10.0D0,20.0D0,6.43D0,10.0D0,-.175000000000001D0;          235P    208
110,10.0D0,10.0D0,20.0D0,10.0D0,10.0D0,19.0D0;                       237P    209
508,1,0,9,23,1,0;                                                    239P    210
100,0.0D0,0.0D0,0.0D0,-3.57D0,4.37198907295605D-16,-3.57D0,          241P    211
4.37198907295605D-16;                                                241P    212
124,-1.0D0,0.0D0,0.0D0,10.0D0,0.0D0,-1.0D0,0.0D0,10.0D0,0.0D0,       243P    213
0.0D0,1.0D0,0.0D0;                                                   243P    214
508,1,0,9,24,0,0;                                                    245P    215
510,233,2,1,239,245;                                                 247P    216
116,0.0D0,20.0D0,0.0D0,0;                                            249P    217
123,-1.0D0,0.0D0,0.0D0;                                              251P    218
190,249,251,255;                                                     253P    219
123,0.0D0,-1.0D0,0.0D0;                                              255P    220
110,0.0D0,20.0D0,0.0D0,0.0D0,0.0D0,0.0D0;                            257P    221
110,0.0D0,0.0D0,0.0D0,0.0D0,0.0D0,20.0D0;                            259P    222
110,0.0D0,20.0D0,20.0D0,0.0D0,0.0D0,20.0D0;                          261P    223
110,0.0D0,20.0D0,0.0D0,0.0D0,20.0D0,20.0D0;                          263P    224
508,4,0,9,25,1,0,0,9,26,1,0,0,9,27,0,0,0,9,28,0,0;                   265P    225
508,1,0,9,10,1,0;                                                    267P    226
510,253,2,1,265,267;                                                 269P    227
116,20.0D0,20.0D0,0.0D0,0;                                           271P    228
123,0.0D0,1.0D0,0.0D0;                                               273P    229
190,271,273,277;                                                     275P    230
123,-1.0D0,0.0D0,0.0D0;                                              277P    231
110,20.0D0,20.0D0,0.0D0,0.0D0,20.0D0,0.0D0;                          279P    232
110,20.0D0,20.0D0,20.0D0,0.0D0,20.0D0,20.0D0;                        281P    233
110,20.0D0,20.0D0,0.0D0,20.0D0,20.0D0,20.0D0;                        283P    234
508,4,0,9,29,1,0,0,9,28,1,0,0,9,30,0,0,0,9,31,0,0;                   285P    235
508,1,0,9,21,1,0;                                                    287P    236
510,275,2,1,285,287;                                                 289P    237
116,20.0D0,0.0D0,0.0D0,0;                                            291P    238
123,1.0D0,0.0D0,0.0D0;                                               293P    239
190,291,293,297;                                                     295P    240
123,0.0D0,1.0D0,0.0D0;                                               297P    241
110,20.0D0,0.0D0,0.0D0,20.0D0,20.0D0,0.0D0;                          299P    242
110,20.0D0,0.0D0,20.0D0,20.0D0,20.0D0,20.0D0;                        301P    243
110,20.0D0,0.0D0,0.0D0,20.0D0,0.0D0,20.0D0;                          303P    244
508,4,0,9,32,1,0,0,9,31,1,0,0,9,33,0,0,0,9,34,0,0;                   305P    245
508,1,0,9,12,1,0;                                                    307P    246
510,295,2,1,305,307;                                                 309P    247
116,0.0D0,0.0D0,0.0D0,0;                                             311P    248
123,0.0D0,-1.0D0,0.0D0;                                              313P    249
190,311,313,317;                                                     315P    250
123,1.0D0,0.0D0,0.0D0;                                               317P    251
110,0.0D0,0.0D0,0.0D0,20.0D0,0.0D0,0.0D0;                            319P    252
110,0.0D0,0.0D0,20.0D0,20.0D0,0.0D0,20.0D0;                          321P    253
508,4,0,9,35,1,0,0,9,34,1,0,0,9,36,0,0,0,9,26,0,0;                   323P    254
508,1,0,9,19,1,0;                                                    325P    255
510,315,2,1,323,325;                                                 327P    256
116,10.0D0,10.0D0,20.0D0,0;                                          329P    257
123,0.0D0,0.0D0,1.0D0;                                               331P    258
190,329,331,335;                                                     333P    259
123,1.0D0,0.0D0,0.0D0;                                               335P    260
508,4,0,9,36,1,0,0,9,33,1,0,0,9,30,1,0,0,9,27,1,0;                   337P    261
508,1,0,9,22,1,0;                                                    339P    262
510,333,2,1,337,339;                                                 341P    263
116,10.0D0,10.0D0,0.0D0,0;                                           343P    264
123,0.0D0,0.0D0,-1.0D0;                                              345P    265
190,343,345,349;                                                     347P    266
123,-1.0D0,0.0D0,0.0D0;                                              349P    267
508,4,0,9,35,0,0,0,9,25,0,0,0,9,29,0,0,0,9,32,0,0;                   351P    268
508,1,0,9,24,1,0;                                                    353P    269
510,347,2,1,351,353;                                                 355P    270
514,18,37,1,69,1,85,1,101,1,125,1,145,1,165,1,181,1,197,1,213,1,     357P    271
231,1,247,1,269,1,289,1,309,1,327,1,341,1,355,1;                     357P    272
186,357,1,0;                                                         359P    273
314,89.8039221763611D0,89.9999976158142D0,89.9999976158142D0,;       361P    274
S      1G      4D    362P    274                                        T      1
