                                                                        S      1
,,11HEnd Cap.ipt,27HNo Iges File Name specified,22HAutodesk Inventor 201G      1
3,37HAutoDesk Inventor Iges Exporter R2013,32,38,6,99,15,11HEnd Cap.ipt,G      2
1.0D0,2,2HMM,1,.08D0,15H20140422.180342,.01D0,10000.0D0,4HWork,,11,0,,; G      3
     406       1       0       0       1       0       0       000000000D      1
     406       0       0       1       3                               0D      2
     116       2       0       0       0       0       0       000010000D      3
     116       0       0       1       0                               0D      4
     123       3       0       0       0       0       0       000010200D      5
     123       0       0       1       0                               0D      6
     192       4       0       0       0       0       0       000010000D      7
     192       0       0       1       1                               0D      8
     123       5       0       0       0       0       0       000010200D      9
     123       0       0       1       0                               0D     10
     504       6       0       0       0       0       0       000010001D     11
     504       0       0       7       1                               0D     12
     502      13       0       0       0       0       0       000010000D     13
     502       0       0       8       1                               0D     14
     100      21       0       0       0       0      17       000010000D     15
     100       0       0       2       0                               0D     16
     124      23       0       0       0       0       0       000000000D     17
     124       0       0       3       0                               0D     18
     110      26       0       0       0       0       0       000010000D     19
     110       0       0       1       0                               0D     20
     100      27       0       0       0       0      23       000010000D     21
     100       0       0       2       0                               0D     22
     124      29       0       0       0       0       0       000000000D     23
     124       0       0       3       0                               0D     24
     110      32       0       0       0       0       0       000010000D     25
     110       0       0       1       0                               0D     26
     508      33       0       0       0       0       0       000010000D     27
     508       0       0       1       1                               0D     28
     510      34       0       0       0       0       0       000010000D     29
     510       0    -253       1       1                               0D     30
     116      35       0       0       0       0       0       000010000D     31
     116       0       0       1       0                               0D     32
     123      36       0       0       0       0       0       000010200D     33
     123       0       0       1       0                               0D     34
     190      37       0       0       0       0       0       000010000D     35
     190       0       0       1       1                               0D     36
     123      38       0       0       0       0       0       000010200D     37
     123       0       0       1       0                               0D     38
     110      39       0       0       0       0       0       000010000D     39
     110       0       0       1       0                               0D     40
     110      40       0       0       0       0       0       000010000D     41
     110       0       0       1       0                               0D     42
     110      41       0       0       0       0       0       000010000D     43
     110       0       0       1       0                               0D     44
     508      42       0       0       0       0       0       000010000D     45
     508       0       0       1       1                               0D     46
     510      43       0       0       0       0       0       000010000D     47
     510       0    -253       1       1                               0D     48
     116      44       0       0       0       0       0       000010000D     49
     116       0       0       1       0                               0D     50
     123      45       0       0       0       0       0       000010200D     51
     123       0       0       1       0                               0D     52
     190      46       0       0       0       0       0       000010000D     53
     190       0       0       1       1                               0D     54
     123      47       0       0       0       0       0       000010200D     55
     123       0       0       1       0                               0D     56
     110      48       0       0       0       0       0       000010000D     57
     110       0       0       1       0                               0D     58
     100      49       0       0       0       0      61       000010000D     59
     100       0       0       2       0                               0D     60
     124      51       0       0       0       0       0       000000000D     61
     124       0       0       3       0                               0D     62
     110      54       0       0       0       0       0       000010000D     63
     110       0       0       1       0                               0D     64
     100      55       0       0       0       0      67       000010000D     65
     100       0       0       2       0                               0D     66
     124      57       0       0       0       0       0       000000000D     67
     124       0       0       3       0                               0D     68
     110      60       0       0       0       0       0       000010000D     69
     110       0       0       1       0                               0D     70
     100      61       0       0       0       0      73       000010000D     71
     100       0       0       2       0                               0D     72
     124      63       0       0       0       0       0       000000000D     73
     124       0       0       3       0                               0D     74
     508      66       0       0       0       0       0       000010000D     75
     508       0       0       2       1                               0D     76
     100      68       0       0       0       0      79       000010000D     77
     100       0       0       2       0                               0D     78
     124      70       0       0       0       0       0       000000000D     79
     124       0       0       2       0                               0D     80
     508      72       0       0       0       0       0       000010000D     81
     508       0       0       1       1                               0D     82
     510      73       0       0       0       0       0       000010000D     83
     510       0    -253       1       1                               0D     84
     116      74       0       0       0       0       0       000010000D     85
     116       0       0       1       0                               0D     86
     123      75       0       0       0       0       0       000010200D     87
     123       0       0       1       0                               0D     88
     192      76       0       0       0       0       0       000010000D     89
     192       0       0       1       1                               0D     90
     123      77       0       0       0       0       0       000010200D     91
     123       0       0       1       0                               0D     92
     100      78       0       0       0       0      95       000010000D     93
     100       0       0       2       0                               0D     94
     124      80       0       0       0       0       0       000000000D     95
     124       0       0       3       0                               0D     96
     110      83       0       0       0       0       0       000010000D     97
     110       0       0       1       0                               0D     98
     508      84       0       0       0       0       0       000010000D     99
     508       0       0       1       1                               0D    100
     510      85       0       0       0       0       0       000010000D    101
     510       0    -253       1       1                               0D    102
     116      86       0       0       0       0       0       000010000D    103
     116       0       0       1       0                               0D    104
     123      87       0       0       0       0       0       000010200D    105
     123       0       0       1       0                               0D    106
     190      88       0       0       0       0       0       000010000D    107
     190       0       0       1       1                               0D    108
     123      89       0       0       0       0       0       000010200D    109
     123       0       0       1       0                               0D    110
     110      90       0       0       0       0       0       000010000D    111
     110       0       0       1       0                               0D    112
     110      91       0       0       0       0       0       000010000D    113
     110       0       0       1       0                               0D    114
     508      92       0       0       0       0       0       000010000D    115
     508       0       0       1       1                               0D    116
     510      93       0       0       0       0       0       000010000D    117
     510       0    -253       1       1                               0D    118
     116      94       0       0       0       0       0       000010000D    119
     116       0       0       1       0                               0D    120
     123      95       0       0       0       0       0       000010200D    121
     123       0       0       1       0                               0D    122
     192      96       0       0       0       0       0       000010000D    123
     192       0       0       1       1                               0D    124
     123      97       0       0       0       0       0       000010200D    125
     123       0       0       1       0                               0D    126
     100      98       0       0       0       0     129       000010000D    127
     100       0       0       2       0                               0D    128
     124     100       0       0       0       0       0       000000000D    129
     124       0       0       3       0                               0D    130
     110     103       0       0       0       0       0       000010000D    131
     110       0       0       1       0                               0D    132
     508     104       0       0       0       0       0       000010000D    133
     508       0       0       1       1                               0D    134
     510     105       0       0       0       0       0       000010000D    135
     510       0    -253       1       1                               0D    136
     116     106       0       0       0       0       0       000010000D    137
     116       0       0       1       0                               0D    138
     123     107       0       0       0       0       0       000010200D    139
     123       0       0       1       0                               0D    140
     190     108       0       0       0       0       0       000010000D    141
     190       0       0       1       1                               0D    142
     123     109       0       0       0       0       0       000010200D    143
     123       0       0       1       0                               0D    144
     110     110       0       0       0       0       0       000010000D    145
     110       0       0       1       0                               0D    146
     110     111       0       0       0       0       0       000010000D    147
     110       0       0       1       0                               0D    148
     508     112       0       0       0       0       0       000010000D    149
     508       0       0       1       1                               0D    150
     510     113       0       0       0       0       0       000010000D    151
     510       0    -253       1       1                               0D    152
     116     114       0       0       0       0       0       000010000D    153
     116       0       0       1       0                               0D    154
     123     115       0       0       0       0       0       000010200D    155
     123       0       0       1       0                               0D    156
     192     116       0       0       0       0       0       000010000D    157
     192       0       0       1       1                               0D    158
     123     117       0       0       0       0       0       000010200D    159
     123       0       0       1       0                               0D    160
     100     118       0       0       0       0     163       000010000D    161
     100       0       0       2       0                               0D    162
     124     120       0       0       0       0       0       000000000D    163
     124       0       0       3       0                               0D    164
     110     123       0       0       0       0       0       000010000D    165
     110       0       0       1       0                               0D    166
     508     124       0       0       0       0       0       000010000D    167
     508       0       0       1       1                               0D    168
     510     125       0       0       0       0       0       000010000D    169
     510       0    -253       1       1                               0D    170
     120     126       0       0       0       0       0       000010000D    171
     120       0       0       1       0                               0D    172
     110     127       0       0       0       0       0       000010000D    173
     110       0       0       1       0                               0D    174
     110     128       0       0       0       0       0       001010000D    175
     110       0       0       1       0                               0D    176
     100     129       0       0       0       0     179       000010000D    177
     100       0       0       2       0                               0D    178
     124     131       0       0       0       0       0       000000000D    179
     124       0       0       2       0                               0D    180
     508     133       0       0       0       0       0       000010000D    181
     508       0       0       1       1                               0D    182
     100     134       0       0       0       0     185       000010000D    183
     100       0       0       2       0                               0D    184
     124     136       0       0       0       0       0       000000000D    185
     124       0       0       2       0                               0D    186
     508     138       0       0       0       0       0       000010000D    187
     508       0       0       1       1                               0D    188
     510     139       0       0       0       0       0       000010000D    189
     510       0    -253       1       1                               0D    190
     116     140       0       0       0       0       0       000010000D    191
     116       0       0       1       0                               0D    192
     123     141       0       0       0       0       0       000010200D    193
     123       0       0       1       0                               0D    194
     190     142       0       0       0       0       0       000010000D    195
     190       0       0       1       1                               0D    196
     123     143       0       0       0       0       0       000010200D    197
     123       0       0       1       0                               0D    198
     508     144       0       0       0       0       0       000010000D    199
     508       0       0       1       1                               0D    200
     100     145       0       0       0       0     203       000010000D    201
     100       0       0       2       0                               0D    202
     124     147       0       0       0       0       0       000000000D    203
     124       0       0       2       0                               0D    204
     508     149       0       0       0       0       0       000010000D    205
     508       0       0       1       1                               0D    206
     510     150       0       0       0       0       0       000010000D    207
     510       0    -253       1       1                               0D    208
     120     151       0       0       0       0       0       000010000D    209
     120       0       0       1       0                               0D    210
     110     152       0       0       0       0       0       000010000D    211
     110       0       0       1       0                               0D    212
     110     153       0       0       0       0       0       001010000D    213
     110       0       0       1       0                               0D    214
     508     154       0       0       0       0       0       000010000D    215
     508       0       0       1       1                               0D    216
     508     155       0       0       0       0       0       000010000D    217
     508       0       0       1       1                               0D    218
     510     156       0       0       0       0       0       000010000D    219
     510       0    -253       1       1                               0D    220
     116     157       0       0       0       0       0       000010000D    221
     116       0       0       1       0                               0D    222
     123     158       0       0       0       0       0       000010200D    223
     123       0       0       1       0                               0D    224
     190     159       0       0       0       0       0       000010000D    225
     190       0       0       1       1                               0D    226
     123     160       0       0       0       0       0       000010200D    227
     123       0       0       1       0                               0D    228
     110     161       0       0       0       0       0       000010000D    229
     110       0       0       1       0                               0D    230
     508     162       0       0       0       0       0       000010000D    231
     508       0       0       1       1                               0D    232
     510     163       0       0       0       0       0       000010000D    233
     510       0    -253       1       1                               0D    234
     116     164       0       0       0       0       0       000010000D    235
     116       0       0       1       0                               0D    236
     123     165       0       0       0       0       0       000010200D    237
     123       0       0       1       0                               0D    238
     190     166       0       0       0       0       0       000010000D    239
     190       0       0       1       1                               0D    240
     123     167       0       0       0       0       0       000010200D    241
     123       0       0       1       0                               0D    242
     508     168       0       0       0       0       0       000010000D    243
     508       0       0       2       1                               0D    244
     508     170       0       0       0       0       0       000010000D    245
     508       0       0       1       1                               0D    246
     510     171       0       0       0       0       0       000010000D    247
     510       0    -253       1       1                               0D    248
     514     172       0       0       0       0       0       000010000D    249
     514       0       0       2       1                               0D    250
     186     174       0       0       1       0       0       000000000D    251
     186       0       0       1       0                  Solid1       0D    252
     314     175       0       0       0       0       0       000000000D    253
     314       0       8       1       0                               0D    254
406,2,0,7HEnd Cap;                                                     1P      1
116,-8.5D0,-8.5D0,0.0D0,0;                                             3P      2
123,0.0D0,0.0D0,1.0D0;                                                 5P      3
192,3,5,1.5D0,9;                                                       7P      4
123,-.707106781186547D0,-.707106781186547D0,0.0D0;                     9P      5
504,28,15,13,1,13,2,19,13,2,13,3,21,13,3,13,4,25,13,4,13,1,39,        11P      6
13,5,13,4,41,13,6,13,5,43,13,1,13,6,57,13,3,13,7,59,13,8,13,7,        11P      7
63,13,8,13,9,65,13,10,13,9,69,13,10,13,11,71,13,5,13,11,77,13,        11P      8
12,13,12,93,13,13,13,6,97,13,11,13,13,111,13,14,13,10,113,13,13,      11P      9
13,14,127,13,15,13,14,131,13,9,13,15,145,13,16,13,8,147,13,15,        11P     10
13,16,161,13,17,13,16,165,13,7,13,17,177,13,18,13,18,183,13,19,       11P     11
13,19,201,13,20,13,20,229,13,17,13,2;                                 11P     12
502,20,-8.5D0,-10.0D0,3.0D0,-10.0D0,-8.5D0,3.0D0,-10.0D0,-8.5D0,      13P     13
0.0D0,-8.5D0,-10.0D0,0.0D0,8.5D0,-10.0D0,0.0D0,8.5D0,-10.0D0,         13P     14
3.0D0,-10.0D0,8.5D0,0.0D0,-8.5D0,10.0D0,0.0D0,8.5D0,10.0D0,           13P     15
0.0D0,10.0D0,8.5D0,0.0D0,10.0D0,-8.5D0,0.0D0,2.5D0,                   13P     16
3.06161699786838D-16,0.0D0,10.0D0,-8.5D0,3.0D0,10.0D0,8.5D0,          13P     17
3.0D0,8.5D0,10.0D0,3.0D0,-8.5D0,10.0D0,3.0D0,-10.0D0,8.5D0,           13P     18
3.0D0,5.0D0,6.12323399573677D-16,1.5D0,5.0D0,                         13P     19
6.12323399573677D-16,3.0D0,2.5D0,3.06161699786838D-16,1.5D0;          13P     20
100,0.0D0,0.0D0,0.0D0,1.06066017177982D0,-1.06066017177982D0,         15P     21
1.06066017177982D0,1.06066017177982D0;                                15P     22
124,-.707106781186547D0,-.707106781186547D0,0.0D0,-8.5D0,             17P     23
-.707106781186547D0,.707106781186547D0,0.0D0,-8.5D0,0.0D0,0.0D0,      17P     24
-1.0D0,3.0D0;                                                         17P     25
110,-10.0D0,-8.5D0,3.0D0,-10.0D0,-8.5D0,0.0D0;                        19P     26
100,0.0D0,0.0D0,0.0D0,1.06066017177982D0,-1.06066017177982D0,         21P     27
1.06066017177982D0,1.06066017177982D0;                                21P     28
124,-.707106781186547D0,.707106781186547D0,0.0D0,-8.5D0,              23P     29
-.707106781186547D0,-.707106781186547D0,0.0D0,-8.5D0,0.0D0,           23P     30
0.0D0,1.0D0,0.0D0;                                                    23P     31
110,-8.5D0,-10.0D0,0.0D0,-8.5D0,-10.0D0,3.0D0;                        25P     32
508,4,0,11,1,1,0,0,11,2,1,0,0,11,3,1,0,0,11,4,1,0;                    27P     33
510,7,1,1,27;                                                         29P     34
116,-10.0D0,-10.0D0,0.0D0,0;                                          31P     35
123,0.0D0,-1.0D0,0.0D0;                                               33P     36
190,31,33,37;                                                         35P     37
123,1.0D0,0.0D0,0.0D0;                                                37P     38
110,8.5D0,-10.0D0,0.0D0,-8.5D0,-10.0D0,0.0D0;                         39P     39
110,8.5D0,-10.0D0,3.0D0,8.5D0,-10.0D0,0.0D0;                          41P     40
110,-8.5D0,-10.0D0,3.0D0,8.5D0,-10.0D0,3.0D0;                         43P     41
508,4,0,11,4,0,0,0,11,5,0,0,0,11,6,0,0,0,11,7,0,0;                    45P     42
510,35,1,1,45;                                                        47P     43
116,0.0D0,0.0D0,0.0D0,0;                                              49P     44
123,0.0D0,0.0D0,-1.0D0;                                               51P     45
190,49,51,55;                                                         53P     46
123,-1.0D0,0.0D0,0.0D0;                                               55P     47
110,-10.0D0,-8.5D0,0.0D0,-10.0D0,8.5D0,0.0D0;                         57P     48
100,0.0D0,0.0D0,0.0D0,1.06066017177982D0,-1.06066017177982D0,         59P     49
1.06066017177982D0,1.06066017177982D0;                                59P     50
124,-.707106781186547D0,-.707106781186547D0,0.0D0,-8.5D0,             61P     51
.707106781186547D0,-.707106781186547D0,0.0D0,8.5D0,0.0D0,0.0D0,       61P     52
1.0D0,0.0D0;                                                          61P     53
110,-8.5D0,10.0D0,0.0D0,8.5D0,10.0D0,0.0D0;                           63P     54
100,0.0D0,0.0D0,0.0D0,1.06066017177982D0,-1.06066017177982D0,         65P     55
1.06066017177982D0,1.06066017177982D0;                                65P     56
124,.707106781186547D0,-.707106781186547D0,0.0D0,8.5D0,               67P     57
.707106781186547D0,.707106781186547D0,0.0D0,8.5D0,0.0D0,0.0D0,        67P     58
1.0D0,0.0D0;                                                          67P     59
110,10.0D0,8.5D0,0.0D0,10.0D0,-8.5D0,0.0D0;                           69P     60
100,0.0D0,0.0D0,0.0D0,1.06066017177982D0,-1.06066017177982D0,         71P     61
1.06066017177982D0,1.06066017177982D0;                                71P     62
124,.707106781186547D0,.707106781186547D0,0.0D0,8.5D0,                73P     63
-.707106781186547D0,.707106781186547D0,0.0D0,-8.5D0,0.0D0,0.0D0,      73P     64
1.0D0,0.0D0;                                                          73P     65
508,8,0,11,3,0,0,0,11,8,1,0,0,11,9,0,0,0,11,10,1,0,0,11,11,0,0,       75P     66
0,11,12,1,0,0,11,13,0,0,0,11,5,1,0;                                   75P     67
100,0.0D0,0.0D0,0.0D0,-2.5D0,3.06161699786838D-16,-2.5D0,             77P     68
3.06161699786838D-16;                                                 77P     69
124,-1.0D0,0.0D0,0.0D0,0.0D0,0.0D0,-1.0D0,0.0D0,0.0D0,0.0D0,          79P     70
0.0D0,1.0D0,0.0D0;                                                    79P     71
508,1,0,11,14,1,0;                                                    81P     72
510,53,2,1,75,81;                                                     83P     73
116,8.5D0,-8.5D0,0.0D0,0;                                             85P     74
123,0.0D0,0.0D0,1.0D0;                                                87P     75
192,85,87,1.5D0,91;                                                   89P     76
123,.707106781186547D0,-.707106781186547D0,0.0D0;                     91P     77
100,0.0D0,0.0D0,0.0D0,1.06066017177982D0,-1.06066017177982D0,         93P     78
1.06066017177982D0,1.06066017177982D0;                                93P     79
124,.707106781186547D0,-.707106781186547D0,0.0D0,8.5D0,               95P     80
-.707106781186547D0,-.707106781186547D0,0.0D0,-8.5D0,0.0D0,           95P     81
0.0D0,-1.0D0,3.0D0;                                                   95P     82
110,10.0D0,-8.5D0,0.0D0,10.0D0,-8.5D0,3.0D0;                          97P     83
508,4,0,11,15,1,0,0,11,6,1,0,0,11,13,1,0,0,11,16,1,0;                 99P     84
510,89,1,1,99;                                                       101P     85
116,10.0D0,-10.0D0,0.0D0,0;                                          103P     86
123,1.0D0,0.0D0,0.0D0;                                               105P     87
190,103,105,109;                                                     107P     88
123,0.0D0,1.0D0,0.0D0;                                               109P     89
110,10.0D0,8.5D0,3.0D0,10.0D0,8.5D0,0.0D0;                           111P     90
110,10.0D0,-8.5D0,3.0D0,10.0D0,8.5D0,3.0D0;                          113P     91
508,4,0,11,16,0,0,0,11,12,0,0,0,11,17,0,0,0,11,18,0,0;               115P     92
510,107,1,1,115;                                                     117P     93
116,8.5D0,8.5D0,0.0D0,0;                                             119P     94
123,0.0D0,0.0D0,1.0D0;                                               121P     95
192,119,121,1.5D0,125;                                               123P     96
123,.707106781186547D0,.707106781186547D0,0.0D0;                     125P     97
100,0.0D0,0.0D0,0.0D0,1.06066017177982D0,-1.06066017177982D0,        127P     98
1.06066017177982D0,1.06066017177982D0;                               127P     99
124,.707106781186547D0,.707106781186547D0,0.0D0,8.5D0,               129P    100
.707106781186547D0,-.707106781186547D0,0.0D0,8.5D0,0.0D0,0.0D0,      129P    101
-1.0D0,3.0D0;                                                        129P    102
110,8.5D0,10.0D0,0.0D0,8.5D0,10.0D0,3.0D0;                           131P    103
508,4,0,11,19,1,0,0,11,17,1,0,0,11,11,1,0,0,11,20,1,0;               133P    104
510,123,1,1,133;                                                     135P    105
116,10.0D0,10.0D0,0.0D0,0;                                           137P    106
123,0.0D0,1.0D0,0.0D0;                                               139P    107
190,137,139,143;                                                     141P    108
123,-1.0D0,0.0D0,0.0D0;                                              143P    109
110,-8.5D0,10.0D0,3.0D0,-8.5D0,10.0D0,0.0D0;                         145P    110
110,8.5D0,10.0D0,3.0D0,-8.5D0,10.0D0,3.0D0;                          147P    111
508,4,0,11,20,0,0,0,11,10,0,0,0,11,21,0,0,0,11,22,0,0;               149P    112
510,141,1,1,149;                                                     151P    113
116,-8.5D0,8.5D0,0.0D0,0;                                            153P    114
123,0.0D0,0.0D0,1.0D0;                                               155P    115
192,153,155,1.5D0,159;                                               157P    116
123,-.707106781186547D0,.707106781186547D0,0.0D0;                    159P    117
100,0.0D0,0.0D0,0.0D0,1.06066017177982D0,-1.06066017177982D0,        161P    118
1.06066017177982D0,1.06066017177982D0;                               161P    119
124,-.707106781186547D0,.707106781186547D0,0.0D0,-8.5D0,             163P    120
.707106781186547D0,.707106781186547D0,0.0D0,8.5D0,0.0D0,0.0D0,       163P    121
-1.0D0,3.0D0;                                                        163P    122
110,-10.0D0,8.5D0,0.0D0,-10.0D0,8.5D0,3.0D0;                         165P    123
508,4,0,11,23,1,0,0,11,21,1,0,0,11,9,1,0,0,11,24,1,0;                167P    124
510,157,1,1,167;                                                     169P    125
120,175,173,0.0D0,6.28318530717959D0;                                171P    126
110,-5.0D0,0.0D0,3.075D0,-5.0D0,0.0D0,1.425D0;                       173P    127
110,0.0D0,0.0D0,3.075D0,0.0D0,0.0D0,2.075D0;                         175P    128
100,0.0D0,0.0D0,0.0D0,-5.0D0,6.12323399573677D-16,-5.0D0,            177P    129
6.12323399573677D-16;                                                177P    130
124,-1.0D0,0.0D0,0.0D0,0.0D0,0.0D0,1.0D0,0.0D0,0.0D0,0.0D0,          179P    131
0.0D0,-1.0D0,1.5D0;                                                  179P    132
508,1,0,11,25,1,0;                                                   181P    133
100,0.0D0,0.0D0,0.0D0,-5.0D0,6.12323399573677D-16,-5.0D0,            183P    134
6.12323399573677D-16;                                                183P    135
124,-1.0D0,0.0D0,0.0D0,0.0D0,0.0D0,1.0D0,0.0D0,0.0D0,0.0D0,          185P    136
0.0D0,-1.0D0,3.0D0;                                                  185P    137
508,1,0,11,26,0,0;                                                   187P    138
510,171,2,1,181,187;                                                 189P    139
116,-2.36064120735332D-16,9.25185853854297D-17,1.5D0,0;              191P    140
123,0.0D0,0.0D0,1.0D0;                                               193P    141
190,191,193,197;                                                     195P    142
123,1.0D0,0.0D0,0.0D0;                                               197P    143
508,1,0,11,25,0,0;                                                   199P    144
100,0.0D0,0.0D0,0.0D0,-2.5D0,3.06161699786838D-16,-2.5D0,            201P    145
3.06161699786838D-16;                                                201P    146
124,-1.0D0,0.0D0,0.0D0,0.0D0,0.0D0,-1.0D0,0.0D0,0.0D0,0.0D0,         203P    147
0.0D0,1.0D0,1.5D0;                                                   203P    148
508,1,0,11,27,0,0;                                                   205P    149
510,195,2,1,199,205;                                                 207P    150
120,213,211,0.0D0,6.28318530717959D0;                                209P    151
110,-2.5D0,0.0D0,3.0D0,-2.5D0,0.0D0,-7.50000000000002D-2;            211P    152
110,0.0D0,0.0D0,3.0D0,0.0D0,0.0D0,2.0D0;                             213P    153
508,1,0,11,27,1,0;                                                   215P    154
508,1,0,11,14,0,0;                                                   217P    155
510,209,2,1,215,217;                                                 219P    156
116,-10.0D0,10.0D0,0.0D0,0;                                          221P    157
123,-1.0D0,0.0D0,0.0D0;                                              223P    158
190,221,223,227;                                                     225P    159
123,0.0D0,-1.0D0,0.0D0;                                              227P    160
110,-10.0D0,8.5D0,3.0D0,-10.0D0,-8.5D0,3.0D0;                        229P    161
508,4,0,11,2,0,0,0,11,28,0,0,0,11,24,0,0,0,11,8,0,0;                 231P    162
510,225,1,1,231;                                                     233P    163
116,0.0D0,0.0D0,3.0D0,0;                                             235P    164
123,0.0D0,0.0D0,1.0D0;                                               237P    165
190,235,237,241;                                                     239P    166
123,1.0D0,0.0D0,0.0D0;                                               241P    167
508,8,0,11,1,0,0,0,11,7,1,0,0,11,15,0,0,0,11,18,1,0,0,11,19,0,0,     243P    168
0,11,22,1,0,0,11,23,0,0,0,11,28,1,0;                                 243P    169
508,1,0,11,26,1,0;                                                   245P    170
510,239,2,1,243,245;                                                 247P    171
514,13,29,1,47,1,83,1,101,1,117,1,135,1,151,1,169,1,189,1,207,1,     249P    172
219,1,233,1,247,1;                                                   249P    173
186,249,1,0;                                                         251P    174
314,89.8039221763611D0,89.9999976158142D0,89.9999976158142D0,;       253P    175
S      1G      3D    254P    175                                        T      1
