                                                                        S      1
,,23HEccentric M5 Spacer.ipt,27HNo Iges File Name specified,22HAutodesk G      1
Inventor 2013,37HAutoDesk Inventor Iges Exporter R2013,32,38,6,99,15,   G      2
23HEccentric M5 Spacer.ipt,1.0D0,2,2HMM,1,.08D0,15H20140422.180413,     G      3
.01D0,10000.0D0,4HWork,,11,0,,;                                         G      4
     406       1       0       0       1       0       0       000000000D      1
     406       0       0       1       3                               0D      2
     120       2       0       0       0       0       0       000010000D      3
     120       0       0       1       0                               0D      4
     110       3       0       0       0       0       0       000010000D      5
     110       0       0       2       0                               0D      6
     110       5       0       0       0       0       0       001010000D      7
     110       0       0       2       0                               0D      8
     504       7       0       0       0       0       0       000010001D      9
     504       0       0       6       1                               0D     10
     502      13       0       0       0       0       0       000010000D     11
     502       0       0      16       1                               0D     12
     100      29       0       0       0       0      15       000010000D     13
     100       0       0       2       0                               0D     14
     124      31       0       0       0       0       0       000000000D     15
     124       0       0       2       0                               0D     16
     508      33       0       0       0       0       0       000010000D     17
     508       0       0       1       1                               0D     18
     100      34       0       0       0       0      21       000010000D     19
     100       0       0       2       0                               0D     20
     124      36       0       0       0       0       0       000000000D     21
     124       0       0       2       0                               0D     22
     508      38       0       0       0       0       0       000010000D     23
     508       0       0       1       1                               0D     24
     510      39       0       0       0       0       0       000010000D     25
     510       0    -237       1       1                               0D     26
     116      40       0       0       0       0       0       000010000D     27
     116       0       0       1       0                               0D     28
     123      41       0       0       0       0       0       000010200D     29
     123       0       0       1       0                               0D     30
     190      42       0       0       0       0       0       000010000D     31
     190       0       0       1       1                               0D     32
     123      43       0       0       0       0       0       000010200D     33
     123       0       0       1       0                               0D     34
     508      44       0       0       0       0       0       000010000D     35
     508       0       0       1       1                               0D     36
     510      45       0       0       0       0       0       000010000D     37
     510       0    -237       1       1                               0D     38
     116      46       0       0       0       0       0       000010000D     39
     116       0       0       1       0                               0D     40
     123      47       0       0       0       0       0       000010200D     41
     123       0       0       1       0                               0D     42
     192      48       0       0       0       0       0       000010000D     43
     192       0       0       1       1                               0D     44
     123      49       0       0       0       0       0       000010200D     45
     123       0       0       1       0                               0D     46
     100      50       0       0       0       0      49       000010000D     47
     100       0       0       2       0                               0D     48
     124      52       0       0       0       0       0       000000000D     49
     124       0       0       2       0                               0D     50
     508      54       0       0       0       0       0       000010000D     51
     508       0       0       1       1                               0D     52
     100      55       0       0       0       0      55       000010000D     53
     100       0       0       2       0                               0D     54
     124      57       0       0       0       0       0       000000000D     55
     124       0       0       2       0                               0D     56
     508      59       0       0       0       0       0       000010000D     57
     508       0       0       1       1                               0D     58
     510      60       0       0       0       0       0       000010000D     59
     510       0    -237       1       1                               0D     60
     116      61       0       0       0       0       0       000010000D     61
     116       0       0       1       0                               0D     62
     123      62       0       0       0       0       0       000010200D     63
     123       0       0       1       0                               0D     64
     190      63       0       0       0       0       0       000010000D     65
     190       0       0       1       1                               0D     66
     123      64       0       0       0       0       0       000010200D     67
     123       0       0       1       0                               0D     68
     508      65       0       0       0       0       0       000010000D     69
     508       0       0       1       1                               0D     70
     100      66       0       0       0       0      73       000010000D     71
     100       0       0       2       0                               0D     72
     124      68       0       0       0       0       0       000000000D     73
     124       0       0       2       0                               0D     74
     508      70       0       0       0       0       0       000010000D     75
     508       0       0       1       1                               0D     76
     510      71       0       0       0       0       0       000010000D     77
     510       0    -237       1       1                               0D     78
     120      72       0       0       0       0       0       000010000D     79
     120       0       0       1       0                               0D     80
     110      73       0       0       0       0       0       000010000D     81
     110       0       0       2       0                               0D     82
     110      75       0       0       0       0       0       001010000D     83
     110       0       0       2       0                               0D     84
     508      77       0       0       0       0       0       000010000D     85
     508       0       0       1       1                               0D     86
     100      78       0       0       0       0      89       000010000D     87
     100       0       0       2       0                               0D     88
     124      80       0       0       0       0       0       000000000D     89
     124       0       0       2       0                               0D     90
     508      82       0       0       0       0       0       000010000D     91
     508       0       0       1       1                               0D     92
     510      83       0       0       0       0       0       000010000D     93
     510       0    -237       1       1                               0D     94
     116      84       0       0       0       0       0       000010000D     95
     116       0       0       1       0                               0D     96
     123      85       0       0       0       0       0       000010200D     97
     123       0       0       1       0                               0D     98
     190      86       0       0       0       0       0       000010000D     99
     190       0       0       1       1                               0D    100
     123      87       0       0       0       0       0       000010200D    101
     123       0       0       1       0                               0D    102
     110      88       0       0       0       0       0       000010000D    103
     110       0       0       2       0                               0D    104
     110      90       0       0       0       0       0       000010000D    105
     110       0       0       2       0                               0D    106
     110      92       0       0       0       0       0       000010000D    107
     110       0       0       2       0                               0D    108
     110      94       0       0       0       0       0       000010000D    109
     110       0       0       2       0                               0D    110
     508      96       0       0       0       0       0       000010000D    111
     508       0       0       1       1                               0D    112
     510      97       0       0       0       0       0       000010000D    113
     510       0    -237       1       1                               0D    114
     116      98       0       0       0       0       0       000010000D    115
     116       0       0       1       0                               0D    116
     123      99       0       0       0       0       0       000010200D    117
     123       0       0       1       0                               0D    118
     190     100       0       0       0       0       0       000010000D    119
     190       0       0       1       1                               0D    120
     123     101       0       0       0       0       0       000010200D    121
     123       0       0       1       0                               0D    122
     110     102       0       0       0       0       0       000010000D    123
     110       0       0       2       0                               0D    124
     110     104       0       0       0       0       0       000010000D    125
     110       0       0       2       0                               0D    126
     110     106       0       0       0       0       0       000010000D    127
     110       0       0       2       0                               0D    128
     508     108       0       0       0       0       0       000010000D    129
     508       0       0       1       1                               0D    130
     510     109       0       0       0       0       0       000010000D    131
     510       0    -237       1       1                               0D    132
     116     110       0       0       0       0       0       000010000D    133
     116       0       0       1       0                               0D    134
     123     111       0       0       0       0       0       000010200D    135
     123       0       0       1       0                               0D    136
     190     112       0       0       0       0       0       000010000D    137
     190       0       0       1       1                               0D    138
     123     113       0       0       0       0       0       000010200D    139
     123       0       0       1       0                               0D    140
     110     114       0       0       0       0       0       000010000D    141
     110       0       0       2       0                               0D    142
     110     116       0       0       0       0       0       000010000D    143
     110       0       0       2       0                               0D    144
     110     118       0       0       0       0       0       000010000D    145
     110       0       0       2       0                               0D    146
     508     120       0       0       0       0       0       000010000D    147
     508       0       0       1       1                               0D    148
     510     121       0       0       0       0       0       000010000D    149
     510       0    -237       1       1                               0D    150
     116     122       0       0       0       0       0       000010000D    151
     116       0       0       1       0                               0D    152
     123     123       0       0       0       0       0       000010200D    153
     123       0       0       1       0                               0D    154
     190     124       0       0       0       0       0       000010000D    155
     190       0       0       1       1                               0D    156
     123     125       0       0       0       0       0       000010200D    157
     123       0       0       1       0                               0D    158
     110     126       0       0       0       0       0       000010000D    159
     110       0       0       2       0                               0D    160
     110     128       0       0       0       0       0       000010000D    161
     110       0       0       2       0                               0D    162
     110     130       0       0       0       0       0       000010000D    163
     110       0       0       2       0                               0D    164
     508     132       0       0       0       0       0       000010000D    165
     508       0       0       1       1                               0D    166
     510     133       0       0       0       0       0       000010000D    167
     510       0    -237       1       1                               0D    168
     116     134       0       0       0       0       0       000010000D    169
     116       0       0       1       0                               0D    170
     123     135       0       0       0       0       0       000010200D    171
     123       0       0       1       0                               0D    172
     190     136       0       0       0       0       0       000010000D    173
     190       0       0       1       1                               0D    174
     123     137       0       0       0       0       0       000010200D    175
     123       0       0       1       0                               0D    176
     110     138       0       0       0       0       0       000010000D    177
     110       0       0       2       0                               0D    178
     110     140       0       0       0       0       0       000010000D    179
     110       0       0       2       0                               0D    180
     110     142       0       0       0       0       0       000010000D    181
     110       0       0       2       0                               0D    182
     508     144       0       0       0       0       0       000010000D    183
     508       0       0       1       1                               0D    184
     508     145       0       0       0       0       0       000010000D    185
     508       0       0       1       1                               0D    186
     510     146       0       0       0       0       0       000010000D    187
     510       0    -237       1       1                               0D    188
     116     147       0       0       0       0       0       000010000D    189
     116       0       0       1       0                               0D    190
     123     148       0       0       0       0       0       000010200D    191
     123       0       0       1       0                               0D    192
     190     149       0       0       0       0       0       000010000D    193
     190       0       0       1       1                               0D    194
     123     150       0       0       0       0       0       000010200D    195
     123       0       0       1       0                               0D    196
     110     151       0       0       0       0       0       000010000D    197
     110       0       0       2       0                               0D    198
     110     153       0       0       0       0       0       000010000D    199
     110       0       0       2       0                               0D    200
     508     155       0       0       0       0       0       000010000D    201
     508       0       0       1       1                               0D    202
     510     156       0       0       0       0       0       000010000D    203
     510       0    -237       1       1                               0D    204
     116     157       0       0       0       0       0       000010000D    205
     116       0       0       1       0                               0D    206
     123     158       0       0       0       0       0       000010200D    207
     123       0       0       1       0                               0D    208
     190     159       0       0       0       0       0       000010000D    209
     190       0       0       1       1                               0D    210
     123     160       0       0       0       0       0       000010200D    211
     123       0       0       1       0                               0D    212
     508     161       0       0       0       0       0       000010000D    213
     508       0       0       2       1                               0D    214
     508     163       0       0       0       0       0       000010000D    215
     508       0       0       1       1                               0D    216
     510     164       0       0       0       0       0       000010000D    217
     510       0    -237       1       1                               0D    218
     116     165       0       0       0       0       0       000010000D    219
     116       0       0       1       0                               0D    220
     123     166       0       0       0       0       0       000010200D    221
     123       0       0       1       0                               0D    222
     190     167       0       0       0       0       0       000010000D    223
     190       0       0       1       1                               0D    224
     123     168       0       0       0       0       0       000010200D    225
     123       0       0       1       0                               0D    226
     508     169       0       0       0       0       0       000010000D    227
     508       0       0       2       1                               0D    228
     508     171       0       0       0       0       0       000010000D    229
     508       0       0       1       1                               0D    230
     510     172       0       0       0       0       0       000010000D    231
     510       0    -237       1       1                               0D    232
     514     173       0       0       0       0       0       000010000D    233
     514       0       0       2       1                               0D    234
     186     175       0       0       1       0       0       000000000D    235
     186       0       0       1       0                  Solid1       0D    236
     314     176       0       0       0       0       0       000000000D    237
     314       0       8       1       0                               0D    238
406,2,0,19HEccentric M5 Spacer;                                        1P      1
120,7,5,0.0D0,6.28318530717959D0;                                      3P      2
110,3.94249999999994D0,-8.32667268468867D-16,4.175D0,                  5P      3
3.77749999999994D0,-7.92351024091067D-16,4.175D0;                      5P      4
110,3.94249999999994D0,-8.32667268468867D-16,3.175D0,                  7P      5
2.94249999999994D0,-8.32667268468867D-16,3.175D0;                      7P      6
504,24,13,11,1,11,1,19,11,2,11,2,47,11,3,11,3,53,11,4,11,4,71,         9P      7
11,5,11,5,87,11,6,11,6,103,11,7,11,8,105,11,7,11,9,107,11,10,11,       9P      8
9,109,11,8,11,10,123,11,8,11,11,125,11,12,11,10,127,11,11,11,12,       9P      9
141,11,11,11,13,143,11,14,11,12,145,11,13,11,14,159,11,13,11,15,       9P     10
161,11,16,11,14,163,11,15,11,16,177,11,15,11,17,179,11,18,11,16,       9P     11
181,11,17,11,18,197,11,17,11,7,199,11,9,11,18;                         9P     12
502,18,3.78499999999994D0,-6.73551457301587D-16,2.175D0,              11P     13
3.93499999999994D0,-7.10202588554132D-16,2.175D0,3.555D0,             11P     14
4.35361937096884D-16,7.62D0,3.555D0,4.35361937096884D-16,6.35D0,      11P     15
3.29D0,3.53970926134506D-14,7.62D0,3.29D0,3.53970926134506D-14,       11P     16
0.0D0,-5.74682540724146D-14,-4.54374661852232D0,0.0D0,                11P     17
-3.93500000000006D0,-2.27187330926114D0,0.0D0,                        11P     18
-5.77315972805081D-14,-4.54374661852232D0,6.35D0,                     11P     19
-3.93500000000006D0,-2.27187330926114D0,6.35D0,                       11P     20
-3.93500000000006D0,2.27187330926121D0,0.0D0,                         11P     21
-3.93500000000006D0,2.27187330926121D0,6.35D0,                        11P     22
-5.9481720764273D-14,4.54374661852239D0,0.0D0,                        11P     23
-5.93969318174459D-14,4.54374661852239D0,6.35D0,                      11P     24
3.93499999999994D0,2.27187330926121D0,0.0D0,3.93499999999994D0,       11P     25
2.27187330926121D0,6.35D0,3.93499999999994D0,                         11P     26
-2.27187330926114D0,0.0D0,3.93499999999994D0,                         11P     27
-2.27187330926114D0,6.35D0;                                           11P     28
100,0.0D0,0.0D0,0.0D0,-1.0D0,1.22464679914735D-16,-1.0D0,             13P     29
1.22464679914735D-16;                                                 13P     30
124,0.0D0,0.0D0,-1.0D0,3.78499999999994D0,0.0D0,1.0D0,0.0D0,          15P     31
-7.96016137216322D-16,1.0D0,0.0D0,0.0D0,3.175D0;                      15P     32
508,1,0,9,1,1,0;                                                      17P     33
100,0.0D0,0.0D0,0.0D0,-1.0D0,1.22464679914735D-16,-1.0D0,             19P     34
1.22464679914735D-16;                                                 19P     35
124,0.0D0,0.0D0,-1.0D0,3.93499999999994D0,0.0D0,1.0D0,0.0D0,          21P     36
-8.32667268468867D-16,1.0D0,0.0D0,0.0D0,3.175D0;                      21P     37
508,1,0,9,2,0,0;                                                      23P     38
510,3,2,1,17,23;                                                      25P     39
116,3.78499999999994D0,-7.96016137216322D-16,3.175D0,0;               27P     40
123,1.0D0,0.0D0,0.0D0;                                                29P     41
190,27,29,33;                                                         31P     42
123,0.0D0,0.0D0,-1.0D0;                                               33P     43
508,1,0,9,1,0,0;                                                      35P     44
510,31,1,1,35;                                                        37P     45
116,0.0D0,0.0D0,6.35D0,0;                                             39P     46
123,0.0D0,0.0D0,1.0D0;                                                41P     47
192,39,41,3.555D0,45;                                                 43P     48
123,-1.0D0,0.0D0,0.0D0;                                               45P     49
100,0.0D0,0.0D0,0.0D0,-3.555D0,4.35361937096884D-16,-3.555D0,         47P     50
4.35361937096884D-16;                                                 47P     51
124,-1.0D0,0.0D0,0.0D0,0.0D0,0.0D0,-1.0D0,0.0D0,0.0D0,0.0D0,          49P     52
0.0D0,1.0D0,7.62D0;                                                   49P     53
508,1,0,9,3,0,0;                                                      51P     54
100,0.0D0,0.0D0,0.0D0,-3.555D0,4.35361937096884D-16,-3.555D0,         53P     55
4.35361937096884D-16;                                                 53P     56
124,-1.0D0,0.0D0,0.0D0,0.0D0,0.0D0,1.0D0,0.0D0,0.0D0,0.0D0,           55P     57
0.0D0,-1.0D0,6.35D0;                                                  55P     58
508,1,0,9,4,0,0;                                                      57P     59
510,43,2,1,51,57;                                                     59P     60
116,-2.96529346756469D-16,0.0D0,7.62D0,0;                             61P     61
123,0.0D0,0.0D0,1.0D0;                                                63P     62
190,61,63,67;                                                         65P     63
123,1.0D0,0.0D0,0.0D0;                                                67P     64
508,1,0,9,3,1,0;                                                      69P     65
100,0.0D0,0.0D0,0.0D0,-2.5D0,3.06161699786838D-16,-2.5D0,             71P     66
3.06161699786838D-16;                                                 71P     67
124,-1.0D0,0.0D0,0.0D0,.79D0,0.0D0,1.0D0,0.0D0,                       73P     68
3.50909309136637D-14,0.0D0,0.0D0,-1.0D0,7.62D0;                       73P     69
508,1,0,9,5,1,0;                                                      75P     70
510,65,2,1,69,75;                                                     77P     71
120,83,81,0.0D0,6.28318530717959D0;                                   79P     72
110,-1.71D0,3.50909309136637D-14,-.381D0,-1.71D0,                     81P     73
3.50909309136637D-14,8.001D0;                                         81P     74
110,.79D0,3.50909309136637D-14,-.381D0,.79D0,                         83P     75
3.50909309136637D-14,.619D0;                                          83P     76
508,1,0,9,5,0,0;                                                      85P     77
100,0.0D0,0.0D0,0.0D0,-2.5D0,3.06161699786838D-16,-2.5D0,             87P     78
3.06161699786838D-16;                                                 87P     79
124,-1.0D0,0.0D0,0.0D0,.79D0,0.0D0,-1.0D0,0.0D0,                      89P     80
3.50909309136637D-14,0.0D0,0.0D0,1.0D0,0.0D0;                         89P     81
508,1,0,9,6,0,0;                                                      91P     82
510,79,2,1,85,91;                                                     93P     83
116,-3.93500000000006D0,-2.27187330926114D0,0.0D0,0;                  95P     84
123,-.5D0,-.866025403784439D0,0.0D0;                                  97P     85
190,95,97,101;                                                        99P     86
123,.866025403784439D0,-.5D0,0.0D0;                                  101P     87
110,-5.74682540724146D-14,-4.54374661852232D0,0.0D0,                 103P     88
-3.93500000000006D0,-2.27187330926114D0,0.0D0;                       103P     89
110,-5.74682540724146D-14,-4.54374661852232D0,0.0D0,                 105P     90
-5.74682540724146D-14,-4.54374661852232D0,6.35D0;                    105P     91
110,-3.93500000000006D0,-2.27187330926114D0,6.35D0,                  107P     92
-5.74682540724146D-14,-4.54374661852232D0,6.35D0;                    107P     93
110,-3.93500000000006D0,-2.27187330926114D0,0.0D0,                   109P     94
-3.93500000000006D0,-2.27187330926114D0,6.35D0;                      109P     95
508,4,0,9,7,0,0,0,9,8,1,0,0,9,9,0,0,0,9,10,0,0;                      111P     96
510,99,1,1,111;                                                      113P     97
116,-3.93500000000006D0,2.27187330926121D0,0.0D0,0;                  115P     98
123,-1.0D0,0.0D0,0.0D0;                                              117P     99
190,115,117,121;                                                     119P    100
123,0.0D0,-1.0D0,0.0D0;                                              121P    101
110,-3.93500000000006D0,-2.27187330926114D0,0.0D0,                   123P    102
-3.93500000000006D0,2.27187330926121D0,0.0D0;                        123P    103
110,-3.93500000000006D0,2.27187330926121D0,6.35D0,                   125P    104
-3.93500000000006D0,-2.27187330926114D0,6.35D0;                      125P    105
110,-3.93500000000006D0,2.27187330926121D0,0.0D0,                    127P    106
-3.93500000000006D0,2.27187330926121D0,6.35D0;                       127P    107
508,4,0,9,11,0,0,0,9,10,1,0,0,9,12,0,0,0,9,13,0,0;                   129P    108
510,119,1,1,129;                                                     131P    109
116,-5.88418203051333D-14,4.54374661852239D0,0.0D0,0;                133P    110
123,-.5D0,.866025403784439D0,0.0D0;                                  135P    111
190,133,135,139;                                                     137P    112
123,-.866025403784439D0,-.5D0,0.0D0;                                 139P    113
110,-3.93500000000006D0,2.27187330926121D0,0.0D0,                    141P    114
-5.86197757002083D-14,4.54374661852239D0,0.0D0;                      141P    115
110,-5.86197757002083D-14,4.54374661852239D0,6.35D0,                 143P    116
-3.93500000000006D0,2.27187330926121D0,6.35D0;                       143P    117
110,-5.9481720764273D-14,4.54374661852239D0,0.0D0,                   145P    118
-5.9481720764273D-14,4.54374661852239D0,6.35D0;                      145P    119
508,4,0,9,14,0,0,0,9,13,1,0,0,9,15,0,0,0,9,16,0,0;                   147P    120
510,137,1,1,147;                                                     149P    121
116,3.93499999999994D0,2.27187330926121D0,0.0D0,0;                   151P    122
123,.5D0,.866025403784439D0,0.0D0;                                   153P    123
190,151,153,157;                                                     155P    124
123,-.866025403784439D0,.5D0,0.0D0;                                  157P    125
110,-5.9481720764273D-14,4.54374661852239D0,0.0D0,                   159P    126
3.93499999999994D0,2.27187330926121D0,0.0D0;                         159P    127
110,3.93499999999994D0,2.27187330926121D0,6.35D0,                    161P    128
-5.9481720764273D-14,4.54374661852239D0,6.35D0;                      161P    129
110,3.93499999999994D0,2.27187330926121D0,0.0D0,                     163P    130
3.93499999999994D0,2.27187330926121D0,6.35D0;                        163P    131
508,4,0,9,17,0,0,0,9,16,1,0,0,9,18,0,0,0,9,19,0,0;                   165P    132
510,155,1,1,165;                                                     167P    133
116,3.93499999999994D0,-2.27187330926114D0,0.0D0,0;                  169P    134
123,1.0D0,0.0D0,0.0D0;                                               171P    135
190,169,171,175;                                                     173P    136
123,0.0D0,1.0D0,0.0D0;                                               175P    137
110,3.93499999999994D0,2.27187330926121D0,0.0D0,                     177P    138
3.93499999999994D0,-2.27187330926114D0,0.0D0;                        177P    139
110,3.93499999999994D0,-2.27187330926114D0,6.35D0,                   179P    140
3.93499999999994D0,2.27187330926121D0,6.35D0;                        179P    141
110,3.93499999999994D0,-2.27187330926114D0,0.0D0,                    181P    142
3.93499999999994D0,-2.27187330926114D0,6.35D0;                       181P    143
508,4,0,9,20,0,0,0,9,19,1,0,0,9,21,0,0,0,9,22,0,0;                   183P    144
508,1,0,9,2,1,0;                                                     185P    145
510,173,2,1,183,185;                                                 187P    146
116,-5.77315972805081D-14,-4.54374661852232D0,0.0D0,0;               189P    147
123,.5D0,-.866025403784439D0,0.0D0;                                  191P    148
190,189,191,195;                                                     193P    149
123,.866025403784439D0,.5D0,0.0D0;                                   195P    150
110,3.93499999999994D0,-2.27187330926114D0,0.0D0,                    197P    151
-5.77315972805081D-14,-4.54374661852232D0,0.0D0;                     197P    152
110,-5.77315972805081D-14,-4.54374661852232D0,6.35D0,                199P    153
3.93499999999994D0,-2.27187330926114D0,6.35D0;                       199P    154
508,4,0,9,23,0,0,0,9,22,1,0,0,9,24,0,0,0,9,8,0,0;                    201P    155
510,193,1,1,201;                                                     203P    156
116,-5.75728186758738D-14,3.44138809845055D-14,6.35D0,0;             205P    157
123,0.0D0,0.0D0,1.0D0;                                               207P    158
190,205,207,211;                                                     209P    159
123,1.0D0,0.0D0,0.0D0;                                               211P    160
508,6,0,9,24,1,0,0,9,21,1,0,0,9,18,1,0,0,9,15,1,0,0,9,12,1,0,0,      213P    161
9,9,1,0;                                                             213P    162
508,1,0,9,4,1,0;                                                     215P    163
510,209,2,1,213,215;                                                 217P    164
116,-5.75728186758738D-14,3.44138809845055D-14,0.0D0,0;              219P    165
123,0.0D0,0.0D0,-1.0D0;                                              221P    166
190,219,221,225;                                                     223P    167
123,-1.0D0,0.0D0,0.0D0;                                              225P    168
508,6,0,9,23,1,0,0,9,7,1,0,0,9,11,1,0,0,9,14,1,0,0,9,17,1,0,0,9,     227P    169
20,1,0;                                                              227P    170
508,1,0,9,6,1,0;                                                     229P    171
510,223,2,1,227,229;                                                 231P    172
514,13,25,1,37,1,59,1,77,1,93,1,113,1,131,1,149,1,167,1,187,1,       233P    173
203,1,217,1,231,1;                                                   233P    174
186,233,1,0;                                                         235P    175
314,74.5000004768372D0,73.6999988555908D0,72.8999972343445D0,;       237P    176
S      1G      4D    238P    176                                        T      1
