                                                                        S      1
,,22HVSlot Spacer Block.ipt,27HNo Iges File Name specified,22HAutodesk IG      1
nventor 2013,37HAutoDesk Inventor Iges Exporter R2013,32,38,6,99,15,22HVG      2
Slot Spacer Block.ipt,1.0D0,2,2HMM,1,.08D0,15H20140422.180418,.01D0,    G      3
10000.0D0,4HWork,,11,0,,;                                               G      4
     406       1       0       0       1       0       0       000000000D      1
     406       0       0       1       3                               0D      2
     116       2       0       0       0       0       0       000010000D      3
     116       0       0       1       0                               0D      4
     123       3       0       0       0       0       0       000010200D      5
     123       0       0       1       0                               0D      6
     192       4       0       0       0       0       0       000010000D      7
     192       0       0       1       1                               0D      8
     123       5       0       0       0       0       0       000010200D      9
     123       0       0       1       0                               0D     10
     504       6       0       0       0       0       0       000010001D     11
     504       0       0       9       1                               0D     12
     502      15       0       0       0       0       0       000010000D     13
     502       0       0      10       1                               0D     14
     100      25       0       0       0       0      17       000010000D     15
     100       0       0       2       0                               0D     16
     124      27       0       0       0       0       0       000000000D     17
     124       0       0       3       0                               0D     18
     110      30       0       0       0       0       0       000010000D     19
     110       0       0       1       0                               0D     20
     100      31       0       0       0       0      23       000010000D     21
     100       0       0       2       0                               0D     22
     124      33       0       0       0       0       0       000000000D     23
     124       0       0       3       0                               0D     24
     110      36       0       0       0       0       0       000010000D     25
     110       0       0       1       0                               0D     26
     508      37       0       0       0       0       0       000010000D     27
     508       0       0       1       1                               0D     28
     510      38       0       0       0       0       0       000010000D     29
     510       0    -315       1       1                               0D     30
     116      39       0       0       0       0       0       000010000D     31
     116       0       0       1       0                               0D     32
     123      40       0       0       0       0       0       000010200D     33
     123       0       0       1       0                               0D     34
     190      41       0       0       0       0       0       000010000D     35
     190       0       0       1       1                               0D     36
     123      42       0       0       0       0       0       000010200D     37
     123       0       0       1       0                               0D     38
     110      43       0       0       0       0       0       000010000D     39
     110       0       0       1       0                               0D     40
     110      44       0       0       0       0       0       000010000D     41
     110       0       0       1       0                               0D     42
     110      45       0       0       0       0       0       000010000D     43
     110       0       0       1       0                               0D     44
     508      46       0       0       0       0       0       000010000D     45
     508       0       0       1       1                               0D     46
     510      47       0       0       0       0       0       000010000D     47
     510       0    -315       1       1                               0D     48
     116      48       0       0       0       0       0       000010000D     49
     116       0       0       1       0                               0D     50
     123      49       0       0       0       0       0       000010200D     51
     123       0       0       1       0                               0D     52
     190      50       0       0       0       0       0       000010000D     53
     190       0       0       1       1                               0D     54
     123      51       0       0       0       0       0       000010200D     55
     123       0       0       1       0                               0D     56
     110      52       0       0       0       0       0       000010000D     57
     110       0       0       1       0                               0D     58
     100      53       0       0       0       0      61       000010000D     59
     100       0       0       2       0                               0D     60
     124      55       0       0       0       0       0       000000000D     61
     124       0       0       3       0                               0D     62
     110      58       0       0       0       0       0       000010000D     63
     110       0       0       1       0                               0D     64
     100      59       0       0       0       0      67       000010000D     65
     100       0       0       2       0                               0D     66
     124      61       0       0       0       0       0       000000000D     67
     124       0       0       3       0                               0D     68
     110      64       0       0       0       0       0       000010000D     69
     110       0       0       1       0                               0D     70
     100      65       0       0       0       0      73       000010000D     71
     100       0       0       2       0                               0D     72
     124      67       0       0       0       0       0       000000000D     73
     124       0       0       3       0                               0D     74
     508      70       0       0       0       0       0       000010000D     75
     508       0       0       2       1                               0D     76
     100      72       0       0       0       0      79       000010000D     77
     100       0       0       2       0                               0D     78
     124      74       0       0       0       0       0       000000000D     79
     124       0       0       2       0                               0D     80
     508      76       0       0       0       0       0       000010000D     81
     508       0       0       1       1                               0D     82
     100      77       0       0       0       0      85       000010000D     83
     100       0       0       2       0                               0D     84
     124      79       0       0       0       0       0       000000000D     85
     124       0       0       2       0                               0D     86
     508      81       0       0       0       0       0       000010000D     87
     508       0       0       1       1                               0D     88
     100      82       0       0       0       0      91       000010000D     89
     100       0       0       2       0                               0D     90
     124      84       0       0       0       0       0       000000000D     91
     124       0       0       2       0                               0D     92
     508      86       0       0       0       0       0       000010000D     93
     508       0       0       1       1                               0D     94
     100      87       0       0       0       0      97       000010000D     95
     100       0       0       2       0                               0D     96
     124      89       0       0       0       0       0       000000000D     97
     124       0       0       2       0                               0D     98
     508      91       0       0       0       0       0       000010000D     99
     508       0       0       1       1                               0D    100
     100      92       0       0       0       0     103       000010000D    101
     100       0       0       2       0                               0D    102
     124      94       0       0       0       0       0       000000000D    103
     124       0       0       2       0                               0D    104
     508      96       0       0       0       0       0       000010000D    105
     508       0       0       1       1                               0D    106
     510      97       0       0       0       0       0       000010000D    107
     510       0    -315       1       1                               0D    108
     116      98       0       0       0       0       0       000010000D    109
     116       0       0       1       0                               0D    110
     123      99       0       0       0       0       0       000010200D    111
     123       0       0       1       0                               0D    112
     192     100       0       0       0       0       0       000010000D    113
     192       0       0       1       1                               0D    114
     123     101       0       0       0       0       0       000010200D    115
     123       0       0       1       0                               0D    116
     100     102       0       0       0       0     119       000010000D    117
     100       0       0       2       0                               0D    118
     124     104       0       0       0       0       0       000000000D    119
     124       0       0       3       0                               0D    120
     110     107       0       0       0       0       0       000010000D    121
     110       0       0       1       0                               0D    122
     508     108       0       0       0       0       0       000010000D    123
     508       0       0       1       1                               0D    124
     510     109       0       0       0       0       0       000010000D    125
     510       0    -315       1       1                               0D    126
     116     110       0       0       0       0       0       000010000D    127
     116       0       0       1       0                               0D    128
     123     111       0       0       0       0       0       000010200D    129
     123       0       0       1       0                               0D    130
     190     112       0       0       0       0       0       000010000D    131
     190       0       0       1       1                               0D    132
     123     113       0       0       0       0       0       000010200D    133
     123       0       0       1       0                               0D    134
     110     114       0       0       0       0       0       000010000D    135
     110       0       0       1       0                               0D    136
     110     115       0       0       0       0       0       000010000D    137
     110       0       0       1       0                               0D    138
     508     116       0       0       0       0       0       000010000D    139
     508       0       0       1       1                               0D    140
     510     117       0       0       0       0       0       000010000D    141
     510       0    -315       1       1                               0D    142
     116     118       0       0       0       0       0       000010000D    143
     116       0       0       1       0                               0D    144
     123     119       0       0       0       0       0       000010200D    145
     123       0       0       1       0                               0D    146
     192     120       0       0       0       0       0       000010000D    147
     192       0       0       1       1                               0D    148
     123     121       0       0       0       0       0       000010200D    149
     123       0       0       1       0                               0D    150
     100     122       0       0       0       0     153       000010000D    151
     100       0       0       2       0                               0D    152
     124     124       0       0       0       0       0       000000000D    153
     124       0       0       3       0                               0D    154
     110     127       0       0       0       0       0       000010000D    155
     110       0       0       1       0                               0D    156
     110     128       0       0       0       0       0       000010000D    157
     110       0       0       1       0                               0D    158
     508     129       0       0       0       0       0       000010000D    159
     508       0       0       1       1                               0D    160
     510     130       0       0       0       0       0       000010000D    161
     510       0    -315       1       1                               0D    162
     116     131       0       0       0       0       0       000010000D    163
     116       0       0       1       0                               0D    164
     123     132       0       0       0       0       0       000010200D    165
     123       0       0       1       0                               0D    166
     190     133       0       0       0       0       0       000010000D    167
     190       0       0       1       1                               0D    168
     123     134       0       0       0       0       0       000010200D    169
     123       0       0       1       0                               0D    170
     110     135       0       0       0       0       0       000010000D    171
     110       0       0       1       0                               0D    172
     508     136       0       0       0       0       0       000010000D    173
     508       0       0       1       1                               0D    174
     510     137       0       0       0       0       0       000010000D    175
     510       0    -315       1       1                               0D    176
     116     138       0       0       0       0       0       000010000D    177
     116       0       0       1       0                               0D    178
     123     139       0       0       0       0       0       000010200D    179
     123       0       0       1       0                               0D    180
     192     140       0       0       0       0       0       000010000D    181
     192       0       0       1       1                               0D    182
     123     141       0       0       0       0       0       000010200D    183
     123       0       0       1       0                               0D    184
     100     142       0       0       0       0     187       000010000D    185
     100       0       0       2       0                               0D    186
     124     144       0       0       0       0       0       000000000D    187
     124       0       0       3       0                               0D    188
     110     147       0       0       0       0       0       000010000D    189
     110       0       0       1       0                               0D    190
     508     148       0       0       0       0       0       000010000D    191
     508       0       0       1       1                               0D    192
     510     149       0       0       0       0       0       000010000D    193
     510       0    -315       1       1                               0D    194
     120     150       0       0       0       0       0       000010000D    195
     120       0       0       1       0                               0D    196
     110     151       0       0       0       0       0       000010000D    197
     110       0       0       1       0                               0D    198
     110     152       0       0       0       0       0       001010000D    199
     110       0       0       2       0                               0D    200
     508     154       0       0       0       0       0       000010000D    201
     508       0       0       1       1                               0D    202
     100     155       0       0       0       0     205       000010000D    203
     100       0       0       1       0                               0D    204
     124     156       0       0       0       0       0       000000000D    205
     124       0       0       2       0                               0D    206
     508     158       0       0       0       0       0       000010000D    207
     508       0       0       1       1                               0D    208
     510     159       0       0       0       0       0       000010000D    209
     510       0    -315       1       1                               0D    210
     120     160       0       0       0       0       0       000010000D    211
     120       0       0       1       0                               0D    212
     110     161       0       0       0       0       0       000010000D    213
     110       0       0       1       0                               0D    214
     110     162       0       0       0       0       0       001010000D    215
     110       0       0       2       0                               0D    216
     508     164       0       0       0       0       0       000010000D    217
     508       0       0       1       1                               0D    218
     100     165       0       0       0       0     221       000010000D    219
     100       0       0       1       0                               0D    220
     124     166       0       0       0       0       0       000000000D    221
     124       0       0       2       0                               0D    222
     508     168       0       0       0       0       0       000010000D    223
     508       0       0       1       1                               0D    224
     510     169       0       0       0       0       0       000010000D    225
     510       0    -315       1       1                               0D    226
     120     170       0       0       0       0       0       000010000D    227
     120       0       0       1       0                               0D    228
     110     171       0       0       0       0       0       000010000D    229
     110       0       0       1       0                               0D    230
     110     172       0       0       0       0       0       001010000D    231
     110       0       0       2       0                               0D    232
     508     174       0       0       0       0       0       000010000D    233
     508       0       0       1       1                               0D    234
     100     175       0       0       0       0     237       000010000D    235
     100       0       0       1       0                               0D    236
     124     176       0       0       0       0       0       000000000D    237
     124       0       0       2       0                               0D    238
     508     178       0       0       0       0       0       000010000D    239
     508       0       0       1       1                               0D    240
     510     179       0       0       0       0       0       000010000D    241
     510       0    -315       1       1                               0D    242
     120     180       0       0       0       0       0       000010000D    243
     120       0       0       1       0                               0D    244
     110     181       0       0       0       0       0       000010000D    245
     110       0       0       1       0                               0D    246
     110     182       0       0       0       0       0       001010000D    247
     110       0       0       2       0                               0D    248
     508     184       0       0       0       0       0       000010000D    249
     508       0       0       1       1                               0D    250
     100     185       0       0       0       0     253       000010000D    251
     100       0       0       1       0                               0D    252
     124     186       0       0       0       0       0       000000000D    253
     124       0       0       2       0                               0D    254
     508     188       0       0       0       0       0       000010000D    255
     508       0       0       1       1                               0D    256
     510     189       0       0       0       0       0       000010000D    257
     510       0    -315       1       1                               0D    258
     120     190       0       0       0       0       0       000010000D    259
     120       0       0       1       0                               0D    260
     110     191       0       0       0       0       0       000010000D    261
     110       0       0       1       0                               0D    262
     110     192       0       0       0       0       0       001010000D    263
     110       0       0       2       0                               0D    264
     508     194       0       0       0       0       0       000010000D    265
     508       0       0       1       1                               0D    266
     100     195       0       0       0       0     269       000010000D    267
     100       0       0       1       0                               0D    268
     124     196       0       0       0       0       0       000000000D    269
     124       0       0       2       0                               0D    270
     508     198       0       0       0       0       0       000010000D    271
     508       0       0       1       1                               0D    272
     510     199       0       0       0       0       0       000010000D    273
     510       0    -315       1       1                               0D    274
     116     200       0       0       0       0       0       000010000D    275
     116       0       0       1       0                               0D    276
     123     201       0       0       0       0       0       000010200D    277
     123       0       0       1       0                               0D    278
     190     202       0       0       0       0       0       000010000D    279
     190       0       0       1       1                               0D    280
     123     203       0       0       0       0       0       000010200D    281
     123       0       0       1       0                               0D    282
     110     204       0       0       0       0       0       000010000D    283
     110       0       0       1       0                               0D    284
     508     205       0       0       0       0       0       000010000D    285
     508       0       0       1       1                               0D    286
     510     206       0       0       0       0       0       000010000D    287
     510       0    -315       1       1                               0D    288
     116     207       0       0       0       0       0       000010000D    289
     116       0       0       1       0                               0D    290
     123     208       0       0       0       0       0       000010200D    291
     123       0       0       1       0                               0D    292
     190     209       0       0       0       0       0       000010000D    293
     190       0       0       1       1                               0D    294
     123     210       0       0       0       0       0       000010200D    295
     123       0       0       1       0                               0D    296
     508     211       0       0       0       0       0       000010000D    297
     508       0       0       2       1                               0D    298
     508     213       0       0       0       0       0       000010000D    299
     508       0       0       1       1                               0D    300
     508     214       0       0       0       0       0       000010000D    301
     508       0       0       1       1                               0D    302
     508     215       0       0       0       0       0       000010000D    303
     508       0       0       1       1                               0D    304
     508     216       0       0       0       0       0       000010000D    305
     508       0       0       1       1                               0D    306
     508     217       0       0       0       0       0       000010000D    307
     508       0       0       1       1                               0D    308
     510     218       0       0       0       0       0       000010000D    309
     510       0    -315       1       1                               0D    310
     514     219       0       0       0       0       0       000010000D    311
     514       0       0       2       1                               0D    312
     186     221       0       0       1       0       0       000000000D    313
     186       0       0       1       0                  Solid1       0D    314
     314     222       0       0       0       0       0       000000000D    315
     314       0       8       1       0                               0D    316
406,2,0,18HVSlot Spacer Block;                                         1P      1
116,-6.64D0,-39.66D0,0.0D0,0;                                          3P      2
123,0.0D0,0.0D0,1.0D0;                                                 5P      3
192,3,5,3.36D0,9;                                                      7P      4
123,-.707106781186547D0,-.707106781186548D0,0.0D0;                     9P      5
504,34,15,13,1,13,2,19,13,2,13,3,21,13,3,13,4,25,13,4,13,1,39,        11P      6
13,4,13,5,41,13,6,13,5,43,13,1,13,6,57,13,7,13,3,59,13,8,13,7,        11P      7
63,13,9,13,8,65,13,10,13,9,69,13,11,13,10,71,13,5,13,11,77,13,        11P      8
12,13,12,83,13,13,13,13,89,13,14,13,14,95,13,15,13,15,101,13,16,      11P      9
13,16,117,13,17,13,6,121,13,11,13,17,135,13,18,13,10,137,13,17,       11P     10
13,18,151,13,19,13,20,155,13,20,13,8,157,13,7,13,19,171,13,19,        11P     11
13,2,185,13,21,13,18,189,13,9,13,21,203,13,22,13,22,219,13,23,        11P     12
13,23,235,13,24,13,24,251,13,25,13,25,267,13,26,13,26,283,13,21,      11P     13
13,20;                                                                11P     14
502,26,-6.64D0,-43.02D0,12.0D0,-10.0D0,-39.66D0,12.0D0,-10.0D0,       13P     15
-39.66D0,0.0D0,-6.64D0,-43.02D0,0.0D0,6.64D0,-43.02D0,0.0D0,          13P     16
6.64D0,-43.02D0,12.0D0,-10.0D0,39.66D0,0.0D0,-6.64D0,43.02D0,         13P     17
0.0D0,6.64D0,43.02D0,0.0D0,10.0D0,39.66D0,0.0D0,10.0D0,-39.66D0,      13P     18
0.0D0,-2.067D0,20.32D0,0.0D0,-2.067D0,-20.32D0,0.0D0,-3.57D0,         13P     19
30.32D0,0.0D0,-3.57D0,-4.37198907295605D-16,0.0D0,-3.57D0,            13P     20
-30.32D0,0.0D0,10.0D0,-39.66D0,12.0D0,10.0D0,39.66D0,12.0D0,          13P     21
-10.0D0,39.66D0,12.0D0,-6.64D0,43.02D0,12.0D0,6.64D0,43.02D0,         13P     22
12.0D0,2.067D0,20.32D0,12.0D0,2.067D0,-20.32D0,12.0D0,3.57D0,         13P     23
30.32D0,12.0D0,3.57D0,0.0D0,12.0D0,3.57D0,-30.32D0,12.0D0;            13P     24
100,0.0D0,0.0D0,0.0D0,2.3758787847868D0,-2.3758787847868D0,           15P     25
2.3758787847868D0,2.3758787847868D0;                                  15P     26
124,-.707106781186547D0,-.707106781186548D0,0.0D0,-6.64D0,            17P     27
-.707106781186548D0,.707106781186547D0,0.0D0,-39.66D0,0.0D0,          17P     28
0.0D0,-1.0D0,12.0D0;                                                  17P     29
110,-10.0D0,-39.66D0,12.0D0,-10.0D0,-39.66D0,0.0D0;                   19P     30
100,0.0D0,0.0D0,0.0D0,2.3758787847868D0,-2.3758787847868D0,           21P     31
2.3758787847868D0,2.3758787847868D0;                                  21P     32
124,-.707106781186547D0,.707106781186548D0,0.0D0,-6.64D0,             23P     33
-.707106781186548D0,-.707106781186547D0,0.0D0,-39.66D0,0.0D0,         23P     34
0.0D0,1.0D0,0.0D0;                                                    23P     35
110,-6.64D0,-43.02D0,0.0D0,-6.64D0,-43.02D0,12.0D0;                   25P     36
508,4,0,11,1,1,0,0,11,2,1,0,0,11,3,1,0,0,11,4,1,0;                    27P     37
510,7,1,1,27;                                                         29P     38
116,-10.0D0,-43.02D0,0.0D0,0;                                         31P     39
123,0.0D0,-1.0D0,0.0D0;                                               33P     40
190,31,33,37;                                                         35P     41
123,1.0D0,0.0D0,0.0D0;                                                37P     42
110,-6.64D0,-43.02D0,0.0D0,6.64D0,-43.02D0,0.0D0;                     39P     43
110,6.64D0,-43.02D0,12.0D0,6.64D0,-43.02D0,0.0D0;                     41P     44
110,-6.64D0,-43.02D0,12.0D0,6.64D0,-43.02D0,12.0D0;                   43P     45
508,4,0,11,4,0,0,0,11,5,1,0,0,11,6,0,0,0,11,7,0,0;                    45P     46
510,35,1,1,45;                                                        47P     47
116,0.0D0,0.0D0,0.0D0,0;                                              49P     48
123,0.0D0,0.0D0,-1.0D0;                                               51P     49
190,49,51,55;                                                         53P     50
123,-1.0D0,0.0D0,0.0D0;                                               55P     51
110,-10.0D0,39.66D0,0.0D0,-10.0D0,-39.66D0,0.0D0;                     57P     52
100,0.0D0,0.0D0,0.0D0,2.3758787847868D0,-2.3758787847868D0,           59P     53
2.3758787847868D0,2.3758787847868D0;                                  59P     54
124,-.707106781186547D0,-.707106781186548D0,0.0D0,-6.64D0,            61P     55
.707106781186548D0,-.707106781186547D0,0.0D0,39.66D0,0.0D0,           61P     56
0.0D0,1.0D0,0.0D0;                                                    61P     57
110,6.64D0,43.02D0,0.0D0,-6.64D0,43.02D0,0.0D0;                       63P     58
100,0.0D0,0.0D0,0.0D0,2.3758787847868D0,-2.3758787847868D0,           65P     59
2.3758787847868D0,2.3758787847868D0;                                  65P     60
124,.707106781186547D0,-.707106781186548D0,0.0D0,6.64D0,              67P     61
.707106781186548D0,.707106781186547D0,0.0D0,39.66D0,0.0D0,0.0D0,      67P     62
1.0D0,0.0D0;                                                          67P     63
110,10.0D0,-39.66D0,0.0D0,10.0D0,39.66D0,0.0D0;                       69P     64
100,0.0D0,0.0D0,0.0D0,2.3758787847868D0,-2.3758787847868D0,           71P     65
2.3758787847868D0,2.3758787847868D0;                                  71P     66
124,.707106781186547D0,.707106781186548D0,0.0D0,6.64D0,               73P     67
-.707106781186548D0,.707106781186547D0,0.0D0,-39.66D0,0.0D0,          73P     68
0.0D0,1.0D0,0.0D0;                                                    73P     69
508,8,0,11,3,0,0,0,11,8,0,0,0,11,9,0,0,0,11,10,0,0,0,11,11,0,0,       75P     70
0,11,12,0,0,0,11,13,0,0,0,11,5,0,0;                                   75P     71
100,0.0D0,0.0D0,0.0D0,-2.067D0,2.53134493383758D-16,-2.067D0,         77P     72
2.53134493383758D-16;                                                 77P     73
124,1.0D0,0.0D0,0.0D0,0.0D0,0.0D0,1.0D0,0.0D0,20.32D0,0.0D0,          79P     74
0.0D0,1.0D0,0.0D0;                                                    79P     75
508,1,0,11,14,1,0;                                                    81P     76
100,0.0D0,0.0D0,0.0D0,-2.067D0,2.53134493383758D-16,-2.067D0,         83P     77
2.53134493383758D-16;                                                 83P     78
124,1.0D0,0.0D0,0.0D0,0.0D0,0.0D0,1.0D0,0.0D0,-20.32D0,0.0D0,         85P     79
0.0D0,1.0D0,0.0D0;                                                    85P     80
508,1,0,11,15,1,0;                                                    87P     81
100,0.0D0,0.0D0,0.0D0,-3.57D0,4.37198907295605D-16,-3.57D0,           89P     82
4.37198907295605D-16;                                                 89P     83
124,1.0D0,0.0D0,0.0D0,0.0D0,0.0D0,1.0D0,0.0D0,30.32D0,0.0D0,          91P     84
0.0D0,1.0D0,0.0D0;                                                    91P     85
508,1,0,11,16,1,0;                                                    93P     86
100,0.0D0,0.0D0,0.0D0,-3.57D0,4.37198907295605D-16,-3.57D0,           95P     87
4.37198907295605D-16;                                                 95P     88
124,1.0D0,0.0D0,0.0D0,0.0D0,0.0D0,1.0D0,0.0D0,0.0D0,0.0D0,0.0D0,      97P     89
1.0D0,0.0D0;                                                          97P     90
508,1,0,11,17,1,0;                                                    99P     91
100,0.0D0,0.0D0,0.0D0,-3.57D0,4.37198907295605D-16,-3.57D0,          101P     92
4.37198907295605D-16;                                                101P     93
124,1.0D0,0.0D0,0.0D0,0.0D0,0.0D0,1.0D0,0.0D0,-30.32D0,0.0D0,        103P     94
0.0D0,1.0D0,0.0D0;                                                   103P     95
508,1,0,11,18,1,0;                                                   105P     96
510,53,6,1,75,81,87,93,99,105;                                       107P     97
116,6.64D0,-39.66D0,0.0D0,0;                                         109P     98
123,0.0D0,0.0D0,1.0D0;                                               111P     99
192,109,111,3.36D0,115;                                              113P    100
123,.707106781186547D0,-.707106781186548D0,0.0D0;                    115P    101
100,0.0D0,0.0D0,0.0D0,2.3758787847868D0,-2.3758787847868D0,          117P    102
2.3758787847868D0,2.3758787847868D0;                                 117P    103
124,.707106781186547D0,-.707106781186548D0,0.0D0,6.64D0,             119P    104
-.707106781186548D0,-.707106781186547D0,0.0D0,-39.66D0,0.0D0,        119P    105
0.0D0,-1.0D0,12.0D0;                                                 119P    106
110,10.0D0,-39.66D0,0.0D0,10.0D0,-39.66D0,12.0D0;                    121P    107
508,4,0,11,19,1,0,0,11,6,1,0,0,11,13,1,0,0,11,20,1,0;                123P    108
510,113,1,1,123;                                                     125P    109
116,10.0D0,-43.02D0,0.0D0,0;                                         127P    110
123,1.0D0,0.0D0,0.0D0;                                               129P    111
190,127,129,133;                                                     131P    112
123,0.0D0,1.0D0,0.0D0;                                               133P    113
110,10.0D0,39.66D0,12.0D0,10.0D0,39.66D0,0.0D0;                      135P    114
110,10.0D0,-39.66D0,12.0D0,10.0D0,39.66D0,12.0D0;                    137P    115
508,4,0,11,20,0,0,0,11,12,1,0,0,11,21,0,0,0,11,22,0,0;               139P    116
510,131,1,1,139;                                                     141P    117
116,-6.64D0,39.66D0,0.0D0,0;                                         143P    118
123,0.0D0,0.0D0,1.0D0;                                               145P    119
192,143,145,3.36D0,149;                                              147P    120
123,-.707106781186547D0,.707106781186548D0,0.0D0;                    149P    121
100,0.0D0,0.0D0,0.0D0,2.3758787847868D0,-2.3758787847868D0,          151P    122
2.3758787847868D0,2.3758787847868D0;                                 151P    123
124,-.707106781186547D0,.707106781186548D0,0.0D0,-6.64D0,            153P    124
.707106781186548D0,.707106781186547D0,0.0D0,39.66D0,0.0D0,0.0D0,     153P    125
-1.0D0,12.0D0;                                                       153P    126
110,-6.64D0,43.02D0,12.0D0,-6.64D0,43.02D0,0.0D0;                    155P    127
110,-10.0D0,39.66D0,0.0D0,-10.0D0,39.66D0,12.0D0;                    157P    128
508,4,0,11,23,1,0,0,11,24,1,0,0,11,9,1,0,0,11,25,1,0;                159P    129
510,147,1,1,159;                                                     161P    130
116,-10.0D0,43.02D0,0.0D0,0;                                         163P    131
123,-1.0D0,0.0D0,0.0D0;                                              165P    132
190,163,165,169;                                                     167P    133
123,0.0D0,-1.0D0,0.0D0;                                              169P    134
110,-10.0D0,39.66D0,12.0D0,-10.0D0,-39.66D0,12.0D0;                  171P    135
508,4,0,11,2,0,0,0,11,26,0,0,0,11,25,0,0,0,11,8,1,0;                 173P    136
510,167,1,1,173;                                                     175P    137
116,6.64D0,39.66D0,0.0D0,0;                                          177P    138
123,0.0D0,0.0D0,1.0D0;                                               179P    139
192,177,179,3.36D0,183;                                              181P    140
123,.707106781186547D0,.707106781186548D0,0.0D0;                     183P    141
100,0.0D0,0.0D0,0.0D0,2.3758787847868D0,-2.3758787847868D0,          185P    142
2.3758787847868D0,2.3758787847868D0;                                 185P    143
124,.707106781186547D0,.707106781186548D0,0.0D0,6.64D0,              187P    144
.707106781186548D0,-.707106781186547D0,0.0D0,39.66D0,0.0D0,          187P    145
0.0D0,-1.0D0,12.0D0;                                                 187P    146
110,6.64D0,43.02D0,0.0D0,6.64D0,43.02D0,12.0D0;                      189P    147
508,4,0,11,27,1,0,0,11,21,1,0,0,11,11,1,0,0,11,28,1,0;               191P    148
510,181,1,1,191;                                                     193P    149
120,199,197,0.0D0,6.28318530717959D0;                                195P    150
110,2.067D0,20.32D0,-77.145283666608D0,2.067D0,20.32D0,12.6D0;       197P    151
110,0.0D0,20.32D0,-77.145283666608D0,0.0D0,20.32D0,                  199P    152
-76.145283666608D0;                                                  199P    153
508,1,0,11,14,0,0;                                                   201P    154
100,0.0D0,0.0D0,0.0D0,2.067D0,0.0D0,2.067D0,0.0D0;                   203P    155
124,1.0D0,0.0D0,0.0D0,0.0D0,0.0D0,-1.0D0,0.0D0,20.32D0,0.0D0,        205P    156
0.0D0,-1.0D0,12.0D0;                                                 205P    157
508,1,0,11,29,0,0;                                                   207P    158
510,195,2,1,201,207;                                                 209P    159
120,215,213,0.0D0,6.28318530717959D0;                                211P    160
110,2.067D0,-20.32D0,-77.145283666608D0,2.067D0,-20.32D0,12.6D0;     213P    161
110,0.0D0,-20.32D0,-77.145283666608D0,0.0D0,-20.32D0,                215P    162
-76.145283666608D0;                                                  215P    163
508,1,0,11,15,0,0;                                                   217P    164
100,0.0D0,0.0D0,0.0D0,2.067D0,0.0D0,2.067D0,0.0D0;                   219P    165
124,1.0D0,0.0D0,0.0D0,0.0D0,0.0D0,-1.0D0,0.0D0,-20.32D0,0.0D0,       221P    166
0.0D0,-1.0D0,12.0D0;                                                 221P    167
508,1,0,11,30,0,0;                                                   223P    168
510,211,2,1,217,223;                                                 225P    169
120,231,229,0.0D0,6.28318530717959D0;                                227P    170
110,3.57D0,30.32D0,-77.145283666608D0,3.57D0,30.32D0,12.6D0;         229P    171
110,0.0D0,30.32D0,-77.145283666608D0,0.0D0,30.32D0,                  231P    172
-76.145283666608D0;                                                  231P    173
508,1,0,11,16,0,0;                                                   233P    174
100,0.0D0,0.0D0,0.0D0,3.57D0,0.0D0,3.57D0,0.0D0;                     235P    175
124,1.0D0,0.0D0,0.0D0,0.0D0,0.0D0,-1.0D0,0.0D0,30.32D0,0.0D0,        237P    176
0.0D0,-1.0D0,12.0D0;                                                 237P    177
508,1,0,11,31,0,0;                                                   239P    178
510,227,2,1,233,239;                                                 241P    179
120,247,245,0.0D0,6.28318530717959D0;                                243P    180
110,3.57D0,0.0D0,-77.145283666608D0,3.57D0,0.0D0,12.6D0;             245P    181
110,0.0D0,0.0D0,-77.145283666608D0,0.0D0,0.0D0,                      247P    182
-76.145283666608D0;                                                  247P    183
508,1,0,11,17,0,0;                                                   249P    184
100,0.0D0,0.0D0,0.0D0,3.57D0,0.0D0,3.57D0,0.0D0;                     251P    185
124,1.0D0,0.0D0,0.0D0,0.0D0,0.0D0,-1.0D0,0.0D0,0.0D0,0.0D0,          253P    186
0.0D0,-1.0D0,12.0D0;                                                 253P    187
508,1,0,11,32,0,0;                                                   255P    188
510,243,2,1,249,255;                                                 257P    189
120,263,261,0.0D0,6.28318530717959D0;                                259P    190
110,3.57D0,-30.32D0,-77.145283666608D0,3.57D0,-30.32D0,12.6D0;       261P    191
110,0.0D0,-30.32D0,-77.145283666608D0,0.0D0,-30.32D0,                263P    192
-76.145283666608D0;                                                  263P    193
508,1,0,11,18,0,0;                                                   265P    194
100,0.0D0,0.0D0,0.0D0,3.57D0,0.0D0,3.57D0,0.0D0;                     267P    195
124,1.0D0,0.0D0,0.0D0,0.0D0,0.0D0,-1.0D0,0.0D0,-30.32D0,0.0D0,       269P    196
0.0D0,-1.0D0,12.0D0;                                                 269P    197
508,1,0,11,33,0,0;                                                   271P    198
510,259,2,1,265,271;                                                 273P    199
116,10.0D0,43.02D0,0.0D0,0;                                          275P    200
123,0.0D0,1.0D0,0.0D0;                                               277P    201
190,275,277,281;                                                     279P    202
123,-1.0D0,0.0D0,0.0D0;                                              281P    203
110,6.64D0,43.02D0,12.0D0,-6.64D0,43.02D0,12.0D0;                    283P    204
508,4,0,11,24,0,0,0,11,34,0,0,0,11,28,0,0,0,11,10,1,0;               285P    205
510,279,1,1,285;                                                     287P    206
116,0.0D0,0.0D0,12.0D0,0;                                            289P    207
123,0.0D0,0.0D0,1.0D0;                                               291P    208
190,289,291,295;                                                     293P    209
123,1.0D0,0.0D0,0.0D0;                                               295P    210
508,8,0,11,1,0,0,0,11,7,1,0,0,11,19,0,0,0,11,22,1,0,0,11,27,0,0,     297P    211
0,11,34,1,0,0,11,23,0,0,0,11,26,1,0;                                 297P    212
508,1,0,11,29,1,0;                                                   299P    213
508,1,0,11,30,1,0;                                                   301P    214
508,1,0,11,31,1,0;                                                   303P    215
508,1,0,11,32,1,0;                                                   305P    216
508,1,0,11,33,1,0;                                                   307P    217
510,293,6,1,297,299,301,303,305,307;                                 309P    218
514,15,29,1,47,1,107,1,125,1,141,1,161,1,175,1,193,1,209,1,225,      311P    219
1,241,1,257,1,273,1,287,1,309,1;                                     311P    220
186,311,1,0;                                                         313P    221
314,89.8039221763611D0,89.9999976158142D0,89.9999976158142D0,;       315P    222
S      1G      4D    316P    222                                        T      1
