                                                                        S      1
,,15H5mm Tee Nut.ipt,27HNo Iges File Name specified,22HAutodesk InventorG      1
 2013,37HAutoDesk Inventor Iges Exporter R2013,32,38,6,99,15,15H5mm Tee G      2
Nut.ipt,1.0D0,2,2HMM,1,.08D0,15H20140422.180419,.01D0,10000.0D0,4HWork,,G      3
11,0,,;                                                                 G      4
     406       1       0       0       1       0       0       000000000D      1
     406       0       0       1       3                               0D      2
     116       2       0       0       0       0       0       000010000D      3
     116       0       0       1       0                               0D      4
     123       3       0       0       0       0       0       000010200D      5
     123       0       0       1       0                               0D      6
     192       4       0       0       0       0       0       000010000D      7
     192       0       0       1       1                               0D      8
     123       5       0       0       0       0       0       000010200D      9
     123       0       0       1       0                               0D     10
     504       6       0       0       0       0       0       000010001D     11
     504       0       0       7       1                               0D     12
     502      13       0       0       0       0       0       000010000D     13
     502       0       0       8       1                               0D     14
     100      21       0       0       0       0      17       000010000D     15
     100       0       0       2       0                               0D     16
     124      23       0       0       0       0       0       000000000D     17
     124       0       0       3       0                               0D     18
     110      26       0       0       0       0       0       000010000D     19
     110       0       0       1       0                               0D     20
     100      27       0       0       0       0      23       000010000D     21
     100       0       0       2       0                               0D     22
     124      29       0       0       0       0       0       000000000D     23
     124       0       0       3       0                               0D     24
     110      32       0       0       0       0       0       000010000D     25
     110       0       0       1       0                               0D     26
     508      33       0       0       0       0       0       000010000D     27
     508       0       0       1       1                               0D     28
     510      34       0       0       0       0       0       000010000D     29
     510       0    -255       1       1                               0D     30
     116      35       0       0       0       0       0       000010000D     31
     116       0       0       1       0                               0D     32
     123      36       0       0       0       0       0       000010200D     33
     123       0       0       1       0                               0D     34
     190      37       0       0       0       0       0       000010000D     35
     190       0       0       1       1                               0D     36
     123      38       0       0       0       0       0       000010200D     37
     123       0       0       1       0                               0D     38
     110      39       0       0       0       0       0       000010000D     39
     110       0       0       1       0                               0D     40
     100      40       0       0       0       0      43       000010000D     41
     100       0       0       2       0                               0D     42
     124      42       0       0       0       0       0       000000000D     43
     124       0       0       3       0                               0D     44
     110      45       0       0       0       0       0       000010000D     45
     110       0       0       1       0                               0D     46
     100      46       0       0       0       0      49       000010000D     47
     100       0       0       2       0                               0D     48
     124      48       0       0       0       0       0       000000000D     49
     124       0       0       3       0                               0D     50
     110      51       0       0       0       0       0       000010000D     51
     110       0       0       1       0                               0D     52
     100      52       0       0       0       0      55       000010000D     53
     100       0       0       2       0                               0D     54
     124      54       0       0       0       0       0       000000000D     55
     124       0       0       3       0                               0D     56
     110      57       0       0       0       0       0       000010000D     57
     110       0       0       1       0                               0D     58
     508      58       0       0       0       0       0       000010000D     59
     508       0       0       2       1                               0D     60
     100      60       0       0       0       0      63       000010000D     61
     100       0       0       2       0                               0D     62
     124      62       0       0       0       0       0       000000000D     63
     124       0       0       2       0                               0D     64
     508      64       0       0       0       0       0       000010000D     65
     508       0       0       1       1                               0D     66
     510      65       0       0       0       0       0       000010000D     67
     510       0    -255       1       1                               0D     68
     116      66       0       0       0       0       0       000010000D     69
     116       0       0       1       0                               0D     70
     123      67       0       0       0       0       0       000010200D     71
     123       0       0       1       0                               0D     72
     190      68       0       0       0       0       0       000010000D     73
     190       0       0       1       1                               0D     74
     123      69       0       0       0       0       0       000010200D     75
     123       0       0       1       0                               0D     76
     110      70       0       0       0       0       0       000010000D     77
     110       0       0       1       0                               0D     78
     110      71       0       0       0       0       0       000010000D     79
     110       0       0       1       0                               0D     80
     508      72       0       0       0       0       0       000010000D     81
     508       0       0       1       1                               0D     82
     510      73       0       0       0       0       0       000010000D     83
     510       0    -255       1       1                               0D     84
     116      74       0       0       0       0       0       000010000D     85
     116       0       0       1       0                               0D     86
     123      75       0       0       0       0       0       000010200D     87
     123       0       0       1       0                               0D     88
     192      76       0       0       0       0       0       000010000D     89
     192       0       0       1       1                               0D     90
     123      77       0       0       0       0       0       000010200D     91
     123       0       0       1       0                               0D     92
     100      78       0       0       0       0      95       000010000D     93
     100       0       0       2       0                               0D     94
     124      80       0       0       0       0       0       000000000D     95
     124       0       0       3       0                               0D     96
     110      83       0       0       0       0       0       000010000D     97
     110       0       0       1       0                               0D     98
     508      84       0       0       0       0       0       000010000D     99
     508       0       0       1       1                               0D    100
     510      85       0       0       0       0       0       000010000D    101
     510       0    -255       1       1                               0D    102
     116      86       0       0       0       0       0       000010000D    103
     116       0       0       1       0                               0D    104
     123      87       0       0       0       0       0       000010200D    105
     123       0       0       1       0                               0D    106
     192      88       0       0       0       0       0       000010000D    107
     192       0       0       1       1                               0D    108
     123      89       0       0       0       0       0       000010200D    109
     123       0       0       1       0                               0D    110
     110      90       0       0       0       0       0       000010000D    111
     110       0       0       1       0                               0D    112
     100      91       0       0       0       0     115       000010000D    113
     100       0       0       2       0                               0D    114
     124      93       0       0       0       0       0       000000000D    115
     124       0       0       3       0                               0D    116
     110      96       0       0       0       0       0       000010000D    117
     110       0       0       1       0                               0D    118
     508      97       0       0       0       0       0       000010000D    119
     508       0       0       1       1                               0D    120
     510      98       0       0       0       0       0       000010000D    121
     510       0    -255       1       1                               0D    122
     116      99       0       0       0       0       0       000010000D    123
     116       0       0       1       0                               0D    124
     123     100       0       0       0       0       0       000010200D    125
     123       0       0       1       0                               0D    126
     190     101       0       0       0       0       0       000010000D    127
     190       0       0       1       1                               0D    128
     123     102       0       0       0       0       0       000010200D    129
     123       0       0       1       0                               0D    130
     110     103       0       0       0       0       0       000010000D    131
     110       0       0       1       0                               0D    132
     110     104       0       0       0       0       0       000010000D    133
     110       0       0       1       0                               0D    134
     508     105       0       0       0       0       0       000010000D    135
     508       0       0       1       1                               0D    136
     510     106       0       0       0       0       0       000010000D    137
     510       0    -255       1       1                               0D    138
     116     107       0       0       0       0       0       000010000D    139
     116       0       0       1       0                               0D    140
     123     108       0       0       0       0       0       000010200D    141
     123       0       0       1       0                               0D    142
     192     109       0       0       0       0       0       000010000D    143
     192       0       0       1       1                               0D    144
     123     110       0       0       0       0       0       000010200D    145
     123       0       0       1       0                               0D    146
     110     111       0       0       0       0       0       000010000D    147
     110       0       0       1       0                               0D    148
     100     112       0       0       0       0     151       000010000D    149
     100       0       0       2       0                               0D    150
     124     114       0       0       0       0       0       000000000D    151
     124       0       0       3       0                               0D    152
     508     117       0       0       0       0       0       000010000D    153
     508       0       0       1       1                               0D    154
     510     118       0       0       0       0       0       000010000D    155
     510       0    -255       1       1                               0D    156
     120     119       0       0       0       0       0       000010000D    157
     120       0       0       1       0                               0D    158
     110     120       0       0       0       0       0       000010000D    159
     110       0       0       1       0                               0D    160
     110     121       0       0       0       0       0       001010000D    161
     110       0       0       2       0                               0D    162
     100     123       0       0       0       0     165       000010000D    163
     100       0       0       2       0                               0D    164
     124     125       0       0       0       0       0       000000000D    165
     124       0       0       2       0                               0D    166
     508     127       0       0       0       0       0       000010000D    167
     508       0       0       1       1                               0D    168
     100     128       0       0       0       0     171       000010000D    169
     100       0       0       1       0                               0D    170
     124     129       0       0       0       0       0       000000000D    171
     124       0       0       2       0                               0D    172
     508     131       0       0       0       0       0       000010000D    173
     508       0       0       1       1                               0D    174
     510     132       0       0       0       0       0       000010000D    175
     510       0    -255       1       1                               0D    176
     116     133       0       0       0       0       0       000010000D    177
     116       0       0       1       0                               0D    178
     123     134       0       0       0       0       0       000010200D    179
     123       0       0       1       0                               0D    180
     192     135       0       0       0       0       0       000010000D    181
     192       0       0       1       1                               0D    182
     123     136       0       0       0       0       0       000010200D    183
     123       0       0       1       0                               0D    184
     100     137       0       0       0       0     187       000010000D    185
     100       0       0       2       0                               0D    186
     124     139       0       0       0       0       0       000000000D    187
     124       0       0       2       0                               0D    188
     508     141       0       0       0       0       0       000010000D    189
     508       0       0       1       1                               0D    190
     508     142       0       0       0       0       0       000010000D    191
     508       0       0       1       1                               0D    192
     510     143       0       0       0       0       0       000010000D    193
     510       0    -255       1       1                               0D    194
     116     144       0       0       0       0       0       000010000D    195
     116       0       0       1       0                               0D    196
     123     145       0       0       0       0       0       000010200D    197
     123       0       0       1       0                               0D    198
     190     146       0       0       0       0       0       000010000D    199
     190       0       0       1       1                               0D    200
     123     147       0       0       0       0       0       000010200D    201
     123       0       0       1       0                               0D    202
     508     148       0       0       0       0       0       000010000D    203
     508       0       0       1       1                               0D    204
     508     149       0       0       0       0       0       000010000D    205
     508       0       0       1       1                               0D    206
     510     150       0       0       0       0       0       000010000D    207
     510       0    -255       1       1                               0D    208
     116     151       0       0       0       0       0       000010000D    209
     116       0       0       1       0                               0D    210
     123     152       0       0       0       0       0       000010200D    211
     123       0       0       1       0                               0D    212
     190     153       0       0       0       0       0       000010000D    213
     190       0       0       1       1                               0D    214
     123     154       0       0       0       0       0       000010200D    215
     123       0       0       1       0                               0D    216
     110     155       0       0       0       0       0       000010000D    217
     110       0       0       1       0                               0D    218
     508     156       0       0       0       0       0       000010000D    219
     508       0       0       1       1                               0D    220
     510     157       0       0       0       0       0       000010000D    221
     510       0    -255       1       1                               0D    222
     116     158       0       0       0       0       0       000010000D    223
     116       0       0       1       0                               0D    224
     123     159       0       0       0       0       0       000010200D    225
     123       0       0       1       0                               0D    226
     190     160       0       0       0       0       0       000010000D    227
     190       0       0       1       1                               0D    228
     123     161       0       0       0       0       0       000010200D    229
     123       0       0       1       0                               0D    230
     110     162       0       0       0       0       0       000010000D    231
     110       0       0       1       0                               0D    232
     508     163       0       0       0       0       0       000010000D    233
     508       0       0       1       1                               0D    234
     510     164       0       0       0       0       0       000010000D    235
     510       0    -255       1       1                               0D    236
     116     165       0       0       0       0       0       000010000D    237
     116       0       0       1       0                               0D    238
     123     166       0       0       0       0       0       000010200D    239
     123       0       0       1       0                               0D    240
     190     167       0       0       0       0       0       000010000D    241
     190       0       0       1       1                               0D    242
     123     168       0       0       0       0       0       000010200D    243
     123       0       0       1       0                               0D    244
     508     169       0       0       0       0       0       000010000D    245
     508       0       0       2       1                               0D    246
     508     171       0       0       0       0       0       000010000D    247
     508       0       0       1       1                               0D    248
     510     172       0       0       0       0       0       000010000D    249
     510       0    -255       1       1                               0D    250
     514     173       0       0       0       0       0       000010000D    251
     514       0       0       2       1                               0D    252
     186     175       0       0       1       0       0       000000000D    253
     186       0       0       1       0                  Solid1       0D    254
     314     176       0       0       0       0       0       000000000D    255
     314       0       8       1       0                               0D    256
406,2,0,11H5mm Tee Nut;                                                1P      1
116,-3.5D0,-6.0D0,0.0D0,0;                                             3P      2
123,0.0D0,0.0D0,1.0D0;                                                 5P      3
192,3,5,1.5D0,9;                                                       7P      4
123,-.707106781186548D0,-.707106781186547D0,0.0D0;                     9P      5
504,28,15,13,1,13,2,19,13,2,13,3,21,13,3,13,4,25,13,4,13,1,39,        11P      6
13,1,13,5,41,13,6,13,5,45,13,6,13,7,47,13,8,13,7,51,13,8,13,9,        11P      7
53,13,10,13,9,57,13,10,13,2,61,13,11,13,11,77,13,12,13,4,79,13,       11P      8
5,13,12,93,13,12,13,13,97,13,13,13,6,111,13,9,13,14,113,13,14,        11P      9
13,15,117,13,15,13,10,131,13,16,13,8,133,13,14,13,16,147,13,7,        11P     10
13,17,149,13,17,13,16,163,13,18,13,18,169,13,19,13,19,185,13,20,      11P     11
13,20,217,13,17,13,13,231,13,3,13,15;                                 11P     12
502,20,-3.5D0,-7.5D0,1.6D0,-5.0D0,-6.0D0,1.6D0,-5.0D0,-6.0D0,         13P     13
0.0D0,-3.5D0,-7.5D0,0.0D0,3.5D0,-7.5D0,1.6D0,5.0D0,-6.0D0,1.6D0,      13P     14
5.0D0,6.0D0,1.6D0,3.5D0,7.5D0,1.6D0,-3.5D0,7.5D0,1.6D0,-5.0D0,        13P     15
6.0D0,1.6D0,3.45D0,4.22503145705837D-16,1.6D0,3.5D0,-7.5D0,           13P     16
0.0D0,5.0D0,-6.0D0,0.0D0,-3.5D0,7.5D0,0.0D0,-5.0D0,6.0D0,0.0D0,       13P     17
3.5D0,7.5D0,0.0D0,5.0D0,6.0D0,0.0D0,-2.5D0,                           13P     18
-3.06161699786838D-16,0.0D0,2.5D0,0.0D0,3.0D0,3.45D0,                 13P     19
4.22503145705837D-16,3.0D0;                                           13P     20
100,0.0D0,0.0D0,0.0D0,1.06066017177982D0,-1.06066017177982D0,         15P     21
1.06066017177982D0,1.06066017177982D0;                                15P     22
124,-.707106781186548D0,-.707106781186547D0,0.0D0,-3.5D0,             17P     23
-.707106781186547D0,.707106781186548D0,0.0D0,-6.0D0,0.0D0,0.0D0,      17P     24
-1.0D0,1.6D0;                                                         17P     25
110,-5.0D0,-6.0D0,1.6D0,-5.0D0,-6.0D0,0.0D0;                          19P     26
100,0.0D0,0.0D0,0.0D0,1.06066017177982D0,-1.06066017177982D0,         21P     27
1.06066017177982D0,1.06066017177982D0;                                21P     28
124,-.707106781186548D0,.707106781186547D0,0.0D0,-3.5D0,              23P     29
-.707106781186547D0,-.707106781186548D0,0.0D0,-6.0D0,0.0D0,           23P     30
0.0D0,1.0D0,0.0D0;                                                    23P     31
110,-3.5D0,-7.5D0,0.0D0,-3.5D0,-7.5D0,1.6D0;                          25P     32
508,4,0,11,1,1,0,0,11,2,1,0,0,11,3,1,0,0,11,4,1,0;                    27P     33
510,7,1,1,27;                                                         29P     34
116,0.0D0,0.0D0,1.6D0,0;                                              31P     35
123,0.0D0,0.0D0,1.0D0;                                                33P     36
190,31,33,37;                                                         35P     37
123,1.0D0,0.0D0,0.0D0;                                                37P     38
110,-3.5D0,-7.5D0,1.6D0,3.5D0,-7.5D0,1.6D0;                           39P     39
100,0.0D0,0.0D0,0.0D0,1.06066017177982D0,-1.06066017177982D0,         41P     40
1.06066017177982D0,1.06066017177982D0;                                41P     41
124,.707106781186548D0,-.707106781186547D0,0.0D0,3.5D0,               43P     42
-.707106781186547D0,-.707106781186548D0,0.0D0,-6.0D0,0.0D0,           43P     43
0.0D0,-1.0D0,1.6D0;                                                   43P     44
110,5.0D0,-6.0D0,1.6D0,5.0D0,6.0D0,1.6D0;                             45P     45
100,0.0D0,0.0D0,0.0D0,1.06066017177982D0,-1.06066017177982D0,         47P     46
1.06066017177982D0,1.06066017177982D0;                                47P     47
124,.707106781186548D0,.707106781186547D0,0.0D0,3.5D0,                49P     48
.707106781186547D0,-.707106781186548D0,0.0D0,6.0D0,0.0D0,0.0D0,       49P     49
-1.0D0,1.6D0;                                                         49P     50
110,3.5D0,7.5D0,1.6D0,-3.5D0,7.5D0,1.6D0;                             51P     51
100,0.0D0,0.0D0,0.0D0,1.06066017177982D0,-1.06066017177982D0,         53P     52
1.06066017177982D0,1.06066017177982D0;                                53P     53
124,-.707106781186548D0,.707106781186547D0,0.0D0,-3.5D0,              55P     54
.707106781186547D0,.707106781186548D0,0.0D0,6.0D0,0.0D0,0.0D0,        55P     55
-1.0D0,1.6D0;                                                         55P     56
110,-5.0D0,6.0D0,1.6D0,-5.0D0,-6.0D0,1.6D0;                           57P     57
508,8,0,11,1,0,0,0,11,5,1,0,0,11,6,0,0,0,11,7,1,0,0,11,8,0,0,0,       59P     58
11,9,1,0,0,11,10,0,0,0,11,11,1,0;                                     59P     59
100,0.0D0,0.0D0,0.0D0,-3.45D0,4.22503145705837D-16,-3.45D0,           61P     60
4.22503145705837D-16;                                                 61P     61
124,-1.0D0,0.0D0,0.0D0,0.0D0,0.0D0,1.0D0,0.0D0,0.0D0,0.0D0,           63P     62
0.0D0,-1.0D0,1.6D0;                                                   63P     63
508,1,0,11,12,1,0;                                                    65P     64
510,35,2,1,59,65;                                                     67P     65
116,-5.0D0,-7.5D0,0.0D0,0;                                            69P     66
123,0.0D0,-1.0D0,0.0D0;                                               71P     67
190,69,71,75;                                                         73P     68
123,1.0D0,0.0D0,0.0D0;                                                75P     69
110,3.5D0,-7.5D0,0.0D0,-3.5D0,-7.5D0,0.0D0;                           77P     70
110,3.5D0,-7.5D0,1.6D0,3.5D0,-7.5D0,0.0D0;                            79P     71
508,4,0,11,4,0,0,0,11,13,0,0,0,11,14,0,0,0,11,5,0,0;                  81P     72
510,73,1,1,81;                                                        83P     73
116,3.5D0,-6.0D0,0.0D0,0;                                             85P     74
123,0.0D0,0.0D0,1.0D0;                                                87P     75
192,85,87,1.5D0,91;                                                   89P     76
123,.707106781186548D0,-.707106781186547D0,0.0D0;                     91P     77
100,0.0D0,0.0D0,0.0D0,1.06066017177982D0,-1.06066017177982D0,         93P     78
1.06066017177982D0,1.06066017177982D0;                                93P     79
124,.707106781186548D0,.707106781186547D0,0.0D0,3.5D0,                95P     80
-.707106781186547D0,.707106781186548D0,0.0D0,-6.0D0,0.0D0,0.0D0,      95P     81
1.0D0,0.0D0;                                                          95P     82
110,5.0D0,-6.0D0,0.0D0,5.0D0,-6.0D0,1.6D0;                            97P     83
508,4,0,11,6,1,0,0,11,14,1,0,0,11,15,1,0,0,11,16,1,0;                 99P     84
510,89,1,1,99;                                                       101P     85
116,-3.5D0,6.0D0,0.0D0,0;                                            103P     86
123,0.0D0,0.0D0,1.0D0;                                               105P     87
192,103,105,1.5D0,109;                                               107P     88
123,-.707106781186548D0,.707106781186547D0,0.0D0;                    109P     89
110,-3.5D0,7.5D0,1.6D0,-3.5D0,7.5D0,0.0D0;                           111P     90
100,0.0D0,0.0D0,0.0D0,1.06066017177982D0,-1.06066017177982D0,        113P     91
1.06066017177982D0,1.06066017177982D0;                               113P     92
124,-.707106781186548D0,-.707106781186547D0,0.0D0,-3.5D0,            115P     93
.707106781186547D0,-.707106781186548D0,0.0D0,6.0D0,0.0D0,0.0D0,      115P     94
1.0D0,0.0D0;                                                         115P     95
110,-5.0D0,6.0D0,0.0D0,-5.0D0,6.0D0,1.6D0;                           117P     96
508,4,0,11,10,1,0,0,11,17,1,0,0,11,18,1,0,0,11,19,1,0;               119P     97
510,107,1,1,119;                                                     121P     98
116,5.0D0,7.5D0,0.0D0,0;                                             123P     99
123,0.0D0,1.0D0,0.0D0;                                               125P    100
190,123,125,129;                                                     127P    101
123,-1.0D0,0.0D0,0.0D0;                                              129P    102
110,3.5D0,7.5D0,0.0D0,3.5D0,7.5D0,1.6D0;                             131P    103
110,-3.5D0,7.5D0,0.0D0,3.5D0,7.5D0,0.0D0;                            133P    104
508,4,0,11,17,0,0,0,11,9,0,0,0,11,20,0,0,0,11,21,0,0;                135P    105
510,127,1,1,135;                                                     137P    106
116,3.5D0,6.0D0,0.0D0,0;                                             139P    107
123,0.0D0,0.0D0,1.0D0;                                               141P    108
192,139,141,1.5D0,145;                                               143P    109
123,.707106781186548D0,.707106781186547D0,0.0D0;                     145P    110
110,5.0D0,6.0D0,1.6D0,5.0D0,6.0D0,0.0D0;                             147P    111
100,0.0D0,0.0D0,0.0D0,1.06066017177982D0,-1.06066017177982D0,        149P    112
1.06066017177982D0,1.06066017177982D0;                               149P    113
124,.707106781186548D0,-.707106781186547D0,0.0D0,3.5D0,              151P    114
.707106781186547D0,.707106781186548D0,0.0D0,6.0D0,0.0D0,0.0D0,       151P    115
1.0D0,0.0D0;                                                         151P    116
508,4,0,11,8,1,0,0,11,22,1,0,0,11,23,1,0,0,11,20,1,0;                153P    117
510,143,1,1,153;                                                     155P    118
120,161,159,0.0D0,6.28318530717959D0;                                157P    119
110,2.5D0,0.0D0,-15.2756668824971D0,2.5D0,0.0D0,3.15D0;              159P    120
110,0.0D0,0.0D0,-15.2756668824971D0,0.0D0,0.0D0,                     161P    121
-14.2756668824971D0;                                                 161P    122
100,0.0D0,0.0D0,0.0D0,-2.5D0,3.06161699786838D-16,-2.5D0,            163P    123
3.06161699786838D-16;                                                163P    124
124,1.0D0,0.0D0,0.0D0,0.0D0,0.0D0,1.0D0,0.0D0,0.0D0,0.0D0,0.0D0,     165P    125
1.0D0,0.0D0;                                                         165P    126
508,1,0,11,24,0,0;                                                   167P    127
100,0.0D0,0.0D0,0.0D0,2.5D0,0.0D0,2.5D0,0.0D0;                       169P    128
124,1.0D0,0.0D0,0.0D0,0.0D0,0.0D0,-1.0D0,0.0D0,0.0D0,0.0D0,          171P    129
0.0D0,-1.0D0,3.0D0;                                                  171P    130
508,1,0,11,25,0,0;                                                   173P    131
510,157,2,1,167,173;                                                 175P    132
116,0.0D0,0.0D0,1.6D0,0;                                             177P    133
123,0.0D0,0.0D0,1.0D0;                                               179P    134
192,177,179,3.45D0,183;                                              181P    135
123,-1.0D0,0.0D0,0.0D0;                                              183P    136
100,0.0D0,0.0D0,0.0D0,-3.45D0,4.22503145705837D-16,-3.45D0,          185P    137
4.22503145705837D-16;                                                185P    138
124,-1.0D0,0.0D0,0.0D0,0.0D0,0.0D0,-1.0D0,0.0D0,0.0D0,0.0D0,         187P    139
0.0D0,1.0D0,3.0D0;                                                   187P    140
508,1,0,11,26,0,0;                                                   189P    141
508,1,0,11,12,0,0;                                                   191P    142
510,181,2,1,189,191;                                                 193P    143
116,-1.69293501831182D-16,-6.70424531778476D-17,3.0D0,0;             195P    144
123,0.0D0,0.0D0,1.0D0;                                               197P    145
190,195,197,201;                                                     199P    146
123,1.0D0,0.0D0,0.0D0;                                               201P    147
508,1,0,11,26,1,0;                                                   203P    148
508,1,0,11,25,1,0;                                                   205P    149
510,199,2,1,203,205;                                                 207P    150
116,5.0D0,-7.5D0,0.0D0,0;                                            209P    151
123,1.0D0,0.0D0,0.0D0;                                               211P    152
190,209,211,215;                                                     213P    153
123,0.0D0,1.0D0,0.0D0;                                               215P    154
110,5.0D0,6.0D0,0.0D0,5.0D0,-6.0D0,0.0D0;                            217P    155
508,4,0,11,16,0,0,0,11,27,0,0,0,11,22,0,0,0,11,7,0,0;                219P    156
510,213,1,1,219;                                                     221P    157
116,-5.0D0,7.5D0,0.0D0,0;                                            223P    158
123,-1.0D0,0.0D0,0.0D0;                                              225P    159
190,223,225,229;                                                     227P    160
123,0.0D0,-1.0D0,0.0D0;                                              229P    161
110,-5.0D0,-6.0D0,0.0D0,-5.0D0,6.0D0,0.0D0;                          231P    162
508,4,0,11,2,0,0,0,11,11,0,0,0,11,19,0,0,0,11,28,0,0;                233P    163
510,227,1,1,233;                                                     235P    164
116,0.0D0,0.0D0,0.0D0,0;                                             237P    165
123,0.0D0,0.0D0,-1.0D0;                                              239P    166
190,237,239,243;                                                     241P    167
123,-1.0D0,0.0D0,0.0D0;                                              243P    168
508,8,0,11,3,0,0,0,11,28,1,0,0,11,18,0,0,0,11,21,1,0,0,11,23,0,      245P    169
0,0,11,27,1,0,0,11,15,0,0,0,11,13,1,0;                               245P    170
508,1,0,11,24,1,0;                                                   247P    171
510,241,2,1,245,247;                                                 249P    172
514,13,29,1,67,1,83,1,101,1,121,1,137,1,155,1,175,1,193,1,207,1,     251P    173
221,1,235,1,249,1;                                                   251P    174
186,251,1,0;                                                         253P    175
314,87.8431379795074D0,87.4509811401367D0,85.8823537826538D0,;       255P    176
S      1G      4D    256P    176                                        T      1
