                                                                        S      1
,,16HDouble T-Nut.ipt,27HNo Iges File Name specified,22HAutodesk InventoG      1
r 2013,37HAutoDesk Inventor Iges Exporter R2013,32,38,6,99,15,16HDouble G      2
T-Nut.ipt,1.0D0,2,2HMM,1,.08D0,15H20140422.180420,.01D0,10000.0D0,4HWorkG      3
,,11,0,,;                                                               G      4
     406       1       0       0       1       0       0       000000000D      1
     406       0       0       1       3                               0D      2
     116       2       0       0       0       0       0       000010000D      3
     116       0       0       1       0                               0D      4
     123       3       0       0       0       0       0       000010200D      5
     123       0       0       1       0                               0D      6
     192       4       0       0       0       0       0       000010000D      7
     192       0       0       1       1                               0D      8
     123       5       0       0       0       0       0       000010200D      9
     123       0       0       1       0                               0D     10
     504       6       0       0       0       0       0       000010001D     11
     504       0       0       8       1                               0D     12
     502      14       0       0       0       0       0       000010000D     13
     502       0       0      11       1                               0D     14
     100      25       0       0       0       0      17       000010000D     15
     100       0       0       2       0                               0D     16
     124      27       0       0       0       0       0       000000000D     17
     124       0       0       3       0                               0D     18
     110      30       0       0       0       0       0       000010000D     19
     110       0       0       1       0                               0D     20
     100      31       0       0       0       0      23       000010000D     21
     100       0       0       2       0                               0D     22
     124      33       0       0       0       0       0       000000000D     23
     124       0       0       3       0                               0D     24
     110      36       0       0       0       0       0       000010000D     25
     110       0       0       1       0                               0D     26
     508      37       0       0       0       0       0       000010000D     27
     508       0       0       1       1                               0D     28
     510      38       0       0       0       0       0       000010000D     29
     510       0    -315       1       1                               0D     30
     116      39       0       0       0       0       0       000010000D     31
     116       0       0       1       0                               0D     32
     123      40       0       0       0       0       0       000010200D     33
     123       0       0       1       0                               0D     34
     190      41       0       0       0       0       0       000010000D     35
     190       0       0       1       1                               0D     36
     123      42       0       0       0       0       0       000010200D     37
     123       0       0       1       0                               0D     38
     110      43       0       0       0       0       0       000010000D     39
     110       0       0       1       0                               0D     40
     110      44       0       0       0       0       0       000010000D     41
     110       0       0       1       0                               0D     42
     110      45       0       0       0       0       0       000010000D     43
     110       0       0       1       0                               0D     44
     508      46       0       0       0       0       0       000010000D     45
     508       0       0       1       1                               0D     46
     510      47       0       0       0       0       0       000010000D     47
     510       0    -315       1       1                               0D     48
     116      48       0       0       0       0       0       000010000D     49
     116       0       0       1       0                               0D     50
     123      49       0       0       0       0       0       000010200D     51
     123       0       0       1       0                               0D     52
     190      50       0       0       0       0       0       000010000D     53
     190       0       0       1       1                               0D     54
     123      51       0       0       0       0       0       000010200D     55
     123       0       0       1       0                               0D     56
     110      52       0       0       0       0       0       000010000D     57
     110       0       0       1       0                               0D     58
     100      53       0       0       0       0      61       000010000D     59
     100       0       0       2       0                               0D     60
     124      55       0       0       0       0       0       000000000D     61
     124       0       0       3       0                               0D     62
     110      58       0       0       0       0       0       000010000D     63
     110       0       0       1       0                               0D     64
     100      59       0       0       0       0      67       000010000D     65
     100       0       0       2       0                               0D     66
     124      61       0       0       0       0       0       000000000D     67
     124       0       0       3       0                               0D     68
     110      64       0       0       0       0       0       000010000D     69
     110       0       0       1       0                               0D     70
     100      65       0       0       0       0      73       000010000D     71
     100       0       0       2       0                               0D     72
     124      67       0       0       0       0       0       000000000D     73
     124       0       0       3       0                               0D     74
     508      70       0       0       0       0       0       000010000D     75
     508       0       0       2       1                               0D     76
     100      72       0       0       0       0      79       000010000D     77
     100       0       0       2       0                               0D     78
     124      74       0       0       0       0       0       000000000D     79
     124       0       0       2       0                               0D     80
     508      76       0       0       0       0       0       000010000D     81
     508       0       0       1       1                               0D     82
     100      77       0       0       0       0      85       000010000D     83
     100       0       0       2       0                               0D     84
     124      79       0       0       0       0       0       000000000D     85
     124       0       0       2       0                               0D     86
     508      81       0       0       0       0       0       000010000D     87
     508       0       0       1       1                               0D     88
     510      82       0       0       0       0       0       000010000D     89
     510       0    -315       1       1                               0D     90
     116      83       0       0       0       0       0       000010000D     91
     116       0       0       1       0                               0D     92
     123      84       0       0       0       0       0       000010200D     93
     123       0       0       1       0                               0D     94
     192      85       0       0       0       0       0       000010000D     95
     192       0       0       1       1                               0D     96
     123      86       0       0       0       0       0       000010200D     97
     123       0       0       1       0                               0D     98
     100      87       0       0       0       0     101       000010000D     99
     100       0       0       2       0                               0D    100
     124      89       0       0       0       0       0       000000000D    101
     124       0       0       3       0                               0D    102
     110      92       0       0       0       0       0       000010000D    103
     110       0       0       2       0                               0D    104
     110      94       0       0       0       0       0       000010000D    105
     110       0       0       2       0                               0D    106
     508      96       0       0       0       0       0       000010000D    107
     508       0       0       1       1                               0D    108
     510      97       0       0       0       0       0       000010000D    109
     510       0    -315       1       1                               0D    110
     116      98       0       0       0       0       0       000010000D    111
     116       0       0       1       0                               0D    112
     123      99       0       0       0       0       0       000010200D    113
     123       0       0       1       0                               0D    114
     190     100       0       0       0       0       0       000010000D    115
     190       0       0       1       1                               0D    116
     123     101       0       0       0       0       0       000010200D    117
     123       0       0       1       0                               0D    118
     110     102       0       0       0       0       0       000010000D    119
     110       0       0       1       0                               0D    120
     110     103       0       0       0       0       0       000010000D    121
     110       0       0       1       0                               0D    122
     508     104       0       0       0       0       0       000010000D    123
     508       0       0       1       1                               0D    124
     510     105       0       0       0       0       0       000010000D    125
     510       0    -315       1       1                               0D    126
     116     106       0       0       0       0       0       000010000D    127
     116       0       0       1       0                               0D    128
     123     107       0       0       0       0       0       000010200D    129
     123       0       0       1       0                               0D    130
     192     108       0       0       0       0       0       000010000D    131
     192       0       0       1       1                               0D    132
     123     109       0       0       0       0       0       000010200D    133
     123       0       0       1       0                               0D    134
     100     110       0       0       0       0     137       000010000D    135
     100       0       0       2       0                               0D    136
     124     112       0       0       0       0       0       000000000D    137
     124       0       0       3       0                               0D    138
     110     115       0       0       0       0       0       000010000D    139
     110       0       0       1       0                               0D    140
     508     116       0       0       0       0       0       000010000D    141
     508       0       0       1       1                               0D    142
     510     117       0       0       0       0       0       000010000D    143
     510       0    -315       1       1                               0D    144
     116     118       0       0       0       0       0       000010000D    145
     116       0       0       1       0                               0D    146
     123     119       0       0       0       0       0       000010200D    147
     123       0       0       1       0                               0D    148
     192     120       0       0       0       0       0       000010000D    149
     192       0       0       1       1                               0D    150
     123     121       0       0       0       0       0       000010200D    151
     123       0       0       1       0                               0D    152
     100     122       0       0       0       0     155       000010000D    153
     100       0       0       2       0                               0D    154
     124     124       0       0       0       0       0       000000000D    155
     124       0       0       3       0                               0D    156
     110     127       0       0       0       0       0       000010000D    157
     110       0       0       1       0                               0D    158
     508     128       0       0       0       0       0       000010000D    159
     508       0       0       1       1                               0D    160
     510     129       0       0       0       0       0       000010000D    161
     510       0    -315       1       1                               0D    162
     120     130       0       0       0       0       0       000010000D    163
     120       0       0       1       0                               0D    164
     110     131       0       0       0       0       0       000010000D    165
     110       0       0       2       0                               0D    166
     110     133       0       0       0       0       0       001010000D    167
     110       0       0       2       0                               0D    168
     508     135       0       0       0       0       0       000010000D    169
     508       0       0       1       1                               0D    170
     100     136       0       0       0       0     173       000010000D    171
     100       0       0       1       0                               0D    172
     124     137       0       0       0       0       0       000000000D    173
     124       0       0       2       0                               0D    174
     508     139       0       0       0       0       0       000010000D    175
     508       0       0       1       1                               0D    176
     510     140       0       0       0       0       0       000010000D    177
     510       0    -315       1       1                               0D    178
     120     141       0       0       0       0       0       000010000D    179
     120       0       0       1       0                               0D    180
     110     142       0       0       0       0       0       000010000D    181
     110       0       0       1       0                               0D    182
     110     143       0       0       0       0       0       001010000D    183
     110       0       0       2       0                               0D    184
     508     145       0       0       0       0       0       000010000D    185
     508       0       0       1       1                               0D    186
     100     146       0       0       0       0     189       000010000D    187
     100       0       0       1       0                               0D    188
     124     147       0       0       0       0       0       000000000D    189
     124       0       0       2       0                               0D    190
     508     149       0       0       0       0       0       000010000D    191
     508       0       0       1       1                               0D    192
     510     150       0       0       0       0       0       000010000D    193
     510       0    -315       1       1                               0D    194
     116     151       0       0       0       0       0       000010000D    195
     116       0       0       1       0                               0D    196
     123     152       0       0       0       0       0       000010200D    197
     123       0       0       1       0                               0D    198
     192     153       0       0       0       0       0       000010000D    199
     192       0       0       1       1                               0D    200
     123     154       0       0       0       0       0       000010200D    201
     123       0       0       1       0                               0D    202
     100     155       0       0       0       0     205       000010000D    203
     100       0       0       2       0                               0D    204
     124     157       0       0       0       0       0       000000000D    205
     124       0       0       2       0                               0D    206
     508     159       0       0       0       0       0       000010000D    207
     508       0       0       1       1                               0D    208
     100     160       0       0       0       0     211       000010000D    209
     100       0       0       2       0                               0D    210
     124     162       0       0       0       0       0       000000000D    211
     124       0       0       2       0                               0D    212
     508     164       0       0       0       0       0       000010000D    213
     508       0       0       1       1                               0D    214
     510     165       0       0       0       0       0       000010000D    215
     510       0    -315       1       1                               0D    216
     116     166       0       0       0       0       0       000010000D    217
     116       0       0       1       0                               0D    218
     123     167       0       0       0       0       0       000010200D    219
     123       0       0       1       0                               0D    220
     190     168       0       0       0       0       0       000010000D    221
     190       0       0       1       1                               0D    222
     123     169       0       0       0       0       0       000010200D    223
     123       0       0       1       0                               0D    224
     508     170       0       0       0       0       0       000010000D    225
     508       0       0       1       1                               0D    226
     508     171       0       0       0       0       0       000010000D    227
     508       0       0       1       1                               0D    228
     510     172       0       0       0       0       0       000010000D    229
     510       0    -315       1       1                               0D    230
     116     173       0       0       0       0       0       000010000D    231
     116       0       0       1       0                               0D    232
     123     174       0       0       0       0       0       000010200D    233
     123       0       0       1       0                               0D    234
     192     175       0       0       0       0       0       000010000D    235
     192       0       0       1       1                               0D    236
     123     176       0       0       0       0       0       000010200D    237
     123       0       0       1       0                               0D    238
     100     177       0       0       0       0     241       000010000D    239
     100       0       0       2       0                               0D    240
     124     179       0       0       0       0       0       000000000D    241
     124       0       0       2       0                               0D    242
     508     181       0       0       0       0       0       000010000D    243
     508       0       0       1       1                               0D    244
     100     182       0       0       0       0     247       000010000D    245
     100       0       0       2       0                               0D    246
     124     184       0       0       0       0       0       000000000D    247
     124       0       0       2       0                               0D    248
     508     186       0       0       0       0       0       000010000D    249
     508       0       0       1       1                               0D    250
     510     187       0       0       0       0       0       000010000D    251
     510       0    -315       1       1                               0D    252
     116     188       0       0       0       0       0       000010000D    253
     116       0       0       1       0                               0D    254
     123     189       0       0       0       0       0       000010200D    255
     123       0       0       1       0                               0D    256
     190     190       0       0       0       0       0       000010000D    257
     190       0       0       1       1                               0D    258
     123     191       0       0       0       0       0       000010200D    259
     123       0       0       1       0                               0D    260
     508     192       0       0       0       0       0       000010000D    261
     508       0       0       1       1                               0D    262
     508     193       0       0       0       0       0       000010000D    263
     508       0       0       1       1                               0D    264
     510     194       0       0       0       0       0       000010000D    265
     510       0    -315       1       1                               0D    266
     116     195       0       0       0       0       0       000010000D    267
     116       0       0       1       0                               0D    268
     123     196       0       0       0       0       0       000010200D    269
     123       0       0       1       0                               0D    270
     190     197       0       0       0       0       0       000010000D    271
     190       0       0       1       1                               0D    272
     123     198       0       0       0       0       0       000010200D    273
     123       0       0       1       0                               0D    274
     110     199       0       0       0       0       0       000010000D    275
     110       0       0       1       0                               0D    276
     508     200       0       0       0       0       0       000010000D    277
     508       0       0       1       1                               0D    278
     510     201       0       0       0       0       0       000010000D    279
     510       0    -315       1       1                               0D    280
     116     202       0       0       0       0       0       000010000D    281
     116       0       0       1       0                               0D    282
     123     203       0       0       0       0       0       000010200D    283
     123       0       0       1       0                               0D    284
     190     204       0       0       0       0       0       000010000D    285
     190       0       0       1       1                               0D    286
     123     205       0       0       0       0       0       000010200D    287
     123       0       0       1       0                               0D    288
     110     206       0       0       0       0       0       000010000D    289
     110       0       0       1       0                               0D    290
     508     207       0       0       0       0       0       000010000D    291
     508       0       0       1       1                               0D    292
     510     208       0       0       0       0       0       000010000D    293
     510       0    -315       1       1                               0D    294
     116     209       0       0       0       0       0       000010000D    295
     116       0       0       1       0                               0D    296
     123     210       0       0       0       0       0       000010200D    297
     123       0       0       1       0                               0D    298
     190     211       0       0       0       0       0       000010000D    299
     190       0       0       1       1                               0D    300
     123     212       0       0       0       0       0       000010200D    301
     123       0       0       1       0                               0D    302
     508     213       0       0       0       0       0       000010000D    303
     508       0       0       2       1                               0D    304
     508     215       0       0       0       0       0       000010000D    305
     508       0       0       1       1                               0D    306
     508     216       0       0       0       0       0       000010000D    307
     508       0       0       1       1                               0D    308
     510     217       0       0       0       0       0       000010000D    309
     510       0    -315       1       1                               0D    310
     514     218       0       0       0       0       0       000010000D    311
     514       0       0       2       1                               0D    312
     186     220       0       0       1       0       0       000000000D    313
     186       0       0       1       0                  Solid1       0D    314
     314     221       0       0       0       0       0       000000000D    315
     314       0       8       1       0                               0D    316
406,2,0,12HDouble T-Nut;                                               1P      1
116,3.49D0,-16.93D0,0.0D0,0;                                           3P      2
123,0.0D0,0.0D0,1.0D0;                                                 5P      3
192,3,5,1.51D0,9;                                                      7P      4
123,.707106781186548D0,-.707106781186547D0,0.0D0;                      9P      5
504,32,15,13,1,13,2,19,13,2,13,3,21,13,3,13,4,25,13,4,13,1,39,        11P      6
13,4,13,5,41,13,6,13,5,43,13,1,13,6,57,13,7,13,3,59,13,8,13,7,        11P      7
63,13,9,13,8,65,13,10,13,9,69,13,11,13,10,71,13,5,13,11,77,13,        11P      8
12,13,12,83,13,13,13,13,99,13,14,13,15,103,13,15,13,8,105,13,7,       11P      9
13,14,119,13,16,13,15,121,13,9,13,16,135,13,16,13,17,139,13,17,       11P     10
13,10,153,13,18,13,6,157,13,11,13,18,171,13,19,13,19,187,13,20,       11P     11
13,20,203,13,21,13,21,209,13,22,13,22,239,13,23,13,23,245,13,24,      11P     12
13,24,275,13,18,13,17,289,13,14,13,2;                                 11P     13
502,24,5.0D0,-16.93D0,1.6D0,3.49D0,-18.44D0,1.6D0,3.49D0,             13P     14
-18.44D0,0.0D0,5.0D0,-16.93D0,0.0D0,5.0D0,16.93D0,0.0D0,5.0D0,        13P     15
16.93D0,1.6D0,-3.48999999999999D0,-18.44D0,0.0D0,                     13P     16
-4.99999999999999D0,-16.93D0,0.0D0,-5.0D0,16.93D0,0.0D0,-3.49D0,      13P     17
18.44D0,0.0D0,3.49D0,18.44D0,0.0D0,-2.49999999999999D0,-10.0D0,       13P     18
0.0D0,-2.5D0,10.0D0,0.0D0,-3.48999999999999D0,-18.44D0,1.6D0,         13P     19
-4.99999999999999D0,-16.93D0,1.6D0,-5.0D0,16.93D0,1.6D0,-3.49D0,      13P     20
18.44D0,1.6D0,3.49D0,18.44D0,1.6D0,2.50000000000001D0,-10.0D0,        13P     21
3.0D0,2.5D0,10.0D0,3.0D0,3.45D0,10.0D0,3.0D0,3.45D0,10.0D0,           13P     22
1.6D0,3.45000000000001D0,-10.0D0,3.0D0,3.45000000000001D0,            13P     23
-10.0D0,1.6D0;                                                        13P     24
100,0.0D0,0.0D0,0.0D0,1.06773123959169D0,-1.06773123959169D0,         15P     25
1.06773123959169D0,1.06773123959169D0;                                15P     26
124,.707106781186548D0,-.707106781186547D0,0.0D0,3.49D0,              17P     27
-.707106781186547D0,-.707106781186548D0,0.0D0,-16.93D0,0.0D0,         17P     28
0.0D0,-1.0D0,1.6D0;                                                   17P     29
110,3.49D0,-18.44D0,1.6D0,3.49D0,-18.44D0,0.0D0;                      19P     30
100,0.0D0,0.0D0,0.0D0,1.06773123959169D0,-1.06773123959169D0,         21P     31
1.06773123959169D0,1.06773123959169D0;                                21P     32
124,.707106781186548D0,.707106781186547D0,0.0D0,3.49D0,               23P     33
-.707106781186547D0,.707106781186548D0,0.0D0,-16.93D0,0.0D0,          23P     34
0.0D0,1.0D0,0.0D0;                                                    23P     35
110,5.0D0,-16.93D0,0.0D0,5.0D0,-16.93D0,1.6D0;                        25P     36
508,4,0,11,1,1,0,0,11,2,1,0,0,11,3,1,0,0,11,4,1,0;                    27P     37
510,7,1,1,27;                                                         29P     38
116,5.0D0,-18.44D0,0.0D0,0;                                           31P     39
123,1.0D0,0.0D0,0.0D0;                                                33P     40
190,31,33,37;                                                         35P     41
123,0.0D0,1.0D0,0.0D0;                                                37P     42
110,5.0D0,-16.93D0,0.0D0,5.0D0,16.93D0,0.0D0;                         39P     43
110,5.0D0,16.93D0,1.6D0,5.0D0,16.93D0,0.0D0;                          41P     44
110,5.0D0,-16.93D0,1.6D0,5.0D0,16.93D0,1.6D0;                         43P     45
508,4,0,11,4,0,0,0,11,5,1,0,0,11,6,0,0,0,11,7,0,0;                    45P     46
510,35,1,1,45;                                                        47P     47
116,3.55233476309244D-16,6.72007008250073D-15,0.0D0,0;                49P     48
123,0.0D0,0.0D0,-1.0D0;                                               51P     49
190,49,51,55;                                                         53P     50
123,-1.0D0,0.0D0,0.0D0;                                               55P     51
110,-3.48999999999999D0,-18.44D0,0.0D0,3.49D0,-18.44D0,0.0D0;         57P     52
100,0.0D0,0.0D0,0.0D0,1.06773123959169D0,-1.06773123959169D0,         59P     53
1.06773123959169D0,1.06773123959169D0;                                59P     54
124,-.707106781186548D0,.707106781186547D0,0.0D0,                     61P     55
-3.48999999999999D0,-.707106781186547D0,-.707106781186548D0,          61P     56
0.0D0,-16.93D0,0.0D0,0.0D0,1.0D0,0.0D0;                               61P     57
110,-5.0D0,16.93D0,0.0D0,-4.99999999999999D0,-16.93D0,0.0D0;          63P     58
100,0.0D0,0.0D0,0.0D0,1.06773123959169D0,-1.06773123959169D0,         65P     59
1.06773123959169D0,1.06773123959169D0;                                65P     60
124,-.707106781186548D0,-.707106781186547D0,0.0D0,-3.49D0,            67P     61
.707106781186547D0,-.707106781186548D0,0.0D0,16.93D0,0.0D0,           67P     62
0.0D0,1.0D0,0.0D0;                                                    67P     63
110,3.49D0,18.44D0,0.0D0,-3.49D0,18.44D0,0.0D0;                       69P     64
100,0.0D0,0.0D0,0.0D0,1.06773123959169D0,-1.06773123959168D0,         71P     65
1.06773123959169D0,1.06773123959169D0;                                71P     66
124,.707106781186548D0,-.707106781186547D0,0.0D0,3.49D0,              73P     67
.707106781186547D0,.707106781186548D0,0.0D0,16.93D0,0.0D0,0.0D0,      73P     68
1.0D0,0.0D0;                                                          73P     69
508,8,0,11,3,0,0,0,11,8,0,0,0,11,9,0,0,0,11,10,0,0,0,11,11,0,0,       75P     70
0,11,12,0,0,0,11,13,0,0,0,11,5,0,0;                                   75P     71
100,0.0D0,0.0D0,0.0D0,-2.5D0,3.06161699786838D-16,-2.5D0,             77P     72
3.06161699786838D-16;                                                 77P     73
124,1.0D0,0.0D0,0.0D0,5.94242410805566D-15,0.0D0,1.0D0,0.0D0,         79P     74
-10.0D0,0.0D0,0.0D0,1.0D0,0.0D0;                                      79P     75
508,1,0,11,14,1,0;                                                    81P     76
100,0.0D0,0.0D0,0.0D0,-2.5D0,3.06161699786838D-16,-2.5D0,             83P     77
3.06161699786838D-16;                                                 83P     78
124,1.0D0,0.0D0,0.0D0,1.50153200955503D-15,0.0D0,1.0D0,0.0D0,         85P     79
10.0D0,0.0D0,0.0D0,1.0D0,0.0D0;                                       85P     80
508,1,0,11,15,1,0;                                                    87P     81
510,53,3,1,75,81,87;                                                  89P     82
116,-3.48999999999999D0,-16.93D0,0.0D0,0;                             91P     83
123,0.0D0,0.0D0,1.0D0;                                                93P     84
192,91,93,1.51D0,97;                                                  95P     85
123,-.707106781186548D0,-.707106781186547D0,0.0D0;                    97P     86
100,0.0D0,0.0D0,0.0D0,1.06773123959169D0,-1.06773123959169D0,         99P     87
1.06773123959169D0,1.06773123959169D0;                                99P     88
124,-.707106781186548D0,-.707106781186547D0,0.0D0,                   101P     89
-3.48999999999999D0,-.707106781186547D0,.707106781186548D0,          101P     90
0.0D0,-16.93D0,0.0D0,0.0D0,-1.0D0,1.6D0;                             101P     91
110,-4.99999999999999D0,-16.93D0,1.6D0,-4.99999999999999D0,          103P     92
-16.93D0,0.0D0;                                                      103P     93
110,-3.48999999999999D0,-18.44D0,0.0D0,-3.48999999999999D0,          105P     94
-18.44D0,1.6D0;                                                      105P     95
508,4,0,11,16,1,0,0,11,17,1,0,0,11,9,1,0,0,11,18,1,0;                107P     96
510,95,1,1,107;                                                      109P     97
116,-5.0D0,18.44D0,0.0D0,0;                                          111P     98
123,-1.0D0,0.0D0,0.0D0;                                              113P     99
190,111,113,117;                                                     115P    100
123,0.0D0,-1.0D0,0.0D0;                                              117P    101
110,-5.0D0,16.93D0,1.6D0,-4.99999999999999D0,-16.93D0,1.6D0;         119P    102
110,-5.0D0,16.93D0,0.0D0,-5.0D0,16.93D0,1.6D0;                       121P    103
508,4,0,11,17,0,0,0,11,19,0,0,0,11,20,0,0,0,11,10,1,0;               123P    104
510,115,1,1,123;                                                     125P    105
116,-3.49D0,16.93D0,0.0D0,0;                                         127P    106
123,0.0D0,0.0D0,1.0D0;                                               129P    107
192,127,129,1.51D0,133;                                              131P    108
123,-.707106781186548D0,.707106781186547D0,0.0D0;                    133P    109
100,0.0D0,0.0D0,0.0D0,1.06773123959169D0,-1.06773123959169D0,        135P    110
1.06773123959169D0,1.06773123959169D0;                               135P    111
124,-.707106781186548D0,.707106781186547D0,0.0D0,-3.49D0,            137P    112
.707106781186547D0,.707106781186548D0,0.0D0,16.93D0,0.0D0,0.0D0,     137P    113
-1.0D0,1.6D0;                                                        137P    114
110,-3.49D0,18.44D0,1.6D0,-3.49D0,18.44D0,0.0D0;                     139P    115
508,4,0,11,21,1,0,0,11,22,1,0,0,11,11,1,0,0,11,20,1,0;               141P    116
510,131,1,1,141;                                                     143P    117
116,3.49D0,16.93D0,0.0D0,0;                                          145P    118
123,0.0D0,0.0D0,1.0D0;                                               147P    119
192,145,147,1.51D0,151;                                              149P    120
123,.707106781186548D0,.707106781186547D0,0.0D0;                     151P    121
100,0.0D0,0.0D0,0.0D0,1.06773123959169D0,-1.06773123959169D0,        153P    122
1.06773123959169D0,1.06773123959168D0;                               153P    123
124,.707106781186548D0,.707106781186547D0,0.0D0,3.49D0,              155P    124
.707106781186547D0,-.707106781186548D0,0.0D0,16.93D0,0.0D0,          155P    125
0.0D0,-1.0D0,1.6D0;                                                  155P    126
110,3.49D0,18.44D0,0.0D0,3.49D0,18.44D0,1.6D0;                       157P    127
508,4,0,11,23,1,0,0,11,6,1,0,0,11,13,1,0,0,11,24,1,0;                159P    128
510,149,1,1,159;                                                     161P    129
120,167,165,0.0D0,6.28318530717959D0;                                163P    130
110,2.50000000000001D0,-10.0D0,-35.3292890620215D0,                  165P    131
2.50000000000001D0,-10.0D0,3.15D0;                                   165P    132
110,5.94242410805566D-15,-10.0D0,-35.3292890620215D0,                167P    133
5.94242410805566D-15,-10.0D0,-34.3292890620215D0;                    167P    134
508,1,0,11,14,0,0;                                                   169P    135
100,0.0D0,0.0D0,0.0D0,2.5D0,0.0D0,2.5D0,0.0D0;                       171P    136
124,1.0D0,0.0D0,0.0D0,5.94242410805566D-15,0.0D0,-1.0D0,0.0D0,       173P    137
-10.0D0,0.0D0,0.0D0,-1.0D0,3.0D0;                                    173P    138
508,1,0,11,25,0,0;                                                   175P    139
510,163,2,1,169,175;                                                 177P    140
120,183,181,0.0D0,6.28318530717959D0;                                179P    141
110,2.5D0,10.0D0,-35.3292890620215D0,2.5D0,10.0D0,3.15D0;            181P    142
110,1.50153200955503D-15,10.0D0,-35.3292890620215D0,                 183P    143
1.50153200955503D-15,10.0D0,-34.3292890620215D0;                     183P    144
508,1,0,11,15,0,0;                                                   185P    145
100,0.0D0,0.0D0,0.0D0,2.5D0,0.0D0,2.5D0,0.0D0;                       187P    146
124,1.0D0,0.0D0,0.0D0,1.50153200955503D-15,0.0D0,-1.0D0,0.0D0,       189P    147
10.0D0,0.0D0,0.0D0,-1.0D0,3.0D0;                                     189P    148
508,1,0,11,26,0,0;                                                   191P    149
510,179,2,1,185,191;                                                 193P    150
116,1.50153200955503D-15,10.0D0,1.6D0,0;                             195P    151
123,0.0D0,0.0D0,1.0D0;                                               197P    152
192,195,197,3.45D0,201;                                              199P    153
123,-1.0D0,0.0D0,0.0D0;                                              201P    154
100,0.0D0,0.0D0,0.0D0,-3.45D0,4.22503145705837D-16,-3.45D0,          203P    155
4.22503145705837D-16;                                                203P    156
124,-1.0D0,0.0D0,0.0D0,1.50153200955503D-15,0.0D0,-1.0D0,0.0D0,      205P    157
10.0D0,0.0D0,0.0D0,1.0D0,3.0D0;                                      205P    158
508,1,0,11,27,0,0;                                                   207P    159
100,0.0D0,0.0D0,0.0D0,-3.45D0,4.22503145705837D-16,-3.45D0,          209P    160
4.22503145705837D-16;                                                209P    161
124,-1.0D0,0.0D0,0.0D0,1.50153200955503D-15,0.0D0,1.0D0,0.0D0,       211P    162
10.0D0,0.0D0,0.0D0,-1.0D0,1.6D0;                                     211P    163
508,1,0,11,28,0,0;                                                   213P    164
510,199,2,1,207,213;                                                 215P    165
116,1.2756394852708D-15,10.0D0,3.0D0,0;                              217P    166
123,0.0D0,0.0D0,1.0D0;                                               219P    167
190,217,219,223;                                                     221P    168
123,1.0D0,0.0D0,0.0D0;                                               223P    169
508,1,0,11,27,1,0;                                                   225P    170
508,1,0,11,26,1,0;                                                   227P    171
510,221,2,1,225,227;                                                 229P    172
116,5.94242410805566D-15,-10.0D0,1.6D0,0;                            231P    173
123,0.0D0,0.0D0,1.0D0;                                               233P    174
192,231,233,3.45D0,237;                                              235P    175
123,-1.0D0,0.0D0,0.0D0;                                              237P    176
100,0.0D0,0.0D0,0.0D0,-3.45D0,4.22503145705837D-16,-3.45D0,          239P    177
4.22503145705837D-16;                                                239P    178
124,-1.0D0,0.0D0,0.0D0,5.94242410805566D-15,0.0D0,-1.0D0,0.0D0,      241P    179
-10.0D0,0.0D0,0.0D0,1.0D0,3.0D0;                                     241P    180
508,1,0,11,29,0,0;                                                   243P    181
100,0.0D0,0.0D0,0.0D0,-3.45D0,4.22503145705837D-16,-3.45D0,          245P    182
4.22503145705837D-16;                                                245P    183
124,-1.0D0,0.0D0,0.0D0,5.94242410805566D-15,0.0D0,1.0D0,0.0D0,       247P    184
-10.0D0,0.0D0,0.0D0,-1.0D0,1.6D0;                                    247P    185
508,1,0,11,30,0,0;                                                   249P    186
510,235,2,1,243,249;                                                 251P    187
116,5.825310386313D-15,-10.0D0,3.0D0,0;                              253P    188
123,0.0D0,0.0D0,1.0D0;                                               255P    189
190,253,255,259;                                                     257P    190
123,1.0D0,0.0D0,0.0D0;                                               259P    191
508,1,0,11,29,1,0;                                                   261P    192
508,1,0,11,25,1,0;                                                   263P    193
510,257,2,1,261,263;                                                 265P    194
116,5.0D0,18.44D0,0.0D0,0;                                           267P    195
123,0.0D0,1.0D0,0.0D0;                                               269P    196
190,267,269,273;                                                     271P    197
123,-1.0D0,0.0D0,0.0D0;                                              273P    198
110,3.49D0,18.44D0,1.6D0,-3.49D0,18.44D0,1.6D0;                      275P    199
508,4,0,11,22,0,0,0,11,31,0,0,0,11,24,0,0,0,11,12,1,0;               277P    200
510,271,1,1,277;                                                     279P    201
116,-4.99999999999999D0,-18.44D0,0.0D0,0;                            281P    202
123,0.0D0,-1.0D0,0.0D0;                                              283P    203
190,281,283,287;                                                     285P    204
123,1.0D0,0.0D0,0.0D0;                                               287P    205
110,-3.48999999999999D0,-18.44D0,1.6D0,3.49D0,-18.44D0,1.6D0;        289P    206
508,4,0,11,2,0,0,0,11,32,0,0,0,11,18,0,0,0,11,8,1,0;                 291P    207
510,285,1,1,291;                                                     293P    208
116,3.55233476309244D-16,6.72007008250073D-15,1.6D0,0;               295P    209
123,0.0D0,0.0D0,1.0D0;                                               297P    210
190,295,297,301;                                                     299P    211
123,1.0D0,0.0D0,0.0D0;                                               301P    212
508,8,0,11,1,0,0,0,11,7,1,0,0,11,23,0,0,0,11,31,1,0,0,11,21,0,0,     303P    213
0,11,19,1,0,0,11,16,0,0,0,11,32,1,0;                                 303P    214
508,1,0,11,28,1,0;                                                   305P    215
508,1,0,11,30,1,0;                                                   307P    216
510,299,3,1,303,305,307;                                             309P    217
514,16,29,1,47,1,89,1,109,1,125,1,143,1,161,1,177,1,193,1,215,1,     311P    218
229,1,251,1,265,1,279,1,293,1,309,1;                                 311P    219
186,311,1,0;                                                         313P    220
314,87.8431379795074D0,87.4509811401367D0,85.8823537826538D0,;       315P    221
S      1G      4D    316P    221                                        T      1
