                                                                        S      1
,,16HDual V Wheel.ipt,27HNo Iges File Name specified,22HAutodesk InventoG      1
r 2013,37HAutoDesk Inventor Iges Exporter R2013,32,38,6,99,15,16HDual V G      2
Wheel.ipt,1.0D0,2,2HMM,1,.08D0,15H20140422.180404,.01D0,10000.0D0,4HWorkG      3
,,11,0,,;                                                               G      4
     406       1       0       0       1       0       0       000000000D      1
     406       0       0       1       3                               0D      2
     120       2       0       0       0       0       0       000010000D      3
     120       0       0       1       0                               0D      4
     110       3       0       0       0       0       0       000010000D      5
     110       0       0       2       0                               0D      6
     110       5       0       0       0       0       0       001010000D      7
     110       0       0       2       0                               0D      8
     504       7       0       0       0       0       0       000010001D      9
     504       0       0       4       1                               0D     10
     502      11       0       0       0       0       0       000010000D     11
     502       0       0       9       1                               0D     12
     100      20       0       0       0       0      15       000010000D     13
     100       0       0       1       0                               0D     14
     124      21       0       0       0       0       0       000000000D     15
     124       0       0       2       0                               0D     16
     508      23       0       0       0       0       0       000010000D     17
     508       0       0       1       1                               0D     18
     100      24       0       0       0       0      21       000010000D     19
     100       0       0       1       0                               0D     20
     124      25       0       0       0       0       0       000000000D     21
     124       0       0       2       0                               0D     22
     508      27       0       0       0       0       0       000010000D     23
     508       0       0       1       1                               0D     24
     510      28       0       0       0       0       0       000010000D     25
     510       0    -277       1       1                               0D     26
     116      29       0       0       0       0       0       000010000D     27
     116       0       0       1       0                               0D     28
     123      30       0       0       0       0       0       000010200D     29
     123       0       0       1       0                               0D     30
     190      31       0       0       0       0       0       000010000D     31
     190       0       0       1       1                               0D     32
     123      32       0       0       0       0       0       000010200D     33
     123       0       0       1       0                               0D     34
     100      33       0       0       0       0      15       000010000D     35
     100       0       0       1       0                               0D     36
     508      34       0       0       0       0       0       000010000D     37
     508       0       0       1       1                               0D     38
     508      35       0       0       0       0       0       000010000D     39
     508       0       0       1       1                               0D     40
     510      36       0       0       0       0       0       000010000D     41
     510       0    -277       1       1                               0D     42
     120      37       0       0       0       0       0       000010000D     43
     120       0       0       1       0                               0D     44
     110      38       0       0       0       0       0       000010000D     45
     110       0       0       1       0                               0D     46
     110      39       0       0       0       0       0       001010000D     47
     110       0       0       1       0                               0D     48
     100      40       0       0       0       0      51       000010000D     49
     100       0       0       1       0                               0D     50
     124      41       0       0       0       0       0       000000000D     51
     124       0       0       2       0                               0D     52
     508      43       0       0       0       0       0       000010000D     53
     508       0       0       1       1                               0D     54
     508      44       0       0       0       0       0       000010000D     55
     508       0       0       1       1                               0D     56
     510      45       0       0       0       0       0       000010000D     57
     510       0    -277       1       1                               0D     58
     120      46       0       0       0       0       0       000010000D     59
     120       0       0       1       0                               0D     60
     110      47       0       0       0       0       0       000010000D     61
     110       0       0       1       0                               0D     62
     110      48       0       0       0       0       0       001010000D     63
     110       0       0       1       0                               0D     64
     100      49       0       0       0       0      67       000010000D     65
     100       0       0       1       0                               0D     66
     124      50       0       0       0       0       0       000000000D     67
     124       0       0       2       0                               0D     68
     508      52       0       0       0       0       0       000010000D     69
     508       0       0       1       1                               0D     70
     508      53       0       0       0       0       0       000010000D     71
     508       0       0       1       1                               0D     72
     510      54       0       0       0       0       0       000010000D     73
     510       0    -277       1       1                               0D     74
     116      55       0       0       0       0       0       000010000D     75
     116       0       0       1       0                               0D     76
     123      56       0       0       0       0       0       000010200D     77
     123       0       0       1       0                               0D     78
     190      57       0       0       0       0       0       000010000D     79
     190       0       0       1       1                               0D     80
     123      58       0       0       0       0       0       000010200D     81
     123       0       0       1       0                               0D     82
     100      59       0       0       0       0      67       000010000D     83
     100       0       0       1       0                               0D     84
     508      60       0       0       0       0       0       000010000D     85
     508       0       0       1       1                               0D     86
     508      61       0       0       0       0       0       000010000D     87
     508       0       0       1       1                               0D     88
     510      62       0       0       0       0       0       000010000D     89
     510       0    -277       1       1                               0D     90
     116      63       0       0       0       0       0       000010000D     91
     116       0       0       1       0                               0D     92
     123      64       0       0       0       0       0       000010200D     93
     123       0       0       1       0                               0D     94
     194      65       0       0       0       0       0       000010000D     95
     194       0       0       1       1                               0D     96
     123      66       0       0       0       0       0       000010200D     97
     123       0       0       1       0                               0D     98
     100      67       0       0       0       0     101       000010000D     99
     100       0       0       1       0                               0D    100
     124      68       0       0       0       0       0       000000000D    101
     124       0       0       2       0                               0D    102
     508      70       0       0       0       0       0       000010000D    103
     508       0       0       1       1                               0D    104
     508      71       0       0       0       0       0       000010000D    105
     508       0       0       1       1                               0D    106
     510      72       0       0       0       0       0       000010000D    107
     510       0    -277       1       1                               0D    108
     116      73       0       0       0       0       0       000010000D    109
     116       0       0       1       0                               0D    110
     123      74       0       0       0       0       0       000010200D    111
     123       0       0       1       0                               0D    112
     194      75       0       0       0       0       0       000010000D    113
     194       0       0       1       1                               0D    114
     123      76       0       0       0       0       0       000010200D    115
     123       0       0       1       0                               0D    116
     100      77       0       0       0       0     119       000010000D    117
     100       0       0       1       0                               0D    118
     124      78       0       0       0       0       0       000000000D    119
     124       0       0       2       0                               0D    120
     508      80       0       0       0       0       0       000010000D    121
     508       0       0       1       1                               0D    122
     508      81       0       0       0       0       0       000010000D    123
     508       0       0       1       1                               0D    124
     510      82       0       0       0       0       0       000010000D    125
     510       0    -277       1       1                               0D    126
     116      83       0       0       0       0       0       000010000D    127
     116       0       0       1       0                               0D    128
     123      84       0       0       0       0       0       000010200D    129
     123       0       0       1       0                               0D    130
     190      85       0       0       0       0       0       000010000D    131
     190       0       0       1       1                               0D    132
     123      86       0       0       0       0       0       000010200D    133
     123       0       0       1       0                               0D    134
     508      87       0       0       0       0       0       000010000D    135
     508       0       0       1       1                               0D    136
     100      88       0       0       0       0     119       000010000D    137
     100       0       0       1       0                               0D    138
     508      89       0       0       0       0       0       000010000D    139
     508       0       0       1       1                               0D    140
     510      90       0       0       0       0       0       000010000D    141
     510       0    -277       1       1                               0D    142
     116      91       0       0       0       0       0       000010000D    143
     116       0       0       1       0                               0D    144
     123      92       0       0       0       0       0       000010200D    145
     123       0       0       1       0                               0D    146
     192      93       0       0       0       0       0       000010000D    147
     192       0       0       1       1                               0D    148
     123      94       0       0       0       0       0       000010200D    149
     123       0       0       1       0                               0D    150
     508      95       0       0       0       0       0       000010000D    151
     508       0       0       1       1                               0D    152
     100      96       0       0       0       0     155       000010000D    153
     100       0       0       1       0                               0D    154
     124      97       0       0       0       0       0       000000000D    155
     124       0       0       2       0                               0D    156
     508      99       0       0       0       0       0       000010000D    157
     508       0       0       1       1                               0D    158
     510     100       0       0       0       0       0       000010000D    159
     510       0    -277       1       1                               0D    160
     116     101       0       0       0       0       0       000010000D    161
     116       0       0       1       0                               0D    162
     123     102       0       0       0       0       0       000010200D    163
     123       0       0       1       0                               0D    164
     190     103       0       0       0       0       0       000010000D    165
     190       0       0       1       1                               0D    166
     123     104       0       0       0       0       0       000010200D    167
     123       0       0       1       0                               0D    168
     100     105       0       0       0       0     155       000010000D    169
     100       0       0       1       0                               0D    170
     508     106       0       0       0       0       0       000010000D    171
     508       0       0       1       1                               0D    172
     508     107       0       0       0       0       0       000010000D    173
     508       0       0       1       1                               0D    174
     510     108       0       0       0       0       0       000010000D    175
     510       0    -277       1       1                               0D    176
     116     109       0       0       0       0       0       000010000D    177
     116       0       0       1       0                               0D    178
     123     110       0       0       0       0       0       000010200D    179
     123       0       0       1       0                               0D    180
     194     111       0       0       0       0       0       000010000D    181
     194       0       0       1       1                               0D    182
     123     112       0       0       0       0       0       000010200D    183
     123       0       0       1       0                               0D    184
     100     113       0       0       0       0     187       000010000D    185
     100       0       0       1       0                               0D    186
     124     114       0       0       0       0       0       000000000D    187
     124       0       0       2       0                               0D    188
     508     116       0       0       0       0       0       000010000D    189
     508       0       0       1       1                               0D    190
     508     117       0       0       0       0       0       000010000D    191
     508       0       0       1       1                               0D    192
     510     118       0       0       0       0       0       000010000D    193
     510       0    -277       1       1                               0D    194
     116     119       0       0       0       0       0       000010000D    195
     116       0       0       1       0                               0D    196
     123     120       0       0       0       0       0       000010200D    197
     123       0       0       1       0                               0D    198
     194     121       0       0       0       0       0       000010000D    199
     194       0       0       1       1                               0D    200
     123     122       0       0       0       0       0       000010200D    201
     123       0       0       1       0                               0D    202
     100     123       0       0       0       0     205       000010000D    203
     100       0       0       1       0                               0D    204
     124     124       0       0       0       0       0       000000000D    205
     124       0       0       2       0                               0D    206
     508     126       0       0       0       0       0       000010000D    207
     508       0       0       1       1                               0D    208
     508     127       0       0       0       0       0       000010000D    209
     508       0       0       1       1                               0D    210
     510     128       0       0       0       0       0       000010000D    211
     510       0    -277       1       1                               0D    212
     116     129       0       0       0       0       0       000010000D    213
     116       0       0       1       0                               0D    214
     123     130       0       0       0       0       0       000010200D    215
     123       0       0       1       0                               0D    216
     190     131       0       0       0       0       0       000010000D    217
     190       0       0       1       1                               0D    218
     123     132       0       0       0       0       0       000010200D    219
     123       0       0       1       0                               0D    220
     508     133       0       0       0       0       0       000010000D    221
     508       0       0       1       1                               0D    222
     100     134       0       0       0       0     205       000010000D    223
     100       0       0       1       0                               0D    224
     508     135       0       0       0       0       0       000010000D    225
     508       0       0       1       1                               0D    226
     510     136       0       0       0       0       0       000010000D    227
     510       0    -277       1       1                               0D    228
     120     137       0       0       0       0       0       000010000D    229
     120       0       0       1       0                               0D    230
     110     138       0       0       0       0       0       000010000D    231
     110       0       0       1       0                               0D    232
     110     139       0       0       0       0       0       001010000D    233
     110       0       0       1       0                               0D    234
     100     140       0       0       0       0     237       000010000D    235
     100       0       0       1       0                               0D    236
     124     141       0       0       0       0       0       000000000D    237
     124       0       0       2       0                               0D    238
     508     143       0       0       0       0       0       000010000D    239
     508       0       0       1       1                               0D    240
     508     144       0       0       0       0       0       000010000D    241
     508       0       0       1       1                               0D    242
     510     145       0       0       0       0       0       000010000D    243
     510       0    -277       1       1                               0D    244
     120     146       0       0       0       0       0       000010000D    245
     120       0       0       1       0                               0D    246
     110     147       0       0       0       0       0       000010000D    247
     110       0       0       1       0                               0D    248
     110     148       0       0       0       0       0       001010000D    249
     110       0       0       1       0                               0D    250
     100     149       0       0       0       0      21       000010000D    251
     100       0       0       1       0                               0D    252
     508     150       0       0       0       0       0       000010000D    253
     508       0       0       1       1                               0D    254
     508     151       0       0       0       0       0       000010000D    255
     508       0       0       1       1                               0D    256
     510     152       0       0       0       0       0       000010000D    257
     510       0    -277       1       1                               0D    258
     116     153       0       0       0       0       0       000010000D    259
     116       0       0       1       0                               0D    260
     123     154       0       0       0       0       0       000010200D    261
     123       0       0       1       0                               0D    262
     190     155       0       0       0       0       0       000010000D    263
     190       0       0       1       1                               0D    264
     123     156       0       0       0       0       0       000010200D    265
     123       0       0       1       0                               0D    266
     508     157       0       0       0       0       0       000010000D    267
     508       0       0       1       1                               0D    268
     508     158       0       0       0       0       0       000010000D    269
     508       0       0       1       1                               0D    270
     510     159       0       0       0       0       0       000010000D    271
     510       0    -277       1       1                               0D    272
     514     160       0       0       0       0       0       000010000D    273
     514       0       0       2       1                               0D    274
     186     162       0       0       1       0       0       000000000D    275
     186       0       0       1       0                  Solid1       0D    276
     314     163       0       0       0       0       0       000000000D    277
     314       0       1       1       0                               0D    278
406,2,0,12HDual V Wheel;                                               1P      1
120,7,5,0.0D0,6.28318530717959D0;                                      3P      2
110,-.549999999999999D0,6.945D0,0.0D0,.549999999999999D0,              5P      3
6.945D0,0.0D0;                                                         5P      4
110,-.549999999999999D0,0.0D0,0.0D0,.450000000000001D0,0.0D0,          7P      5
0.0D0;                                                                 7P      6
504,16,13,11,1,11,1,19,11,2,11,2,35,11,3,11,3,49,11,4,11,4,65,         9P      7
11,5,11,5,83,11,6,11,6,99,11,7,11,7,117,11,8,11,8,137,11,9,11,9,       9P      8
153,11,10,11,10,169,11,11,11,11,185,11,12,11,12,203,11,13,11,13,       9P      9
223,11,14,11,14,235,11,15,11,15,251,11,16,11,16;                       9P     10
502,16,-.499999999999999D0,6.945D0,0.0D0,.499999999999999D0,          11P     11
6.945D0,0.0D0,-.499999999999999D0,7.987D0,0.0D0,-4.82D0,7.987D0,      11P     12
0.0D0,-5.12D0,8.287D0,0.0D0,-5.12D0,9.77D0,0.0D0,                     11P     13
-2.69499999999999D0,12.195D0,0.0D0,-.274999999999998D0,9.775D0,       11P     14
0.0D0,-.274999999999998D0,9.375D0,0.0D0,.274999999999998D0,           11P     15
9.375D0,0.0D0,.274999999999998D0,9.775D0,0.0D0,                       11P     16
2.69499999999999D0,12.195D0,0.0D0,5.12D0,9.77D0,0.0D0,5.12D0,         11P     17
8.287D0,0.0D0,4.82D0,7.987D0,0.0D0,.499999999999999D0,7.987D0,        11P     18
0.0D0;                                                                11P     19
100,0.0D0,0.0D0,0.0D0,6.945D0,0.0D0,6.945D0,0.0D0;                    13P     20
124,0.0D0,0.0D0,1.0D0,-.499999999999999D0,1.0D0,0.0D0,0.0D0,          15P     21
0.0D0,0.0D0,1.0D0,0.0D0,0.0D0;                                        15P     22
508,1,0,9,1,0,0;                                                      17P     23
100,0.0D0,0.0D0,0.0D0,6.945D0,0.0D0,6.945D0,0.0D0;                    19P     24
124,0.0D0,0.0D0,1.0D0,.499999999999999D0,1.0D0,0.0D0,0.0D0,           21P     25
0.0D0,0.0D0,1.0D0,0.0D0,0.0D0;                                        21P     26
508,1,0,9,2,1,0;                                                      23P     27
510,3,2,1,17,23;                                                      25P     28
116,-.499999999999999D0,7.466D0,0.0D0,0;                              27P     29
123,-1.0D0,0.0D0,0.0D0;                                               29P     30
190,27,29,33;                                                         31P     31
123,0.0D0,0.0D0,1.0D0;                                                33P     32
100,0.0D0,0.0D0,0.0D0,7.987D0,0.0D0,7.987D0,0.0D0;                    35P     33
508,1,0,9,3,0,0;                                                      37P     34
508,1,0,9,1,1,0;                                                      39P     35
510,31,2,1,37,39;                                                     41P     36
120,47,45,0.0D0,6.28318530717959D0;                                   43P     37
110,-5.036D0,7.987D0,0.0D0,-.284D0,7.987D0,0.0D0;                     45P     38
110,-5.036D0,0.0D0,0.0D0,-4.036D0,0.0D0,0.0D0;                        47P     39
100,0.0D0,0.0D0,0.0D0,7.987D0,0.0D0,7.987D0,0.0D0;                    49P     40
124,0.0D0,0.0D0,1.0D0,-4.82D0,1.0D0,0.0D0,0.0D0,0.0D0,0.0D0,          51P     41
1.0D0,0.0D0,0.0D0;                                                    51P     42
508,1,0,9,4,0,0;                                                      53P     43
508,1,0,9,3,1,0;                                                      55P     44
510,43,2,1,53,55;                                                     57P     45
120,63,61,0.0D0,6.28318530717959D0;                                   59P     46
110,-4.805D0,7.972D0,0.0D0,-5.135D0,8.302D0,0.0D0;                    61P     47
110,-4.805D0,0.0D0,0.0D0,-5.805D0,0.0D0,0.0D0;                        63P     48
100,0.0D0,0.0D0,0.0D0,8.287D0,0.0D0,8.287D0,0.0D0;                    65P     49
124,0.0D0,0.0D0,1.0D0,-5.12D0,1.0D0,0.0D0,0.0D0,0.0D0,0.0D0,          67P     50
1.0D0,0.0D0,0.0D0;                                                    67P     51
508,1,0,9,5,0,0;                                                      69P     52
508,1,0,9,4,1,0;                                                      71P     53
510,59,2,1,69,71;                                                     73P     54
116,-5.12D0,9.0285D0,0.0D0,0;                                         75P     55
123,-1.0D0,0.0D0,0.0D0;                                               77P     56
190,75,77,81;                                                         79P     57
123,0.0D0,0.0D0,1.0D0;                                                81P     58
100,0.0D0,0.0D0,0.0D0,9.77D0,0.0D0,9.77D0,0.0D0;                      83P     59
508,1,0,9,6,0,0;                                                      85P     60
508,1,0,9,5,1,0;                                                      87P     61
510,79,2,1,85,87;                                                     89P     62
116,-3.90749999999999D0,0.0D0,0.0D0,0;                                91P     63
123,1.0D0,0.0D0,0.0D0;                                                93P     64
194,91,93,10.9825D0,44.9999999999999D0,97;                            95P     65
123,0.0D0,1.0D0,0.0D0;                                                97P     66
100,0.0D0,0.0D0,0.0D0,12.195D0,0.0D0,12.195D0,0.0D0;                  99P     67
124,0.0D0,0.0D0,1.0D0,-2.69499999999999D0,1.0D0,0.0D0,0.0D0,         101P     68
0.0D0,0.0D0,1.0D0,0.0D0,0.0D0;                                       101P     69
508,1,0,9,7,0,0;                                                     103P     70
508,1,0,9,6,1,0;                                                     105P     71
510,95,2,1,103,105;                                                  107P     72
116,-1.48499999999999D0,0.0D0,0.0D0,0;                               109P     73
123,-1.0D0,0.0D0,0.0D0;                                              111P     74
194,109,111,10.985D0,45.0000000000001D0,115;                         113P     75
123,0.0D0,1.0D0,0.0D0;                                               115P     76
100,0.0D0,0.0D0,0.0D0,9.775D0,0.0D0,9.775D0,0.0D0;                   117P     77
124,0.0D0,0.0D0,1.0D0,-.274999999999998D0,1.0D0,0.0D0,0.0D0,         119P     78
0.0D0,0.0D0,1.0D0,0.0D0,0.0D0;                                       119P     79
508,1,0,9,8,0,0;                                                     121P     80
508,1,0,9,7,1,0;                                                     123P     81
510,113,2,1,121,123;                                                 125P     82
116,-.274999999999998D0,9.575D0,0.0D0,0;                             127P     83
123,1.0D0,0.0D0,0.0D0;                                               129P     84
190,127,129,133;                                                     131P     85
123,0.0D0,0.0D0,-1.0D0;                                              133P     86
508,1,0,9,8,1,0;                                                     135P     87
100,0.0D0,0.0D0,0.0D0,9.375D0,0.0D0,9.375D0,0.0D0;                   137P     88
508,1,0,9,9,0,0;                                                     139P     89
510,131,2,1,135,139;                                                 141P     90
116,.137499999999998D0,0.0D0,0.0D0,0;                                143P     91
123,1.0D0,0.0D0,0.0D0;                                               145P     92
192,143,145,9.375D0,149;                                             147P     93
123,0.0D0,1.0D0,0.0D0;                                               149P     94
508,1,0,9,9,1,0;                                                     151P     95
100,0.0D0,0.0D0,0.0D0,9.375D0,0.0D0,9.375D0,0.0D0;                   153P     96
124,0.0D0,0.0D0,1.0D0,.274999999999998D0,1.0D0,0.0D0,0.0D0,          155P     97
0.0D0,0.0D0,1.0D0,0.0D0,0.0D0;                                       155P     98
508,1,0,9,10,0,0;                                                    157P     99
510,147,2,1,151,157;                                                 159P    100
116,.274999999999998D0,9.575D0,0.0D0,0;                              161P    101
123,-1.0D0,0.0D0,0.0D0;                                              163P    102
190,161,163,167;                                                     165P    103
123,0.0D0,0.0D0,1.0D0;                                               167P    104
100,0.0D0,0.0D0,0.0D0,9.775D0,0.0D0,9.775D0,0.0D0;                   169P    105
508,1,0,9,11,0,0;                                                    171P    106
508,1,0,9,10,1,0;                                                    173P    107
510,165,2,1,171,173;                                                 175P    108
116,1.48499999999999D0,0.0D0,0.0D0,0;                                177P    109
123,1.0D0,0.0D0,0.0D0;                                               179P    110
194,177,179,10.985D0,45.0000000000001D0,183;                         181P    111
123,0.0D0,1.0D0,0.0D0;                                               183P    112
100,0.0D0,0.0D0,0.0D0,12.195D0,0.0D0,12.195D0,0.0D0;                 185P    113
124,0.0D0,0.0D0,1.0D0,2.69499999999999D0,1.0D0,0.0D0,0.0D0,          187P    114
0.0D0,0.0D0,1.0D0,0.0D0,0.0D0;                                       187P    115
508,1,0,9,12,0,0;                                                    189P    116
508,1,0,9,11,1,0;                                                    191P    117
510,181,2,1,189,191;                                                 193P    118
116,3.90749999999999D0,0.0D0,0.0D0,0;                                195P    119
123,-1.0D0,0.0D0,0.0D0;                                              197P    120
194,195,197,10.9825D0,44.9999999999999D0,201;                        199P    121
123,0.0D0,1.0D0,0.0D0;                                               201P    122
100,0.0D0,0.0D0,0.0D0,9.77D0,0.0D0,9.77D0,0.0D0;                     203P    123
124,0.0D0,0.0D0,1.0D0,5.12D0,1.0D0,0.0D0,0.0D0,0.0D0,0.0D0,          205P    124
1.0D0,0.0D0,0.0D0;                                                   205P    125
508,1,0,9,13,0,0;                                                    207P    126
508,1,0,9,12,1,0;                                                    209P    127
510,199,2,1,207,209;                                                 211P    128
116,5.12D0,9.0285D0,0.0D0,0;                                         213P    129
123,1.0D0,0.0D0,0.0D0;                                               215P    130
190,213,215,219;                                                     217P    131
123,0.0D0,0.0D0,-1.0D0;                                              219P    132
508,1,0,9,13,1,0;                                                    221P    133
100,0.0D0,0.0D0,0.0D0,8.287D0,0.0D0,8.287D0,0.0D0;                   223P    134
508,1,0,9,14,0,0;                                                    225P    135
510,217,2,1,221,225;                                                 227P    136
120,233,231,0.0D0,6.28318530717959D0;                                229P    137
110,4.805D0,7.972D0,0.0D0,5.135D0,8.302D0,0.0D0;                     231P    138
110,4.805D0,0.0D0,0.0D0,5.805D0,0.0D0,0.0D0;                         233P    139
100,0.0D0,0.0D0,0.0D0,7.987D0,0.0D0,7.987D0,0.0D0;                   235P    140
124,0.0D0,0.0D0,1.0D0,4.82D0,1.0D0,0.0D0,0.0D0,0.0D0,0.0D0,          237P    141
1.0D0,0.0D0,0.0D0;                                                   237P    142
508,1,0,9,15,0,0;                                                    239P    143
508,1,0,9,14,1,0;                                                    241P    144
510,229,2,1,239,241;                                                 243P    145
120,249,247,0.0D0,6.28318530717959D0;                                245P    146
110,.283999999999999D0,7.987D0,0.0D0,5.036D0,7.987D0,0.0D0;          247P    147
110,.283999999999999D0,0.0D0,0.0D0,1.284D0,0.0D0,0.0D0;              249P    148
100,0.0D0,0.0D0,0.0D0,7.987D0,0.0D0,7.987D0,0.0D0;                   251P    149
508,1,0,9,16,0,0;                                                    253P    150
508,1,0,9,15,1,0;                                                    255P    151
510,245,2,1,253,255;                                                 257P    152
116,.499999999999999D0,7.466D0,0.0D0,0;                              259P    153
123,1.0D0,0.0D0,0.0D0;                                               261P    154
190,259,261,265;                                                     263P    155
123,0.0D0,0.0D0,-1.0D0;                                              265P    156
508,1,0,9,16,1,0;                                                    267P    157
508,1,0,9,2,0,0;                                                     269P    158
510,263,2,1,267,269;                                                 271P    159
514,16,25,1,41,1,57,1,73,1,89,1,107,1,125,1,141,1,159,1,175,1,       273P    160
193,1,211,1,227,1,243,1,257,1,271,1;                                 273P    161
186,273,1,0;                                                         275P    162
314,1.99999995529652D0,1.99999995529652D0,1.99999995529652D0,;       277P    163
S      1G      4D    278P    163                                        T      1
