                                                                        S      1
,,21HGT2 Timing Pulley.ipt,27HNo Iges File Name specified,22HAutodesk InG      1
ventor 2013,37HAutoDesk Inventor Iges Exporter R2013,32,38,6,99,15,21HGTG      2
2 Timing Pulley.ipt,1.0D0,2,2HMM,1,.08D0,15H20140422.180405,.01D0,      G      3
10000.0D0,4HWork,,11,0,,;                                               G      4
     406       1       0       0       1       0       0       000000000D      1
     406       0       0       1       3                               0D      2
     120       2       0       0       0       0       0       000010000D      3
     120       0       0       1       0                               0D      4
     110       3       0       0       0       0       0       000010000D      5
     110       0       0       2       0                               0D      6
     110       5       0       0       0       0       0       001010000D      7
     110       0       0       2       0                               0D      8
     504       7       0       0       0       0       0       000010001D      9
     504       0       0       4       1                               0D     10
     502      11       0       0       0       0       0       000010000D     11
     502       0       0       7       1                               0D     12
     126      18       0       0       0       0       0       000010000D     13
     126       0       0      27       0                               0D     14
     126      45       0       0       0       0       0       000010000D     15
     126       0       0      27       0                               0D     16
     508      72       0       0       0       0       0       000010000D     17
     508       0       0       1       1                               0D     18
     126      73       0       0       0       0       0       000010000D     19
     126       0       0      45       0                               0D     20
     508     118       0       0       0       0       0       000010000D     21
     508       0       0       1       1                               0D     22
     510     119       0       0       0       0       0       000010000D     23
     510       0    -231       1       1                               0D     24
     116     120       0       0       0       0       0       000010000D     25
     116       0       0       1       0                               0D     26
     123     121       0       0       0       0       0       000010200D     27
     123       0       0       1       0                               0D     28
     192     122       0       0       0       0       0       000010000D     29
     192       0       0       1       1                               0D     30
     123     123       0       0       0       0       0       000010200D     31
     123       0       0       1       0                               0D     32
     100     124       0       0       0       0      35       000010000D     33
     100       0       0       1       0                               0D     34
     124     125       0       0       0       0       0       000000000D     35
     124       0       0       2       0                               0D     36
     508     127       0       0       0       0       0       000010000D     37
     508       0       0       1       1                               0D     38
     508     128       0       0       0       0       0       000010000D     39
     508       0       0       1       1                               0D     40
     100     129       0       0       0       0      43       000010000D     41
     100       0       0       1       0                               0D     42
     124     130       0       0       0       0       0       000000000D     43
     124       0       0       2       0                               0D     44
     508     132       0       0       0       0       0       000010000D     45
     508       0       0       1       1                               0D     46
     126     133       0       0       0       0       0       000010000D     47
     126       0       0      26       0                               0D     48
     126     159       0       0       0       0       0       000010000D     49
     126       0       0      27       0                               0D     50
     508     186       0       0       0       0       0       000010000D     51
     508       0       0       1       1                               0D     52
     510     187       0       0       0       0       0       000010000D     53
     510       0    -231       1       1                               0D     54
     120     188       0       0       0       0       0       000010000D     55
     120       0       0       1       0                               0D     56
     110     189       0       0       0       0       0       000010000D     57
     110       0       0       2       0                               0D     58
     110     191       0       0       0       0       0       001010000D     59
     110       0       0       2       0                               0D     60
     508     193       0       0       0       0       0       000010000D     61
     508       0       0       1       1                               0D     62
     126     194       0       0       0       0       0       000010000D     63
     126       0       0      45       0                               0D     64
     508     239       0       0       0       0       0       000010000D     65
     508       0       0       1       1                               0D     66
     510     240       0       0       0       0       0       000010000D     67
     510       0    -231       1       1                               0D     68
     120     241       0       0       0       0       0       000010000D     69
     120       0       0       1       0                               0D     70
     110     242       0       0       0       0       0       000010000D     71
     110       0       0       1       0                               0D     72
     110     243       0       0       0       0       0       001010000D     73
     110       0       0       2       0                               0D     74
     100     245       0       0       0       0      77       000010000D     75
     100       0       0       1       0                               0D     76
     124     246       0       0       0       0       0       000000000D     77
     124       0       0       2       0                               0D     78
     508     248       0       0       0       0       0       000010000D     79
     508       0       0       1       1                               0D     80
     508     249       0       0       0       0       0       000010000D     81
     508       0       0       1       1                               0D     82
     100     250       0       0       0       0      85       000010000D     83
     100       0       0       2       0                               0D     84
     124     252       0       0       0       0       0       000000000D     85
     124       0       0       2       0                               0D     86
     508     254       0       0       0       0       0       000010000D     87
     508       0       0       1       1                               0D     88
     508     255       0       0       0       0       0       000010000D     89
     508       0       0       1       1                               0D     90
     510     256       0       0       0       0       0       000010000D     91
     510       0    -231       1       1                               0D     92
     116     257       0       0       0       0       0       000010000D     93
     116       0       0       1       0                               0D     94
     123     258       0       0       0       0       0       000010200D     95
     123       0       0       1       0                               0D     96
     190     259       0       0       0       0       0       000010000D     97
     190       0       0       1       1                               0D     98
     123     260       0       0       0       0       0       000010200D     99
     123       0       0       1       0                               0D    100
     508     261       0       0       0       0       0       000010000D    101
     508       0       0       1       1                               0D    102
     508     262       0       0       0       0       0       000010000D    103
     508       0       0       1       1                               0D    104
     510     263       0       0       0       0       0       000010000D    105
     510       0    -231       1       1                               0D    106
     116     264       0       0       0       0       0       000010000D    107
     116       0       0       1       0                               0D    108
     123     265       0       0       0       0       0       000010200D    109
     123       0       0       1       0                               0D    110
     190     266       0       0       0       0       0       000010000D    111
     190       0       0       1       1                               0D    112
     123     267       0       0       0       0       0       000010200D    113
     123       0       0       1       0                               0D    114
     100     268       0       0       0       0      43       000010000D    115
     100       0       0       1       0                               0D    116
     508     269       0       0       0       0       0       000010000D    117
     508       0       0       1       1                               0D    118
     508     270       0       0       0       0       0       000010000D    119
     508       0       0       1       1                               0D    120
     510     271       0       0       0       0       0       000010000D    121
     510       0    -231       1       1                               0D    122
     116     272       0       0       0       0       0       000010000D    123
     116       0       0       1       0                               0D    124
     123     273       0       0       0       0       0       000010200D    125
     123       0       0       1       0                               0D    126
     192     274       0       0       0       0       0       000010000D    127
     192       0       0       1       1                               0D    128
     123     275       0       0       0       0       0       000010200D    129
     123       0       0       1       0                               0D    130
     100     276       0       0       0       0     133       000010000D    131
     100       0       0       1       0                               0D    132
     124     277       0       0       0       0       0       000000000D    133
     124       0       0       2       0                               0D    134
     508     279       0       0       0       0       0       000010000D    135
     508       0       0       1       1                               0D    136
     508     280       0       0       0       0       0       000010000D    137
     508       0       0       1       1                               0D    138
     510     281       0       0       0       0       0       000010000D    139
     510       0    -231       1       1                               0D    140
     116     282       0       0       0       0       0       000010000D    141
     116       0       0       1       0                               0D    142
     123     283       0       0       0       0       0       000010200D    143
     123       0       0       1       0                               0D    144
     194     284       0       0       0       0       0       000010000D    145
     194       0       0       1       1                               0D    146
     123     285       0       0       0       0       0       000010200D    147
     123       0       0       1       0                               0D    148
     100     286       0       0       0       0     151       000010000D    149
     100       0       0       1       0                               0D    150
     124     287       0       0       0       0       0       000000000D    151
     124       0       0       2       0                               0D    152
     508     289       0       0       0       0       0       000010000D    153
     508       0       0       1       1                               0D    154
     508     290       0       0       0       0       0       000010000D    155
     508       0       0       1       1                               0D    156
     510     291       0       0       0       0       0       000010000D    157
     510       0    -231       1       1                               0D    158
     116     292       0       0       0       0       0       000010000D    159
     116       0       0       1       0                               0D    160
     123     293       0       0       0       0       0       000010200D    161
     123       0       0       1       0                               0D    162
     192     294       0       0       0       0       0       000010000D    163
     192       0       0       1       1                               0D    164
     123     295       0       0       0       0       0       000010200D    165
     123       0       0       1       0                               0D    166
     100     296       0       0       0       0     169       000010000D    167
     100       0       0       1       0                               0D    168
     124     297       0       0       0       0       0       000000000D    169
     124       0       0       2       0                               0D    170
     508     299       0       0       0       0       0       000010000D    171
     508       0       0       1       1                               0D    172
     508     300       0       0       0       0       0       000010000D    173
     508       0       0       1       1                               0D    174
     510     301       0       0       0       0       0       000010000D    175
     510       0    -231       1       1                               0D    176
     116     302       0       0       0       0       0       000010000D    177
     116       0       0       1       0                               0D    178
     123     303       0       0       0       0       0       000010200D    179
     123       0       0       1       0                               0D    180
     194     304       0       0       0       0       0       000010000D    181
     194       0       0       1       1                               0D    182
     123     305       0       0       0       0       0       000010200D    183
     123       0       0       1       0                               0D    184
     100     306       0       0       0       0     187       000010000D    185
     100       0       0       1       0                               0D    186
     124     307       0       0       0       0       0       000000000D    187
     124       0       0       2       0                               0D    188
     508     309       0       0       0       0       0       000010000D    189
     508       0       0       1       1                               0D    190
     508     310       0       0       0       0       0       000010000D    191
     508       0       0       1       1                               0D    192
     510     311       0       0       0       0       0       000010000D    193
     510       0    -231       1       1                               0D    194
     116     312       0       0       0       0       0       000010000D    195
     116       0       0       1       0                               0D    196
     123     313       0       0       0       0       0       000010200D    197
     123       0       0       1       0                               0D    198
     192     314       0       0       0       0       0       000010000D    199
     192       0       0       1       1                               0D    200
     123     315       0       0       0       0       0       000010200D    201
     123       0       0       1       0                               0D    202
     100     316       0       0       0       0     205       000010000D    203
     100       0       0       1       0                               0D    204
     124     317       0       0       0       0       0       000000000D    205
     124       0       0       2       0                               0D    206
     508     319       0       0       0       0       0       000010000D    207
     508       0       0       1       1                               0D    208
     508     320       0       0       0       0       0       000010000D    209
     508       0       0       1       1                               0D    210
     510     321       0       0       0       0       0       000010000D    211
     510       0    -231       1       1                               0D    212
     116     322       0       0       0       0       0       000010000D    213
     116       0       0       1       0                               0D    214
     123     323       0       0       0       0       0       000010200D    215
     123       0       0       1       0                               0D    216
     190     324       0       0       0       0       0       000010000D    217
     190       0       0       1       1                               0D    218
     123     325       0       0       0       0       0       000010200D    219
     123       0       0       1       0                               0D    220
     508     326       0       0       0       0       0       000010000D    221
     508       0       0       1       1                               0D    222
     508     327       0       0       0       0       0       000010000D    223
     508       0       0       1       1                               0D    224
     510     328       0       0       0       0       0       000010000D    225
     510       0    -231       1       1                               0D    226
     514     329       0       0       0       0       0       000010000D    227
     514       0       0       2       1                               0D    228
     186     331       0       0       1       0       0       000000000D    229
     186       0       0       1       0                  Solid1       0D    230
     314     332       0       0       0       0       0       000000000D    231
     314       0       8       1       0                               0D    232
406,2,0,17HGT2 Timing Pulley;                                          1P      1
120,7,5,0.0D0,6.28318530717959D0;                                      3P      2
110,4.65D0,-29.1966384972031D0,-1.98678359893455D-15,4.65D0,           5P      3
6.725D0,2.12782381351853D-16;                                          5P      4
110,3.15D0,-29.1966384972031D0,-1.98678359893455D-15,3.15D0,           7P      5
-28.1966384972031D0,-1.98678359893455D-15;                             7P      6
504,16,13,11,1,11,2,15,11,2,11,1,19,11,3,11,3,33,11,4,11,4,41,         9P      7
11,5,11,5,47,11,6,11,7,49,11,7,11,6,63,11,8,11,8,75,11,9,11,9,         9P      8
83,11,10,11,10,115,11,11,11,11,131,11,12,11,12,149,11,13,11,13,        9P      9
167,11,14,11,14,185,11,15,11,15,203,11,16,11,16;                       9P     10
502,16,1.65D0,6.5D0,3.9801020972289D-16,4.65D0,6.5D0,                 11P     11
3.9801020972289D-16,3.15D0,2.0D0,1.5D0,0.0D0,6.5D0,0.0D0,6.3D0,       11P     12
6.5D0,0.0D0,1.65D0,-9.24446373305873D-32,6.5D0,4.65D0,                11P     13
1.99005104861445D-16,6.5D0,3.15D0,-1.5D0,2.0D0,17.5D0,0.0D0,          11P     14
-2.5D0,0.0D0,-3.06161699786838D-16,2.5D0,6.3D0,11.0D0,0.0D0,          11P     15
7.658D0,11.0D0,0.0D0,7.9D0,8.8125D0,0.0D0,15.9D0,8.8125D0,0.0D0,      11P     16
16.142D0,11.0D0,0.0D0,17.5D0,11.0D0,0.0D0;                            11P     17
126,17,3,0,0,1,0,.226894930763909D0,.226894930763909D0,               13P     18
.226894930763909D0,.226894930763909D0,.28361581006064D0,              13P     19
.28361581006064D0,.340336689357371D0,.340336689357371D0,              13P     20
.397063275442594D0,.397063275442594D0,.453789861527817D0,             13P     21
.453789861527817D0,.51051644761304D0,.51051644761304D0,               13P     22
.567243033698263D0,.567243033698263D0,.623963912994995D0,             13P     23
.623963912994995D0,.680684792291726D0,.680684792291726D0,             13P     24
.680684792291726D0,.680684792291726D0,1.0D0,1.0D0,1.0D0,1.0D0,        13P     25
1.0D0,1.0D0,1.0D0,1.0D0,1.0D0,1.0D0,1.0D0,1.0D0,1.0D0,1.0D0,          13P     26
1.0D0,1.0D0,1.0D0,1.0D0,1.65D0,6.5D0,3.46944695195361D-17,            13P     27
1.65D0,6.5D0,-.18906959765577D0,1.68792472555052D0,                   13P     28
6.49092121899911D0,-.390282025550469D0,1.84121946925536D0,            13P     29
6.45811897296793D0,-.759656280108607D0,1.95655246961767D0,            13P     30
6.43484008136329D0,-.927872813177318D0,2.22214054679487D0,            13P     31
6.39091304734004D0,-1.19346089035451D0,2.39035147079896D0,            13P     32
6.36735734859204D0,-1.30878345284885D0,2.7597059987134D0,             13P     33
6.33391691123816D0,-1.46207059898713D0,2.96091137971592D0,            13P     34
6.32455532033676D0,-1.5D0,3.33908862028408D0,6.32455532033676D0,      13P     35
-1.5D0,3.5402940012866D0,6.33391691123816D0,-1.46207059898713D0,      13P     36
3.90964852920104D0,6.36735734859204D0,-1.30878345284885D0,            13P     37
4.07785945320513D0,6.39091304734004D0,-1.19346089035451D0,            13P     38
4.34344753038232D0,6.43484008136329D0,-.927872813177318D0,            13P     39
4.45878053074464D0,6.45811897296793D0,-.759656280108607D0,            13P     40
4.61207527444948D0,6.49092121899911D0,-.390282025550469D0,            13P     41
4.65D0,6.5D0,-.18906959765577D0,4.65D0,6.5D0,                         13P     42
2.08166817117217D-16,.226894930763909D0,.680684792291726D0,           13P     43
0.0D0,0.0D0,0.0D0;                                                    13P     44
126,18,3,0,0,1,0,.680684792291726D0,.680684792291726D0,               15P     45
.680684792291726D0,.680684792291726D0,.737405671588457D0,             15P     46
.737405671588457D0,.794126550885188D0,.794126550885188D0,             15P     47
.850853136970411D0,.850853136970411D0,.907579723055634D0,             15P     48
.907579723055634D0,.907579723055634D0,.964306309140857D0,             15P     49
.964306309140857D0,1.02103289522608D0,1.02103289522608D0,             15P     50
1.07775377452281D0,1.07775377452281D0,1.13447465381954D0,             15P     51
1.13447465381954D0,1.13447465381954D0,1.13447465381954D0,1.0D0,       15P     52
1.0D0,1.0D0,1.0D0,1.0D0,1.0D0,1.0D0,1.0D0,1.0D0,1.0D0,1.0D0,          15P     53
1.0D0,1.0D0,1.0D0,1.0D0,1.0D0,1.0D0,1.0D0,1.0D0,4.65D0,6.5D0,         15P     54
2.08166817117217D-16,4.65D0,6.5D0,.18906959765577D0,                  15P     55
4.61207527444948D0,6.49092121899911D0,.390282025550469D0,             15P     56
4.45878053074464D0,6.45811897296793D0,.759656280108607D0,             15P     57
4.34344753038232D0,6.43484008136329D0,.927872813177318D0,             15P     58
4.07785945320513D0,6.39091304734004D0,1.19346089035452D0,             15P     59
3.90964852920104D0,6.36735734859203D0,1.30878345284885D0,             15P     60
3.5402940012866D0,6.33391691123816D0,1.46207059898713D0,              15P     61
3.33908862028408D0,6.32455532033676D0,1.5D0,3.15D0,                   15P     62
6.32455532033676D0,1.5D0,2.96091137971592D0,6.32455532033676D0,       15P     63
1.5D0,2.7597059987134D0,6.33391691123816D0,1.46207059898713D0,        15P     64
2.39035147079896D0,6.36735734859203D0,1.30878345284885D0,             15P     65
2.22214054679487D0,6.39091304734004D0,1.19346089035452D0,             15P     66
1.95655246961767D0,6.43484008136329D0,.927872813177318D0,             15P     67
1.84121946925536D0,6.45811897296793D0,.759656280108607D0,             15P     68
1.68792472555052D0,6.49092121899911D0,.390282025550469D0,1.65D0,      15P     69
6.5D0,.18906959765577D0,1.65D0,6.5D0,3.46944695195361D-17,            15P     70
.680684792291726D0,1.13447465381954D0,0.0D0,0.0D0,0.0D0;              15P     71
508,2,0,9,1,0,0,0,9,2,0,0;                                            17P     72
126,33,3,0,1,1,0,0.0D0,0.0D0,0.0D0,0.0D0,5.84799547159039D-2,         19P     73
5.84799547159039D-2,.116959909431808D0,.116959909431808D0,            19P     74
.175062545121694D0,.175062545121694D0,.233165180811581D0,             19P     75
.233165180811581D0,.291267816501467D0,.291267816501467D0,             19P     76
.349370452191354D0,.349370452191354D0,.407850406907258D0,             19P     77
.407850406907258D0,.466330361623161D0,.466330361623161D0,             19P     78
.524810316339066D0,.524810316339066D0,.58329027105497D0,              19P     79
.58329027105497D0,.641392906744856D0,.641392906744856D0,              19P     80
.699495542434742D0,.699495542434742D0,.757598178124629D0,             19P     81
.757598178124629D0,.815700813814515D0,.815700813814515D0,             19P     82
.874180768530419D0,.874180768530419D0,.932660723246323D0,             19P     83
.932660723246323D0,.932660723246323D0,.932660723246323D0,1.0D0,       19P     84
1.0D0,1.0D0,1.0D0,1.0D0,1.0D0,1.0D0,1.0D0,1.0D0,1.0D0,1.0D0,          19P     85
1.0D0,1.0D0,1.0D0,1.0D0,1.0D0,1.0D0,1.0D0,1.0D0,1.0D0,1.0D0,          19P     86
1.0D0,1.0D0,1.0D0,1.0D0,1.0D0,1.0D0,1.0D0,1.0D0,1.0D0,1.0D0,          19P     87
1.0D0,1.0D0,1.0D0,3.15D0,2.0D0,1.5D0,3.34493318238635D0,2.0D0,        19P     88
1.5D0,3.5475790287165D0,2.03150222697381D0,1.45999055489651D0,        19P     89
3.91468707854224D0,2.13393442529983D0,1.30571685839379D0,             19P     90
4.0798152098615D0,2.20254263475349D0,1.19150513369814D0,              19P     91
4.34066090777782D0,2.32475439650164D0,.930659435781821D0,             19P     92
4.45546047868328D0,2.38750381558416D0,.765298703795404D0,             19P     93
4.61025185997379D0,2.47553687314135D0,.396955683075285D0,4.65D0,      19P     94
2.5D0,.193675452299621D0,4.65D0,2.5D0,-.193675452299622D0,            19P     95
4.61025185997379D0,2.47553687314135D0,-.396955683075286D0,            19P     96
4.45546047868328D0,2.38750381558416D0,-.765298703795404D0,            19P     97
4.34066090777782D0,2.32475439650164D0,-.930659435781823D0,            19P     98
4.0798152098615D0,2.20254263475349D0,-1.19150513369814D0,             19P     99
3.91468707854223D0,2.13393442529983D0,-1.30571685839379D0,            19P    100
3.5475790287165D0,2.03150222697381D0,-1.45999055489651D0,             19P    101
3.34493318238635D0,2.0D0,-1.5D0,2.95506681761365D0,2.0D0,-1.5D0,      19P    102
2.7524209712835D0,2.03150222697381D0,-1.45999055489651D0,             19P    103
2.38531292145776D0,2.13393442529983D0,-1.30571685839379D0,            19P    104
2.2201847901385D0,2.20254263475349D0,-1.19150513369814D0,             19P    105
1.95933909222218D0,2.32475439650164D0,-.930659435781821D0,            19P    106
1.84453952131671D0,2.38750381558416D0,-.765298703795402D0,            19P    107
1.68974814002621D0,2.47553687314135D0,-.396955683075284D0,            19P    108
1.65D0,2.5D0,-.193675452299621D0,1.65D0,2.5D0,                        19P    109
.193675452299622D0,1.68974814002621D0,2.47553687314135D0,             19P    110
.396955683075285D0,1.84453952131671D0,2.38750381558416D0,             19P    111
.765298703795404D0,1.95933909222218D0,2.32475439650164D0,             19P    112
.930659435781821D0,2.2201847901385D0,2.20254263475349D0,              19P    113
1.19150513369814D0,2.38531292145776D0,2.13393442529983D0,             19P    114
1.30571685839379D0,2.7524209712835D0,2.03150222697381D0,              19P    115
1.45999055489651D0,2.95506681761365D0,2.0D0,1.5D0,3.15D0,2.0D0,       19P    116
1.5D0,0.0D0,.932660723246323D0,0.0D0,0.0D0,0.0D0;                     19P    117
508,1,0,9,3,0,0;                                                      21P    118
510,3,2,1,17,21;                                                      23P    119
116,3.15D0,0.0D0,0.0D0,0;                                             25P    120
123,1.0D0,0.0D0,0.0D0;                                                27P    121
192,25,27,6.5D0,31;                                                   29P    122
123,0.0D0,1.0D0,0.0D0;                                                31P    123
100,0.0D0,0.0D0,0.0D0,6.5D0,0.0D0,6.5D0,0.0D0;                        33P    124
124,0.0D0,0.0D0,1.0D0,0.0D0,1.0D0,0.0D0,0.0D0,0.0D0,0.0D0,1.0D0,      35P    125
0.0D0,0.0D0;                                                          35P    126
508,1,0,9,4,1,0;                                                      37P    127
508,2,0,9,2,1,0,0,9,1,1,0;                                            39P    128
100,0.0D0,0.0D0,0.0D0,6.5D0,0.0D0,6.5D0,0.0D0;                        41P    129
124,0.0D0,0.0D0,1.0D0,6.3D0,1.0D0,0.0D0,0.0D0,0.0D0,0.0D0,1.0D0,      43P    130
0.0D0,0.0D0;                                                          43P    131
508,1,0,9,5,0,0;                                                      45P    132
126,17,3,0,0,1,0,.226894930763909D0,.226894930763909D0,               47P    133
.226894930763909D0,.226894930763909D0,.28361581006064D0,              47P    134
.28361581006064D0,.340336689357371D0,.340336689357371D0,              47P    135
.397063275442594D0,.397063275442594D0,.453789861527817D0,             47P    136
.453789861527817D0,.51051644761304D0,.51051644761304D0,               47P    137
.567243033698263D0,.567243033698263D0,.623963912994995D0,             47P    138
.623963912994995D0,.680684792291726D0,.680684792291726D0,             47P    139
.680684792291726D0,.680684792291726D0,1.0D0,1.0D0,1.0D0,1.0D0,        47P    140
1.0D0,1.0D0,1.0D0,1.0D0,1.0D0,1.0D0,1.0D0,1.0D0,1.0D0,1.0D0,          47P    141
1.0D0,1.0D0,1.0D0,1.0D0,1.65D0,5.20417042793042D-16,6.5D0,            47P    142
1.65D0,.189069597655771D0,6.5D0,1.68792472555052D0,                   47P    143
.390282025550469D0,6.49092121899911D0,1.84121946925536D0,             47P    144
.759656280108607D0,6.45811897296793D0,1.95655246961767D0,             47P    145
.927872813177318D0,6.43484008136329D0,2.22214054679487D0,             47P    146
1.19346089035452D0,6.39091304734004D0,2.39035147079896D0,             47P    147
1.30878345284885D0,6.36735734859204D0,2.7597059987134D0,              47P    148
1.46207059898713D0,6.33391691123816D0,2.96091137971592D0,1.5D0,       47P    149
6.32455532033676D0,3.33908862028408D0,1.5D0,6.32455532033676D0,       47P    150
3.5402940012866D0,1.46207059898713D0,6.33391691123816D0,              47P    151
3.90964852920104D0,1.30878345284885D0,6.36735734859204D0,             47P    152
4.07785945320513D0,1.19346089035452D0,6.39091304734004D0,             47P    153
4.34344753038232D0,.927872813177318D0,6.43484008136329D0,             47P    154
4.45878053074464D0,.759656280108607D0,6.45811897296793D0,             47P    155
4.61207527444948D0,.390282025550469D0,6.49092121899911D0,4.65D0,      47P    156
.18906959765577D0,6.5D0,4.65D0,1.38777878078145D-16,6.5D0,            47P    157
.226894930763909D0,.680684792291726D0,0.0D0,0.0D0,0.0D0;              47P    158
126,18,3,0,0,1,0,.680684792291726D0,.680684792291726D0,               49P    159
.680684792291726D0,.680684792291726D0,.737405671588457D0,             49P    160
.737405671588457D0,.794126550885188D0,.794126550885188D0,             49P    161
.850853136970411D0,.850853136970411D0,.907579723055634D0,             49P    162
.907579723055634D0,.907579723055634D0,.964306309140857D0,             49P    163
.964306309140857D0,1.02103289522608D0,1.02103289522608D0,             49P    164
1.07775377452281D0,1.07775377452281D0,1.13447465381954D0,             49P    165
1.13447465381954D0,1.13447465381954D0,1.13447465381954D0,1.0D0,       49P    166
1.0D0,1.0D0,1.0D0,1.0D0,1.0D0,1.0D0,1.0D0,1.0D0,1.0D0,1.0D0,          49P    167
1.0D0,1.0D0,1.0D0,1.0D0,1.0D0,1.0D0,1.0D0,1.0D0,4.65D0,               49P    168
1.04083408558608D-16,6.5D0,4.65D0,-.18906959765577D0,6.5D0,           49P    169
4.61207527444948D0,-.390282025550469D0,6.49092121899911D0,            49P    170
4.45878053074464D0,-.759656280108607D0,6.45811897296793D0,            49P    171
4.34344753038232D0,-.927872813177318D0,6.43484008136329D0,            49P    172
4.07785945320513D0,-1.19346089035451D0,6.39091304734004D0,            49P    173
3.90964852920104D0,-1.30878345284885D0,6.36735734859204D0,            49P    174
3.5402940012866D0,-1.46207059898713D0,6.33391691123816D0,             49P    175
3.33908862028408D0,-1.5D0,6.32455532033676D0,3.15D0,-1.5D0,           49P    176
6.32455532033676D0,2.96091137971592D0,-1.5D0,6.32455532033676D0,      49P    177
2.7597059987134D0,-1.46207059898713D0,6.33391691123816D0,             49P    178
2.39035147079896D0,-1.30878345284885D0,6.36735734859204D0,            49P    179
2.22214054679487D0,-1.19346089035451D0,6.39091304734004D0,            49P    180
1.95655246961767D0,-.927872813177317D0,6.43484008136329D0,            49P    181
1.84121946925536D0,-.759656280108607D0,6.45811897296793D0,            49P    182
1.68792472555052D0,-.390282025550469D0,6.49092121899911D0,            49P    183
1.65D0,-.18906959765577D0,6.5D0,1.65D0,3.46944695195361D-16,          49P    184
6.5D0,.680684792291726D0,1.13447465381954D0,0.0D0,0.0D0,0.0D0;        49P    185
508,2,0,9,6,1,0,0,9,7,1,0;                                            51P    186
510,29,4,1,37,39,45,51;                                               53P    187
120,59,57,0.0D0,6.28318530717959D0;                                   55P    188
110,4.65D0,1.99005104861445D-16,-29.1966384972031D0,4.65D0,           57P    189
1.99005104861445D-16,6.725D0;                                         57P    190
110,3.15D0,1.99005104861445D-16,-29.1966384972031D0,3.15D0,           59P    191
1.99005104861445D-16,-28.1966384972031D0;                             59P    192
508,2,0,9,6,0,0,0,9,7,0,0;                                            61P    193
126,33,3,0,1,1,0,0.0D0,0.0D0,0.0D0,0.0D0,5.84799547159039D-2,         63P    194
5.84799547159039D-2,.116959909431808D0,.116959909431808D0,            63P    195
.175062545121694D0,.175062545121694D0,.233165180811581D0,             63P    196
.233165180811581D0,.291267816501467D0,.291267816501467D0,             63P    197
.349370452191354D0,.349370452191354D0,.407850406907258D0,             63P    198
.407850406907258D0,.466330361623161D0,.466330361623161D0,             63P    199
.524810316339066D0,.524810316339066D0,.58329027105497D0,              63P    200
.58329027105497D0,.641392906744856D0,.641392906744856D0,              63P    201
.699495542434742D0,.699495542434742D0,.757598178124629D0,             63P    202
.757598178124629D0,.815700813814515D0,.815700813814515D0,             63P    203
.874180768530419D0,.874180768530419D0,.932660723246323D0,             63P    204
.932660723246323D0,.932660723246323D0,.932660723246323D0,1.0D0,       63P    205
1.0D0,1.0D0,1.0D0,1.0D0,1.0D0,1.0D0,1.0D0,1.0D0,1.0D0,1.0D0,          63P    206
1.0D0,1.0D0,1.0D0,1.0D0,1.0D0,1.0D0,1.0D0,1.0D0,1.0D0,1.0D0,          63P    207
1.0D0,1.0D0,1.0D0,1.0D0,1.0D0,1.0D0,1.0D0,1.0D0,1.0D0,1.0D0,          63P    208
1.0D0,1.0D0,1.0D0,3.15D0,-1.5D0,2.0D0,3.34493318238635D0,-1.5D0,      63P    209
2.0D0,3.5475790287165D0,-1.45999055489651D0,2.03150222697381D0,       63P    210
3.91468707854224D0,-1.30571685839379D0,2.13393442529983D0,            63P    211
4.0798152098615D0,-1.19150513369814D0,2.20254263475349D0,             63P    212
4.34066090777782D0,-.930659435781821D0,2.32475439650164D0,            63P    213
4.45546047868328D0,-.765298703795403D0,2.38750381558416D0,            63P    214
4.61025185997379D0,-.396955683075285D0,2.47553687314135D0,            63P    215
4.65D0,-.193675452299621D0,2.5D0,4.65D0,.193675452299622D0,           63P    216
2.5D0,4.61025185997379D0,.396955683075286D0,2.47553687314135D0,       63P    217
4.45546047868328D0,.765298703795405D0,2.38750381558416D0,             63P    218
4.34066090777782D0,.930659435781823D0,2.32475439650164D0,             63P    219
4.0798152098615D0,1.19150513369814D0,2.20254263475349D0,              63P    220
3.91468707854223D0,1.30571685839379D0,2.13393442529983D0,             63P    221
3.5475790287165D0,1.45999055489651D0,2.03150222697381D0,              63P    222
3.34493318238635D0,1.5D0,2.0D0,2.95506681761365D0,1.5D0,2.0D0,        63P    223
2.7524209712835D0,1.45999055489651D0,2.03150222697381D0,              63P    224
2.38531292145776D0,1.30571685839379D0,2.13393442529983D0,             63P    225
2.2201847901385D0,1.19150513369814D0,2.20254263475349D0,              63P    226
1.95933909222218D0,.930659435781821D0,2.32475439650164D0,             63P    227
1.84453952131671D0,.765298703795402D0,2.38750381558416D0,             63P    228
1.68974814002621D0,.396955683075284D0,2.47553687314135D0,1.65D0,      63P    229
.193675452299621D0,2.5D0,1.65D0,-.193675452299622D0,2.5D0,            63P    230
1.68974814002621D0,-.396955683075285D0,2.47553687314135D0,            63P    231
1.84453952131671D0,-.765298703795404D0,2.38750381558416D0,            63P    232
1.95933909222218D0,-.930659435781821D0,2.32475439650164D0,            63P    233
2.2201847901385D0,-1.19150513369814D0,2.20254263475349D0,             63P    234
2.38531292145776D0,-1.30571685839379D0,2.13393442529983D0,            63P    235
2.7524209712835D0,-1.45999055489651D0,2.03150222697381D0,             63P    236
2.95506681761365D0,-1.5D0,2.0D0,3.15D0,-1.5D0,2.0D0,0.0D0,            63P    237
.932660723246323D0,0.0D0,0.0D0,0.0D0;                                 63P    238
508,1,0,9,8,0,0;                                                      65P    239
510,55,2,1,61,65;                                                     67P    240
120,73,71,0.0D0,6.28318530717959D0;                                   69P    241
110,-18.1966384972031D0,0.0D0,-2.5D0,18.375D0,0.0D0,-2.5D0;           71P    242
110,-18.1966384972031D0,0.0D0,0.0D0,-17.1966384972031D0,0.0D0,        73P    243
0.0D0;                                                                73P    244
100,0.0D0,0.0D0,0.0D0,2.5D0,0.0D0,2.5D0,0.0D0;                        75P    245
124,0.0D0,0.0D0,-1.0D0,17.5D0,0.0D0,-1.0D0,0.0D0,0.0D0,-1.0D0,        77P    246
0.0D0,0.0D0,0.0D0;                                                    77P    247
508,1,0,9,9,0,0;                                                      79P    248
508,1,0,9,3,1,0;                                                      81P    249
100,0.0D0,0.0D0,0.0D0,-2.5D0,3.06161699786838D-16,-2.5D0,             83P    250
3.06161699786838D-16;                                                 83P    251
124,0.0D0,0.0D0,1.0D0,0.0D0,0.0D0,1.0D0,0.0D0,0.0D0,-1.0D0,           85P    252
0.0D0,0.0D0,0.0D0;                                                    85P    253
508,1,0,9,10,0,0;                                                     87P    254
508,1,0,9,8,1,0;                                                      89P    255
510,69,4,1,79,81,87,89;                                               91P    256
116,0.0D0,3.25D0,0.0D0,0;                                             93P    257
123,-1.0D0,0.0D0,0.0D0;                                               95P    258
190,93,95,99;                                                         97P    259
123,0.0D0,0.0D0,1.0D0;                                                99P    260
508,1,0,9,4,0,0;                                                     101P    261
508,1,0,9,10,1,0;                                                    103P    262
510,97,2,1,101,103;                                                  105P    263
116,6.3D0,8.75D0,0.0D0,0;                                            107P    264
123,-1.0D0,0.0D0,0.0D0;                                              109P    265
190,107,109,113;                                                     111P    266
123,0.0D0,0.0D0,1.0D0;                                               113P    267
100,0.0D0,0.0D0,0.0D0,11.0D0,0.0D0,11.0D0,0.0D0;                     115P    268
508,1,0,9,11,0,0;                                                    117P    269
508,1,0,9,5,1,0;                                                     119P    270
510,111,2,1,117,119;                                                 121P    271
116,6.979D0,0.0D0,0.0D0,0;                                           123P    272
123,1.0D0,0.0D0,0.0D0;                                               125P    273
192,123,125,11.0D0,129;                                              127P    274
123,0.0D0,1.0D0,0.0D0;                                               129P    275
100,0.0D0,0.0D0,0.0D0,11.0D0,0.0D0,11.0D0,0.0D0;                     131P    276
124,0.0D0,0.0D0,1.0D0,7.658D0,1.0D0,0.0D0,0.0D0,0.0D0,0.0D0,         133P    277
1.0D0,0.0D0,0.0D0;                                                   133P    278
508,1,0,9,12,0,0;                                                    135P    279
508,1,0,9,11,1,0;                                                    137P    280
510,127,2,1,135,137;                                                 139P    281
116,7.779D0,0.0D0,0.0D0,0;                                           141P    282
123,-1.0D0,0.0D0,0.0D0;                                              143P    283
194,141,143,9.90625D0,83.6871200212769D0,147;                        145P    284
123,0.0D0,1.0D0,0.0D0;                                               147P    285
100,0.0D0,0.0D0,0.0D0,8.8125D0,0.0D0,8.8125D0,0.0D0;                 149P    286
124,0.0D0,0.0D0,1.0D0,7.9D0,1.0D0,0.0D0,0.0D0,0.0D0,0.0D0,1.0D0,     151P    287
0.0D0,0.0D0;                                                         151P    288
508,1,0,9,13,0,0;                                                    153P    289
508,1,0,9,12,1,0;                                                    155P    290
510,145,2,1,153,155;                                                 157P    291
116,11.9D0,0.0D0,0.0D0,0;                                            159P    292
123,1.0D0,0.0D0,0.0D0;                                               161P    293
192,159,161,8.8125D0,165;                                            163P    294
123,0.0D0,1.0D0,0.0D0;                                               165P    295
100,0.0D0,0.0D0,0.0D0,8.8125D0,0.0D0,8.8125D0,0.0D0;                 167P    296
124,0.0D0,0.0D0,1.0D0,15.9D0,1.0D0,0.0D0,0.0D0,0.0D0,0.0D0,          169P    297
1.0D0,0.0D0,0.0D0;                                                   169P    298
508,1,0,9,14,0,0;                                                    171P    299
508,1,0,9,13,1,0;                                                    173P    300
510,163,2,1,171,173;                                                 175P    301
116,16.021D0,0.0D0,0.0D0,0;                                          177P    302
123,1.0D0,0.0D0,0.0D0;                                               179P    303
194,177,179,9.90625D0,83.6871200212769D0,183;                        181P    304
123,0.0D0,1.0D0,0.0D0;                                               183P    305
100,0.0D0,0.0D0,0.0D0,11.0D0,0.0D0,11.0D0,0.0D0;                     185P    306
124,0.0D0,0.0D0,1.0D0,16.142D0,1.0D0,0.0D0,0.0D0,0.0D0,0.0D0,        187P    307
1.0D0,0.0D0,0.0D0;                                                   187P    308
508,1,0,9,15,0,0;                                                    189P    309
508,1,0,9,14,1,0;                                                    191P    310
510,181,2,1,189,191;                                                 193P    311
116,16.821D0,0.0D0,0.0D0,0;                                          195P    312
123,1.0D0,0.0D0,0.0D0;                                               197P    313
192,195,197,11.0D0,201;                                              199P    314
123,0.0D0,1.0D0,0.0D0;                                               201P    315
100,0.0D0,0.0D0,0.0D0,11.0D0,0.0D0,11.0D0,0.0D0;                     203P    316
124,0.0D0,0.0D0,1.0D0,17.5D0,1.0D0,0.0D0,0.0D0,0.0D0,0.0D0,          205P    317
1.0D0,0.0D0,0.0D0;                                                   205P    318
508,1,0,9,16,0,0;                                                    207P    319
508,1,0,9,15,1,0;                                                    209P    320
510,199,2,1,207,209;                                                 211P    321
116,17.5D0,5.5D0,0.0D0,0;                                            213P    322
123,1.0D0,0.0D0,0.0D0;                                               215P    323
190,213,215,219;                                                     217P    324
123,0.0D0,0.0D0,-1.0D0;                                              219P    325
508,1,0,9,16,1,0;                                                    221P    326
508,1,0,9,9,1,0;                                                     223P    327
510,217,2,1,221,223;                                                 225P    328
514,12,23,1,53,1,67,1,91,1,105,1,121,1,139,1,157,1,175,1,193,1,      227P    329
211,1,225,1;                                                         227P    330
186,227,1,0;                                                         229P    331
314,89.8039221763611D0,89.9999976158142D0,89.9999976158142D0,;       231P    332
S      1G      4D    232P    332                                        T      1
