                                                                        S      1
,,17HMicro V Wheel.ipt,27HNo Iges File Name specified,22HAutodesk InventG      1
or 2013,37HAutoDesk Inventor Iges Exporter R2013,32,38,6,99,15,17HMicro G      2
V Wheel.ipt,1.0D0,2,2HMM,1,.08D0,15H20140422.180406,.01D0,10000.0D0,4HWoG      3
rk,,11,0,,;                                                             G      4
     406       1       0       0       1       0       0       000000000D      1
     406       0       0       1       3                               0D      2
     120       2       0       0       0       0       0       000010000D      3
     120       0       0       1       0                               0D      4
     110       3       0       0       0       0       0       000010000D      5
     110       0       0       1       0                               0D      6
     110       4       0       0       0       0       0       001010000D      7
     110       0       0       1       0                               0D      8
     504       5       0       0       0       0       0       000010001D      9
     504       0       0       3       1                               0D     10
     502       8       0       0       0       0       0       000010000D     11
     502       0       0       4       1                               0D     12
     100      12       0       0       0       0      15       000010000D     13
     100       0       0       1       0                               0D     14
     124      13       0       0       0       0       0       000000000D     15
     124       0       0       2       0                               0D     16
     508      15       0       0       0       0       0       000010000D     17
     508       0       0       1       1                               0D     18
     100      16       0       0       0       0      21       000010000D     19
     100       0       0       1       0                               0D     20
     124      17       0       0       0       0       0       000000000D     21
     124       0       0       2       0                               0D     22
     508      19       0       0       0       0       0       000010000D     23
     508       0       0       1       1                               0D     24
     510      20       0       0       0       0       0       000010000D     25
     510       0    -213       1       1                               0D     26
     116      21       0       0       0       0       0       000010000D     27
     116       0       0       1       0                               0D     28
     123      22       0       0       0       0       0       000010200D     29
     123       0       0       1       0                               0D     30
     190      23       0       0       0       0       0       000010000D     31
     190       0       0       1       1                               0D     32
     123      24       0       0       0       0       0       000010200D     33
     123       0       0       1       0                               0D     34
     100      25       0       0       0       0      37       000010000D     35
     100       0       0       1       0                               0D     36
     124      26       0       0       0       0       0       000000000D     37
     124       0       0       2       0                               0D     38
     508      28       0       0       0       0       0       000010000D     39
     508       0       0       1       1                               0D     40
     508      29       0       0       0       0       0       000010000D     41
     508       0       0       1       1                               0D     42
     510      30       0       0       0       0       0       000010000D     43
     510       0    -213       1       1                               0D     44
     120      31       0       0       0       0       0       000010000D     45
     120       0       0       1       0                               0D     46
     110      32       0       0       0       0       0       000010000D     47
     110       0       0       1       0                               0D     48
     110      33       0       0       0       0       0       001010000D     49
     110       0       0       1       0                               0D     50
     100      34       0       0       0       0      53       000010000D     51
     100       0       0       1       0                               0D     52
     124      35       0       0       0       0       0       000000000D     53
     124       0       0       2       0                               0D     54
     508      37       0       0       0       0       0       000010000D     55
     508       0       0       1       1                               0D     56
     508      38       0       0       0       0       0       000010000D     57
     508       0       0       1       1                               0D     58
     510      39       0       0       0       0       0       000010000D     59
     510       0    -213       1       1                               0D     60
     120      40       0       0       0       0       0       000010000D     61
     120       0       0       1       0                               0D     62
     110      41       0       0       0       0       0       000010000D     63
     110       0       0       1       0                               0D     64
     110      42       0       0       0       0       0       001010000D     65
     110       0       0       1       0                               0D     66
     100      43       0       0       0       0      69       000010000D     67
     100       0       0       1       0                               0D     68
     124      44       0       0       0       0       0       000000000D     69
     124       0       0       2       0                               0D     70
     508      46       0       0       0       0       0       000010000D     71
     508       0       0       1       1                               0D     72
     508      47       0       0       0       0       0       000010000D     73
     508       0       0       1       1                               0D     74
     510      48       0       0       0       0       0       000010000D     75
     510       0    -213       1       1                               0D     76
     116      49       0       0       0       0       0       000010000D     77
     116       0       0       1       0                               0D     78
     123      50       0       0       0       0       0       000010200D     79
     123       0       0       1       0                               0D     80
     190      51       0       0       0       0       0       000010000D     81
     190       0       0       1       1                               0D     82
     123      52       0       0       0       0       0       000010200D     83
     123       0       0       1       0                               0D     84
     100      53       0       0       0       0      69       000010000D     85
     100       0       0       1       0                               0D     86
     508      54       0       0       0       0       0       000010000D     87
     508       0       0       1       1                               0D     88
     508      55       0       0       0       0       0       000010000D     89
     508       0       0       1       1                               0D     90
     510      56       0       0       0       0       0       000010000D     91
     510       0    -213       1       1                               0D     92
     116      57       0       0       0       0       0       000010000D     93
     116       0       0       1       0                               0D     94
     123      58       0       0       0       0       0       000010200D     95
     123       0       0       1       0                               0D     96
     194      59       0       0       0       0       0       000010000D     97
     194       0       0       1       1                               0D     98
     123      60       0       0       0       0       0       000010200D     99
     123       0       0       1       0                               0D    100
     100      61       0       0       0       0     103       000010000D    101
     100       0       0       1       0                               0D    102
     124      62       0       0       0       0       0       000000000D    103
     124       0       0       2       0                               0D    104
     508      64       0       0       0       0       0       000010000D    105
     508       0       0       1       1                               0D    106
     508      65       0       0       0       0       0       000010000D    107
     508       0       0       1       1                               0D    108
     510      66       0       0       0       0       0       000010000D    109
     510       0    -213       1       1                               0D    110
     116      67       0       0       0       0       0       000010000D    111
     116       0       0       1       0                               0D    112
     123      68       0       0       0       0       0       000010200D    113
     123       0       0       1       0                               0D    114
     192      69       0       0       0       0       0       000010000D    115
     192       0       0       1       1                               0D    116
     123      70       0       0       0       0       0       000010200D    117
     123       0       0       1       0                               0D    118
     508      71       0       0       0       0       0       000010000D    119
     508       0       0       1       1                               0D    120
     100      72       0       0       0       0     123       000010000D    121
     100       0       0       1       0                               0D    122
     124      73       0       0       0       0       0       000000000D    123
     124       0       0       2       0                               0D    124
     508      75       0       0       0       0       0       000010000D    125
     508       0       0       1       1                               0D    126
     510      76       0       0       0       0       0       000010000D    127
     510       0    -213       1       1                               0D    128
     116      77       0       0       0       0       0       000010000D    129
     116       0       0       1       0                               0D    130
     123      78       0       0       0       0       0       000010200D    131
     123       0       0       1       0                               0D    132
     194      79       0       0       0       0       0       000010000D    133
     194       0       0       1       1                               0D    134
     123      80       0       0       0       0       0       000010200D    135
     123       0       0       1       0                               0D    136
     100      81       0       0       0       0     139       000010000D    137
     100       0       0       1       0                               0D    138
     124      82       0       0       0       0       0       000000000D    139
     124       0       0       2       0                               0D    140
     508      84       0       0       0       0       0       000010000D    141
     508       0       0       1       1                               0D    142
     508      85       0       0       0       0       0       000010000D    143
     508       0       0       1       1                               0D    144
     510      86       0       0       0       0       0       000010000D    145
     510       0    -213       1       1                               0D    146
     116      87       0       0       0       0       0       000010000D    147
     116       0       0       1       0                               0D    148
     123      88       0       0       0       0       0       000010200D    149
     123       0       0       1       0                               0D    150
     190      89       0       0       0       0       0       000010000D    151
     190       0       0       1       1                               0D    152
     123      90       0       0       0       0       0       000010200D    153
     123       0       0       1       0                               0D    154
     508      91       0       0       0       0       0       000010000D    155
     508       0       0       1       1                               0D    156
     100      92       0       0       0       0     139       000010000D    157
     100       0       0       1       0                               0D    158
     508      93       0       0       0       0       0       000010000D    159
     508       0       0       1       1                               0D    160
     510      94       0       0       0       0       0       000010000D    161
     510       0    -213       1       1                               0D    162
     120      95       0       0       0       0       0       000010000D    163
     120       0       0       1       0                               0D    164
     110      96       0       0       0       0       0       000010000D    165
     110       0       0       1       0                               0D    166
     110      97       0       0       0       0       0       001010000D    167
     110       0       0       1       0                               0D    168
     100      98       0       0       0       0     171       000010000D    169
     100       0       0       1       0                               0D    170
     124      99       0       0       0       0       0       000000000D    171
     124       0       0       2       0                               0D    172
     508     101       0       0       0       0       0       000010000D    173
     508       0       0       1       1                               0D    174
     508     102       0       0       0       0       0       000010000D    175
     508       0       0       1       1                               0D    176
     510     103       0       0       0       0       0       000010000D    177
     510       0    -213       1       1                               0D    178
     120     104       0       0       0       0       0       000010000D    179
     120       0       0       1       0                               0D    180
     110     105       0       0       0       0       0       000010000D    181
     110       0       0       1       0                               0D    182
     110     106       0       0       0       0       0       001010000D    183
     110       0       0       1       0                               0D    184
     100     107       0       0       0       0     187       000010000D    185
     100       0       0       1       0                               0D    186
     124     108       0       0       0       0       0       000000000D    187
     124       0       0       2       0                               0D    188
     508     110       0       0       0       0       0       000010000D    189
     508       0       0       1       1                               0D    190
     508     111       0       0       0       0       0       000010000D    191
     508       0       0       1       1                               0D    192
     510     112       0       0       0       0       0       000010000D    193
     510       0    -213       1       1                               0D    194
     116     113       0       0       0       0       0       000010000D    195
     116       0       0       1       0                               0D    196
     123     114       0       0       0       0       0       000010200D    197
     123       0       0       1       0                               0D    198
     190     115       0       0       0       0       0       000010000D    199
     190       0       0       1       1                               0D    200
     123     116       0       0       0       0       0       000010200D    201
     123       0       0       1       0                               0D    202
     508     117       0       0       0       0       0       000010000D    203
     508       0       0       1       1                               0D    204
     508     118       0       0       0       0       0       000010000D    205
     508       0       0       1       1                               0D    206
     510     119       0       0       0       0       0       000010000D    207
     510       0    -213       1       1                               0D    208
     514     120       0       0       0       0       0       000010000D    209
     514       0       0       2       1                               0D    210
     186     122       0       0       1       0       0       000000000D    211
     186       0       0       1       0                  Solid1       0D    212
     314     123       0       0       0       0       0       000000000D    213
     314       0       1       1       0                               0D    214
406,2,0,13HMicro V Wheel;                                              1P      1
120,7,5,0.0D0,6.28318530717959D0;                                      3P      2
110,-.55D0,4.32D0,0.0D0,.55D0,4.32D0,0.0D0;                            5P      3
110,-.55D0,0.0D0,0.0D0,.45D0,0.0D0,0.0D0;                              7P      4
504,12,13,11,1,11,1,19,11,2,11,2,35,11,3,11,3,51,11,4,11,4,67,         9P      5
11,5,11,5,85,11,6,11,6,101,11,7,11,7,121,11,8,11,8,137,11,9,11,        9P      6
9,157,11,10,11,10,169,11,11,11,11,185,11,12,11,12;                     9P      7
502,12,-.5D0,4.32D0,0.0D0,.5D0,4.32D0,0.0D0,-.5D0,4.987D0,0.0D0,      11P      8
-4.1D0,4.987D0,0.0D0,-4.4D0,5.287D0,0.0D0,-4.4D0,6.105D0,0.0D0,       11P      9
-2.89D0,7.615D0,0.0D0,2.89D0,7.615D0,0.0D0,4.4D0,6.105D0,0.0D0,       11P     10
4.4D0,5.287D0,0.0D0,4.1D0,4.987D0,0.0D0,.5D0,4.987D0,0.0D0;           11P     11
100,0.0D0,0.0D0,0.0D0,4.32D0,0.0D0,4.32D0,0.0D0;                      13P     12
124,0.0D0,0.0D0,1.0D0,-.5D0,1.0D0,0.0D0,0.0D0,0.0D0,0.0D0,1.0D0,      15P     13
0.0D0,0.0D0;                                                          15P     14
508,1,0,9,1,0,0;                                                      17P     15
100,0.0D0,0.0D0,0.0D0,4.32D0,0.0D0,4.32D0,0.0D0;                      19P     16
124,0.0D0,0.0D0,1.0D0,.5D0,1.0D0,0.0D0,0.0D0,0.0D0,0.0D0,1.0D0,       21P     17
0.0D0,0.0D0;                                                          21P     18
508,1,0,9,2,1,0;                                                      23P     19
510,3,2,1,17,23;                                                      25P     20
116,-.5D0,4.6535D0,0.0D0,0;                                           27P     21
123,-1.0D0,0.0D0,0.0D0;                                               29P     22
190,27,29,33;                                                         31P     23
123,0.0D0,0.0D0,1.0D0;                                                33P     24
100,0.0D0,0.0D0,0.0D0,4.987D0,0.0D0,4.987D0,0.0D0;                    35P     25
124,0.0D0,0.0D0,1.0D0,-.5D0,1.0D0,0.0D0,0.0D0,0.0D0,0.0D0,1.0D0,      37P     26
0.0D0,0.0D0;                                                          37P     27
508,1,0,9,3,0,0;                                                      39P     28
508,1,0,9,1,1,0;                                                      41P     29
510,31,2,1,39,41;                                                     43P     30
120,49,47,0.0D0,6.28318530717959D0;                                   45P     31
110,-4.28D0,4.987D0,0.0D0,-.32D0,4.987D0,0.0D0;                       47P     32
110,-4.28D0,0.0D0,0.0D0,-3.28D0,0.0D0,0.0D0;                          49P     33
100,0.0D0,0.0D0,0.0D0,4.987D0,0.0D0,4.987D0,0.0D0;                    51P     34
124,0.0D0,0.0D0,1.0D0,-4.1D0,1.0D0,0.0D0,0.0D0,0.0D0,0.0D0,           53P     35
1.0D0,0.0D0,0.0D0;                                                    53P     36
508,1,0,9,4,0,0;                                                      55P     37
508,1,0,9,3,1,0;                                                      57P     38
510,45,2,1,55,57;                                                     59P     39
120,65,63,0.0D0,6.28318530717959D0;                                   61P     40
110,-4.085D0,4.972D0,0.0D0,-4.415D0,5.302D0,0.0D0;                    63P     41
110,-4.085D0,0.0D0,0.0D0,-5.085D0,0.0D0,0.0D0;                        65P     42
100,0.0D0,0.0D0,0.0D0,5.287D0,0.0D0,5.287D0,0.0D0;                    67P     43
124,0.0D0,0.0D0,1.0D0,-4.4D0,1.0D0,0.0D0,0.0D0,0.0D0,0.0D0,           69P     44
1.0D0,0.0D0,0.0D0;                                                    69P     45
508,1,0,9,5,0,0;                                                      71P     46
508,1,0,9,4,1,0;                                                      73P     47
510,61,2,1,71,73;                                                     75P     48
116,-4.4D0,5.696D0,0.0D0,0;                                           77P     49
123,-1.0D0,0.0D0,0.0D0;                                               79P     50
190,77,79,83;                                                         81P     51
123,0.0D0,0.0D0,1.0D0;                                                83P     52
100,0.0D0,0.0D0,0.0D0,6.105D0,0.0D0,6.105D0,0.0D0;                    85P     53
508,1,0,9,6,0,0;                                                      87P     54
508,1,0,9,5,1,0;                                                      89P     55
510,81,2,1,87,89;                                                     91P     56
116,-3.645D0,0.0D0,0.0D0,0;                                           93P     57
123,1.0D0,0.0D0,0.0D0;                                                95P     58
194,93,95,6.86D0,45.0D0,99;                                           97P     59
123,0.0D0,1.0D0,0.0D0;                                                99P     60
100,0.0D0,0.0D0,0.0D0,7.615D0,0.0D0,7.615D0,0.0D0;                   101P     61
124,0.0D0,0.0D0,1.0D0,-2.89D0,1.0D0,0.0D0,0.0D0,0.0D0,0.0D0,         103P     62
1.0D0,0.0D0,0.0D0;                                                   103P     63
508,1,0,9,7,0,0;                                                     105P     64
508,1,0,9,6,1,0;                                                     107P     65
510,97,2,1,105,107;                                                  109P     66
116,1.445D0,0.0D0,0.0D0,0;                                           111P     67
123,1.0D0,0.0D0,0.0D0;                                               113P     68
192,111,113,7.615D0,117;                                             115P     69
123,0.0D0,1.0D0,0.0D0;                                               117P     70
508,1,0,9,7,1,0;                                                     119P     71
100,0.0D0,0.0D0,0.0D0,7.615D0,0.0D0,7.615D0,0.0D0;                   121P     72
124,0.0D0,0.0D0,1.0D0,2.89D0,1.0D0,0.0D0,0.0D0,0.0D0,0.0D0,          123P     73
1.0D0,0.0D0,0.0D0;                                                   123P     74
508,1,0,9,8,0,0;                                                     125P     75
510,115,2,1,119,125;                                                 127P     76
116,3.645D0,0.0D0,0.0D0,0;                                           129P     77
123,-1.0D0,0.0D0,0.0D0;                                              131P     78
194,129,131,6.86D0,45.0D0,135;                                       133P     79
123,0.0D0,1.0D0,0.0D0;                                               135P     80
100,0.0D0,0.0D0,0.0D0,6.105D0,0.0D0,6.105D0,0.0D0;                   137P     81
124,0.0D0,0.0D0,1.0D0,4.4D0,1.0D0,0.0D0,0.0D0,0.0D0,0.0D0,1.0D0,     139P     82
0.0D0,0.0D0;                                                         139P     83
508,1,0,9,9,0,0;                                                     141P     84
508,1,0,9,8,1,0;                                                     143P     85
510,133,2,1,141,143;                                                 145P     86
116,4.4D0,5.696D0,0.0D0,0;                                           147P     87
123,1.0D0,0.0D0,0.0D0;                                               149P     88
190,147,149,153;                                                     151P     89
123,0.0D0,0.0D0,-1.0D0;                                              153P     90
508,1,0,9,9,1,0;                                                     155P     91
100,0.0D0,0.0D0,0.0D0,5.287D0,0.0D0,5.287D0,0.0D0;                   157P     92
508,1,0,9,10,0,0;                                                    159P     93
510,151,2,1,155,159;                                                 161P     94
120,167,165,0.0D0,6.28318530717959D0;                                163P     95
110,4.085D0,4.972D0,0.0D0,4.415D0,5.302D0,0.0D0;                     165P     96
110,4.085D0,0.0D0,0.0D0,5.085D0,0.0D0,0.0D0;                         167P     97
100,0.0D0,0.0D0,0.0D0,4.987D0,0.0D0,4.987D0,0.0D0;                   169P     98
124,0.0D0,0.0D0,1.0D0,4.1D0,1.0D0,0.0D0,0.0D0,0.0D0,0.0D0,1.0D0,     171P     99
0.0D0,0.0D0;                                                         171P    100
508,1,0,9,11,0,0;                                                    173P    101
508,1,0,9,10,1,0;                                                    175P    102
510,163,2,1,173,175;                                                 177P    103
120,183,181,0.0D0,6.28318530717959D0;                                179P    104
110,.32D0,4.987D0,0.0D0,4.28D0,4.987D0,0.0D0;                        181P    105
110,.32D0,0.0D0,0.0D0,1.32D0,0.0D0,0.0D0;                            183P    106
100,0.0D0,0.0D0,0.0D0,4.987D0,0.0D0,4.987D0,0.0D0;                   185P    107
124,0.0D0,0.0D0,1.0D0,.5D0,1.0D0,0.0D0,0.0D0,0.0D0,0.0D0,1.0D0,      187P    108
0.0D0,0.0D0;                                                         187P    109
508,1,0,9,12,0,0;                                                    189P    110
508,1,0,9,11,1,0;                                                    191P    111
510,179,2,1,189,191;                                                 193P    112
116,.5D0,4.6535D0,0.0D0,0;                                           195P    113
123,1.0D0,0.0D0,0.0D0;                                               197P    114
190,195,197,201;                                                     199P    115
123,0.0D0,0.0D0,-1.0D0;                                              201P    116
508,1,0,9,12,1,0;                                                    203P    117
508,1,0,9,2,0,0;                                                     205P    118
510,199,2,1,203,205;                                                 207P    119
514,12,25,1,43,1,59,1,75,1,91,1,109,1,127,1,145,1,161,1,177,1,       209P    120
193,1,207,1;                                                         209P    121
186,209,1,0;                                                         211P    122
314,1.99999995529652D0,1.99999995529652D0,1.99999995529652D0,;       213P    123
S      1G      4D    214P    123                                        T      1
