                                                                        S      1
,,16HMini Bearing.ipt,27HNo Iges File Name specified,22HAutodesk InventoG      1
r 2013,37HAutoDesk Inventor Iges Exporter R2013,32,38,6,99,15,16HMini BeG      2
aring.ipt,1.0D0,2,2HMM,1,.08D0,15H20140422.180407,.01D0,10000.0D0,4HWorkG      3
,,11,0,,;                                                               G      4
     406       1       0       0       1       0       0       000000000D      1
     406       0       0       1       3                               0D      2
     116       2       0       0       0       0       0       000010000D      3
     116       0       0       1       0                               0D      4
     123       3       0       0       0       0       0       000010200D      5
     123       0       0       1       0                               0D      6
     198       4       0       0       0       0       0       000010000D      7
     198       0       0       1       1                               0D      8
     123       5       0       0       0       0       0       000010200D      9
     123       0       0       1       0                               0D     10
     504       6       0       0       0       0       0       000010001D     11
     504       0       0       6       1                               0D     12
     502      12       0       0       0       0       0       000010000D     13
     502       0       0      15       1                               0D     14
     100      27       0       0       0       0      17       000010000D     15
     100       0       0       2       0                               0D     16
     124      29       0       0       0       0       0       000000000D     17
     124       0       0       2       0                               0D     18
     508      31       0       0       0       0       0       000010000D     19
     508       0       0       1       1                               0D     20
     100      32       0       0       0       0      23       000010000D     21
     100       0       0       2       0                               0D     22
     124      34       0       0       0       0       0       000000000D     23
     124       0       0       2       0                               0D     24
     508      36       0       0       0       0       0       000010000D     25
     508       0       0       1       1                               0D     26
     510      37       0       0       0       0       0       000010000D     27
     510       0    -409       1       1                               0D     28
     116      38       0       0       0       0       0       000010000D     29
     116       0       0       1       0                               0D     30
     123      39       0       0       0       0       0       000010200D     31
     123       0       0       1       0                               0D     32
     190      40       0       0       0       0       0       000010000D     33
     190       0       0       1       1                               0D     34
     123      41       0       0       0       0       0       000010200D     35
     123       0       0       1       0                               0D     36
     100      42       0       0       0       0      39       000010000D     37
     100       0       0       2       0                               0D     38
     124      44       0       0       0       0       0       000000000D     39
     124       0       0       2       0                               0D     40
     508      46       0       0       0       0       0       000010000D     41
     508       0       0       1       1                               0D     42
     508      47       0       0       0       0       0       000010000D     43
     508       0       0       1       1                               0D     44
     510      48       0       0       0       0       0       000010000D     45
     510       0    -409       1       1                               0D     46
     120      49       0       0       0       0       0       000010000D     47
     120       0       0       1       0                               0D     48
     110      50       0       0       0       0       0       000010000D     49
     110       0       0       1       0                               0D     50
     110      51       0       0       0       0       0       001010000D     51
     110       0       0       1       0                               0D     52
     100      52       0       0       0       0      55       000010000D     53
     100       0       0       2       0                               0D     54
     124      54       0       0       0       0       0       000000000D     55
     124       0       0       2       0                               0D     56
     508      56       0       0       0       0       0       000010000D     57
     508       0       0       1       1                               0D     58
     508      57       0       0       0       0       0       000010000D     59
     508       0       0       1       1                               0D     60
     510      58       0       0       0       0       0       000010000D     61
     510       0    -409       1       1                               0D     62
     116      59       0       0       0       0       0       000010000D     63
     116       0       0       1       0                               0D     64
     123      60       0       0       0       0       0       000010200D     65
     123       0       0       1       0                               0D     66
     198      61       0       0       0       0       0       000010000D     67
     198       0       0       1       1                               0D     68
     123      62       0       0       0       0       0       000010200D     69
     123       0       0       1       0                               0D     70
     100      63       0       0       0       0      73       000010000D     71
     100       0       0       2       0                               0D     72
     124      65       0       0       0       0       0       000000000D     73
     124       0       0       2       0                               0D     74
     508      67       0       0       0       0       0       000010000D     75
     508       0       0       1       1                               0D     76
     508      68       0       0       0       0       0       000010000D     77
     508       0       0       1       1                               0D     78
     510      69       0       0       0       0       0       000010000D     79
     510       0    -409       1       1                               0D     80
     116      70       0       0       0       0       0       000010000D     81
     116       0       0       1       0                               0D     82
     123      71       0       0       0       0       0       000010200D     83
     123       0       0       1       0                               0D     84
     192      72       0       0       0       0       0       000010000D     85
     192       0       0       1       1                               0D     86
     123      73       0       0       0       0       0       000010200D     87
     123       0       0       1       0                               0D     88
     100      74       0       0       0       0      91       000010000D     89
     100       0       0       2       0                               0D     90
     124      76       0       0       0       0       0       000000000D     91
     124       0       0       2       0                               0D     92
     508      78       0       0       0       0       0       000010000D     93
     508       0       0       1       1                               0D     94
     508      79       0       0       0       0       0       000010000D     95
     508       0       0       1       1                               0D     96
     510      80       0       0       0       0       0       000010000D     97
     510       0    -409       1       1                               0D     98
     116      81       0       0       0       0       0       000010000D     99
     116       0       0       1       0                               0D    100
     123      82       0       0       0       0       0       000010200D    101
     123       0       0       1       0                               0D    102
     192      83       0       0       0       0       0       000010000D    103
     192       0       0       1       1                               0D    104
     123      84       0       0       0       0       0       000010200D    105
     123       0       0       1       0                               0D    106
     100      85       0       0       0       0      91       000010000D    107
     100       0       0       2       0                               0D    108
     508      87       0       0       0       0       0       000010000D    109
     508       0       0       1       1                               0D    110
     100      88       0       0       0       0      23       000010000D    111
     100       0       0       2       0                               0D    112
     508      90       0       0       0       0       0       000010000D    113
     508       0       0       1       1                               0D    114
     510      91       0       0       0       0       0       000010000D    115
     510       0    -409       1       1                               0D    116
     116      92       0       0       0       0       0       000010000D    117
     116       0       0       1       0                               0D    118
     123      93       0       0       0       0       0       000010200D    119
     123       0       0       1       0                               0D    120
     190      94       0       0       0       0       0       000010000D    121
     190       0       0       1       1                               0D    122
     123      95       0       0       0       0       0       000010200D    123
     123       0       0       1       0                               0D    124
     508      96       0       0       0       0       0       000010000D    125
     508       0       0       1       1                               0D    126
     508      97       0       0       0       0       0       000010000D    127
     508       0       0       1       1                               0D    128
     510      98       0       0       0       0       0       000010000D    129
     510       0    -409       1       1                               0D    130
     120      99       0       0       0       0       0       000010000D    131
     120       0       0       1       0                               0D    132
     110     100       0       0       0       0       0       000010000D    133
     110       0       0       1       0                               0D    134
     110     101       0       0       0       0       0       001010000D    135
     110       0       0       1       0                               0D    136
     100     102       0       0       0       0      55       000010000D    137
     100       0       0       2       0                               0D    138
     508     104       0       0       0       0       0       000010000D    139
     508       0       0       1       1                               0D    140
     100     105       0       0       0       0      39       000010000D    141
     100       0       0       2       0                               0D    142
     508     107       0       0       0       0       0       000010000D    143
     508       0       0       1       1                               0D    144
     510     108       0       0       0       0       0       000010000D    145
     510       0    -409       1       1                               0D    146
     116     109       0       0       0       0       0       000010000D    147
     116       0       0       1       0                               0D    148
     123     110       0       0       0       0       0       000010200D    149
     123       0       0       1       0                               0D    150
     190     111       0       0       0       0       0       000010000D    151
     190       0       0       1       1                               0D    152
     123     112       0       0       0       0       0       000010200D    153
     123       0       0       1       0                               0D    154
     508     113       0       0       0       0       0       000010000D    155
     508       0       0       1       1                               0D    156
     508     114       0       0       0       0       0       000010000D    157
     508       0       0       1       1                               0D    158
     510     115       0       0       0       0       0       000010000D    159
     510       0    -409       1       1                               0D    160
     116     116       0       0       0       0       0       000010000D    161
     116       0       0       1       0                               0D    162
     123     117       0       0       0       0       0       000010200D    163
     123       0       0       1       0                               0D    164
     190     118       0       0       0       0       0       000010000D    165
     190       0       0       1       1                               0D    166
     123     119       0       0       0       0       0       000010200D    167
     123       0       0       1       0                               0D    168
     100     120       0       0       0       0      23       000010000D    169
     100       0       0       2       0                               0D    170
     508     122       0       0       0       0       0       000010000D    171
     508       0       0       1       1                               0D    172
     508     123       0       0       0       0       0       000010000D    173
     508       0       0       1       1                               0D    174
     510     124       0       0       0       0       0       000010000D    175
     510       0    -409       1       1                               0D    176
     116     125       0       0       0       0       0       000010000D    177
     116       0       0       1       0                               0D    178
     123     126       0       0       0       0       0       000010200D    179
     123       0       0       1       0                               0D    180
     198     127       0       0       0       0       0       000010000D    181
     198       0       0       1       1                               0D    182
     123     128       0       0       0       0       0       000010200D    183
     123       0       0       1       0                               0D    184
     100     129       0       0       0       0     187       000010000D    185
     100       0       0       2       0                               0D    186
     124     131       0       0       0       0       0       000000000D    187
     124       0       0       2       0                               0D    188
     508     133       0       0       0       0       0       000010000D    189
     508       0       0       1       1                               0D    190
     100     134       0       0       0       0     193       000010000D    191
     100       0       0       2       0                               0D    192
     124     136       0       0       0       0       0       000000000D    193
     124       0       0       2       0                               0D    194
     508     138       0       0       0       0       0       000010000D    195
     508       0       0       1       1                               0D    196
     510     139       0       0       0       0       0       000010000D    197
     510       0    -409       1       1                               0D    198
     116     140       0       0       0       0       0       000010000D    199
     116       0       0       1       0                               0D    200
     123     141       0       0       0       0       0       000010200D    201
     123       0       0       1       0                               0D    202
     190     142       0       0       0       0       0       000010000D    203
     190       0       0       1       1                               0D    204
     123     143       0       0       0       0       0       000010200D    205
     123       0       0       1       0                               0D    206
     100     144       0       0       0       0     209       000010000D    207
     100       0       0       2       0                               0D    208
     124     146       0       0       0       0       0       000000000D    209
     124       0       0       2       0                               0D    210
     508     148       0       0       0       0       0       000010000D    211
     508       0       0       1       1                               0D    212
     508     149       0       0       0       0       0       000010000D    213
     508       0       0       1       1                               0D    214
     510     150       0       0       0       0       0       000010000D    215
     510       0    -409       1       1                               0D    216
     120     151       0       0       0       0       0       000010000D    217
     120       0       0       1       0                               0D    218
     110     152       0       0       0       0       0       000010000D    219
     110       0       0       1       0                               0D    220
     110     153       0       0       0       0       0       001010000D    221
     110       0       0       1       0                               0D    222
     100     154       0       0       0       0     225       000010000D    223
     100       0       0       2       0                               0D    224
     124     156       0       0       0       0       0       000000000D    225
     124       0       0       2       0                               0D    226
     508     158       0       0       0       0       0       000010000D    227
     508       0       0       1       1                               0D    228
     508     159       0       0       0       0       0       000010000D    229
     508       0       0       1       1                               0D    230
     510     160       0       0       0       0       0       000010000D    231
     510       0    -409       1       1                               0D    232
     116     161       0       0       0       0       0       000010000D    233
     116       0       0       1       0                               0D    234
     123     162       0       0       0       0       0       000010200D    235
     123       0       0       1       0                               0D    236
     198     163       0       0       0       0       0       000010000D    237
     198       0       0       1       1                               0D    238
     123     164       0       0       0       0       0       000010200D    239
     123       0       0       1       0                               0D    240
     100     165       0       0       0       0     243       000010000D    241
     100       0       0       2       0                               0D    242
     124     167       0       0       0       0       0       000000000D    243
     124       0       0       2       0                               0D    244
     508     169       0       0       0       0       0       000010000D    245
     508       0       0       1       1                               0D    246
     508     170       0       0       0       0       0       000010000D    247
     508       0       0       1       1                               0D    248
     510     171       0       0       0       0       0       000010000D    249
     510       0    -409       1       1                               0D    250
     116     172       0       0       0       0       0       000010000D    251
     116       0       0       1       0                               0D    252
     123     173       0       0       0       0       0       000010200D    253
     123       0       0       1       0                               0D    254
     192     174       0       0       0       0       0       000010000D    255
     192       0       0       1       1                               0D    256
     123     175       0       0       0       0       0       000010200D    257
     123       0       0       1       0                               0D    258
     100     176       0       0       0       0     261       000010000D    259
     100       0       0       2       0                               0D    260
     124     178       0       0       0       0       0       000000000D    261
     124       0       0       2       0                               0D    262
     508     180       0       0       0       0       0       000010000D    263
     508       0       0       1       1                               0D    264
     508     181       0       0       0       0       0       000010000D    265
     508       0       0       1       1                               0D    266
     510     182       0       0       0       0       0       000010000D    267
     510       0    -409       1       1                               0D    268
     116     183       0       0       0       0       0       000010000D    269
     116       0       0       1       0                               0D    270
     123     184       0       0       0       0       0       000010200D    271
     123       0       0       1       0                               0D    272
     192     185       0       0       0       0       0       000010000D    273
     192       0       0       1       1                               0D    274
     123     186       0       0       0       0       0       000010200D    275
     123       0       0       1       0                               0D    276
     100     187       0       0       0       0     261       000010000D    277
     100       0       0       2       0                               0D    278
     508     189       0       0       0       0       0       000010000D    279
     508       0       0       1       1                               0D    280
     100     190       0       0       0       0     193       000010000D    281
     100       0       0       2       0                               0D    282
     508     192       0       0       0       0       0       000010000D    283
     508       0       0       1       1                               0D    284
     510     193       0       0       0       0       0       000010000D    285
     510       0    -409       1       1                               0D    286
     116     194       0       0       0       0       0       000010000D    287
     116       0       0       1       0                               0D    288
     123     195       0       0       0       0       0       000010200D    289
     123       0       0       1       0                               0D    290
     190     196       0       0       0       0       0       000010000D    291
     190       0       0       1       1                               0D    292
     123     197       0       0       0       0       0       000010200D    293
     123       0       0       1       0                               0D    294
     508     198       0       0       0       0       0       000010000D    295
     508       0       0       1       1                               0D    296
     508     199       0       0       0       0       0       000010000D    297
     508       0       0       1       1                               0D    298
     510     200       0       0       0       0       0       000010000D    299
     510       0    -409       1       1                               0D    300
     120     201       0       0       0       0       0       000010000D    301
     120       0       0       1       0                               0D    302
     110     202       0       0       0       0       0       000010000D    303
     110       0       0       1       0                               0D    304
     110     203       0       0       0       0       0       001010000D    305
     110       0       0       1       0                               0D    306
     100     204       0       0       0       0     225       000010000D    307
     100       0       0       2       0                               0D    308
     508     206       0       0       0       0       0       000010000D    309
     508       0       0       1       1                               0D    310
     100     207       0       0       0       0     209       000010000D    311
     100       0       0       2       0                               0D    312
     508     209       0       0       0       0       0       000010000D    313
     508       0       0       1       1                               0D    314
     510     210       0       0       0       0       0       000010000D    315
     510       0    -409       1       1                               0D    316
     116     211       0       0       0       0       0       000010000D    317
     116       0       0       1       0                               0D    318
     123     212       0       0       0       0       0       000010200D    319
     123       0       0       1       0                               0D    320
     190     213       0       0       0       0       0       000010000D    321
     190       0       0       1       1                               0D    322
     123     214       0       0       0       0       0       000010200D    323
     123       0       0       1       0                               0D    324
     508     215       0       0       0       0       0       000010000D    325
     508       0       0       1       1                               0D    326
     508     216       0       0       0       0       0       000010000D    327
     508       0       0       1       1                               0D    328
     510     217       0       0       0       0       0       000010000D    329
     510       0    -409       1       1                               0D    330
     116     218       0       0       0       0       0       000010000D    331
     116       0       0       1       0                               0D    332
     123     219       0       0       0       0       0       000010200D    333
     123       0       0       1       0                               0D    334
     190     220       0       0       0       0       0       000010000D    335
     190       0       0       1       1                               0D    336
     123     221       0       0       0       0       0       000010200D    337
     123       0       0       1       0                               0D    338
     100     222       0       0       0       0     193       000010000D    339
     100       0       0       2       0                               0D    340
     508     224       0       0       0       0       0       000010000D    341
     508       0       0       1       1                               0D    342
     508     225       0       0       0       0       0       000010000D    343
     508       0       0       1       1                               0D    344
     510     226       0       0       0       0       0       000010000D    345
     510       0    -409       1       1                               0D    346
     120     227       0       0       0       0       0       000010000D    347
     120       0       0       1       0                               0D    348
     110     228       0       0       0       0       0       000010000D    349
     110       0       0       1       0                               0D    350
     110     229       0       0       0       0       0       001010000D    351
     110       0       0       1       0                               0D    352
     100     230       0       0       0       0      39       000010000D    353
     100       0       0       2       0                               0D    354
     508     232       0       0       0       0       0       000010000D    355
     508       0       0       1       1                               0D    356
     100     233       0       0       0       0     209       000010000D    357
     100       0       0       2       0                               0D    358
     508     235       0       0       0       0       0       000010000D    359
     508       0       0       1       1                               0D    360
     510     236       0       0       0       0       0       000010000D    361
     510       0    -409       1       1                               0D    362
     116     237       0       0       0       0       0       000010000D    363
     116       0       0       1       0                               0D    364
     123     238       0       0       0       0       0       000010200D    365
     123       0       0       1       0                               0D    366
     190     239       0       0       0       0       0       000010000D    367
     190       0       0       1       1                               0D    368
     123     240       0       0       0       0       0       000010200D    369
     123       0       0       1       0                               0D    370
     508     241       0       0       0       0       0       000010000D    371
     508       0       0       1       1                               0D    372
     508     242       0       0       0       0       0       000010000D    373
     508       0       0       1       1                               0D    374
     510     243       0       0       0       0       0       000010000D    375
     510       0    -409       1       1                               0D    376
     116     244       0       0       0       0       0       000010000D    377
     116       0       0       1       0                               0D    378
     123     245       0       0       0       0       0       000010200D    379
     123       0       0       1       0                               0D    380
     192     246       0       0       0       0       0       000010000D    381
     192       0       0       1       1                               0D    382
     123     247       0       0       0       0       0       000010200D    383
     123       0       0       1       0                               0D    384
     508     248       0       0       0       0       0       000010000D    385
     508       0       0       1       1                               0D    386
     508     249       0       0       0       0       0       000010000D    387
     508       0       0       1       1                               0D    388
     510     250       0       0       0       0       0       000010000D    389
     510       0    -409       1       1                               0D    390
     116     251       0       0       0       0       0       000010000D    391
     116       0       0       1       0                               0D    392
     123     252       0       0       0       0       0       000010200D    393
     123       0       0       1       0                               0D    394
     190     253       0       0       0       0       0       000010000D    395
     190       0       0       1       1                               0D    396
     123     254       0       0       0       0       0       000010200D    397
     123       0       0       1       0                               0D    398
     508     255       0       0       0       0       0       000010000D    399
     508       0       0       1       1                               0D    400
     508     256       0       0       0       0       0       000010000D    401
     508       0       0       1       1                               0D    402
     510     257       0       0       0       0       0       000010000D    403
     510       0    -409       1       1                               0D    404
     514     258       0       0       0       0       0       000010000D    405
     514       0       0       3       1                               0D    406
     186     261       0       0       1       0       0       000000000D    407
     186       0       0       1       0                  Solid1       0D    408
     314     262       0       0       0       0       0       000000000D    409
     314       0       8       1       0                               0D    410
406,2,0,12HMini Bearing;                                               1P      1
116,0.0D0,0.0D0,-1.95D0,0;                                             3P      2
123,0.0D0,0.0D0,1.0D0;                                                 5P      3
198,3,5,3.5D0,.15D0,9;                                                 7P      4
123,1.0D0,0.0D0,0.0D0;                                                 9P      5
504,24,15,13,1,13,1,21,13,2,13,2,37,13,3,13,3,53,13,4,13,4,71,        11P      6
13,5,13,5,89,13,6,13,6,107,13,7,13,7,111,13,8,13,8,137,13,9,13,       11P      7
9,141,13,10,13,10,169,13,11,13,11,185,13,12,13,12,191,13,13,13,       11P      8
13,207,13,14,13,14,223,13,15,13,15,241,13,16,13,16,259,13,17,13,      11P      9
17,277,13,18,13,18,281,13,19,13,19,307,13,20,13,20,311,13,21,13,      11P     10
21,339,13,22,13,22,353,13,23,13,23,357,13,24,13,24;                   11P     11
502,24,3.35D0,4.10256677714363D-16,-1.95D0,3.5D0,                     13P     12
-4.28626379701574D-16,-2.1D0,3.95D0,4.83735485663205D-16,-2.1D0,      13P     13
3.35D0,4.10256677714363D-16,-1.6D0,4.1D0,-5.02105187650415D-16,       13P     14
-1.95D0,4.1D0,5.02105187650415D-16,-1.6D0,2.95D0,                     13P     15
3.61270805748469D-16,-1.6D0,2.95D0,3.61270805748469D-16,-2.1D0,       13P     16
4.5D0,5.51091059616309D-16,-1.6D0,4.5D0,5.51091059616309D-16,         13P     17
-2.1D0,5.0D0,6.12323399573677D-16,-2.1D0,3.35D0,                      13P     18
-4.10256677714363D-16,1.95D0,3.5D0,4.28626379701574D-16,2.1D0,        13P     19
3.95D0,-4.83735485663205D-16,2.1D0,3.35D0,4.10256677714363D-16,       13P     20
1.6D0,4.1D0,5.02105187650415D-16,1.95D0,4.1D0,                        13P     21
5.02105187650415D-16,1.6D0,2.95D0,3.61270805748469D-16,1.6D0,         13P     22
2.95D0,3.61270805748469D-16,2.1D0,4.5D0,5.51091059616309D-16,         13P     23
1.6D0,4.5D0,5.51091059616309D-16,2.1D0,5.0D0,                         13P     24
6.12323399573677D-16,2.1D0,2.5D0,3.06161699786838D-16,-2.1D0,         13P     25
2.5D0,3.06161699786838D-16,2.1D0;                                     13P     26
100,0.0D0,0.0D0,0.0D0,-3.35D0,4.10256677714363D-16,-3.35D0,           15P     27
4.10256677714363D-16;                                                 15P     28
124,-1.0D0,0.0D0,0.0D0,0.0D0,0.0D0,-1.0D0,0.0D0,0.0D0,0.0D0,          17P     29
0.0D0,1.0D0,-1.95D0;                                                  17P     30
508,1,0,11,1,1,0;                                                     19P     31
100,0.0D0,0.0D0,0.0D0,-3.5D0,4.28626379701574D-16,-3.5D0,             21P     32
4.28626379701574D-16;                                                 21P     33
124,-1.0D0,0.0D0,0.0D0,0.0D0,0.0D0,1.0D0,0.0D0,0.0D0,0.0D0,           23P     34
0.0D0,-1.0D0,-2.1D0;                                                  23P     35
508,1,0,11,2,1,0;                                                     25P     36
510,7,2,1,19,25;                                                      27P     37
116,-2.36064120735332D-16,9.25185853854297D-17,-2.1D0,0;              29P     38
123,0.0D0,0.0D0,-1.0D0;                                               31P     39
190,29,31,35;                                                         33P     40
123,-1.0D0,0.0D0,0.0D0;                                               35P     41
100,0.0D0,0.0D0,0.0D0,-3.95D0,4.83735485663205D-16,-3.95D0,           37P     42
4.83735485663205D-16;                                                 37P     43
124,-1.0D0,0.0D0,0.0D0,0.0D0,0.0D0,-1.0D0,0.0D0,0.0D0,0.0D0,          39P     44
0.0D0,1.0D0,-2.1D0;                                                   39P     45
508,1,0,11,3,0,0;                                                     41P     46
508,1,0,11,2,0,0;                                                     43P     47
510,33,2,1,41,43;                                                     45P     48
120,51,49,0.0D0,6.28318530717959D0;                                   47P     49
110,-3.35D0,0.0D0,-1.5825D0,-3.35D0,0.0D0,-1.9675D0;                  49P     50
110,0.0D0,0.0D0,-1.5825D0,0.0D0,0.0D0,-2.5825D0;                      51P     51
100,0.0D0,0.0D0,0.0D0,-3.35D0,4.10256677714363D-16,-3.35D0,           53P     52
4.10256677714363D-16;                                                 53P     53
124,-1.0D0,0.0D0,0.0D0,0.0D0,0.0D0,1.0D0,0.0D0,0.0D0,0.0D0,           55P     54
0.0D0,-1.0D0,-1.6D0;                                                  55P     55
508,1,0,11,4,0,0;                                                     57P     56
508,1,0,11,1,0,0;                                                     59P     57
510,47,2,1,57,59;                                                     61P     58
116,0.0D0,0.0D0,-1.95D0,0;                                            63P     59
123,0.0D0,0.0D0,-1.0D0;                                               65P     60
198,63,65,3.95D0,.15D0,69;                                            67P     61
123,-1.0D0,0.0D0,0.0D0;                                               69P     62
100,0.0D0,0.0D0,0.0D0,-4.1D0,5.02105187650415D-16,-4.1D0,             71P     63
5.02105187650415D-16;                                                 71P     64
124,-1.0D0,0.0D0,0.0D0,0.0D0,0.0D0,1.0D0,0.0D0,0.0D0,0.0D0,           73P     65
0.0D0,-1.0D0,-1.95D0;                                                 73P     66
508,1,0,11,5,1,0;                                                     75P     67
508,1,0,11,3,1,0;                                                     77P     68
510,67,2,1,75,77;                                                     79P     69
116,0.0D0,0.0D0,-2.1D0,0;                                             81P     70
123,0.0D0,0.0D0,-1.0D0;                                               83P     71
192,81,83,4.1D0,87;                                                   85P     72
123,-1.0D0,0.0D0,0.0D0;                                               87P     73
100,0.0D0,0.0D0,0.0D0,-4.1D0,5.02105187650415D-16,-4.1D0,             89P     74
5.02105187650415D-16;                                                 89P     75
124,-1.0D0,0.0D0,0.0D0,0.0D0,0.0D0,-1.0D0,0.0D0,0.0D0,0.0D0,          91P     76
0.0D0,1.0D0,-1.6D0;                                                   91P     77
508,1,0,11,6,0,0;                                                     93P     78
508,1,0,11,5,0,0;                                                     95P     79
510,85,2,1,93,95;                                                     97P     80
116,0.0D0,0.0D0,-2.1D0,0;                                             99P     81
123,0.0D0,0.0D0,-1.0D0;                                              101P     82
192,99,101,2.95D0,105;                                               103P     83
123,-1.0D0,0.0D0,0.0D0;                                              105P     84
100,0.0D0,0.0D0,0.0D0,-2.95D0,3.61270805748469D-16,-2.95D0,          107P     85
3.61270805748469D-16;                                                107P     86
508,1,0,11,7,0,0;                                                    109P     87
100,0.0D0,0.0D0,0.0D0,-2.95D0,3.61270805748469D-16,-2.95D0,          111P     88
3.61270805748469D-16;                                                111P     89
508,1,0,11,8,0,0;                                                    113P     90
510,103,2,1,109,113;                                                 115P     91
116,-3.41880564761969D-17,0.0D0,-1.6D0,0;                            117P     92
123,0.0D0,0.0D0,-1.0D0;                                              119P     93
190,117,119,123;                                                     121P     94
123,-1.0D0,0.0D0,0.0D0;                                              123P     95
508,1,0,11,4,1,0;                                                    125P     96
508,1,0,11,7,1,0;                                                    127P     97
510,121,2,1,125,127;                                                 129P     98
120,135,133,0.0D0,6.28318530717959D0;                                131P     99
110,-4.5D0,0.0D0,-1.575D0,-4.5D0,0.0D0,-2.125D0;                     133P    100
110,0.0D0,0.0D0,-1.575D0,0.0D0,0.0D0,-2.575D0;                       135P    101
100,0.0D0,0.0D0,0.0D0,-4.5D0,5.51091059616309D-16,-4.5D0,            137P    102
5.51091059616309D-16;                                                137P    103
508,1,0,11,9,0,0;                                                    139P    104
100,0.0D0,0.0D0,0.0D0,-4.5D0,5.51091059616309D-16,-4.5D0,            141P    105
5.51091059616309D-16;                                                141P    106
508,1,0,11,10,0,0;                                                   143P    107
510,131,2,1,139,143;                                                 145P    108
116,-2.51521111380092D-16,1.02798428206033D-16,-1.6D0,0;             147P    109
123,0.0D0,0.0D0,-1.0D0;                                              149P    110
190,147,149,153;                                                     151P    111
123,-1.0D0,0.0D0,0.0D0;                                              153P    112
508,1,0,11,9,1,0;                                                    155P    113
508,1,0,11,6,1,0;                                                    157P    114
510,151,2,1,155,157;                                                 159P    115
116,-2.36064120735332D-16,9.25185853854297D-17,-2.1D0,0;             161P    116
123,0.0D0,0.0D0,-1.0D0;                                              163P    117
190,161,163,167;                                                     165P    118
123,-1.0D0,0.0D0,0.0D0;                                              167P    119
100,0.0D0,0.0D0,0.0D0,-5.0D0,6.12323399573677D-16,-5.0D0,            169P    120
6.12323399573677D-16;                                                169P    121
508,1,0,11,11,1,0;                                                   171P    122
508,1,0,11,10,1,0;                                                   173P    123
510,165,2,1,171,173;                                                 175P    124
116,0.0D0,0.0D0,1.95D0,0;                                            177P    125
123,0.0D0,0.0D0,-1.0D0;                                              179P    126
198,177,179,3.5D0,.15D0,183;                                         181P    127
123,-1.0D0,0.0D0,0.0D0;                                              183P    128
100,0.0D0,0.0D0,0.0D0,-3.35D0,4.10256677714363D-16,-3.35D0,          185P    129
4.10256677714363D-16;                                                185P    130
124,-1.0D0,0.0D0,0.0D0,0.0D0,0.0D0,1.0D0,0.0D0,0.0D0,0.0D0,          187P    131
0.0D0,-1.0D0,1.95D0;                                                 187P    132
508,1,0,11,12,1,0;                                                   189P    133
100,0.0D0,0.0D0,0.0D0,-3.5D0,4.28626379701574D-16,-3.5D0,            191P    134
4.28626379701574D-16;                                                191P    135
124,-1.0D0,0.0D0,0.0D0,0.0D0,0.0D0,-1.0D0,0.0D0,0.0D0,0.0D0,         193P    136
0.0D0,1.0D0,2.1D0;                                                   193P    137
508,1,0,11,13,1,0;                                                   195P    138
510,181,2,1,189,195;                                                 197P    139
116,-2.36064120735332D-16,9.25185853854297D-17,2.1D0,0;              199P    140
123,0.0D0,0.0D0,1.0D0;                                               201P    141
190,199,201,205;                                                     203P    142
123,1.0D0,0.0D0,0.0D0;                                               205P    143
100,0.0D0,0.0D0,0.0D0,-3.95D0,4.83735485663205D-16,-3.95D0,          207P    144
4.83735485663205D-16;                                                207P    145
124,-1.0D0,0.0D0,0.0D0,0.0D0,0.0D0,1.0D0,0.0D0,0.0D0,0.0D0,          209P    146
0.0D0,-1.0D0,2.1D0;                                                  209P    147
508,1,0,11,14,0,0;                                                   211P    148
508,1,0,11,13,0,0;                                                   213P    149
510,203,2,1,211,213;                                                 215P    150
120,221,219,0.0D0,6.28318530717959D0;                                217P    151
110,-3.35D0,0.0D0,2.1D0,-3.35D0,0.0D0,1.5825D0;                      219P    152
110,0.0D0,0.0D0,2.1D0,0.0D0,0.0D0,1.1D0;                             221P    153
100,0.0D0,0.0D0,0.0D0,-3.35D0,4.10256677714363D-16,-3.35D0,          223P    154
4.10256677714363D-16;                                                223P    155
124,-1.0D0,0.0D0,0.0D0,0.0D0,0.0D0,1.0D0,0.0D0,0.0D0,0.0D0,          225P    156
0.0D0,-1.0D0,1.6D0;                                                  225P    157
508,1,0,11,15,1,0;                                                   227P    158
508,1,0,11,12,0,0;                                                   229P    159
510,217,2,1,227,229;                                                 231P    160
116,0.0D0,0.0D0,1.95D0,0;                                            233P    161
123,0.0D0,0.0D0,1.0D0;                                               235P    162
198,233,235,3.95D0,.15D0,239;                                        237P    163
123,1.0D0,0.0D0,0.0D0;                                               239P    164
100,0.0D0,0.0D0,0.0D0,-4.1D0,5.02105187650415D-16,-4.1D0,            241P    165
5.02105187650415D-16;                                                241P    166
124,-1.0D0,0.0D0,0.0D0,0.0D0,0.0D0,-1.0D0,0.0D0,0.0D0,0.0D0,         243P    167
0.0D0,1.0D0,1.95D0;                                                  243P    168
508,1,0,11,16,1,0;                                                   245P    169
508,1,0,11,14,1,0;                                                   247P    170
510,237,2,1,245,247;                                                 249P    171
116,0.0D0,0.0D0,2.1D0,0;                                             251P    172
123,0.0D0,0.0D0,-1.0D0;                                              253P    173
192,251,253,4.1D0,257;                                               255P    174
123,-1.0D0,0.0D0,0.0D0;                                              257P    175
100,0.0D0,0.0D0,0.0D0,-4.1D0,5.02105187650415D-16,-4.1D0,            259P    176
5.02105187650415D-16;                                                259P    177
124,-1.0D0,0.0D0,0.0D0,0.0D0,0.0D0,-1.0D0,0.0D0,0.0D0,0.0D0,         261P    178
0.0D0,1.0D0,1.6D0;                                                   261P    179
508,1,0,11,17,1,0;                                                   263P    180
508,1,0,11,16,0,0;                                                   265P    181
510,255,2,1,263,265;                                                 267P    182
116,0.0D0,0.0D0,2.1D0,0;                                             269P    183
123,0.0D0,0.0D0,-1.0D0;                                              271P    184
192,269,271,2.95D0,275;                                              273P    185
123,-1.0D0,0.0D0,0.0D0;                                              275P    186
100,0.0D0,0.0D0,0.0D0,-2.95D0,3.61270805748469D-16,-2.95D0,          277P    187
3.61270805748469D-16;                                                277P    188
508,1,0,11,18,1,0;                                                   279P    189
100,0.0D0,0.0D0,0.0D0,-2.95D0,3.61270805748469D-16,-2.95D0,          281P    190
3.61270805748469D-16;                                                281P    191
508,1,0,11,19,0,0;                                                   283P    192
510,273,2,1,279,283;                                                 285P    193
116,-3.41880564761969D-17,0.0D0,1.6D0,0;                             287P    194
123,0.0D0,0.0D0,1.0D0;                                               289P    195
190,287,289,293;                                                     291P    196
123,1.0D0,0.0D0,0.0D0;                                               293P    197
508,1,0,11,15,0,0;                                                   295P    198
508,1,0,11,18,0,0;                                                   297P    199
510,291,2,1,295,297;                                                 299P    200
120,305,303,0.0D0,6.28318530717959D0;                                301P    201
110,-4.5D0,0.0D0,2.125D0,-4.5D0,0.0D0,1.575D0;                       303P    202
110,0.0D0,0.0D0,2.125D0,0.0D0,0.0D0,1.125D0;                         305P    203
100,0.0D0,0.0D0,0.0D0,-4.5D0,5.51091059616309D-16,-4.5D0,            307P    204
5.51091059616309D-16;                                                307P    205
508,1,0,11,20,1,0;                                                   309P    206
100,0.0D0,0.0D0,0.0D0,-4.5D0,5.51091059616309D-16,-4.5D0,            311P    207
5.51091059616309D-16;                                                311P    208
508,1,0,11,21,0,0;                                                   313P    209
510,301,2,1,309,313;                                                 315P    210
116,-2.51521111380092D-16,1.02798428206033D-16,1.6D0,0;              317P    211
123,0.0D0,0.0D0,1.0D0;                                               319P    212
190,317,319,323;                                                     321P    213
123,1.0D0,0.0D0,0.0D0;                                               323P    214
508,1,0,11,20,0,0;                                                   325P    215
508,1,0,11,17,0,0;                                                   327P    216
510,321,2,1,325,327;                                                 329P    217
116,-2.36064120735332D-16,9.25185853854297D-17,2.1D0,0;              331P    218
123,0.0D0,0.0D0,1.0D0;                                               333P    219
190,331,333,337;                                                     335P    220
123,1.0D0,0.0D0,0.0D0;                                               337P    221
100,0.0D0,0.0D0,0.0D0,-5.0D0,6.12323399573677D-16,-5.0D0,            339P    222
6.12323399573677D-16;                                                339P    223
508,1,0,11,22,1,0;                                                   341P    224
508,1,0,11,21,1,0;                                                   343P    225
510,335,2,1,341,343;                                                 345P    226
120,351,349,0.0D0,6.28318530717959D0;                                347P    227
110,-2.5D0,0.0D0,-2.31D0,-2.5D0,0.0D0,2.31D0;                        349P    228
110,0.0D0,0.0D0,-2.31D0,0.0D0,0.0D0,-1.31D0;                         351P    229
100,0.0D0,0.0D0,0.0D0,-2.5D0,3.06161699786838D-16,-2.5D0,            353P    230
3.06161699786838D-16;                                                353P    231
508,1,0,11,23,0,0;                                                   355P    232
100,0.0D0,0.0D0,0.0D0,-2.5D0,3.06161699786838D-16,-2.5D0,            357P    233
3.06161699786838D-16;                                                357P    234
508,1,0,11,24,0,0;                                                   359P    235
510,347,2,1,355,359;                                                 361P    236
116,-2.36064120735332D-16,9.25185853854297D-17,-2.1D0,0;             363P    237
123,0.0D0,0.0D0,-1.0D0;                                              365P    238
190,363,365,369;                                                     367P    239
123,-1.0D0,0.0D0,0.0D0;                                              369P    240
508,1,0,11,8,1,0;                                                    371P    241
508,1,0,11,23,1,0;                                                   373P    242
510,367,2,1,371,373;                                                 375P    243
116,0.0D0,0.0D0,0.0D0,0;                                             377P    244
123,0.0D0,0.0D0,1.0D0;                                               379P    245
192,377,379,5.0D0,383;                                               381P    246
123,-1.0D0,0.0D0,0.0D0;                                              383P    247
508,1,0,11,11,0,0;                                                   385P    248
508,1,0,11,22,0,0;                                                   387P    249
510,381,2,1,385,387;                                                 389P    250
116,-2.36064120735332D-16,9.25185853854297D-17,2.1D0,0;              391P    251
123,0.0D0,0.0D0,1.0D0;                                               393P    252
190,391,393,397;                                                     395P    253
123,1.0D0,0.0D0,0.0D0;                                               397P    254
508,1,0,11,19,1,0;                                                   399P    255
508,1,0,11,24,1,0;                                                   401P    256
510,395,2,1,399,401;                                                 403P    257
514,24,27,1,45,1,61,1,79,1,97,1,115,1,129,1,145,1,159,1,175,1,       405P    258
197,1,215,1,231,1,249,1,267,1,285,1,299,1,315,1,329,1,345,1,361,     405P    259
1,375,1,389,1,403,1;                                                 405P    260
186,405,1,0;                                                         407P    261
314,87.8431379795074D0,87.4509811401367D0,85.8823537826538D0,;       409P    262
S      1G      4D    410P    262                                        T      1
