                                                                        S      1
,,17HSolid V Wheel.ipt,27HNo Iges File Name specified,22HAutodesk InventG      1
or 2013,37HAutoDesk Inventor Iges Exporter R2013,32,38,6,99,15,17HSolid G      2
V Wheel.ipt,1.0D0,2,2HMM,1,.08D0,15H20140422.180408,.01D0,10000.0D0,4HWoG      3
rk,,11,0,,;                                                             G      4
     406       1       0       0       1       0       0       000000000D      1
     406       0       0       1       3                               0D      2
     116       2       0       0       0       0       0       000010000D      3
     116       0       0       1       0                               0D      4
     123       3       0       0       0       0       0       000010200D      5
     123       0       0       1       0                               0D      6
     194       4       0       0       0       0       0       000010000D      7
     194       0       0       1       1                               0D      8
     123       5       0       0       0       0       0       000010200D      9
     123       0       0       1       0                               0D     10
     504       6       0       0       0       0       0       000010001D     11
     504       0       0       3       1                               0D     12
     502       9       0       0       0       0       0       000010000D     13
     502       0       0       6       1                               0D     14
     100      15       0       0       0       0      17       000010000D     15
     100       0       0       1       0                               0D     16
     124      16       0       0       0       0       0       000000000D     17
     124       0       0       2       0                               0D     18
     508      18       0       0       0       0       0       000010000D     19
     508       0       0       1       1                               0D     20
     100      19       0       0       0       0      23       000010000D     21
     100       0       0       1       0                               0D     22
     124      20       0       0       0       0       0       000000000D     23
     124       0       0       2       0                               0D     24
     508      22       0       0       0       0       0       000010000D     25
     508       0       0       1       1                               0D     26
     510      23       0       0       0       0       0       000010000D     27
     510       0    -177       1       1                               0D     28
     116      24       0       0       0       0       0       000010000D     29
     116       0       0       1       0                               0D     30
     123      25       0       0       0       0       0       000010200D     31
     123       0       0       1       0                               0D     32
     190      26       0       0       0       0       0       000010000D     33
     190       0       0       1       1                               0D     34
     123      27       0       0       0       0       0       000010200D     35
     123       0       0       1       0                               0D     36
     508      28       0       0       0       0       0       000010000D     37
     508       0       0       1       1                               0D     38
     100      29       0       0       0       0      17       000010000D     39
     100       0       0       1       0                               0D     40
     508      30       0       0       0       0       0       000010000D     41
     508       0       0       1       1                               0D     42
     510      31       0       0       0       0       0       000010000D     43
     510       0    -177       1       1                               0D     44
     120      32       0       0       0       0       0       000010000D     45
     120       0       0       1       0                               0D     46
     110      33       0       0       0       0       0       000010000D     47
     110       0       0       2       0                               0D     48
     110      35       0       0       0       0       0       001010000D     49
     110       0       0       2       0                               0D     50
     100      37       0       0       0       0      53       000010000D     51
     100       0       0       1       0                               0D     52
     124      38       0       0       0       0       0       000000000D     53
     124       0       0       2       0                               0D     54
     508      40       0       0       0       0       0       000010000D     55
     508       0       0       1       1                               0D     56
     508      41       0       0       0       0       0       000010000D     57
     508       0       0       1       1                               0D     58
     510      42       0       0       0       0       0       000010000D     59
     510       0    -177       1       1                               0D     60
     116      43       0       0       0       0       0       000010000D     61
     116       0       0       1       0                               0D     62
     123      44       0       0       0       0       0       000010200D     63
     123       0       0       1       0                               0D     64
     190      45       0       0       0       0       0       000010000D     65
     190       0       0       1       1                               0D     66
     123      46       0       0       0       0       0       000010200D     67
     123       0       0       1       0                               0D     68
     508      47       0       0       0       0       0       000010000D     69
     508       0       0       1       1                               0D     70
     100      48       0       0       0       0      53       000010000D     71
     100       0       0       1       0                               0D     72
     508      49       0       0       0       0       0       000010000D     73
     508       0       0       1       1                               0D     74
     510      50       0       0       0       0       0       000010000D     75
     510       0    -177       1       1                               0D     76
     116      51       0       0       0       0       0       000010000D     77
     116       0       0       1       0                               0D     78
     123      52       0       0       0       0       0       000010200D     79
     123       0       0       1       0                               0D     80
     194      53       0       0       0       0       0       000010000D     81
     194       0       0       1       1                               0D     82
     123      54       0       0       0       0       0       000010200D     83
     123       0       0       1       0                               0D     84
     100      55       0       0       0       0      87       000010000D     85
     100       0       0       1       0                               0D     86
     124      56       0       0       0       0       0       000000000D     87
     124       0       0       2       0                               0D     88
     508      58       0       0       0       0       0       000010000D     89
     508       0       0       1       1                               0D     90
     100      59       0       0       0       0      93       000010000D     91
     100       0       0       1       0                               0D     92
     124      60       0       0       0       0       0       000000000D     93
     124       0       0       2       0                               0D     94
     508      62       0       0       0       0       0       000010000D     95
     508       0       0       1       1                               0D     96
     510      63       0       0       0       0       0       000010000D     97
     510       0    -177       1       1                               0D     98
     116      64       0       0       0       0       0       000010000D     99
     116       0       0       1       0                               0D    100
     123      65       0       0       0       0       0       000010200D    101
     123       0       0       1       0                               0D    102
     190      66       0       0       0       0       0       000010000D    103
     190       0       0       1       1                               0D    104
     123      67       0       0       0       0       0       000010200D    105
     123       0       0       1       0                               0D    106
     508      68       0       0       0       0       0       000010000D    107
     508       0       0       1       1                               0D    108
     100      69       0       0       0       0      87       000010000D    109
     100       0       0       1       0                               0D    110
     508      70       0       0       0       0       0       000010000D    111
     508       0       0       1       1                               0D    112
     510      71       0       0       0       0       0       000010000D    113
     510       0    -177       1       1                               0D    114
     120      72       0       0       0       0       0       000010000D    115
     120       0       0       1       0                               0D    116
     110      73       0       0       0       0       0       000010000D    117
     110       0       0       2       0                               0D    118
     110      75       0       0       0       0       0       001010000D    119
     110       0       0       1       0                               0D    120
     100      76       0       0       0       0     123       000010000D    121
     100       0       0       1       0                               0D    122
     124      77       0       0       0       0       0       000000000D    123
     124       0       0       2       0                               0D    124
     508      79       0       0       0       0       0       000010000D    125
     508       0       0       1       1                               0D    126
     508      80       0       0       0       0       0       000010000D    127
     508       0       0       1       1                               0D    128
     510      81       0       0       0       0       0       000010000D    129
     510       0    -177       1       1                               0D    130
     116      82       0       0       0       0       0       000010000D    131
     116       0       0       1       0                               0D    132
     123      83       0       0       0       0       0       000010200D    133
     123       0       0       1       0                               0D    134
     190      84       0       0       0       0       0       000010000D    135
     190       0       0       1       1                               0D    136
     123      85       0       0       0       0       0       000010200D    137
     123       0       0       1       0                               0D    138
     508      86       0       0       0       0       0       000010000D    139
     508       0       0       1       1                               0D    140
     100      87       0       0       0       0     123       000010000D    141
     100       0       0       1       0                               0D    142
     508      88       0       0       0       0       0       000010000D    143
     508       0       0       1       1                               0D    144
     510      89       0       0       0       0       0       000010000D    145
     510       0    -177       1       1                               0D    146
     120      90       0       0       0       0       0       000010000D    147
     120       0       0       1       0                               0D    148
     110      91       0       0       0       0       0       000010000D    149
     110       0       0       2       0                               0D    150
     110      93       0       0       0       0       0       001010000D    151
     110       0       0       2       0                               0D    152
     508      95       0       0       0       0       0       000010000D    153
     508       0       0       1       1                               0D    154
     508      96       0       0       0       0       0       000010000D    155
     508       0       0       1       1                               0D    156
     510      97       0       0       0       0       0       000010000D    157
     510       0    -177       1       1                               0D    158
     116      98       0       0       0       0       0       000010000D    159
     116       0       0       1       0                               0D    160
     123      99       0       0       0       0       0       000010200D    161
     123       0       0       1       0                               0D    162
     192     100       0       0       0       0       0       000010000D    163
     192       0       0       1       1                               0D    164
     123     101       0       0       0       0       0       000010200D    165
     123       0       0       1       0                               0D    166
     508     102       0       0       0       0       0       000010000D    167
     508       0       0       1       1                               0D    168
     508     103       0       0       0       0       0       000010000D    169
     508       0       0       1       1                               0D    170
     510     104       0       0       0       0       0       000010000D    171
     510       0    -177       1       1                               0D    172
     514     105       0       0       0       0       0       000010000D    173
     514       0       0       1       1                               0D    174
     186     106       0       0       1       0       0       000000000D    175
     186       0       0       1       0                  Solid1       0D    176
     314     107       0       0       0       0       0       000000000D    177
     314       0       1       1       0                               0D    178
406,2,0,13HSolid V Wheel;                                              1P      1
116,0.0D0,0.0D0,4.03000000000001D0,0;                                  3P      2
123,0.0D0,0.0D0,-1.0D0;                                                5P      3
194,3,5,10.8575D0,45.0659329737886D0,9;                                7P      4
123,-1.0D0,0.0D0,0.0D0;                                                9P      5
504,10,15,13,1,13,1,21,13,2,13,2,39,13,3,13,3,51,13,4,13,4,71,        11P      6
13,5,13,5,85,13,6,13,6,91,13,7,13,7,109,13,8,13,8,121,13,9,13,9,      11P      7
141,13,10,13,10;                                                      11P      8
502,10,-9.77D0,0.0D0,5.11500000000001D0,-11.945D0,0.0D0,2.945D0,      13P      9
-7.987D0,0.0D0,5.11500000000001D0,-7.987D0,0.0D0,                     13P     10
.500000000000006D0,-6.945D0,0.0D0,.500000000000006D0,-9.77D0,         13P     11
0.0D0,-5.115D0,-11.945D0,0.0D0,-2.94499999999999D0,-7.987D0,          13P     12
0.0D0,-5.11499999999999D0,-7.987D0,0.0D0,-.499999999999995D0,         13P     13
-6.945D0,0.0D0,-.499999999999996D0;                                   13P     14
100,0.0D0,0.0D0,0.0D0,9.77D0,0.0D0,9.77D0,0.0D0;                      15P     15
124,-1.0D0,0.0D0,0.0D0,0.0D0,0.0D0,1.0D0,0.0D0,0.0D0,0.0D0,           17P     16
0.0D0,-1.0D0,5.11500000000001D0;                                      17P     17
508,1,0,11,1,1,0;                                                     19P     18
100,0.0D0,0.0D0,0.0D0,11.945D0,0.0D0,11.945D0,0.0D0;                  21P     19
124,-1.0D0,0.0D0,0.0D0,0.0D0,0.0D0,1.0D0,0.0D0,0.0D0,0.0D0,           23P     20
0.0D0,-1.0D0,2.945D0;                                                 23P     21
508,1,0,11,2,0,0;                                                     25P     22
510,7,2,1,19,25;                                                      27P     23
116,-8.8785D0,0.0D0,5.11500000000001D0,0;                             29P     24
123,0.0D0,0.0D0,1.0D0;                                                31P     25
190,29,31,35;                                                         33P     26
123,1.0D0,0.0D0,0.0D0;                                                35P     27
508,1,0,11,1,0,0;                                                     37P     28
100,0.0D0,0.0D0,0.0D0,7.987D0,0.0D0,7.987D0,0.0D0;                    39P     29
508,1,0,11,3,1,0;                                                     41P     30
510,33,2,1,37,41;                                                     43P     31
120,49,47,0.0D0,6.28318530717959D0;                                   45P     32
110,-7.987D0,0.0D0,5.34575000000001D0,-7.987D0,0.0D0,                 47P     33
.269250000000006D0;                                                   47P     34
110,0.0D0,0.0D0,5.34575000000001D0,0.0D0,0.0D0,                       49P     35
4.34575000000001D0;                                                   49P     36
100,0.0D0,0.0D0,0.0D0,7.987D0,0.0D0,7.987D0,0.0D0;                    51P     37
124,-1.0D0,0.0D0,0.0D0,0.0D0,0.0D0,1.0D0,0.0D0,0.0D0,0.0D0,           53P     38
0.0D0,-1.0D0,.500000000000006D0;                                      53P     39
508,1,0,11,4,1,0;                                                     55P     40
508,1,0,11,3,0,0;                                                     57P     41
510,45,2,1,55,57;                                                     59P     42
116,-7.466D0,0.0D0,.500000000000006D0,0;                              61P     43
123,0.0D0,0.0D0,1.0D0;                                                63P     44
190,61,63,67;                                                         65P     45
123,1.0D0,0.0D0,0.0D0;                                                67P     46
508,1,0,11,4,0,0;                                                     69P     47
100,0.0D0,0.0D0,0.0D0,6.945D0,0.0D0,6.945D0,0.0D0;                    71P     48
508,1,0,11,5,1,0;                                                     73P     49
510,65,2,1,69,73;                                                     75P     50
116,0.0D0,0.0D0,-4.02999999999999D0,0;                                77P     51
123,0.0D0,0.0D0,1.0D0;                                                79P     52
194,77,79,10.8575D0,45.0659329737886D0,83;                            81P     53
123,-1.0D0,0.0D0,0.0D0;                                               83P     54
100,0.0D0,0.0D0,0.0D0,9.77D0,0.0D0,9.77D0,0.0D0;                      85P     55
124,-1.0D0,0.0D0,0.0D0,0.0D0,0.0D0,1.0D0,0.0D0,0.0D0,0.0D0,           87P     56
0.0D0,-1.0D0,-5.115D0;                                                87P     57
508,1,0,11,6,0,0;                                                     89P     58
100,0.0D0,0.0D0,0.0D0,11.945D0,0.0D0,11.945D0,0.0D0;                  91P     59
124,-1.0D0,0.0D0,0.0D0,0.0D0,0.0D0,1.0D0,0.0D0,0.0D0,0.0D0,           93P     60
0.0D0,-1.0D0,-2.94499999999999D0;                                     93P     61
508,1,0,11,7,1,0;                                                     95P     62
510,81,2,1,89,95;                                                     97P     63
116,-8.8785D0,0.0D0,-5.115D0,0;                                       99P     64
123,0.0D0,0.0D0,-1.0D0;                                              101P     65
190,99,101,105;                                                      103P     66
123,-1.0D0,0.0D0,0.0D0;                                              105P     67
508,1,0,11,6,1,0;                                                    107P     68
100,0.0D0,0.0D0,0.0D0,7.987D0,0.0D0,7.987D0,0.0D0;                   109P     69
508,1,0,11,8,0,0;                                                    111P     70
510,103,2,1,107,111;                                                 113P     71
120,119,117,0.0D0,6.28318530717959D0;                                115P     72
110,-7.987D0,0.0D0,-.269249999999996D0,-7.987D0,0.0D0,               117P     73
-5.34575D0;                                                          117P     74
110,0.0D0,0.0D0,-.269249999999996D0,0.0D0,0.0D0,-1.26925D0;          119P     75
100,0.0D0,0.0D0,0.0D0,7.987D0,0.0D0,7.987D0,0.0D0;                   121P     76
124,-1.0D0,0.0D0,0.0D0,0.0D0,0.0D0,1.0D0,0.0D0,0.0D0,0.0D0,          123P     77
0.0D0,-1.0D0,-.499999999999995D0;                                    123P     78
508,1,0,11,9,0,0;                                                    125P     79
508,1,0,11,8,1,0;                                                    127P     80
510,115,2,1,125,127;                                                 129P     81
116,-7.466D0,0.0D0,-.499999999999996D0,0;                            131P     82
123,0.0D0,0.0D0,-1.0D0;                                              133P     83
190,131,133,137;                                                     135P     84
123,-1.0D0,0.0D0,0.0D0;                                              137P     85
508,1,0,11,9,1,0;                                                    139P     86
100,0.0D0,0.0D0,0.0D0,6.945D0,0.0D0,6.945D0,0.0D0;                   141P     87
508,1,0,11,10,0,0;                                                   143P     88
510,135,2,1,139,143;                                                 145P     89
120,151,149,0.0D0,6.28318530717959D0;                                147P     90
110,-6.945D0,0.0D0,.550000000000007D0,-6.945D0,0.0D0,                149P     91
-.549999999999996D0;                                                 149P     92
110,0.0D0,0.0D0,.550000000000007D0,0.0D0,0.0D0,                      151P     93
-.449999999999993D0;                                                 151P     94
508,1,0,11,5,0,0;                                                    153P     95
508,1,0,11,10,1,0;                                                   155P     96
510,147,2,1,153,155;                                                 157P     97
116,0.0D0,0.0D0,-1.47249999999999D0,0;                               159P     98
123,0.0D0,0.0D0,-1.0D0;                                              161P     99
192,159,161,11.945D0,165;                                            163P    100
123,-1.0D0,0.0D0,0.0D0;                                              165P    101
508,1,0,11,2,1,0;                                                    167P    102
508,1,0,11,7,0,0;                                                    169P    103
510,163,2,1,167,169;                                                 171P    104
514,10,27,1,43,1,59,1,75,1,97,1,113,1,129,1,145,1,157,1,171,1;       173P    105
186,173,1,0;                                                         175P    106
314,1.99999995529652D0,1.99999995529652D0,1.99999995529652D0,;       177P    107
S      1G      4D    178P    107                                        T      1
