                                                                        S      1
,,23HV-Slot Idler Pulley.ipt,27HNo Iges File Name specified,22HAutodesk G      1
Inventor 2013,37HAutoDesk Inventor Iges Exporter R2013,32,38,6,99,15,   G      2
23HV-Slot Idler Pulley.ipt,1.0D0,2,2HMM,1,.08D0,15H20140422.180409,     G      3
.01D0,10000.0D0,4HWork,,11,0,,;                                         G      4
     406       1       0       0       1       0       0       000000000D      1
     406       0       0       1       3                               0D      2
     120       2       0       0       0       0       0       000010000D      3
     120       0       0       1       0                               0D      4
     110       3       0       0       0       0       0       000010000D      5
     110       0       0       1       0                               0D      6
     110       4       0       0       0       0       0       001010000D      7
     110       0       0       1       0                               0D      8
     504       5       0       0       0       0       0       000010001D      9
     504       0       0       4       1                               0D     10
     502       9       0       0       0       0       0       000010000D     11
     502       0       0       5       1                               0D     12
     100      14       0       0       0       0      15       000010000D     13
     100       0       0       1       0                               0D     14
     124      15       0       0       0       0       0       000000000D     15
     124       0       0       2       0                               0D     16
     508      17       0       0       0       0       0       000010000D     17
     508       0       0       1       1                               0D     18
     100      18       0       0       0       0      21       000010000D     19
     100       0       0       1       0                               0D     20
     124      19       0       0       0       0       0       000000000D     21
     124       0       0       2       0                               0D     22
     508      21       0       0       0       0       0       000010000D     23
     508       0       0       1       1                               0D     24
     510      22       0       0       0       0       0       000010000D     25
     510       0    -241       1       1                               0D     26
     116      23       0       0       0       0       0       000010000D     27
     116       0       0       1       0                               0D     28
     123      24       0       0       0       0       0       000010200D     29
     123       0       0       1       0                               0D     30
     190      25       0       0       0       0       0       000010000D     31
     190       0       0       1       1                               0D     32
     123      26       0       0       0       0       0       000010200D     33
     123       0       0       1       0                               0D     34
     100      27       0       0       0       0      15       000010000D     35
     100       0       0       1       0                               0D     36
     508      28       0       0       0       0       0       000010000D     37
     508       0       0       1       1                               0D     38
     508      29       0       0       0       0       0       000010000D     39
     508       0       0       1       1                               0D     40
     510      30       0       0       0       0       0       000010000D     41
     510       0    -241       1       1                               0D     42
     120      31       0       0       0       0       0       000010000D     43
     120       0       0       1       0                               0D     44
     110      32       0       0       0       0       0       000010000D     45
     110       0       0       1       0                               0D     46
     110      33       0       0       0       0       0       001010000D     47
     110       0       0       1       0                               0D     48
     100      34       0       0       0       0      51       000010000D     49
     100       0       0       1       0                               0D     50
     124      35       0       0       0       0       0       000000000D     51
     124       0       0       2       0                               0D     52
     508      37       0       0       0       0       0       000010000D     53
     508       0       0       1       1                               0D     54
     508      38       0       0       0       0       0       000010000D     55
     508       0       0       1       1                               0D     56
     510      39       0       0       0       0       0       000010000D     57
     510       0    -241       1       1                               0D     58
     120      40       0       0       0       0       0       000010000D     59
     120       0       0       1       0                               0D     60
     110      41       0       0       0       0       0       000010000D     61
     110       0       0       1       0                               0D     62
     110      42       0       0       0       0       0       001010000D     63
     110       0       0       1       0                               0D     64
     100      43       0       0       0       0      67       000010000D     65
     100       0       0       1       0                               0D     66
     124      44       0       0       0       0       0       000000000D     67
     124       0       0       2       0                               0D     68
     508      46       0       0       0       0       0       000010000D     69
     508       0       0       1       1                               0D     70
     508      47       0       0       0       0       0       000010000D     71
     508       0       0       1       1                               0D     72
     510      48       0       0       0       0       0       000010000D     73
     510       0    -241       1       1                               0D     74
     116      49       0       0       0       0       0       000010000D     75
     116       0       0       1       0                               0D     76
     123      50       0       0       0       0       0       000010200D     77
     123       0       0       1       0                               0D     78
     190      51       0       0       0       0       0       000010000D     79
     190       0       0       1       1                               0D     80
     123      52       0       0       0       0       0       000010200D     81
     123       0       0       1       0                               0D     82
     100      53       0       0       0       0      67       000010000D     83
     100       0       0       1       0                               0D     84
     508      54       0       0       0       0       0       000010000D     85
     508       0       0       1       1                               0D     86
     508      55       0       0       0       0       0       000010000D     87
     508       0       0       1       1                               0D     88
     510      56       0       0       0       0       0       000010000D     89
     510       0    -241       1       1                               0D     90
     116      57       0       0       0       0       0       000010000D     91
     116       0       0       1       0                               0D     92
     123      58       0       0       0       0       0       000010200D     93
     123       0       0       1       0                               0D     94
     192      59       0       0       0       0       0       000010000D     95
     192       0       0       1       1                               0D     96
     123      60       0       0       0       0       0       000010200D     97
     123       0       0       1       0                               0D     98
     100      61       0       0       0       0     101       000010000D     99
     100       0       0       1       0                               0D    100
     124      62       0       0       0       0       0       000000000D    101
     124       0       0       2       0                               0D    102
     508      64       0       0       0       0       0       000010000D    103
     508       0       0       1       1                               0D    104
     508      65       0       0       0       0       0       000010000D    105
     508       0       0       1       1                               0D    106
     510      66       0       0       0       0       0       000010000D    107
     510       0    -241       1       1                               0D    108
     116      67       0       0       0       0       0       000010000D    109
     116       0       0       1       0                               0D    110
     123      68       0       0       0       0       0       000010200D    111
     123       0       0       1       0                               0D    112
     190      69       0       0       0       0       0       000010000D    113
     190       0       0       1       1                               0D    114
     123      70       0       0       0       0       0       000010200D    115
     123       0       0       1       0                               0D    116
     508      71       0       0       0       0       0       000010000D    117
     508       0       0       1       1                               0D    118
     100      72       0       0       0       0     101       000010000D    119
     100       0       0       1       0                               0D    120
     508      73       0       0       0       0       0       000010000D    121
     508       0       0       1       1                               0D    122
     510      74       0       0       0       0       0       000010000D    123
     510       0    -241       1       1                               0D    124
     116      75       0       0       0       0       0       000010000D    125
     116       0       0       1       0                               0D    126
     123      76       0       0       0       0       0       000010200D    127
     123       0       0       1       0                               0D    128
     192      77       0       0       0       0       0       000010000D    129
     192       0       0       1       1                               0D    130
     123      78       0       0       0       0       0       000010200D    131
     123       0       0       1       0                               0D    132
     508      79       0       0       0       0       0       000010000D    133
     508       0       0       1       1                               0D    134
     100      80       0       0       0       0     137       000010000D    135
     100       0       0       1       0                               0D    136
     124      81       0       0       0       0       0       000000000D    137
     124       0       0       2       0                               0D    138
     508      83       0       0       0       0       0       000010000D    139
     508       0       0       1       1                               0D    140
     510      84       0       0       0       0       0       000010000D    141
     510       0    -241       1       1                               0D    142
     116      85       0       0       0       0       0       000010000D    143
     116       0       0       1       0                               0D    144
     123      86       0       0       0       0       0       000010200D    145
     123       0       0       1       0                               0D    146
     190      87       0       0       0       0       0       000010000D    147
     190       0       0       1       1                               0D    148
     123      88       0       0       0       0       0       000010200D    149
     123       0       0       1       0                               0D    150
     100      89       0       0       0       0     137       000010000D    151
     100       0       0       1       0                               0D    152
     508      90       0       0       0       0       0       000010000D    153
     508       0       0       1       1                               0D    154
     508      91       0       0       0       0       0       000010000D    155
     508       0       0       1       1                               0D    156
     510      92       0       0       0       0       0       000010000D    157
     510       0    -241       1       1                               0D    158
     116      93       0       0       0       0       0       000010000D    159
     116       0       0       1       0                               0D    160
     123      94       0       0       0       0       0       000010200D    161
     123       0       0       1       0                               0D    162
     192      95       0       0       0       0       0       000010000D    163
     192       0       0       1       1                               0D    164
     123      96       0       0       0       0       0       000010200D    165
     123       0       0       1       0                               0D    166
     100      97       0       0       0       0     169       000010000D    167
     100       0       0       1       0                               0D    168
     124      98       0       0       0       0       0       000000000D    169
     124       0       0       2       0                               0D    170
     508     100       0       0       0       0       0       000010000D    171
     508       0       0       1       1                               0D    172
     508     101       0       0       0       0       0       000010000D    173
     508       0       0       1       1                               0D    174
     510     102       0       0       0       0       0       000010000D    175
     510       0    -241       1       1                               0D    176
     116     103       0       0       0       0       0       000010000D    177
     116       0       0       1       0                               0D    178
     123     104       0       0       0       0       0       000010200D    179
     123       0       0       1       0                               0D    180
     190     105       0       0       0       0       0       000010000D    181
     190       0       0       1       1                               0D    182
     123     106       0       0       0       0       0       000010200D    183
     123       0       0       1       0                               0D    184
     508     107       0       0       0       0       0       000010000D    185
     508       0       0       1       1                               0D    186
     100     108       0       0       0       0     169       000010000D    187
     100       0       0       1       0                               0D    188
     508     109       0       0       0       0       0       000010000D    189
     508       0       0       1       1                               0D    190
     510     110       0       0       0       0       0       000010000D    191
     510       0    -241       1       1                               0D    192
     120     111       0       0       0       0       0       000010000D    193
     120       0       0       1       0                               0D    194
     110     112       0       0       0       0       0       000010000D    195
     110       0       0       1       0                               0D    196
     110     113       0       0       0       0       0       001010000D    197
     110       0       0       1       0                               0D    198
     100     114       0       0       0       0     201       000010000D    199
     100       0       0       1       0                               0D    200
     124     115       0       0       0       0       0       000000000D    201
     124       0       0       2       0                               0D    202
     508     117       0       0       0       0       0       000010000D    203
     508       0       0       1       1                               0D    204
     508     118       0       0       0       0       0       000010000D    205
     508       0       0       1       1                               0D    206
     510     119       0       0       0       0       0       000010000D    207
     510       0    -241       1       1                               0D    208
     120     120       0       0       0       0       0       000010000D    209
     120       0       0       1       0                               0D    210
     110     121       0       0       0       0       0       000010000D    211
     110       0       0       1       0                               0D    212
     110     122       0       0       0       0       0       001010000D    213
     110       0       0       1       0                               0D    214
     100     123       0       0       0       0      21       000010000D    215
     100       0       0       1       0                               0D    216
     508     124       0       0       0       0       0       000010000D    217
     508       0       0       1       1                               0D    218
     508     125       0       0       0       0       0       000010000D    219
     508       0       0       1       1                               0D    220
     510     126       0       0       0       0       0       000010000D    221
     510       0    -241       1       1                               0D    222
     116     127       0       0       0       0       0       000010000D    223
     116       0       0       1       0                               0D    224
     123     128       0       0       0       0       0       000010200D    225
     123       0       0       1       0                               0D    226
     190     129       0       0       0       0       0       000010000D    227
     190       0       0       1       1                               0D    228
     123     130       0       0       0       0       0       000010200D    229
     123       0       0       1       0                               0D    230
     508     131       0       0       0       0       0       000010000D    231
     508       0       0       1       1                               0D    232
     508     132       0       0       0       0       0       000010000D    233
     508       0       0       1       1                               0D    234
     510     133       0       0       0       0       0       000010000D    235
     510       0    -241       1       1                               0D    236
     514     134       0       0       0       0       0       000010000D    237
     514       0       0       2       1                               0D    238
     186     136       0       0       1       0       0       000000000D    239
     186       0       0       1       0                  Solid1       0D    240
     314     137       0       0       0       0       0       000000000D    241
     314       0       1       1       0                               0D    242
406,2,0,19HV-Slot Idler Pulley;                                        1P      1
120,7,5,0.0D0,6.28318530717959D0;                                      3P      2
110,-1.705D0,6.945D0,0.0D0,1.705D0,6.945D0,0.0D0;                      5P      3
110,-1.705D0,0.0D0,0.0D0,-.704999999999999D0,0.0D0,0.0D0;              7P      4
504,14,13,11,1,11,1,19,11,2,11,2,35,11,3,11,3,49,11,4,11,4,65,         9P      5
11,5,11,5,83,11,6,11,6,99,11,7,11,7,119,11,8,11,8,135,11,9,11,9,       9P      6
151,11,10,11,10,167,11,11,11,11,187,11,12,11,12,199,11,13,11,13,       9P      7
215,11,14,11,14;                                                       9P      8
502,14,-1.55D0,6.945D0,0.0D0,1.55D0,6.945D0,0.0D0,-1.55D0,            11P      9
7.987D0,0.0D0,-6.05D0,7.987D0,0.0D0,-6.35D0,8.287D0,0.0D0,            11P     10
-6.35D0,11.0D0,0.0D0,-4.75D0,11.0D0,0.0D0,-4.75D0,8.75D0,0.0D0,       11P     11
4.75D0,8.75D0,0.0D0,4.75D0,11.0D0,0.0D0,6.35D0,11.0D0,0.0D0,          11P     12
6.35D0,8.287D0,0.0D0,6.05D0,7.987D0,0.0D0,1.55D0,7.987D0,0.0D0;       11P     13
100,0.0D0,0.0D0,0.0D0,6.945D0,0.0D0,6.945D0,0.0D0;                    13P     14
124,0.0D0,0.0D0,1.0D0,-1.55D0,1.0D0,0.0D0,0.0D0,0.0D0,0.0D0,          15P     15
1.0D0,0.0D0,0.0D0;                                                    15P     16
508,1,0,9,1,0,0;                                                      17P     17
100,0.0D0,0.0D0,0.0D0,6.945D0,0.0D0,6.945D0,0.0D0;                    19P     18
124,0.0D0,0.0D0,1.0D0,1.55D0,1.0D0,0.0D0,0.0D0,0.0D0,0.0D0,           21P     19
1.0D0,0.0D0,0.0D0;                                                    21P     20
508,1,0,9,2,1,0;                                                      23P     21
510,3,2,1,17,23;                                                      25P     22
116,-1.55D0,7.466D0,0.0D0,0;                                          27P     23
123,-1.0D0,0.0D0,0.0D0;                                               29P     24
190,27,29,33;                                                         31P     25
123,0.0D0,0.0D0,1.0D0;                                                33P     26
100,0.0D0,0.0D0,0.0D0,7.987D0,0.0D0,7.987D0,0.0D0;                    35P     27
508,1,0,9,3,0,0;                                                      37P     28
508,1,0,9,1,1,0;                                                      39P     29
510,31,2,1,37,39;                                                     41P     30
120,47,45,0.0D0,6.28318530717959D0;                                   43P     31
110,-6.275D0,7.987D0,0.0D0,-1.325D0,7.987D0,0.0D0;                    45P     32
110,-6.275D0,0.0D0,0.0D0,-5.275D0,0.0D0,0.0D0;                        47P     33
100,0.0D0,0.0D0,0.0D0,7.987D0,0.0D0,7.987D0,0.0D0;                    49P     34
124,0.0D0,0.0D0,1.0D0,-6.05D0,1.0D0,0.0D0,0.0D0,0.0D0,0.0D0,          51P     35
1.0D0,0.0D0,0.0D0;                                                    51P     36
508,1,0,9,4,0,0;                                                      53P     37
508,1,0,9,3,1,0;                                                      55P     38
510,43,2,1,53,55;                                                     57P     39
120,63,61,0.0D0,6.28318530717959D0;                                   59P     40
110,-6.035D0,7.972D0,0.0D0,-6.365D0,8.302D0,0.0D0;                    61P     41
110,-6.035D0,0.0D0,0.0D0,-7.035D0,0.0D0,0.0D0;                        63P     42
100,0.0D0,0.0D0,0.0D0,8.287D0,0.0D0,8.287D0,0.0D0;                    65P     43
124,0.0D0,0.0D0,1.0D0,-6.35D0,1.0D0,0.0D0,0.0D0,0.0D0,0.0D0,          67P     44
1.0D0,0.0D0,0.0D0;                                                    67P     45
508,1,0,9,5,0,0;                                                      69P     46
508,1,0,9,4,1,0;                                                      71P     47
510,59,2,1,69,71;                                                     73P     48
116,-6.35D0,9.6435D0,0.0D0,0;                                         75P     49
123,-1.0D0,0.0D0,0.0D0;                                               77P     50
190,75,77,81;                                                         79P     51
123,0.0D0,0.0D0,1.0D0;                                                81P     52
100,0.0D0,0.0D0,0.0D0,11.0D0,0.0D0,11.0D0,0.0D0;                      83P     53
508,1,0,9,6,0,0;                                                      85P     54
508,1,0,9,5,1,0;                                                      87P     55
510,79,2,1,85,87;                                                     89P     56
116,-5.55D0,0.0D0,0.0D0,0;                                            91P     57
123,1.0D0,0.0D0,0.0D0;                                                93P     58
192,91,93,11.0D0,97;                                                  95P     59
123,0.0D0,1.0D0,0.0D0;                                                97P     60
100,0.0D0,0.0D0,0.0D0,11.0D0,0.0D0,11.0D0,0.0D0;                      99P     61
124,0.0D0,0.0D0,1.0D0,-4.75D0,1.0D0,0.0D0,0.0D0,0.0D0,0.0D0,         101P     62
1.0D0,0.0D0,0.0D0;                                                   101P     63
508,1,0,9,7,0,0;                                                     103P     64
508,1,0,9,6,1,0;                                                     105P     65
510,95,2,1,103,105;                                                  107P     66
116,-4.75D0,9.875D0,0.0D0,0;                                         109P     67
123,1.0D0,0.0D0,0.0D0;                                               111P     68
190,109,111,115;                                                     113P     69
123,0.0D0,0.0D0,-1.0D0;                                              115P     70
508,1,0,9,7,1,0;                                                     117P     71
100,0.0D0,0.0D0,0.0D0,8.75D0,0.0D0,8.75D0,0.0D0;                     119P     72
508,1,0,9,8,0,0;                                                     121P     73
510,113,2,1,117,121;                                                 123P     74
116,2.375D0,0.0D0,0.0D0,0;                                           125P     75
123,1.0D0,0.0D0,0.0D0;                                               127P     76
192,125,127,8.75D0,131;                                              129P     77
123,0.0D0,1.0D0,0.0D0;                                               131P     78
508,1,0,9,8,1,0;                                                     133P     79
100,0.0D0,0.0D0,0.0D0,8.75D0,0.0D0,8.75D0,0.0D0;                     135P     80
124,0.0D0,0.0D0,1.0D0,4.75D0,1.0D0,0.0D0,0.0D0,0.0D0,0.0D0,          137P     81
1.0D0,0.0D0,0.0D0;                                                   137P     82
508,1,0,9,9,0,0;                                                     139P     83
510,129,2,1,133,139;                                                 141P     84
116,4.75D0,9.875D0,0.0D0,0;                                          143P     85
123,-1.0D0,0.0D0,0.0D0;                                              145P     86
190,143,145,149;                                                     147P     87
123,0.0D0,0.0D0,1.0D0;                                               149P     88
100,0.0D0,0.0D0,0.0D0,11.0D0,0.0D0,11.0D0,0.0D0;                     151P     89
508,1,0,9,10,0,0;                                                    153P     90
508,1,0,9,9,1,0;                                                     155P     91
510,147,2,1,153,155;                                                 157P     92
116,5.55D0,0.0D0,0.0D0,0;                                            159P     93
123,1.0D0,0.0D0,0.0D0;                                               161P     94
192,159,161,11.0D0,165;                                              163P     95
123,0.0D0,1.0D0,0.0D0;                                               165P     96
100,0.0D0,0.0D0,0.0D0,11.0D0,0.0D0,11.0D0,0.0D0;                     167P     97
124,0.0D0,0.0D0,1.0D0,6.35D0,1.0D0,0.0D0,0.0D0,0.0D0,0.0D0,          169P     98
1.0D0,0.0D0,0.0D0;                                                   169P     99
508,1,0,9,11,0,0;                                                    171P    100
508,1,0,9,10,1,0;                                                    173P    101
510,163,2,1,171,173;                                                 175P    102
116,6.35D0,9.6435D0,0.0D0,0;                                         177P    103
123,1.0D0,0.0D0,0.0D0;                                               179P    104
190,177,179,183;                                                     181P    105
123,0.0D0,0.0D0,-1.0D0;                                              183P    106
508,1,0,9,11,1,0;                                                    185P    107
100,0.0D0,0.0D0,0.0D0,8.287D0,0.0D0,8.287D0,0.0D0;                   187P    108
508,1,0,9,12,0,0;                                                    189P    109
510,181,2,1,185,189;                                                 191P    110
120,197,195,0.0D0,6.28318530717959D0;                                193P    111
110,6.035D0,7.972D0,0.0D0,6.365D0,8.302D0,0.0D0;                     195P    112
110,6.035D0,0.0D0,0.0D0,7.035D0,0.0D0,0.0D0;                         197P    113
100,0.0D0,0.0D0,0.0D0,7.987D0,0.0D0,7.987D0,0.0D0;                   199P    114
124,0.0D0,0.0D0,1.0D0,6.05D0,1.0D0,0.0D0,0.0D0,0.0D0,0.0D0,          201P    115
1.0D0,0.0D0,0.0D0;                                                   201P    116
508,1,0,9,13,0,0;                                                    203P    117
508,1,0,9,12,1,0;                                                    205P    118
510,193,2,1,203,205;                                                 207P    119
120,213,211,0.0D0,6.28318530717959D0;                                209P    120
110,1.325D0,7.987D0,0.0D0,6.275D0,7.987D0,0.0D0;                     211P    121
110,1.325D0,0.0D0,0.0D0,2.325D0,0.0D0,0.0D0;                         213P    122
100,0.0D0,0.0D0,0.0D0,7.987D0,0.0D0,7.987D0,0.0D0;                   215P    123
508,1,0,9,14,0,0;                                                    217P    124
508,1,0,9,13,1,0;                                                    219P    125
510,209,2,1,217,219;                                                 221P    126
116,1.55D0,7.466D0,0.0D0,0;                                          223P    127
123,1.0D0,0.0D0,0.0D0;                                               225P    128
190,223,225,229;                                                     227P    129
123,0.0D0,0.0D0,-1.0D0;                                              229P    130
508,1,0,9,14,1,0;                                                    231P    131
508,1,0,9,2,0,0;                                                     233P    132
510,227,2,1,231,233;                                                 235P    133
514,14,25,1,41,1,57,1,73,1,89,1,107,1,123,1,141,1,157,1,175,1,       237P    134
191,1,207,1,221,1,235,1;                                             237P    135
186,237,1,0;                                                         239P    136
314,1.99999995529652D0,1.99999995529652D0,1.99999995529652D0,;       241P    137
S      1G      4D    242P    137                                        T      1
