                                                                        S      1
,,28HMicro Limit Switch Plate.ipt,27HNo Iges File Name specified,22HAutoG      1
desk Inventor 2013,37HAutoDesk Inventor Iges Exporter R2013,32,38,6,99, G      2
15,28HMicro Limit Switch Plate.ipt,1.0D0,2,2HMM,1,.08D0,15H20140422.1804G      3
24,.01D0,10000.0D0,4HWork,,11,0,,;                                      G      4
     406       1       0       0       1       0       0       000000000D      1
     406       0       0       1       3                               0D      2
     116       2       0       0       0       0       0       000010000D      3
     116       0       0       1       0                               0D      4
     123       3       0       0       0       0       0       000010200D      5
     123       0       0       1       0                               0D      6
     190       4       0       0       0       0       0       000010000D      7
     190       0       0       1       1                               0D      8
     123       5       0       0       0       0       0       000010200D      9
     123       0       0       1       0                               0D     10
     504       6       0       0       0       0       0       000010001D     11
     504       0       0       8       1                               0D     12
     502      14       0       0       0       0       0       000010000D     13
     502       0       0      12       1                               0D     14
     110      26       0       0       0       0       0       000010000D     15
     110       0       0       1       0                               0D     16
     110      27       0       0       0       0       0       000010000D     17
     110       0       0       1       0                               0D     18
     110      28       0       0       0       0       0       000010000D     19
     110       0       0       1       0                               0D     20
     110      29       0       0       0       0       0       000010000D     21
     110       0       0       1       0                               0D     22
     508      30       0       0       0       0       0       000010000D     23
     508       0       0       1       1                               0D     24
     510      31       0       0       0       0       0       000010000D     25
     510       0    -283       1       1                               0D     26
     120      32       0       0       0       0       0       000010000D     27
     120       0       0       1       0                               0D     28
     110      33       0       0       0       0       0       000010000D     29
     110       0       0       1       0                               0D     30
     110      34       0       0       0       0       0       001010000D     31
     110       0       0       2       0                               0D     32
     100      36       0       0       0       0      35       000010000D     33
     100       0       0       1       0                               0D     34
     124      37       0       0       0       0       0       000000000D     35
     124       0       0       2       0                               0D     36
     100      39       0       0       0       0      39       000010000D     37
     100       0       0       2       0                               0D     38
     124      41       0       0       0       0       0       000000000D     39
     124       0       0       2       0                               0D     40
     110      43       0       0       0       0       0       000010000D     41
     110       0       0       1       0                               0D     42
     508      44       0       0       0       0       0       000010000D     43
     508       0       0       1       1                               0D     44
     510      45       0       0       0       0       0       000010000D     45
     510       0    -283       1       1                               0D     46
     116      46       0       0       0       0       0       000010000D     47
     116       0       0       1       0                               0D     48
     123      47       0       0       0       0       0       000010200D     49
     123       0       0       1       0                               0D     50
     190      48       0       0       0       0       0       000010000D     51
     190       0       0       1       1                               0D     52
     123      49       0       0       0       0       0       000010200D     53
     123       0       0       1       0                               0D     54
     110      50       0       0       0       0       0       000010000D     55
     110       0       0       1       0                               0D     56
     110      51       0       0       0       0       0       000010000D     57
     110       0       0       1       0                               0D     58
     110      52       0       0       0       0       0       000010000D     59
     110       0       0       1       0                               0D     60
     508      53       0       0       0       0       0       000010000D     61
     508       0       0       1       1                               0D     62
     510      54       0       0       0       0       0       000010000D     63
     510       0    -283       1       1                               0D     64
     120      55       0       0       0       0       0       000010000D     65
     120       0       0       1       0                               0D     66
     110      56       0       0       0       0       0       000010000D     67
     110       0       0       1       0                               0D     68
     110      57       0       0       0       0       0       001010000D     69
     110       0       0       2       0                               0D     70
     100      59       0       0       0       0      73       000010000D     71
     100       0       0       1       0                               0D     72
     124      60       0       0       0       0       0       000000000D     73
     124       0       0       2       0                               0D     74
     100      62       0       0       0       0      77       000010000D     75
     100       0       0       2       0                               0D     76
     124      64       0       0       0       0       0       000000000D     77
     124       0       0       2       0                               0D     78
     508      66       0       0       0       0       0       000010000D     79
     508       0       0       1       1                               0D     80
     510      67       0       0       0       0       0       000010000D     81
     510       0    -283       1       1                               0D     82
     120      68       0       0       0       0       0       000010000D     83
     120       0       0       1       0                               0D     84
     110      69       0       0       0       0       0       000010000D     85
     110       0       0       2       0                               0D     86
     110      71       0       0       0       0       0       001010000D     87
     110       0       0       2       0                               0D     88
     100      73       0       0       0       0      91       000010000D     89
     100       0       0       2       0                               0D     90
     124      75       0       0       0       0       0       000000000D     91
     124       0       0       2       0                               0D     92
     508      77       0       0       0       0       0       000010000D     93
     508       0       0       1       1                               0D     94
     100      78       0       0       0       0      97       000010000D     95
     100       0       0       1       0                               0D     96
     124      79       0       0       0       0       0       000000000D     97
     124       0       0       2       0                               0D     98
     508      81       0       0       0       0       0       000010000D     99
     508       0       0       1       1                               0D    100
     510      82       0       0       0       0       0       000010000D    101
     510       0    -283       1       1                               0D    102
     120      83       0       0       0       0       0       000010000D    103
     120       0       0       1       0                               0D    104
     110      84       0       0       0       0       0       000010000D    105
     110       0       0       2       0                               0D    106
     110      86       0       0       0       0       0       001010000D    107
     110       0       0       2       0                               0D    108
     100      88       0       0       0       0     111       000010000D    109
     100       0       0       2       0                               0D    110
     124      90       0       0       0       0       0       000000000D    111
     124       0       0       2       0                               0D    112
     508      92       0       0       0       0       0       000010000D    113
     508       0       0       1       1                               0D    114
     100      93       0       0       0       0     117       000010000D    115
     100       0       0       1       0                               0D    116
     124      94       0       0       0       0       0       000000000D    117
     124       0       0       2       0                               0D    118
     508      96       0       0       0       0       0       000010000D    119
     508       0       0       1       1                               0D    120
     510      97       0       0       0       0       0       000010000D    121
     510       0    -283       1       1                               0D    122
     120      98       0       0       0       0       0       000010000D    123
     120       0       0       1       0                               0D    124
     110      99       0       0       0       0       0       000010000D    125
     110       0       0       2       0                               0D    126
     110     101       0       0       0       0       0       001010000D    127
     110       0       0       2       0                               0D    128
     100     103       0       0       0       0     131       000010000D    129
     100       0       0       2       0                               0D    130
     124     105       0       0       0       0       0       000000000D    131
     124       0       0       2       0                               0D    132
     508     107       0       0       0       0       0       000010000D    133
     508       0       0       1       1                               0D    134
     100     108       0       0       0       0     137       000010000D    135
     100       0       0       1       0                               0D    136
     124     109       0       0       0       0       0       000000000D    137
     124       0       0       2       0                               0D    138
     508     111       0       0       0       0       0       000010000D    139
     508       0       0       1       1                               0D    140
     510     112       0       0       0       0       0       000010000D    141
     510       0    -283       1       1                               0D    142
     120     113       0       0       0       0       0       000010000D    143
     120       0       0       1       0                               0D    144
     110     114       0       0       0       0       0       000010000D    145
     110       0       0       2       0                               0D    146
     110     116       0       0       0       0       0       001010000D    147
     110       0       0       2       0                               0D    148
     100     118       0       0       0       0     151       000010000D    149
     100       0       0       2       0                               0D    150
     124     120       0       0       0       0       0       000000000D    151
     124       0       0       2       0                               0D    152
     508     122       0       0       0       0       0       000010000D    153
     508       0       0       1       1                               0D    154
     100     123       0       0       0       0     157       000010000D    155
     100       0       0       1       0                               0D    156
     124     124       0       0       0       0       0       000000000D    157
     124       0       0       2       0                               0D    158
     508     126       0       0       0       0       0       000010000D    159
     508       0       0       1       1                               0D    160
     510     127       0       0       0       0       0       000010000D    161
     510       0    -283       1       1                               0D    162
     116     128       0       0       0       0       0       000010000D    163
     116       0       0       1       0                               0D    164
     123     129       0       0       0       0       0       000010200D    165
     123       0       0       1       0                               0D    166
     190     130       0       0       0       0       0       000010000D    167
     190       0       0       1       1                               0D    168
     123     131       0       0       0       0       0       000010200D    169
     123       0       0       1       0                               0D    170
     110     132       0       0       0       0       0       000010000D    171
     110       0       0       2       0                               0D    172
     110     134       0       0       0       0       0       000010000D    173
     110       0       0       1       0                               0D    174
     110     135       0       0       0       0       0       000010000D    175
     110       0       0       1       0                               0D    176
     110     136       0       0       0       0       0       000010000D    177
     110       0       0       1       0                               0D    178
     508     137       0       0       0       0       0       000010000D    179
     508       0       0       1       1                               0D    180
     508     138       0       0       0       0       0       000010000D    181
     508       0       0       1       1                               0D    182
     508     139       0       0       0       0       0       000010000D    183
     508       0       0       1       1                               0D    184
     508     140       0       0       0       0       0       000010000D    185
     508       0       0       1       1                               0D    186
     508     141       0       0       0       0       0       000010000D    187
     508       0       0       1       1                               0D    188
     508     142       0       0       0       0       0       000010000D    189
     508       0       0       1       1                               0D    190
     510     143       0       0       0       0       0       000010000D    191
     510       0    -283       1       1                               0D    192
     116     144       0       0       0       0       0       000010000D    193
     116       0       0       1       0                               0D    194
     123     145       0       0       0       0       0       000010200D    195
     123       0       0       1       0                               0D    196
     190     146       0       0       0       0       0       000010000D    197
     190       0       0       1       1                               0D    198
     123     147       0       0       0       0       0       000010200D    199
     123       0       0       1       0                               0D    200
     110     148       0       0       0       0       0       000010000D    201
     110       0       0       2       0                               0D    202
     110     150       0       0       0       0       0       000010000D    203
     110       0       0       1       0                               0D    204
     110     151       0       0       0       0       0       000010000D    205
     110       0       0       1       0                               0D    206
     508     152       0       0       0       0       0       000010000D    207
     508       0       0       1       1                               0D    208
     510     153       0       0       0       0       0       000010000D    209
     510       0    -283       1       1                               0D    210
     116     154       0       0       0       0       0       000010000D    211
     116       0       0       1       0                               0D    212
     123     155       0       0       0       0       0       000010200D    213
     123       0       0       1       0                               0D    214
     190     156       0       0       0       0       0       000010000D    215
     190       0       0       1       1                               0D    216
     123     157       0       0       0       0       0       000010200D    217
     123       0       0       1       0                               0D    218
     110     158       0       0       0       0       0       000010000D    219
     110       0       0       1       0                               0D    220
     110     159       0       0       0       0       0       000010000D    221
     110       0       0       1       0                               0D    222
     508     160       0       0       0       0       0       000010000D    223
     508       0       0       1       1                               0D    224
     510     161       0       0       0       0       0       000010000D    225
     510       0    -283       1       1                               0D    226
     116     162       0       0       0       0       0       000010000D    227
     116       0       0       1       0                               0D    228
     123     163       0       0       0       0       0       000010200D    229
     123       0       0       1       0                               0D    230
     190     164       0       0       0       0       0       000010000D    231
     190       0       0       1       1                               0D    232
     123     165       0       0       0       0       0       000010200D    233
     123       0       0       1       0                               0D    234
     110     166       0       0       0       0       0       000010000D    235
     110       0       0       1       0                               0D    236
     110     167       0       0       0       0       0       000010000D    237
     110       0       0       2       0                               0D    238
     508     169       0       0       0       0       0       000010000D    239
     508       0       0       1       1                               0D    240
     510     170       0       0       0       0       0       000010000D    241
     510       0    -283       1       1                               0D    242
     116     171       0       0       0       0       0       000010000D    243
     116       0       0       1       0                               0D    244
     123     172       0       0       0       0       0       000010200D    245
     123       0       0       1       0                               0D    246
     190     173       0       0       0       0       0       000010000D    247
     190       0       0       1       1                               0D    248
     123     174       0       0       0       0       0       000010200D    249
     123       0       0       1       0                               0D    250
     110     175       0       0       0       0       0       000010000D    251
     110       0       0       2       0                               0D    252
     508     177       0       0       0       0       0       000010000D    253
     508       0       0       1       1                               0D    254
     510     178       0       0       0       0       0       000010000D    255
     510       0    -283       1       1                               0D    256
     116     179       0       0       0       0       0       000010000D    257
     116       0       0       1       0                               0D    258
     123     180       0       0       0       0       0       000010200D    259
     123       0       0       1       0                               0D    260
     190     181       0       0       0       0       0       000010000D    261
     190       0       0       1       1                               0D    262
     123     182       0       0       0       0       0       000010200D    263
     123       0       0       1       0                               0D    264
     508     183       0       0       0       0       0       000010000D    265
     508       0       0       1       1                               0D    266
     508     184       0       0       0       0       0       000010000D    267
     508       0       0       1       1                               0D    268
     508     185       0       0       0       0       0       000010000D    269
     508       0       0       1       1                               0D    270
     508     186       0       0       0       0       0       000010000D    271
     508       0       0       1       1                               0D    272
     508     187       0       0       0       0       0       000010000D    273
     508       0       0       1       1                               0D    274
     508     188       0       0       0       0       0       000010000D    275
     508       0       0       1       1                               0D    276
     510     189       0       0       0       0       0       000010000D    277
     510       0    -283       1       1                               0D    278
     514     190       0       0       0       0       0       000010000D    279
     514       0       0       2       1                               0D    280
     186     192       0       0       1       0       0       000000000D    281
     186       0       0       1       0                  Solid1       0D    282
     314     193       0       0       0       0       0       000000000D    283
     314       0       8       1       0                               0D    284
406,2,0,24HMicro Limit Switch Plate;                                   1P      1
116,2.75D0,-4.73D0,1.5D0,0;                                            3P      2
123,-1.0D0,0.0D0,0.0D0;                                                5P      3
190,3,5,9;                                                             7P      4
123,0.0D0,1.0D0,0.0D0;                                                 9P      5
504,32,15,13,1,13,2,17,13,3,13,1,19,13,4,13,3,21,13,4,13,2,33,        11P      6
13,2,13,5,37,13,6,13,4,41,13,6,13,5,55,13,5,13,7,57,13,8,13,6,        11P      7
59,13,8,13,7,71,13,7,13,1,75,13,3,13,8,89,13,9,13,9,95,13,10,13,      11P      8
10,109,13,11,13,11,115,13,12,13,12,129,13,13,13,13,135,13,14,13,      11P      9
14,149,13,15,13,15,155,13,16,13,16,171,13,17,13,18,173,13,18,13,      11P     10
19,175,13,19,13,20,177,13,20,13,17,201,13,21,13,18,203,13,22,13,      11P     11
21,205,13,22,13,19,219,13,23,13,22,221,13,23,13,20,235,13,24,13,      11P     12
23,237,13,17,13,24,251,13,21,13,24;                                   11P     13
502,24,2.75D0,-10.23D0,-1.5D0,2.75D0,-4.73D0,-1.5D0,2.75D0,           13P     14
-10.23D0,1.5D0,2.75D0,-4.73D0,1.5D0,-2.75D0,-4.73D0,-1.5D0,           13P     15
-2.75D0,-4.73D0,1.5D0,-2.75D0,-10.23D0,-1.5D0,-2.75D0,-10.23D0,       13P     16
1.5D0,-6.49999999999999D0,8.5D0,-1.5D0,-3.49999999999998D0,           13P     17
8.5D0,1.5D0,-1.49999999999999D0,13.5D0,-1.5D0,                        13P     18
1.50000000000001D0,13.5D0,1.5D0,-1.49999999999999D0,3.5D0,            13P     19
-1.5D0,1.50000000000001D0,3.5D0,1.5D0,3.50000000000001D0,8.5D0,       13P     20
-1.5D0,6.50000000000002D0,8.5D0,1.5D0,-7.49999999999998D0,            13P     21
16.0D0,-1.5D0,7.50000000000001D0,16.0D0,-1.5D0,7.5D0,-16.0D0,         13P     22
-1.5D0,-7.5D0,-16.0D0,-1.5D0,7.50000000000001D0,16.0D0,1.5D0,         13P     23
7.5D0,-16.0D0,1.5D0,-7.5D0,-16.0D0,1.5D0,-7.49999999999998D0,         13P     24
16.0D0,1.5D0;                                                         13P     25
110,2.75D0,-10.23D0,-1.5D0,2.75D0,-4.73D0,-1.5D0;                     15P     26
110,2.75D0,-10.23D0,1.5D0,2.75D0,-10.23D0,-1.5D0;                     17P     27
110,2.75D0,-4.73D0,1.5D0,2.75D0,-10.23D0,1.5D0;                       19P     28
110,2.75D0,-4.73D0,1.5D0,2.75D0,-4.73D0,-1.5D0;                       21P     29
508,4,0,11,1,0,0,0,11,2,0,0,0,11,3,0,0,0,11,4,1,0;                    23P     30
510,7,1,1,23;                                                         25P     31
120,31,29,0.0D0,6.28318530717959D0;                                   27P     32
110,2.75D0,-4.73D0,1.65D0,2.75D0,-4.73D0,-1.65D0;                     29P     33
110,-1.50740391359077D-16,-4.73D0,1.65D0,-1.50740391359077D-16,       31P     34
-4.73D0,.65D0;                                                        31P     35
100,0.0D0,0.0D0,0.0D0,2.75D0,0.0D0,-2.75D0,1.55802319685319D-15;      33P     36
124,1.0D0,0.0D0,0.0D0,-1.50740391359077D-16,0.0D0,1.0D0,0.0D0,        35P     37
-4.73D0,0.0D0,0.0D0,1.0D0,-1.5D0;                                     35P     38
100,0.0D0,0.0D0,0.0D0,-2.75D0,-8.8446745732215D-16,2.75D0,            37P     39
-6.73555739531044D-16;                                                37P     40
124,1.0D0,0.0D0,0.0D0,-1.50740391359077D-16,0.0D0,-1.0D0,0.0D0,       39P     41
-4.73D0,0.0D0,0.0D0,-1.0D0,1.5D0;                                     39P     42
110,-2.75D0,-4.73D0,1.5D0,-2.75D0,-4.73D0,-1.5D0;                     41P     43
508,4,0,11,5,0,0,0,11,4,0,0,0,11,6,0,0,0,11,7,1,0;                    43P     44
510,27,1,1,43;                                                        45P     45
116,-2.75D0,-10.23D0,1.5D0,0;                                         47P     46
123,1.0D0,0.0D0,0.0D0;                                                49P     47
190,47,49,53;                                                         51P     48
123,0.0D0,-1.0D0,0.0D0;                                               53P     49
110,-2.75D0,-4.73D0,-1.5D0,-2.75D0,-10.23D0,-1.5D0;                   55P     50
110,-2.75D0,-10.23D0,1.5D0,-2.75D0,-4.73D0,1.5D0;                     57P     51
110,-2.75D0,-10.23D0,1.5D0,-2.75D0,-10.23D0,-1.5D0;                   59P     52
508,4,0,11,8,0,0,0,11,7,0,0,0,11,9,0,0,0,11,10,1,0;                   61P     53
510,51,1,1,61;                                                        63P     54
120,69,67,0.0D0,6.28318530717959D0;                                   65P     55
110,-2.75D0,-10.23D0,1.65D0,-2.75D0,-10.23D0,-1.65D0;                 67P     56
110,1.1345120546502D-15,-10.23D0,1.65D0,1.1345120546502D-15,          69P     57
-10.23D0,.65D0;                                                       69P     58
100,0.0D0,0.0D0,0.0D0,2.75D0,0.0D0,-2.75D0,3.36777869765522D-16;      71P     59
124,-1.0D0,0.0D0,0.0D0,1.1345120546502D-15,0.0D0,-1.0D0,0.0D0,        73P     60
-10.23D0,0.0D0,0.0D0,1.0D0,-1.5D0;                                    73P     61
100,0.0D0,0.0D0,0.0D0,-2.75D0,3.36777869765522D-16,2.75D0,            75P     62
-6.73555739531044D-16;                                                75P     63
124,-1.0D0,0.0D0,0.0D0,1.1345120546502D-15,0.0D0,1.0D0,0.0D0,         77P     64
-10.23D0,0.0D0,0.0D0,-1.0D0,1.5D0;                                    77P     65
508,4,0,11,11,0,0,0,11,10,0,0,0,11,12,0,0,0,11,2,1,0;                 79P     66
510,65,1,1,79;                                                        81P     67
120,87,85,0.0D0,6.28318530717959D0;                                   83P     68
110,-3.49999999999998D0,8.5D0,-33.9682957019364D0,                    85P     69
-3.49999999999998D0,8.5D0,1.65D0;                                     85P     70
110,-4.99999999999998D0,8.5D0,-33.9682957019364D0,                    87P     71
-4.99999999999998D0,8.5D0,-32.9682957019364D0;                        87P     72
100,0.0D0,0.0D0,0.0D0,-1.5D0,1.83697019872103D-16,-1.5D0,             89P     73
1.83697019872103D-16;                                                 89P     74
124,1.0D0,0.0D0,0.0D0,-4.99999999999998D0,0.0D0,1.0D0,0.0D0,          91P     75
8.5D0,0.0D0,0.0D0,1.0D0,-1.5D0;                                       91P     76
508,1,0,11,13,0,0;                                                    93P     77
100,0.0D0,0.0D0,0.0D0,1.5D0,0.0D0,1.5D0,0.0D0;                        95P     78
124,1.0D0,0.0D0,0.0D0,-4.99999999999998D0,0.0D0,-1.0D0,0.0D0,         97P     79
8.5D0,0.0D0,0.0D0,-1.0D0,1.5D0;                                       97P     80
508,1,0,11,14,0,0;                                                    99P     81
510,83,2,1,93,99;                                                    101P     82
120,107,105,0.0D0,6.28318530717959D0;                                103P     83
110,1.50000000000001D0,13.5D0,-33.9682957019364D0,                   105P     84
1.50000000000001D0,13.5D0,1.65D0;                                    105P     85
110,1.22124532708767D-14,13.5D0,-33.9682957019364D0,                 107P     86
1.22124532708767D-14,13.5D0,-32.9682957019364D0;                     107P     87
100,0.0D0,0.0D0,0.0D0,-1.5D0,1.83697019872103D-16,-1.5D0,            109P     88
1.83697019872103D-16;                                                109P     89
124,1.0D0,0.0D0,0.0D0,1.22124532708767D-14,0.0D0,1.0D0,0.0D0,        111P     90
13.5D0,0.0D0,0.0D0,1.0D0,-1.5D0;                                     111P     91
508,1,0,11,15,0,0;                                                   113P     92
100,0.0D0,0.0D0,0.0D0,1.5D0,0.0D0,1.5D0,0.0D0;                       115P     93
124,1.0D0,0.0D0,0.0D0,1.22124532708767D-14,0.0D0,-1.0D0,0.0D0,       117P     94
13.5D0,0.0D0,0.0D0,-1.0D0,1.5D0;                                     117P     95
508,1,0,11,16,0,0;                                                   119P     96
510,103,2,1,113,119;                                                 121P     97
120,127,125,0.0D0,6.28318530717959D0;                                123P     98
110,1.50000000000001D0,3.5D0,-33.9682957019364D0,                    125P     99
1.50000000000001D0,3.5D0,1.65D0;                                     125P    100
110,1.22124532708767D-14,3.5D0,-33.9682957019364D0,                  127P    101
1.22124532708767D-14,3.5D0,-32.9682957019364D0;                      127P    102
100,0.0D0,0.0D0,0.0D0,-1.5D0,1.83697019872103D-16,-1.5D0,            129P    103
1.83697019872103D-16;                                                129P    104
124,1.0D0,0.0D0,0.0D0,1.22124532708767D-14,0.0D0,1.0D0,0.0D0,        131P    105
3.5D0,0.0D0,0.0D0,1.0D0,-1.5D0;                                      131P    106
508,1,0,11,17,0,0;                                                   133P    107
100,0.0D0,0.0D0,0.0D0,1.5D0,0.0D0,1.5D0,0.0D0;                       135P    108
124,1.0D0,0.0D0,0.0D0,1.22124532708767D-14,0.0D0,-1.0D0,0.0D0,       137P    109
3.5D0,0.0D0,0.0D0,-1.0D0,1.5D0;                                      137P    110
508,1,0,11,18,0,0;                                                   139P    111
510,123,2,1,133,139;                                                 141P    112
120,147,145,0.0D0,6.28318530717959D0;                                143P    113
110,6.50000000000002D0,8.5D0,-33.9682957019364D0,                    145P    114
6.50000000000002D0,8.5D0,1.65D0;                                     145P    115
110,5.00000000000002D0,8.5D0,-33.9682957019364D0,                    147P    116
5.00000000000002D0,8.5D0,-32.9682957019364D0;                        147P    117
100,0.0D0,0.0D0,0.0D0,-1.5D0,1.83697019872103D-16,-1.5D0,            149P    118
1.83697019872103D-16;                                                149P    119
124,1.0D0,0.0D0,0.0D0,5.00000000000002D0,0.0D0,1.0D0,0.0D0,          151P    120
8.5D0,0.0D0,0.0D0,1.0D0,-1.5D0;                                      151P    121
508,1,0,11,19,0,0;                                                   153P    122
100,0.0D0,0.0D0,0.0D0,1.5D0,0.0D0,1.5D0,0.0D0;                       155P    123
124,1.0D0,0.0D0,0.0D0,5.00000000000002D0,0.0D0,-1.0D0,0.0D0,         157P    124
8.5D0,0.0D0,0.0D0,-1.0D0,1.5D0;                                      157P    125
508,1,0,11,20,0,0;                                                   159P    126
510,143,2,1,153,159;                                                 161P    127
116,6.37787694997431D-15,-7.0865299444159D-16,-1.5D0,0;              163P    128
123,0.0D0,0.0D0,-1.0D0;                                              165P    129
190,163,165,169;                                                     167P    130
123,-1.0D0,0.0D0,0.0D0;                                              169P    131
110,-7.49999999999998D0,16.0D0,-1.5D0,7.50000000000001D0,16.0D0,     171P    132
-1.5D0;                                                              171P    133
110,7.50000000000001D0,16.0D0,-1.5D0,7.5D0,-16.0D0,-1.5D0;           173P    134
110,7.5D0,-16.0D0,-1.5D0,-7.5D0,-16.0D0,-1.5D0;                      175P    135
110,-7.5D0,-16.0D0,-1.5D0,-7.49999999999998D0,16.0D0,-1.5D0;         177P    136
508,4,0,11,21,1,0,0,11,22,1,0,0,11,23,1,0,0,11,24,1,0;               179P    137
508,4,0,11,8,1,0,0,11,11,1,0,0,11,1,1,0,0,11,5,1,0;                  181P    138
508,1,0,11,13,1,0;                                                   183P    139
508,1,0,11,15,1,0;                                                   185P    140
508,1,0,11,17,1,0;                                                   187P    141
508,1,0,11,19,1,0;                                                   189P    142
510,167,6,1,179,181,183,185,187,189;                                 191P    143
116,7.5D0,-16.0D0,0.0D0,0;                                           193P    144
123,1.0D0,0.0D0,0.0D0;                                               195P    145
190,193,195,199;                                                     197P    146
123,0.0D0,1.0D0,0.0D0;                                               199P    147
110,7.50000000000001D0,16.0D0,1.5D0,7.50000000000001D0,16.0D0,       201P    148
-1.5D0;                                                              201P    149
110,7.5D0,-16.0D0,1.5D0,7.50000000000001D0,16.0D0,1.5D0;             203P    150
110,7.5D0,-16.0D0,1.5D0,7.5D0,-16.0D0,-1.5D0;                        205P    151
508,4,0,11,25,0,0,0,11,26,0,0,0,11,27,1,0,0,11,22,0,0;               207P    152
510,197,1,1,207;                                                     209P    153
116,-7.5D0,-16.0D0,0.0D0,0;                                          211P    154
123,0.0D0,-1.0D0,0.0D0;                                              213P    155
190,211,213,217;                                                     215P    156
123,1.0D0,0.0D0,0.0D0;                                               217P    157
110,-7.5D0,-16.0D0,1.5D0,7.5D0,-16.0D0,1.5D0;                        219P    158
110,-7.5D0,-16.0D0,1.5D0,-7.5D0,-16.0D0,-1.5D0;                      221P    159
508,4,0,11,27,0,0,0,11,28,0,0,0,11,29,1,0,0,11,23,0,0;               223P    160
510,215,1,1,223;                                                     225P    161
116,-7.49999999999998D0,16.0D0,0.0D0,0;                              227P    162
123,-1.0D0,0.0D0,0.0D0;                                              229P    163
190,227,229,233;                                                     231P    164
123,0.0D0,-1.0D0,0.0D0;                                              233P    165
110,-7.49999999999998D0,16.0D0,1.5D0,-7.5D0,-16.0D0,1.5D0;           235P    166
110,-7.49999999999998D0,16.0D0,-1.5D0,-7.49999999999998D0,           237P    167
16.0D0,1.5D0;                                                        237P    168
508,4,0,11,29,0,0,0,11,30,0,0,0,11,31,0,0,0,11,24,0,0;               239P    169
510,231,1,1,239;                                                     241P    170
116,7.50000000000001D0,16.0D0,0.0D0,0;                               243P    171
123,0.0D0,1.0D0,0.0D0;                                               245P    172
190,243,245,249;                                                     247P    173
123,-1.0D0,0.0D0,0.0D0;                                              249P    174
110,7.50000000000001D0,16.0D0,1.5D0,-7.49999999999998D0,16.0D0,      251P    175
1.5D0;                                                               251P    176
508,4,0,11,31,1,0,0,11,32,0,0,0,11,25,1,0,0,11,21,0,0;               253P    177
510,247,1,1,253;                                                     255P    178
116,6.37787694997431D-15,-7.0865299444159D-16,1.5D0,0;               257P    179
123,0.0D0,0.0D0,1.0D0;                                               259P    180
190,257,259,263;                                                     261P    181
123,1.0D0,0.0D0,0.0D0;                                               263P    182
508,4,0,11,32,1,0,0,11,30,1,0,0,11,28,1,0,0,11,26,1,0;               265P    183
508,4,0,11,9,1,0,0,11,6,1,0,0,11,3,1,0,0,11,12,1,0;                  267P    184
508,1,0,11,14,1,0;                                                   269P    185
508,1,0,11,16,1,0;                                                   271P    186
508,1,0,11,18,1,0;                                                   273P    187
508,1,0,11,20,1,0;                                                   275P    188
510,261,6,1,265,267,269,271,273,275;                                 277P    189
514,14,25,1,45,1,63,1,81,1,101,1,121,1,141,1,161,1,191,1,209,1,      279P    190
225,1,241,1,255,1,277,1;                                             279P    191
186,279,1,0;                                                         281P    192
314,89.8039221763611D0,89.9999976158142D0,89.9999976158142D0,;       283P    193
S      1G      4D    284P    193                                        T      1
