                                                                        S      1
,,28HVSlot Idler Pulley Plate.ipt,27HNo Iges File Name specified,22HAutoG      1
desk Inventor 2013,37HAutoDesk Inventor Iges Exporter R2013,32,38,6,99, G      2
15,28HVSlot Idler Pulley Plate.ipt,1.0D0,2,2HMM,1,.08D0,15H20140422.1804G      3
29,.01D0,10000.0D0,4HWork,,11,0,,;                                      G      4
     406       1       0       0       1       0       0       000000000D      1
     406       0       0       1       3                               0D      2
     116       2       0       0       0       0       0       000010000D      3
     116       0       0       1       0                               0D      4
     123       3       0       0       0       0       0       000010200D      5
     123       0       0       1       0                               0D      6
     192       4       0       0       0       0       0       000010000D      7
     192       0       0       1       1                               0D      8
     123       5       0       0       0       0       0       000010200D      9
     123       0       0       1       0                               0D     10
     504       6       0       0       0       0       0       000010001D     11
     504       0       0      10       1                               0D     12
     502      16       0       0       0       0       0       000010000D     13
     502       0       0      12       1                               0D     14
     100      28       0       0       0       0      17       000010000D     15
     100       0       0       2       0                               0D     16
     124      30       0       0       0       0       0       000000000D     17
     124       0       0       3       0                               0D     18
     110      33       0       0       0       0       0       000010000D     19
     110       0       0       1       0                               0D     20
     100      34       0       0       0       0      23       000010000D     21
     100       0       0       2       0                               0D     22
     124      36       0       0       0       0       0       000000000D     23
     124       0       0       3       0                               0D     24
     110      39       0       0       0       0       0       000010000D     25
     110       0       0       1       0                               0D     26
     508      40       0       0       0       0       0       000010000D     27
     508       0       0       1       1                               0D     28
     510      41       0       0       0       0       0       000010000D     29
     510       0    -363       1       1                               0D     30
     116      42       0       0       0       0       0       000010000D     31
     116       0       0       1       0                               0D     32
     123      43       0       0       0       0       0       000010200D     33
     123       0       0       1       0                               0D     34
     190      44       0       0       0       0       0       000010000D     35
     190       0       0       1       1                               0D     36
     123      45       0       0       0       0       0       000010200D     37
     123       0       0       1       0                               0D     38
     110      46       0       0       0       0       0       000010000D     39
     110       0       0       1       0                               0D     40
     110      47       0       0       0       0       0       000010000D     41
     110       0       0       1       0                               0D     42
     110      48       0       0       0       0       0       000010000D     43
     110       0       0       1       0                               0D     44
     508      49       0       0       0       0       0       000010000D     45
     508       0       0       1       1                               0D     46
     510      50       0       0       0       0       0       000010000D     47
     510       0    -363       1       1                               0D     48
     116      51       0       0       0       0       0       000010000D     49
     116       0       0       1       0                               0D     50
     123      52       0       0       0       0       0       000010200D     51
     123       0       0       1       0                               0D     52
     190      53       0       0       0       0       0       000010000D     53
     190       0       0       1       1                               0D     54
     123      54       0       0       0       0       0       000010200D     55
     123       0       0       1       0                               0D     56
     110      55       0       0       0       0       0       000010000D     57
     110       0       0       1       0                               0D     58
     100      56       0       0       0       0      61       000010000D     59
     100       0       0       2       0                               0D     60
     124      58       0       0       0       0       0       000000000D     61
     124       0       0       3       0                               0D     62
     110      61       0       0       0       0       0       000010000D     63
     110       0       0       1       0                               0D     64
     100      62       0       0       0       0      67       000010000D     65
     100       0       0       2       0                               0D     66
     124      64       0       0       0       0       0       000000000D     67
     124       0       0       3       0                               0D     68
     110      67       0       0       0       0       0       000010000D     69
     110       0       0       1       0                               0D     70
     100      68       0       0       0       0      73       000010000D     71
     100       0       0       2       0                               0D     72
     124      70       0       0       0       0       0       000000000D     73
     124       0       0       3       0                               0D     74
     508      73       0       0       0       0       0       000010000D     75
     508       0       0       2       1                               0D     76
     100      75       0       0       0       0      79       000010000D     77
     100       0       0       1       0                               0D     78
     124      76       0       0       0       0       0       000000000D     79
     124       0       0       2       0                               0D     80
     508      78       0       0       0       0       0       000010000D     81
     508       0       0       1       1                               0D     82
     100      79       0       0       0       0      85       000010000D     83
     100       0       0       1       0                               0D     84
     124      80       0       0       0       0       0       000000000D     85
     124       0       0       2       0                               0D     86
     508      82       0       0       0       0       0       000010000D     87
     508       0       0       1       1                               0D     88
     100      83       0       0       0       0      91       000010000D     89
     100       0       0       1       0                               0D     90
     124      84       0       0       0       0       0       000000000D     91
     124       0       0       2       0                               0D     92
     508      86       0       0       0       0       0       000010000D     93
     508       0       0       1       1                               0D     94
     100      87       0       0       0       0      97       000010000D     95
     100       0       0       1       0                               0D     96
     124      88       0       0       0       0       0       000000000D     97
     124       0       0       2       0                               0D     98
     508      90       0       0       0       0       0       000010000D     99
     508       0       0       1       1                               0D    100
     100      91       0       0       0       0     103       000010000D    101
     100       0       0       1       0                               0D    102
     124      92       0       0       0       0       0       000000000D    103
     124       0       0       2       0                               0D    104
     508      94       0       0       0       0       0       000010000D    105
     508       0       0       1       1                               0D    106
     100      95       0       0       0       0     109       000010000D    107
     100       0       0       1       0                               0D    108
     124      96       0       0       0       0       0       000000000D    109
     124       0       0       2       0                               0D    110
     508      98       0       0       0       0       0       000010000D    111
     508       0       0       1       1                               0D    112
     100      99       0       0       0       0     115       000010000D    113
     100       0       0       1       0                               0D    114
     124     100       0       0       0       0       0       000000000D    115
     124       0       0       2       0                               0D    116
     508     102       0       0       0       0       0       000010000D    117
     508       0       0       1       1                               0D    118
     510     103       0       0       0       0       0       000010000D    119
     510       0    -363       1       1                               0D    120
     116     104       0       0       0       0       0       000010000D    121
     116       0       0       1       0                               0D    122
     123     105       0       0       0       0       0       000010200D    123
     123       0       0       1       0                               0D    124
     192     106       0       0       0       0       0       000010000D    125
     192       0       0       1       1                               0D    126
     123     107       0       0       0       0       0       000010200D    127
     123       0       0       1       0                               0D    128
     110     108       0       0       0       0       0       000010000D    129
     110       0       0       1       0                               0D    130
     100     109       0       0       0       0     133       000010000D    131
     100       0       0       2       0                               0D    132
     124     111       0       0       0       0       0       000000000D    133
     124       0       0       3       0                               0D    134
     508     114       0       0       0       0       0       000010000D    135
     508       0       0       1       1                               0D    136
     510     115       0       0       0       0       0       000010000D    137
     510       0    -363       1       1                               0D    138
     116     116       0       0       0       0       0       000010000D    139
     116       0       0       1       0                               0D    140
     123     117       0       0       0       0       0       000010200D    141
     123       0       0       1       0                               0D    142
     190     118       0       0       0       0       0       000010000D    143
     190       0       0       1       1                               0D    144
     123     119       0       0       0       0       0       000010200D    145
     123       0       0       1       0                               0D    146
     110     120       0       0       0       0       0       000010000D    147
     110       0       0       1       0                               0D    148
     110     121       0       0       0       0       0       000010000D    149
     110       0       0       1       0                               0D    150
     508     122       0       0       0       0       0       000010000D    151
     508       0       0       1       1                               0D    152
     510     123       0       0       0       0       0       000010000D    153
     510       0    -363       1       1                               0D    154
     116     124       0       0       0       0       0       000010000D    155
     116       0       0       1       0                               0D    156
     123     125       0       0       0       0       0       000010200D    157
     123       0       0       1       0                               0D    158
     192     126       0       0       0       0       0       000010000D    159
     192       0       0       1       1                               0D    160
     123     127       0       0       0       0       0       000010200D    161
     123       0       0       1       0                               0D    162
     110     128       0       0       0       0       0       000010000D    163
     110       0       0       1       0                               0D    164
     100     129       0       0       0       0     167       000010000D    165
     100       0       0       2       0                               0D    166
     124     131       0       0       0       0       0       000000000D    167
     124       0       0       3       0                               0D    168
     508     134       0       0       0       0       0       000010000D    169
     508       0       0       1       1                               0D    170
     510     135       0       0       0       0       0       000010000D    171
     510       0    -363       1       1                               0D    172
     116     136       0       0       0       0       0       000010000D    173
     116       0       0       1       0                               0D    174
     123     137       0       0       0       0       0       000010200D    175
     123       0       0       1       0                               0D    176
     190     138       0       0       0       0       0       000010000D    177
     190       0       0       1       1                               0D    178
     123     139       0       0       0       0       0       000010200D    179
     123       0       0       1       0                               0D    180
     110     140       0       0       0       0       0       000010000D    181
     110       0       0       1       0                               0D    182
     110     141       0       0       0       0       0       000010000D    183
     110       0       0       1       0                               0D    184
     508     142       0       0       0       0       0       000010000D    185
     508       0       0       1       1                               0D    186
     510     143       0       0       0       0       0       000010000D    187
     510       0    -363       1       1                               0D    188
     116     144       0       0       0       0       0       000010000D    189
     116       0       0       1       0                               0D    190
     123     145       0       0       0       0       0       000010200D    191
     123       0       0       1       0                               0D    192
     192     146       0       0       0       0       0       000010000D    193
     192       0       0       1       1                               0D    194
     123     147       0       0       0       0       0       000010200D    195
     123       0       0       1       0                               0D    196
     110     148       0       0       0       0       0       000010000D    197
     110       0       0       1       0                               0D    198
     100     149       0       0       0       0     201       000010000D    199
     100       0       0       2       0                               0D    200
     124     151       0       0       0       0       0       000000000D    201
     124       0       0       3       0                               0D    202
     508     154       0       0       0       0       0       000010000D    203
     508       0       0       1       1                               0D    204
     510     155       0       0       0       0       0       000010000D    205
     510       0    -363       1       1                               0D    206
     120     156       0       0       0       0       0       000010000D    207
     120       0       0       1       0                               0D    208
     110     157       0       0       0       0       0       000010000D    209
     110       0       0       2       0                               0D    210
     110     159       0       0       0       0       0       001010000D    211
     110       0       0       2       0                               0D    212
     100     161       0       0       0       0     215       000010000D    213
     100       0       0       2       0                               0D    214
     124     163       0       0       0       0       0       000000000D    215
     124       0       0       2       0                               0D    216
     508     165       0       0       0       0       0       000010000D    217
     508       0       0       1       1                               0D    218
     508     166       0       0       0       0       0       000010000D    219
     508       0       0       1       1                               0D    220
     510     167       0       0       0       0       0       000010000D    221
     510       0    -363       1       1                               0D    222
     120     168       0       0       0       0       0       000010000D    223
     120       0       0       1       0                               0D    224
     110     169       0       0       0       0       0       000010000D    225
     110       0       0       2       0                               0D    226
     110     171       0       0       0       0       0       001010000D    227
     110       0       0       2       0                               0D    228
     100     173       0       0       0       0     231       000010000D    229
     100       0       0       2       0                               0D    230
     124     175       0       0       0       0       0       000000000D    231
     124       0       0       2       0                               0D    232
     508     177       0       0       0       0       0       000010000D    233
     508       0       0       1       1                               0D    234
     508     178       0       0       0       0       0       000010000D    235
     508       0       0       1       1                               0D    236
     510     179       0       0       0       0       0       000010000D    237
     510       0    -363       1       1                               0D    238
     120     180       0       0       0       0       0       000010000D    239
     120       0       0       1       0                               0D    240
     110     181       0       0       0       0       0       000010000D    241
     110       0       0       2       0                               0D    242
     110     183       0       0       0       0       0       001010000D    243
     110       0       0       2       0                               0D    244
     100     185       0       0       0       0     247       000010000D    245
     100       0       0       2       0                               0D    246
     124     187       0       0       0       0       0       000000000D    247
     124       0       0       2       0                               0D    248
     508     189       0       0       0       0       0       000010000D    249
     508       0       0       1       1                               0D    250
     508     190       0       0       0       0       0       000010000D    251
     508       0       0       1       1                               0D    252
     510     191       0       0       0       0       0       000010000D    253
     510       0    -363       1       1                               0D    254
     120     192       0       0       0       0       0       000010000D    255
     120       0       0       1       0                               0D    256
     110     193       0       0       0       0       0       000010000D    257
     110       0       0       2       0                               0D    258
     110     195       0       0       0       0       0       001010000D    259
     110       0       0       2       0                               0D    260
     100     197       0       0       0       0     263       000010000D    261
     100       0       0       2       0                               0D    262
     124     199       0       0       0       0       0       000000000D    263
     124       0       0       2       0                               0D    264
     508     201       0       0       0       0       0       000010000D    265
     508       0       0       1       1                               0D    266
     508     202       0       0       0       0       0       000010000D    267
     508       0       0       1       1                               0D    268
     510     203       0       0       0       0       0       000010000D    269
     510       0    -363       1       1                               0D    270
     120     204       0       0       0       0       0       000010000D    271
     120       0       0       1       0                               0D    272
     110     205       0       0       0       0       0       000010000D    273
     110       0       0       2       0                               0D    274
     110     207       0       0       0       0       0       001010000D    275
     110       0       0       2       0                               0D    276
     100     209       0       0       0       0     279       000010000D    277
     100       0       0       2       0                               0D    278
     124     211       0       0       0       0       0       000000000D    279
     124       0       0       2       0                               0D    280
     508     213       0       0       0       0       0       000010000D    281
     508       0       0       1       1                               0D    282
     508     214       0       0       0       0       0       000010000D    283
     508       0       0       1       1                               0D    284
     510     215       0       0       0       0       0       000010000D    285
     510       0    -363       1       1                               0D    286
     120     216       0       0       0       0       0       000010000D    287
     120       0       0       1       0                               0D    288
     110     217       0       0       0       0       0       000010000D    289
     110       0       0       2       0                               0D    290
     110     219       0       0       0       0       0       001010000D    291
     110       0       0       2       0                               0D    292
     100     221       0       0       0       0     295       000010000D    293
     100       0       0       2       0                               0D    294
     124     223       0       0       0       0       0       000000000D    295
     124       0       0       2       0                               0D    296
     508     225       0       0       0       0       0       000010000D    297
     508       0       0       1       1                               0D    298
     508     226       0       0       0       0       0       000010000D    299
     508       0       0       1       1                               0D    300
     510     227       0       0       0       0       0       000010000D    301
     510       0    -363       1       1                               0D    302
     120     228       0       0       0       0       0       000010000D    303
     120       0       0       1       0                               0D    304
     110     229       0       0       0       0       0       000010000D    305
     110       0       0       2       0                               0D    306
     110     231       0       0       0       0       0       001010000D    307
     110       0       0       2       0                               0D    308
     100     233       0       0       0       0     311       000010000D    309
     100       0       0       2       0                               0D    310
     124     235       0       0       0       0       0       000000000D    311
     124       0       0       2       0                               0D    312
     508     237       0       0       0       0       0       000010000D    313
     508       0       0       1       1                               0D    314
     508     238       0       0       0       0       0       000010000D    315
     508       0       0       1       1                               0D    316
     510     239       0       0       0       0       0       000010000D    317
     510       0    -363       1       1                               0D    318
     116     240       0       0       0       0       0       000010000D    319
     116       0       0       1       0                               0D    320
     123     241       0       0       0       0       0       000010200D    321
     123       0       0       1       0                               0D    322
     190     242       0       0       0       0       0       000010000D    323
     190       0       0       1       1                               0D    324
     123     243       0       0       0       0       0       000010200D    325
     123       0       0       1       0                               0D    326
     110     244       0       0       0       0       0       000010000D    327
     110       0       0       1       0                               0D    328
     508     245       0       0       0       0       0       000010000D    329
     508       0       0       1       1                               0D    330
     510     246       0       0       0       0       0       000010000D    331
     510       0    -363       1       1                               0D    332
     116     247       0       0       0       0       0       000010000D    333
     116       0       0       1       0                               0D    334
     123     248       0       0       0       0       0       000010200D    335
     123       0       0       1       0                               0D    336
     190     249       0       0       0       0       0       000010000D    337
     190       0       0       1       1                               0D    338
     123     250       0       0       0       0       0       000010200D    339
     123       0       0       1       0                               0D    340
     508     251       0       0       0       0       0       000010000D    341
     508       0       0       2       1                               0D    342
     508     253       0       0       0       0       0       000010000D    343
     508       0       0       1       1                               0D    344
     508     254       0       0       0       0       0       000010000D    345
     508       0       0       1       1                               0D    346
     508     255       0       0       0       0       0       000010000D    347
     508       0       0       1       1                               0D    348
     508     256       0       0       0       0       0       000010000D    349
     508       0       0       1       1                               0D    350
     508     257       0       0       0       0       0       000010000D    351
     508       0       0       1       1                               0D    352
     508     258       0       0       0       0       0       000010000D    353
     508       0       0       1       1                               0D    354
     508     259       0       0       0       0       0       000010000D    355
     508       0       0       1       1                               0D    356
     510     260       0       0       0       0       0       000010000D    357
     510       0    -363       1       1                               0D    358
     514     261       0       0       0       0       0       000010000D    359
     514       0       0       2       1                               0D    360
     186     263       0       0       1       0       0       000000000D    361
     186       0       0       1       0                  Solid1       0D    362
     314     264       0       0       0       0       0       000000000D    363
     314       0       8       1       0                               0D    364
406,2,0,24HVSlot Idler Pulley Plate;                                   1P      1
116,28.5D0,-14.75D0,0.0D0,0;                                           3P      2
123,0.0D0,0.0D0,1.0D0;                                                 5P      3
192,3,5,5.0D0,9;                                                       7P      4
123,.707106781186547D0,-.707106781186547D0,0.0D0;                      9P      5
504,38,15,13,1,13,2,19,13,2,13,3,21,13,3,13,4,25,13,4,13,1,39,        11P      6
13,5,13,2,41,13,6,13,5,43,13,3,13,6,57,13,1,13,7,59,13,8,13,7,        11P      7
63,13,8,13,9,65,13,10,13,9,69,13,10,13,11,71,13,5,13,11,77,13,        11P      8
12,13,12,83,13,13,13,13,89,13,14,13,14,95,13,15,13,15,101,13,16,      11P      9
13,16,107,13,17,13,17,113,13,18,13,18,129,13,11,13,19,131,13,19,      11P     10
13,6,147,13,20,13,10,149,13,19,13,20,163,13,9,13,21,165,13,21,        11P     11
13,20,181,13,22,13,8,183,13,21,13,22,197,13,7,13,23,199,13,23,        11P     12
13,22,213,13,24,13,24,229,13,25,13,25,245,13,26,13,26,261,13,27,      11P     13
13,27,277,13,28,13,28,293,13,29,13,29,309,13,30,13,30,327,13,23,      11P     14
13,4;                                                                 11P     15
502,30,33.5D0,-14.75D0,3.0D0,28.5D0,-19.75D0,3.0D0,28.5D0,            13P     16
-19.75D0,0.0D0,33.5D0,-14.75D0,0.0D0,-28.5D0,-19.75D0,3.0D0,          13P     17
-28.5D0,-19.75D0,0.0D0,33.5D0,14.75D0,3.0D0,28.5D0,19.75D0,           13P     18
3.0D0,-28.5D0,19.75D0,3.0D0,-33.5D0,14.75D0,3.0D0,-33.5D0,            13P     19
-14.75D0,3.0D0,27.84D0,10.0D0,3.0D0,6.06D0,10.0D0,3.0D0,6.06D0,       13P     20
0.0D0,3.0D0,-23.89D0,0.0D0,3.0D0,27.84D0,0.0D0,3.0D0,6.06D0,          13P     21
-10.0D0,3.0D0,27.84D0,-10.0D0,3.0D0,-33.5D0,-14.75D0,0.0D0,           13P     22
-33.5D0,14.75D0,0.0D0,-28.5D0,19.75D0,0.0D0,28.5D0,19.75D0,           13P     23
0.0D0,33.5D0,14.75D0,0.0D0,22.74D0,10.0D0,0.0D0,.96D0,10.0D0,         13P     24
0.0D0,.96D0,-3.12284933782575D-16,0.0D0,-28.99D0,                     13P     25
-3.12284933782575D-16,0.0D0,22.74D0,-3.12284933782575D-16,0.0D0,      13P     26
.96D0,-10.0D0,0.0D0,22.74D0,-10.0D0,0.0D0;                            13P     27
100,0.0D0,0.0D0,0.0D0,3.53553390593274D0,-3.53553390593274D0,         15P     28
3.53553390593274D0,3.53553390593274D0;                                15P     29
124,.707106781186547D0,-.707106781186547D0,0.0D0,28.5D0,              17P     30
-.707106781186547D0,-.707106781186547D0,0.0D0,-14.75D0,0.0D0,         17P     31
0.0D0,-1.0D0,3.0D0;                                                   17P     32
110,28.5D0,-19.75D0,3.0D0,28.5D0,-19.75D0,0.0D0;                      19P     33
100,0.0D0,0.0D0,0.0D0,3.53553390593274D0,-3.53553390593274D0,         21P     34
3.53553390593274D0,3.53553390593274D0;                                21P     35
124,.707106781186547D0,.707106781186547D0,0.0D0,28.5D0,               23P     36
-.707106781186547D0,.707106781186547D0,0.0D0,-14.75D0,0.0D0,          23P     37
0.0D0,1.0D0,0.0D0;                                                    23P     38
110,33.5D0,-14.75D0,0.0D0,33.5D0,-14.75D0,3.0D0;                      25P     39
508,4,0,11,1,1,0,0,11,2,1,0,0,11,3,1,0,0,11,4,1,0;                    27P     40
510,7,1,1,27;                                                         29P     41
116,-33.5D0,-19.75D0,0.0D0,0;                                         31P     42
123,0.0D0,-1.0D0,0.0D0;                                               33P     43
190,31,33,37;                                                         35P     44
123,1.0D0,0.0D0,0.0D0;                                                37P     45
110,-28.5D0,-19.75D0,3.0D0,28.5D0,-19.75D0,3.0D0;                     39P     46
110,-28.5D0,-19.75D0,0.0D0,-28.5D0,-19.75D0,3.0D0;                    41P     47
110,28.5D0,-19.75D0,0.0D0,-28.5D0,-19.75D0,0.0D0;                     43P     48
508,4,0,11,2,0,0,0,11,5,0,0,0,11,6,0,0,0,11,7,0,0;                    45P     49
510,35,1,1,45;                                                        47P     50
116,0.0D0,0.0D0,3.0D0,0;                                              49P     51
123,0.0D0,0.0D0,1.0D0;                                                51P     52
190,49,51,55;                                                         53P     53
123,1.0D0,0.0D0,0.0D0;                                                55P     54
110,33.5D0,-14.75D0,3.0D0,33.5D0,14.75D0,3.0D0;                       57P     55
100,0.0D0,0.0D0,0.0D0,3.53553390593274D0,-3.53553390593274D0,         59P     56
3.53553390593274D0,3.53553390593274D0;                                59P     57
124,.707106781186547D0,.707106781186547D0,0.0D0,28.5D0,               61P     58
.707106781186547D0,-.707106781186547D0,0.0D0,14.75D0,0.0D0,           61P     59
0.0D0,-1.0D0,3.0D0;                                                   61P     60
110,28.5D0,19.75D0,3.0D0,-28.5D0,19.75D0,3.0D0;                       63P     61
100,0.0D0,0.0D0,0.0D0,3.53553390593274D0,-3.53553390593274D0,         65P     62
3.53553390593274D0,3.53553390593274D0;                                65P     63
124,-.707106781186547D0,.707106781186547D0,0.0D0,-28.5D0,             67P     64
.707106781186547D0,.707106781186547D0,0.0D0,14.75D0,0.0D0,0.0D0,      67P     65
-1.0D0,3.0D0;                                                         67P     66
110,-33.5D0,14.75D0,3.0D0,-33.5D0,-14.75D0,3.0D0;                     69P     67
100,0.0D0,0.0D0,0.0D0,3.53553390593274D0,-3.53553390593274D0,         71P     68
3.53553390593274D0,3.53553390593274D0;                                71P     69
124,-.707106781186547D0,-.707106781186547D0,0.0D0,-28.5D0,            73P     70
-.707106781186547D0,.707106781186547D0,0.0D0,-14.75D0,0.0D0,          73P     71
0.0D0,-1.0D0,3.0D0;                                                   73P     72
508,8,0,11,1,0,0,0,11,8,1,0,0,11,9,0,0,0,11,10,1,0,0,11,11,0,0,       75P     73
0,11,12,1,0,0,11,13,0,0,0,11,5,1,0;                                   75P     74
100,0.0D0,0.0D0,0.0D0,2.55D0,0.0D0,2.55D0,0.0D0;                      77P     75
124,1.0D0,0.0D0,0.0D0,25.29D0,0.0D0,-1.0D0,0.0D0,10.0D0,0.0D0,        79P     76
0.0D0,-1.0D0,3.0D0;                                                   79P     77
508,1,0,11,14,1,0;                                                    81P     78
100,0.0D0,0.0D0,0.0D0,2.55D0,0.0D0,2.55D0,0.0D0;                      83P     79
124,1.0D0,0.0D0,0.0D0,3.51D0,0.0D0,-1.0D0,0.0D0,10.0D0,0.0D0,         85P     80
0.0D0,-1.0D0,3.0D0;                                                   85P     81
508,1,0,11,15,1,0;                                                    87P     82
100,0.0D0,0.0D0,0.0D0,2.55D0,0.0D0,2.55D0,0.0D0;                      89P     83
124,1.0D0,0.0D0,0.0D0,3.51D0,0.0D0,-1.0D0,0.0D0,0.0D0,0.0D0,          91P     84
0.0D0,-1.0D0,3.0D0;                                                   91P     85
508,1,0,11,16,1,0;                                                    93P     86
100,0.0D0,0.0D0,0.0D0,2.55D0,0.0D0,2.55D0,0.0D0;                      95P     87
124,1.0D0,0.0D0,0.0D0,-26.44D0,0.0D0,-1.0D0,0.0D0,0.0D0,0.0D0,        97P     88
0.0D0,-1.0D0,3.0D0;                                                   97P     89
508,1,0,11,17,1,0;                                                    99P     90
100,0.0D0,0.0D0,0.0D0,2.55D0,0.0D0,2.55D0,0.0D0;                     101P     91
124,1.0D0,0.0D0,0.0D0,25.29D0,0.0D0,-1.0D0,0.0D0,0.0D0,0.0D0,        103P     92
0.0D0,-1.0D0,3.0D0;                                                  103P     93
508,1,0,11,18,1,0;                                                   105P     94
100,0.0D0,0.0D0,0.0D0,2.55D0,0.0D0,2.55D0,0.0D0;                     107P     95
124,1.0D0,0.0D0,0.0D0,3.51D0,0.0D0,-1.0D0,0.0D0,-10.0D0,0.0D0,       109P     96
0.0D0,-1.0D0,3.0D0;                                                  109P     97
508,1,0,11,19,1,0;                                                   111P     98
100,0.0D0,0.0D0,0.0D0,2.55D0,0.0D0,2.55D0,0.0D0;                     113P     99
124,1.0D0,0.0D0,0.0D0,25.29D0,0.0D0,-1.0D0,0.0D0,-10.0D0,0.0D0,      115P    100
0.0D0,-1.0D0,3.0D0;                                                  115P    101
508,1,0,11,20,1,0;                                                   117P    102
510,53,8,1,75,81,87,93,99,105,111,117;                               119P    103
116,-28.5D0,-14.75D0,0.0D0,0;                                        121P    104
123,0.0D0,0.0D0,1.0D0;                                               123P    105
192,121,123,5.0D0,127;                                               125P    106
123,-.707106781186547D0,-.707106781186547D0,0.0D0;                   127P    107
110,-33.5D0,-14.75D0,3.0D0,-33.5D0,-14.75D0,0.0D0;                   129P    108
100,0.0D0,0.0D0,0.0D0,3.53553390593274D0,-3.53553390593274D0,        131P    109
3.53553390593274D0,3.53553390593274D0;                               131P    110
124,-.707106781186547D0,.707106781186547D0,0.0D0,-28.5D0,            133P    111
-.707106781186547D0,-.707106781186547D0,0.0D0,-14.75D0,0.0D0,        133P    112
0.0D0,1.0D0,0.0D0;                                                   133P    113
508,4,0,11,13,1,0,0,11,21,1,0,0,11,22,1,0,0,11,6,1,0;                135P    114
510,125,1,1,135;                                                     137P    115
116,-33.5D0,19.75D0,0.0D0,0;                                         139P    116
123,-1.0D0,0.0D0,0.0D0;                                              141P    117
190,139,141,145;                                                     143P    118
123,0.0D0,-1.0D0,0.0D0;                                              145P    119
110,-33.5D0,14.75D0,0.0D0,-33.5D0,14.75D0,3.0D0;                     147P    120
110,-33.5D0,-14.75D0,0.0D0,-33.5D0,14.75D0,0.0D0;                    149P    121
508,4,0,11,21,0,0,0,11,12,0,0,0,11,23,0,0,0,11,24,0,0;               151P    122
510,143,1,1,151;                                                     153P    123
116,-28.5D0,14.75D0,0.0D0,0;                                         155P    124
123,0.0D0,0.0D0,1.0D0;                                               157P    125
192,155,157,5.0D0,161;                                               159P    126
123,-.707106781186547D0,.707106781186547D0,0.0D0;                    161P    127
110,-28.5D0,19.75D0,3.0D0,-28.5D0,19.75D0,0.0D0;                     163P    128
100,0.0D0,0.0D0,0.0D0,3.53553390593274D0,-3.53553390593274D0,        165P    129
3.53553390593274D0,3.53553390593274D0;                               165P    130
124,-.707106781186547D0,-.707106781186547D0,0.0D0,-28.5D0,           167P    131
.707106781186547D0,-.707106781186547D0,0.0D0,14.75D0,0.0D0,          167P    132
0.0D0,1.0D0,0.0D0;                                                   167P    133
508,4,0,11,11,1,0,0,11,25,1,0,0,11,26,1,0,0,11,23,1,0;               169P    134
510,159,1,1,169;                                                     171P    135
116,33.5D0,19.75D0,0.0D0,0;                                          173P    136
123,0.0D0,1.0D0,0.0D0;                                               175P    137
190,173,175,179;                                                     177P    138
123,-1.0D0,0.0D0,0.0D0;                                              179P    139
110,28.5D0,19.75D0,0.0D0,28.5D0,19.75D0,3.0D0;                       181P    140
110,-28.5D0,19.75D0,0.0D0,28.5D0,19.75D0,0.0D0;                      183P    141
508,4,0,11,25,0,0,0,11,10,0,0,0,11,27,0,0,0,11,28,0,0;               185P    142
510,177,1,1,185;                                                     187P    143
116,28.5D0,14.75D0,0.0D0,0;                                          189P    144
123,0.0D0,0.0D0,1.0D0;                                               191P    145
192,189,191,5.0D0,195;                                               193P    146
123,.707106781186547D0,.707106781186547D0,0.0D0;                     195P    147
110,33.5D0,14.75D0,3.0D0,33.5D0,14.75D0,0.0D0;                       197P    148
100,0.0D0,0.0D0,0.0D0,3.53553390593274D0,-3.53553390593274D0,        199P    149
3.53553390593274D0,3.53553390593274D0;                               199P    150
124,.707106781186547D0,-.707106781186547D0,0.0D0,28.5D0,             201P    151
.707106781186547D0,.707106781186547D0,0.0D0,14.75D0,0.0D0,0.0D0,     201P    152
1.0D0,0.0D0;                                                         201P    153
508,4,0,11,9,1,0,0,11,29,1,0,0,11,30,1,0,0,11,27,1,0;                203P    154
510,193,1,1,203;                                                     205P    155
120,211,209,0.0D0,6.28318530717959D0;                                207P    156
110,27.84D0,10.0D0,-74.8347608719909D0,27.84D0,10.0D0,               209P    157
3.15000000000001D0;                                                  209P    158
110,25.29D0,10.0D0,-74.8347608719909D0,25.29D0,10.0D0,               211P    159
-73.8347608719909D0;                                                 211P    160
100,0.0D0,0.0D0,0.0D0,-2.55D0,3.12284933782575D-16,-2.55D0,          213P    161
3.12284933782575D-16;                                                213P    162
124,1.0D0,0.0D0,0.0D0,25.29D0,0.0D0,1.0D0,0.0D0,10.0D0,0.0D0,        215P    163
0.0D0,1.0D0,0.0D0;                                                   215P    164
508,1,0,11,31,0,0;                                                   217P    165
508,1,0,11,14,0,0;                                                   219P    166
510,207,2,1,217,219;                                                 221P    167
120,227,225,0.0D0,6.28318530717959D0;                                223P    168
110,6.06D0,10.0D0,-74.8347608719909D0,6.06D0,10.0D0,                 225P    169
3.15000000000001D0;                                                  225P    170
110,3.51D0,10.0D0,-74.8347608719909D0,3.51D0,10.0D0,                 227P    171
-73.8347608719909D0;                                                 227P    172
100,0.0D0,0.0D0,0.0D0,-2.55D0,3.12284933782575D-16,-2.55D0,          229P    173
3.12284933782575D-16;                                                229P    174
124,1.0D0,0.0D0,0.0D0,3.51D0,0.0D0,1.0D0,0.0D0,10.0D0,0.0D0,         231P    175
0.0D0,1.0D0,0.0D0;                                                   231P    176
508,1,0,11,32,0,0;                                                   233P    177
508,1,0,11,15,0,0;                                                   235P    178
510,223,2,1,233,235;                                                 237P    179
120,243,241,0.0D0,6.28318530717959D0;                                239P    180
110,6.06D0,0.0D0,-74.8347608719909D0,6.06D0,0.0D0,                   241P    181
3.15000000000001D0;                                                  241P    182
110,3.51D0,0.0D0,-74.8347608719909D0,3.51D0,0.0D0,                   243P    183
-73.8347608719909D0;                                                 243P    184
100,0.0D0,0.0D0,0.0D0,-2.55D0,3.12284933782575D-16,-2.55D0,          245P    185
3.12284933782575D-16;                                                245P    186
124,1.0D0,0.0D0,0.0D0,3.51D0,0.0D0,1.0D0,0.0D0,0.0D0,0.0D0,          247P    187
0.0D0,1.0D0,0.0D0;                                                   247P    188
508,1,0,11,33,0,0;                                                   249P    189
508,1,0,11,16,0,0;                                                   251P    190
510,239,2,1,249,251;                                                 253P    191
120,259,257,0.0D0,6.28318530717959D0;                                255P    192
110,-23.89D0,0.0D0,-74.8347608719909D0,-23.89D0,0.0D0,               257P    193
3.15000000000001D0;                                                  257P    194
110,-26.44D0,0.0D0,-74.8347608719909D0,-26.44D0,0.0D0,               259P    195
-73.8347608719909D0;                                                 259P    196
100,0.0D0,0.0D0,0.0D0,-2.55D0,3.12284933782575D-16,-2.55D0,          261P    197
3.12284933782575D-16;                                                261P    198
124,1.0D0,0.0D0,0.0D0,-26.44D0,0.0D0,1.0D0,0.0D0,0.0D0,0.0D0,        263P    199
0.0D0,1.0D0,0.0D0;                                                   263P    200
508,1,0,11,34,0,0;                                                   265P    201
508,1,0,11,17,0,0;                                                   267P    202
510,255,2,1,265,267;                                                 269P    203
120,275,273,0.0D0,6.28318530717959D0;                                271P    204
110,27.84D0,0.0D0,-74.8347608719909D0,27.84D0,0.0D0,                 273P    205
3.15000000000001D0;                                                  273P    206
110,25.29D0,0.0D0,-74.8347608719909D0,25.29D0,0.0D0,                 275P    207
-73.8347608719909D0;                                                 275P    208
100,0.0D0,0.0D0,0.0D0,-2.55D0,3.12284933782575D-16,-2.55D0,          277P    209
3.12284933782575D-16;                                                277P    210
124,1.0D0,0.0D0,0.0D0,25.29D0,0.0D0,1.0D0,0.0D0,0.0D0,0.0D0,         279P    211
0.0D0,1.0D0,0.0D0;                                                   279P    212
508,1,0,11,35,0,0;                                                   281P    213
508,1,0,11,18,0,0;                                                   283P    214
510,271,2,1,281,283;                                                 285P    215
120,291,289,0.0D0,6.28318530717959D0;                                287P    216
110,6.06D0,-10.0D0,-74.8347608719909D0,6.06D0,-10.0D0,               289P    217
3.15000000000001D0;                                                  289P    218
110,3.51D0,-10.0D0,-74.8347608719909D0,3.51D0,-10.0D0,               291P    219
-73.8347608719909D0;                                                 291P    220
100,0.0D0,0.0D0,0.0D0,-2.55D0,3.12284933782575D-16,-2.55D0,          293P    221
3.12284933782575D-16;                                                293P    222
124,1.0D0,0.0D0,0.0D0,3.51D0,0.0D0,1.0D0,0.0D0,-10.0D0,0.0D0,        295P    223
0.0D0,1.0D0,0.0D0;                                                   295P    224
508,1,0,11,36,0,0;                                                   297P    225
508,1,0,11,19,0,0;                                                   299P    226
510,287,2,1,297,299;                                                 301P    227
120,307,305,0.0D0,6.28318530717959D0;                                303P    228
110,27.84D0,-10.0D0,-74.8347608719909D0,27.84D0,-10.0D0,             305P    229
3.15000000000001D0;                                                  305P    230
110,25.29D0,-10.0D0,-74.8347608719909D0,25.29D0,-10.0D0,             307P    231
-73.8347608719909D0;                                                 307P    232
100,0.0D0,0.0D0,0.0D0,-2.55D0,3.12284933782575D-16,-2.55D0,          309P    233
3.12284933782575D-16;                                                309P    234
124,1.0D0,0.0D0,0.0D0,25.29D0,0.0D0,1.0D0,0.0D0,-10.0D0,0.0D0,       311P    235
0.0D0,1.0D0,0.0D0;                                                   311P    236
508,1,0,11,37,0,0;                                                   313P    237
508,1,0,11,20,0,0;                                                   315P    238
510,303,2,1,313,315;                                                 317P    239
116,33.5D0,-19.75D0,0.0D0,0;                                         319P    240
123,1.0D0,0.0D0,0.0D0;                                               321P    241
190,319,321,325;                                                     323P    242
123,0.0D0,1.0D0,0.0D0;                                               325P    243
110,33.5D0,14.75D0,0.0D0,33.5D0,-14.75D0,0.0D0;                      327P    244
508,4,0,11,4,0,0,0,11,38,0,0,0,11,29,0,0,0,11,8,0,0;                 329P    245
510,323,1,1,329;                                                     331P    246
116,0.0D0,0.0D0,0.0D0,0;                                             333P    247
123,0.0D0,0.0D0,-1.0D0;                                              335P    248
190,333,335,339;                                                     337P    249
123,-1.0D0,0.0D0,0.0D0;                                              339P    250
508,8,0,11,3,0,0,0,11,7,1,0,0,11,22,0,0,0,11,24,1,0,0,11,26,0,0,     341P    251
0,11,28,1,0,0,11,30,0,0,0,11,38,1,0;                                 341P    252
508,1,0,11,31,1,0;                                                   343P    253
508,1,0,11,32,1,0;                                                   345P    254
508,1,0,11,33,1,0;                                                   347P    255
508,1,0,11,34,1,0;                                                   349P    256
508,1,0,11,35,1,0;                                                   351P    257
508,1,0,11,36,1,0;                                                   353P    258
508,1,0,11,37,1,0;                                                   355P    259
510,337,8,1,341,343,345,347,349,351,353,355;                         357P    260
514,17,29,1,47,1,119,1,137,1,153,1,171,1,187,1,205,1,221,1,237,      359P    261
1,253,1,269,1,285,1,301,1,317,1,331,1,357,1;                         359P    262
186,359,1,0;                                                         361P    263
314,89.8039221763611D0,89.9999976158142D0,89.9999976158142D0,;       363P    264
S      1G      4D    364P    264                                        T      1
